<svg xmlns="http://www.w3.org/2000/svg" viewBox="0 0 195 155"><defs><style>.cls-1{fill:#bebdd0;}.cls-2{fill:#726f99;}.cls-3{fill:#262262;}.cls-4{fill:#282464;}.cls-5,.cls-6{fill:none;}.cls-5{stroke:#fff;stroke-linecap:round;stroke-linejoin:round;}.cls-7{fill:#fff;}.cls-8{fill:#5c5989;}</style></defs><title>assembly association</title><g id="Layer_17" data-name="Layer 17"><path class="cls-1" d="M72.69,9.77s.52-3.86,1.09-3.53.4,9.55,4,14.75c1.86,2.66,9.68,3.67,12.29-2,1.36-3,2.22-11.46,3.22-11.73s1,6.46,1.09,7.63.1,10-1.28,11.44-9.77,3.08-12.6,3.11-5.73.83-6.67-2.62a59.44,59.44,0,0,1-1.41-11.19A37,37,0,0,1,72.69,9.77Z"/><path class="cls-1" d="M107.69,22.66c1.12,1.55,3.55,1.88,5.25,1.85,2.1,0,5.07-1.19,6.09-3.32,2.29-4.75,1.82-11,1.85-12.92a2.34,2.34,0,0,1,.12-.84.72.72,0,0,1,.59-.5c.35,0,.61.33.72.68a17.76,17.76,0,0,1,.4,4.06,33.68,33.68,0,0,0,.43,4.37,17.09,17.09,0,0,1,.17,3.85,35,35,0,0,1-.33,4,4.79,4.79,0,0,1-.82,2.54c-1.29,1.31-9.22,2.84-11.89,2.88s-5.42.77-6.33-2.4a36.72,36.72,0,0,1-1.08-6.17c-.23-2.2-.77-4.34-.8-6.58a33,33,0,0,1,.64-5.95.25.25,0,0,1,.06-.15.2.2,0,0,1,.15,0,.7.7,0,0,1,.62.31C105.48,11.71,105.86,20.14,107.69,22.66Z"/><circle class="cls-1" cx="97.5" cy="77.5" r="45.85"/><path class="cls-2" d="M96.69,64.26c-.69,2.8-1.27,7.93-7.16,9.59s-11.9-2.37-15.84-7.78-5.42-12.64-5.6-17.79,1.82-17.53,2.18-20.68-.08-10.39-.21-14a7.48,7.48,0,0,1,.2-2.05c-.73,1.73-2.16,5.47-2.22,8-.09,3.35.72,3.47.23,7.36C68,29.17,67,34.07,65.84,46.16,64.36,61.4,72.78,74.7,84,75.94c12,1.32,13.09-13.83,13.11-14.29C97,62.74,96.84,63.65,96.69,64.26Z"/><path class="cls-3" d="M97.7,47.23C97.24,43.05,95.24,35,95,31.9a97.48,97.48,0,0,1,.44-11.48c.73-9.73,0-13.75-.88-14.08C93,5.73,93,9.49,92.66,13.45s1.07,11.44-5.23,12.48c-4.14.69-10.58,2.64-11.94-1.28C73,17.49,73.78,6.24,73.78,6.24a9.54,9.54,0,0,0-3.52,5.27,7.48,7.48,0,0,0-.2,2.05c.13,3.65.57,10.89.21,14S67.9,43.13,68.09,48.28s1.67,12.39,5.6,17.79,9.94,9.44,15.84,7.78,6.47-6.79,7.16-9.59c.15-.61.31-1.52.46-2.61A66.42,66.42,0,0,0,97.7,47.23Z"/><path class="cls-2" d="M128.45,50.37c.05,1.27.06,2.52,0,3.75-.27,5.39-3,15.4-12.55,19s-12.32-1.61-14-8.54a49.26,49.26,0,0,1-1.17-13c-.4,2.47-3.63,24.54,9,25.32,7.63.48,14.29-6.64,17.16-11.64C130.52,58.86,129,52.15,128.45,50.37Z"/><path class="cls-3" d="M128.45,50.37c-.16-4.33-.84-8.86-1.22-13s-.44-5.84-.94-10.23-.83-9-2.57-13.28a5.69,5.69,0,0,0-.94-1.69.32.32,0,0,0-.22-.14c-.2,0-.25.29-.22.49a30.07,30.07,0,0,1,.06,8.42c-.66,3.76-2.94,6.41-6.72,6.43-2.58,0-7.12.73-9-1.66a12,12,0,0,1-1.39-2.48c-1.13-2.47-1.11-11.73-1.77-14.07-.25-.87-.48-1.22-.68-1.22-.57,0-1,2.59-1.13,3.63a30.83,30.83,0,0,0-.46,7.11c.4,5.7,2.57,12.24.87,21.09a76.46,76.46,0,0,0-1.35,11.81,49.26,49.26,0,0,0,1.17,13c1.68,6.93,4.47,12.09,14,8.54s12.28-13.57,12.55-19C128.51,52.89,128.5,51.64,128.45,50.37Z"/><polygon class="cls-2" points="177.47 97.32 177.47 97.32 177.47 97.32 177.47 97.32"/><path class="cls-2" d="M156.78,103.33a255,255,0,0,1-29.25-.66c-6.87-.6-16-1.27-21.23-6.16h0c1.62,2.82,5.84,7.08,15.44,8,12.19,1.24,28.12-.53,34.58-.19s9.94,1.77,15.11.75c2.92-.57,4.47-3,5.26-5C172,105.24,163.05,103.13,156.78,103.33Z"/><path class="cls-4" d="M177.47,97.32h0c-.7,0-1.49,1-2.64,1.48-3.11,1.38-6.46,1.11-9.87.93-3.23-.17-6.69.34-8.43-2.69-2.16-3.78-2.15-8.25-2.08-12.51a6,6,0,0,1,.46-2.68c.59-1.14,1.55-1,2.5-1.54.31-.18,1.27-1,1-1.45,0,0-7.7-1.3-10.43-1.65-3.18-.39-6.36-.73-9.55-1-4-.39-8.64-1.28-12.63-1a30.6,30.6,0,0,0-12.72,3.68c-6.19,3.41-12.76,12.07-6.82,17.68,5.18,4.89,14.36,5.56,21.23,6.16a255,255,0,0,0,29.25.66c6.27-.2,15.23,1.91,19.91-3.19.08-.09.17-.16.25-.25C177.57,99.15,177.91,97.61,177.47,97.32Z"/><path class="cls-1" d="M163.34,93c1,1.83,4.07,2.8,6,2.76a8.25,8.25,0,0,0,7.1-4.76.82.82,0,0,0,.07-.51c-.14-.46-.83-.41-1.3-.27a40.73,40.73,0,0,1-6.38,1.38c-1.77.25-4.24-.08-5.78.75A2.6,2.6,0,0,0,163.34,93Z"/><path class="cls-5" d="M124,113.81a.92.92,0,0,0-.89-1,1,1,0,0,0-1,.88"/><path class="cls-6" d="M104.36,127.54a27.27,27.27,0,0,1-2.57-5.13A15.34,15.34,0,0,0,104.36,127.54Z"/><path class="cls-2" d="M177.81,122.48a13.66,13.66,0,0,1-1.76,6.88c-1.73,2.71-6.12,3.95-9,4.3-4.57.56-10.34-.65-15.2,0-6.76.89-16.08,3.22-27.36,3.49-5.38.12-14.38-.72-20.11-9.59a15.34,15.34,0,0,1-2.57-5.13h0a10,10,0,0,1-.47-1.69,29.17,29.17,0,0,0,.81,7.15c1,3.47,7.24,12.71,20.35,12.86s24.79-3.57,31.66-4,13,1.84,20.2-1.73C179.25,132.59,178.45,125.62,177.81,122.48Z"/><path class="cls-4" d="M101.32,119.37c0-.51,0-.83,0-.83A5.42,5.42,0,0,0,101.32,119.37Z"/><path class="cls-4" d="M177.68,119.87c-.3-.62-1.22,4-5.41,6.65-2.22,1.39-6.4,1.61-13.83,2.07-1.22.08-3.7.39-4.69-.57a11.62,11.62,0,0,1-2.42-4.91,21.11,21.11,0,0,1,.15-7.09c.29-1.46,2-5.8,3.66-6.42l.12,0c.73-.26,4.63-1.42,1.82-2-6-1.31-11.13-.57-16.18-.16-3.84.31-25.72.6-32.09,3.34-4.9,2.1-8.42,5.21-7.49,10,0-.53,0-1,0-1.35a5.42,5.42,0,0,1,0-.83s0,.32,0,.83a13.24,13.24,0,0,0,.47,3,27.27,27.27,0,0,0,2.57,5.13c5.73,8.87,14.73,9.71,20.11,9.59,11.28-.27,20.6-2.6,27.36-3.49,4.86-.63,10.63.58,15.2,0,2.9-.35,7.29-1.59,9-4.3a13.66,13.66,0,0,0,1.76-6.88A19.17,19.17,0,0,0,177.68,119.87Z"/><path class="cls-4" d="M101.79,122.41a13.24,13.24,0,0,1-.47-3c0,.36,0,.82,0,1.35a10,10,0,0,0,.47,1.69Z"/><path class="cls-1" d="M162.31,123.29c1.46,1.51,4.67,1.66,6.54,1.11a8.22,8.22,0,0,0,5.62-6.42.91.91,0,0,0-.07-.52c-.26-.4-.91-.18-1.33.08a41.64,41.64,0,0,1-5.79,3c-1.65.69-4.12,1-5.39,2.22A2.43,2.43,0,0,0,162.31,123.29Z"/><path class="cls-7" d="M136.63,114.5a.76.76,0,0,0-.8-.7.74.74,0,0,0-.7.79,96.63,96.63,0,0,1-.08,10.73.74.74,0,0,0,.71.79h0a.75.75,0,0,0,.74-.71A97,97,0,0,0,136.63,114.5Z"/><path class="cls-7" d="M131.74,114.44a.75.75,0,1,0-1.49.11,95.93,95.93,0,0,1,.07,10.73.74.74,0,0,0,.72.78h0a.75.75,0,0,0,.75-.72A96.39,96.39,0,0,0,131.74,114.44Z"/><path class="cls-7" d="M126.78,114.81l0-.36a.77.77,0,0,0-.79-.7.76.76,0,0,0-.71.8l0,.35a88.25,88.25,0,0,1,.23,10.13.75.75,0,0,0,.71.78h0a.75.75,0,0,0,.75-.71A88,88,0,0,0,126.78,114.81Z"/><path class="cls-1" d="M124.75,111.88a.75.75,0,0,1-.08-1.5l1.66-.16a.75.75,0,0,1,.15,1.49l-1.65.17Z"/><path class="cls-1" d="M125.21,128.92a.75.75,0,0,1-.08-1.5l1.66-.17a.75.75,0,1,1,.15,1.49l-1.66.17Z"/><path class="cls-1" d="M129.8,111.87a.76.76,0,0,1-.75-.67.77.77,0,0,1,.67-.83l1.66-.16a.75.75,0,1,1,.15,1.49l-1.65.17Z"/><path class="cls-1" d="M130.31,129.33a.75.75,0,0,1-.08-1.5l1.66-.17a.75.75,0,0,1,.15,1.49l-1.66.17Z"/><path class="cls-1" d="M135.44,129.2a.75.75,0,0,1-.08-1.5l1.66-.16a.74.74,0,0,1,.82.67.75.75,0,0,1-.67.82l-1.66.17Z"/><path class="cls-1" d="M134.55,112a.75.75,0,0,1-.08-1.5l1.66-.17a.75.75,0,0,1,.82.67.76.76,0,0,1-.67.83l-1.65.17Z"/><path class="cls-7" d="M138.82,83.72A.78.78,0,0,0,138,83a.75.75,0,0,0-.72.78,63.76,63.76,0,0,1-.35,8.61.74.74,0,0,0,.67.82h.07a.76.76,0,0,0,.75-.68A63.42,63.42,0,0,0,138.82,83.72Z"/><path class="cls-7" d="M133.94,83.38a.75.75,0,1,0-1.49.08,63.55,63.55,0,0,1-.2,8.63.75.75,0,0,0,.68.81H133a.75.75,0,0,0,.75-.69A63.25,63.25,0,0,0,133.94,83.38Z"/><path class="cls-7" d="M129,83.39V83.1a.79.79,0,0,0-.78-.72.75.75,0,0,0-.72.78v.3a56.65,56.65,0,0,1,0,8.14.76.76,0,0,0,.67.82h.08a.74.74,0,0,0,.74-.68A58.23,58.23,0,0,0,129,83.39Z"/><path class="cls-1" d="M145.45,98.31a2.1,2.1,0,0,1-.61-.09,2.32,2.32,0,0,1-1.55-1.62c-.68-2.19,1-6,1.68-7.45a8.38,8.38,0,0,1-1.67-3.94c-.23-1.87.41-3.34,1.73-3.94a3.08,3.08,0,0,1,3.53.77c1.05,1.17,1,2.94,0,4.73a21.5,21.5,0,0,1-1.69,2.33c.36.44.75.89,1.15,1.36a38.43,38.43,0,0,1,3.18,4,.75.75,0,0,1-.2,1,.76.76,0,0,1-1.05-.2,34.07,34.07,0,0,0-2.52-3.26,8.07,8.07,0,0,1,.22,4.89A2.38,2.38,0,0,1,145.45,98.31Zm.16-6.94c-.62,1.56-1.26,3.72-.88,4.84a.84.84,0,0,0,.56.58.88.88,0,0,0,.92-.4C146.74,95.08,146.08,92.82,145.61,91.37Zm.64-8.86a1.35,1.35,0,0,0-.6.13c-.7.31-1,1.19-.86,2.39a6.54,6.54,0,0,0,1.11,2.83A18.43,18.43,0,0,0,147.23,86c.73-1.22.81-2.3.21-3A1.61,1.61,0,0,0,146.25,82.51Z"/><path class="cls-1" d="M128.79,95h-.1L127,94.77a.75.75,0,1,1,.19-1.49l1.65.22a.75.75,0,0,1,.65.84A.74.74,0,0,1,128.79,95Z"/><path class="cls-1" d="M133.79,95.39h-.1L132,95.17a.74.74,0,0,1-.64-.84.73.73,0,0,1,.84-.65l1.65.22a.74.74,0,0,1,.64.84A.75.75,0,0,1,133.79,95.39Z"/><path class="cls-1" d="M138.46,95.85h-.09l-1.65-.22a.75.75,0,1,1,.19-1.48l1.65.21a.75.75,0,0,1-.1,1.5Z"/><path class="cls-1" d="M128.53,81.25h-.07l-1.66-.15a.75.75,0,0,1,.13-1.5l1.66.15a.75.75,0,0,1,.68.82A.74.74,0,0,1,128.53,81.25Z"/><path class="cls-1" d="M133.54,81.44h-.07l-1.66-.15a.76.76,0,0,1-.68-.81.73.73,0,0,1,.82-.68l1.66.15a.75.75,0,0,1-.07,1.49Z"/><path class="cls-1" d="M138.23,81.71h-.07l-1.66-.15a.75.75,0,1,1,.14-1.5l1.65.15a.75.75,0,0,1-.06,1.5Z"/><path class="cls-7" d="M89.69,46.94a110.78,110.78,0,0,0-11.94.11.75.75,0,0,0,0,1.5h0a108,108,0,0,1,11.79-.11.73.73,0,0,0,.77-.73A.74.74,0,0,0,89.69,46.94Z"/><path class="cls-7" d="M89.38,51.38a113.74,113.74,0,0,0-12,.16.75.75,0,0,0,.06,1.5h.06a110.44,110.44,0,0,1,11.79-.16.77.77,0,0,0,.78-.73A.76.76,0,0,0,89.38,51.38Z"/><path class="cls-7" d="M89.3,55.64a103.51,103.51,0,0,0-11.28,0h-.4a.75.75,0,0,0,0,1.5h0l.4,0a103.07,103.07,0,0,1,11.12,0,.75.75,0,1,0,.11-1.5Z"/><path class="cls-1" d="M89.56,42.79a6,6,0,0,1-2.92-.85,30.69,30.69,0,0,1-3.13-2.15.77.77,0,0,1-.36.18,13.5,13.5,0,0,0-1.61.54c-2.13.8-5.06,1.89-7,1.22a2.58,2.58,0,0,1-2-2.58,2.55,2.55,0,0,1,2-2.32c2.82-.61,6.74.46,8.73,1.21l5.3-1.13c3-.55,4.06.8,4.38,1.41a3,3,0,0,1-.71,3.45A3.65,3.65,0,0,1,89.56,42.79Zm-4.4-3.64a23,23,0,0,0,2.21,1.48c1.52.85,2.92.87,3.76.06A1.48,1.48,0,0,0,91.54,39c-.33-.65-1.36-.88-2.75-.63Zm-8.82-1a7.79,7.79,0,0,0-1.56.15,1,1,0,0,0-.77.94c0,.47.32.86,1,1.08,1.46.5,4.31-.57,6-1.21l.3-.11A18.52,18.52,0,0,0,76.34,38.14Z"/><path class="cls-1" d="M74.75,58.65A.75.75,0,0,1,74,58l-.13-1.7a.76.76,0,0,1,.69-.81.75.75,0,0,1,.8.69l.13,1.71a.74.74,0,0,1-.69.8Z"/><path class="cls-1" d="M91.66,58.76a.75.75,0,0,1-.74-.69l-.13-1.71a.75.75,0,0,1,1.49-.11l.13,1.7a.75.75,0,0,1-.69.81Z"/><path class="cls-1" d="M75,54.2a.74.74,0,0,1-.75-.7l-.1-1.71a.75.75,0,0,1,.71-.79.76.76,0,0,1,.79.71l.1,1.7a.75.75,0,0,1-.71.79Z"/><path class="cls-1" d="M91.94,53.89a.75.75,0,0,1-.75-.7l-.1-1.71a.76.76,0,0,1,.71-.79.77.77,0,0,1,.79.7l.1,1.71a.76.76,0,0,1-.71.79Z"/><path class="cls-1" d="M92.12,49.36a.76.76,0,0,1-.75-.7L91.28,47a.74.74,0,0,1,.7-.79.76.76,0,0,1,.79.7l.1,1.71a.75.75,0,0,1-.71.79Z"/><path class="cls-1" d="M75,49.34a.75.75,0,0,1-.75-.7l-.1-1.71a.75.75,0,0,1,.71-.79.78.78,0,0,1,.79.7l.1,1.71a.76.76,0,0,1-.71.79Z"/><path class="cls-7" d="M119.16,44.49a77.76,77.76,0,0,0-9.79-.78h0a.76.76,0,0,0-.75.75.75.75,0,0,0,.75.75A75.63,75.63,0,0,1,119,46h.1a.74.74,0,0,0,.74-.65A.75.75,0,0,0,119.16,44.49Z"/><path class="cls-7" d="M118.7,49.47a75.33,75.33,0,0,0-9.81-.61.74.74,0,0,0-.74.76.75.75,0,0,0,.75.74h0a76,76,0,0,1,9.62.6h.09a.75.75,0,0,0,.08-1.5Z"/><path class="cls-7" d="M118.34,54.24a69.23,69.23,0,0,0-9.28-.42h-.31a.74.74,0,0,0-.75.74.76.76,0,0,0,.75.76h.31a68.38,68.38,0,0,1,9.09.4h.1a.75.75,0,0,0,.09-1.49Z"/><path class="cls-1" d="M121.33,41.77c-2.52,0-6-1.46-7.22-2.09a10.34,10.34,0,0,1-4.51,1.4c-3,.2-4-1.28-4.27-1.92a2.68,2.68,0,0,1,.77-3c1.3-1.16,3.33-1.15,5.43,0a27,27,0,0,1,2.62,1.78c.55-.33,1.1-.7,1.69-1.09a44.18,44.18,0,0,1,4.66-2.77.74.74,0,0,1,1,.33.75.75,0,0,1-.33,1,35.67,35.67,0,0,0-3.59,2.09,10.59,10.59,0,0,1,5.34,0,2.27,2.27,0,0,1,1.24,1.25,1.94,1.94,0,0,1,0,1.53,2.36,2.36,0,0,1-1.64,1.33A4.57,4.57,0,0,1,121.33,41.77Zm-4.58-2.58c1.77.67,4.16,1.37,5.45,1a.9.9,0,0,0,.61-.47.55.55,0,0,0,0-.35.79.79,0,0,0-.41-.43C120.92,38.36,118.43,38.82,116.75,39.19Zm-8.24-2.43a2.08,2.08,0,0,0-1.41.48,1.19,1.19,0,0,0-.38,1.35c.29.71,1.33,1.08,2.79,1a8.46,8.46,0,0,0,3.2-.87c-.6-.43-1.35-.95-1.91-1.27A4.87,4.87,0,0,0,108.51,36.76Z"/><path class="cls-1" d="M105.63,55.69h0a.74.74,0,0,1-.73-.77l0-1.71a.72.72,0,0,1,.77-.72.74.74,0,0,1,.73.77l0,1.7A.75.75,0,0,1,105.63,55.69Z"/><path class="cls-1" d="M120.23,57.06a.75.75,0,0,1-.75-.73l0-1.71a.74.74,0,0,1,.72-.77.73.73,0,0,1,.78.73l0,1.71a.75.75,0,0,1-.73.77Z"/><path class="cls-1" d="M106.67,51.17a.76.76,0,0,1-.75-.73l0-1.71a.74.74,0,0,1,.72-.77.76.76,0,0,1,.78.73l0,1.7a.75.75,0,0,1-.72.78Z"/><path class="cls-1" d="M120.89,51.86a.76.76,0,0,1-.75-.73l0-1.7a.75.75,0,0,1,.73-.78.72.72,0,0,1,.77.73l0,1.71a.74.74,0,0,1-.72.77Z"/><path class="cls-1" d="M121.08,46.6a.75.75,0,0,1-.75-.73l0-1.71a.74.74,0,0,1,.72-.77h0a.76.76,0,0,1,.75.73l0,1.7a.76.76,0,0,1-.73.78Z"/><path class="cls-1" d="M107.08,46.31a.75.75,0,0,1-.75-.72l0-1.71a.74.74,0,0,1,.72-.77.73.73,0,0,1,.78.72l0,1.71a.75.75,0,0,1-.72.77Z"/><path class="cls-2" d="M90.15,97.63C88.68,100,79.5,103.2,68,102.83c-4.31-.13-16.22-1.32-20.54-1.35-12.17-.07-11.54,1-17,1-6.27,0-11.39-2.17-12.56-7.3.48,2.47,2,8.28,6.09,9.36,5.18,1.38,9.06-.19,15.58-.36s18.59,1.85,31,1.25c14.28-.7,18.17-4,19.66-7.8Z"/><path class="cls-2" d="M17.84,95c-.06-.31-.12-.62-.15-.94C17.69,94,17.73,94.4,17.84,95Z"/><path class="cls-3" d="M17.88,95.17a1.29,1.29,0,0,1,0-.19A1.29,1.29,0,0,0,17.88,95.17Z"/><path class="cls-3" d="M81.39,78.76c-4.61-2.63-9.88-2.78-15.13-3.22-1.81-.16-12.37-.46-22.33-1-5.11-.26-7.45-.85-7.81-.25-.6,1.67,2.15,1.27,2.74,2.75.83,2.11-4.06.09-4.46,3.17-.6,4.64,12.09,13.81-4,15.83-12,1.51-13.38-7.93-12.73-2,0,.32.09.63.15.94a1.29,1.29,0,0,0,0,.19c1.17,5.13,6.29,7.32,12.56,7.3,5.51,0,4.88-1.06,17.05-1,4.32,0,16.23,1.22,20.54,1.35,11.47.37,20.65-2.81,22.12-5.2h0C94.17,91.08,87.1,82,81.39,78.76Z"/><path class="cls-2" d="M93.24,122.64c-.75,9.3-8.31,13.49-18.73,15.8-6.46,1.43-12.8,0-19.17-1.77A131.06,131.06,0,0,0,32,132.47c-3.8-.26-7.76-.57-11-2.45a16.66,16.66,0,0,1-5.21-5.55c0,2.6.53,7.67,4.28,9.34,5.12,2.29,10.13,1.82,16.9,2.82s16.16,3.7,29.1,4.71c17,1.32,26-9.11,26.6-11.61A24.25,24.25,0,0,0,93.24,122.64Z"/><path class="cls-3" d="M82.82,112.81c-7.93-3.11-17.39-3.5-25.84-4.54q-4.84-.58-9.7-1.08c-2-.2-6.86-1.14-8.74-.3a2.57,2.57,0,0,1,.91.94c1.42,2.31-3.11.28-3.81,3.28-1.27,5.47,9.31,18.23-1.93,16.55-7.48-1.12-11.74-1.91-13.44-3.94-1-1.16-3.58-8.35-5.39-5-.88,1.63-.3,3.78.86,5.78A16.66,16.66,0,0,0,21,130c3.28,1.88,7.24,2.19,11,2.45a131.06,131.06,0,0,1,23.35,4.2c6.37,1.77,12.71,3.2,19.17,1.77,10.42-2.31,18-6.5,18.73-15.8C93.66,117.49,87,114.45,82.82,112.81Z"/><path class="cls-1" d="M21.08,115.89c-.69,1.78.52,4.24,1.77,5.38a7.91,7.91,0,0,0,7.84,1.23.88.88,0,0,0,.41-.29c.24-.38-.22-.76-.62-.95a34.69,34.69,0,0,1-5-3c-1.27-.91-2.58-2.6-4.14-3A3.1,3.1,0,0,0,21.08,115.89Z"/><path class="cls-1" d="M19.9,84.74c-.19,1.67,1.41,3.69,2.74,4.53a6.9,6.9,0,0,0,7,0,.66.66,0,0,0,.28-.32c.13-.37-.36-.64-.74-.76a33.23,33.23,0,0,1-4.94-1.92c-1.3-.63-2.8-2-4.23-2.08A2.1,2.1,0,0,0,19.9,84.74Z"/><path class="cls-1" d="M46.82,129.47a3,3,0,0,1-2.36-1.22c-1.12-1.48-.93-3.63.5-5.76a35.05,35.05,0,0,1,2.54-3.11c0-.22-.07-.5-.12-.82-.37-2.28-1-6.1.06-8.25a2.43,2.43,0,0,1,1.42-1.2,2.1,2.1,0,0,1,1.62.1,2.51,2.51,0,0,1,1.27,1.85c.51,2.7-1.84,7.19-2.77,8.76a1.09,1.09,0,0,1-.08.15,11,11,0,0,1,1.15,5c-.06,3.26-1.7,4.15-2.4,4.38A2.93,2.93,0,0,1,46.82,129.47Zm1-8.2a25.88,25.88,0,0,0-1.62,2c-1.06,1.58-1.26,3.08-.55,4a1.4,1.4,0,0,0,1.52.56c.83-.27,1.34-1.38,1.37-3A8.8,8.8,0,0,0,47.83,121.27Zm1.74-10.78a1,1,0,0,0-.24,0,1,1,0,0,0-.54.43c-.69,1.44-.4,4.22-.11,6.25.9-1.86,1.9-4.45,1.59-5.93a1,1,0,0,0-.5-.74A.39.39,0,0,0,49.57,110.49Z"/><path class="cls-1" d="M68.12,114.21h0l-1.77-.1a.75.75,0,1,1,.08-1.5l1.77.1a.75.75,0,0,1,0,1.5Z"/><path class="cls-7" d="M56.7,113.84a.76.76,0,0,0-.9.57,93.84,93.84,0,0,0-1.88,10.93.75.75,0,0,0,.67.82h.08a.75.75,0,0,0,.74-.68,91.2,91.2,0,0,1,1.86-10.76A.75.75,0,0,0,56.7,113.84Z"/><path class="cls-7" d="M61.65,114.64a.75.75,0,0,0-.89.59,93.08,93.08,0,0,0-1.72,11,.75.75,0,0,0,.68.81h.06a.74.74,0,0,0,.75-.68,92.45,92.45,0,0,1,1.7-10.8A.77.77,0,0,0,61.65,114.64Z"/><path class="cls-7" d="M66.66,115.67a.75.75,0,0,0-.89.57,88,88,0,0,0-1.47,10.41l0,.34a.75.75,0,0,0,.67.82H65a.75.75,0,0,0,.74-.67l0-.34a85.1,85.1,0,0,1,1.43-10.23A.75.75,0,0,0,66.66,115.67Z"/><path class="cls-1" d="M65.78,131.4h0L64,131.3a.74.74,0,0,1-.7-.79.75.75,0,0,1,.79-.71l1.77.1a.75.75,0,0,1,0,1.5Z"/><path class="cls-1" d="M60.48,130.59h0l-1.77-.1a.75.75,0,0,1-.71-.79.76.76,0,0,1,.79-.7l1.77.09a.76.76,0,0,1,.71.79A.75.75,0,0,1,60.48,130.59Z"/><path class="cls-1" d="M62.83,113h0l-1.77-.1a.75.75,0,1,1,.08-1.49l1.77.1a.75.75,0,0,1,0,1.49Z"/><path class="cls-1" d="M57.42,112.27h0l-1.77-.1a.74.74,0,0,1-.7-.79.74.74,0,0,1,.79-.71l1.77.1a.75.75,0,0,1,0,1.5Z"/><path class="cls-1" d="M55.52,129.68h0l-1.77-.1a.75.75,0,1,1,.08-1.5l1.77.1a.75.75,0,0,1,0,1.5Z"/><path class="cls-7" d="M58.07,80.85a.75.75,0,0,0-.84.65,69.45,69.45,0,0,0-.45,9.6.76.76,0,0,0,.75.75h0a.75.75,0,0,0,.74-.76,69.87,69.87,0,0,1,.43-9.4A.74.74,0,0,0,58.07,80.85Z"/><path class="cls-7" d="M63.27,80.89a.75.75,0,0,0-.85.64,70.67,70.67,0,0,0-.61,9.61.75.75,0,0,0,.74.75h0a.75.75,0,0,0,.75-.75,69.4,69.4,0,0,1,.59-9.4A.75.75,0,0,0,63.27,80.89Z"/><path class="cls-7" d="M68.55,81a.77.77,0,0,0-.84.65l0,.32A66,66,0,0,0,66.93,91a.75.75,0,0,0,.75.75h0a.76.76,0,0,0,.75-.76,63.89,63.89,0,0,1,.73-8.86l0-.32A.76.76,0,0,0,68.55,81Z"/><path class="cls-1" d="M70,79.54h-.08l-1.75-.18a.75.75,0,0,1-.67-.82.74.74,0,0,1,.82-.67L70,78a.75.75,0,0,1-.07,1.5Z"/><path class="cls-1" d="M68.65,94.5h-.08l-1.75-.18A.75.75,0,1,1,67,92.83l1.75.17a.75.75,0,0,1-.07,1.5Z"/><path class="cls-1" d="M64.59,79.44h-.07l-1.76-.18a.75.75,0,1,1,.15-1.49l1.76.18a.75.75,0,0,1-.08,1.49Z"/><path class="cls-1" d="M63.21,94.77h-.08l-1.75-.18a.75.75,0,1,1,.15-1.49l1.75.17a.74.74,0,0,1,.67.82A.75.75,0,0,1,63.21,94.77Z"/><path class="cls-1" d="M57.77,94.57h-.08l-1.75-.17a.75.75,0,0,1,.15-1.5l1.75.18a.75.75,0,0,1-.07,1.5Z"/><path class="cls-1" d="M59.54,79.49h-.08l-1.75-.17a.75.75,0,0,1,.15-1.5l1.76.18a.75.75,0,0,1-.08,1.5Z"/><path class="cls-1" d="M49,93.74a2.06,2.06,0,0,1-.85-.18,2.3,2.3,0,0,1-1.34-1.76c-.43-2.31,1.75-6.12,2.66-7.45a8.41,8.41,0,0,1-1.17-4.19c0-2,.86-3.37,2.27-3.81a3,3,0,0,1,3.37,1.17c.91,1.3.68,3.1-.62,4.81a27.33,27.33,0,0,1-2,2.2c.31.49.64,1,1,1.52a40,40,0,0,1,2.65,4.44.76.76,0,0,1-.34,1,.75.75,0,0,1-1-.34,35.12,35.12,0,0,0-2.12-3.62c.24,1.66.35,3.65-.41,5A2.4,2.4,0,0,1,49,93.74Zm.81-7.07c-.84,1.54-1.78,3.71-1.52,4.9a.82.82,0,0,0,.48.63.9.9,0,0,0,1-.33C50.42,90.58,50.05,88.21,49.77,86.67Zm1.63-9a1.52,1.52,0,0,0-.42.06c-.77.24-1.21,1.11-1.22,2.38a6.83,6.83,0,0,0,.74,3,20.63,20.63,0,0,0,1.58-1.75c.9-1.18,1.12-2.29.59-3A1.56,1.56,0,0,0,51.4,77.72Z"/><path class="cls-1" d="M143.59,130.52h-.13a2.09,2.09,0,0,1-1.84-1.12c-1.57-2.85,1.67-10.45,2-11v0c-.06-.21-.15-.48-.25-.8-.72-2.18-1.92-5.85-1.29-8.13a2.34,2.34,0,0,1,1.18-1.44,2,2,0,0,1,1.55-.14,2.5,2.5,0,0,1,1.49,1.57c.95,2.56-.53,7.41-1.15,9.11a.48.48,0,0,1,0,.17c.86,1.38,2.28,7.8.76,10.48A2.52,2.52,0,0,1,143.59,130.52Zm.68-9.91c-.89,2.39-2.12,6.63-1.33,8.06a.62.62,0,0,0,.58.34,1.07,1.07,0,0,0,1-.6C145.53,126.71,144.87,122.67,144.27,120.61Zm-.05-11.39a.54.54,0,0,0-.26.07.93.93,0,0,0-.43.51c-.41,1.5.28,4.13.89,6.07.52-2,1-4.64.46-6a1,1,0,0,0-.56-.63Z"/><path class="cls-8" d="M118.78,79.8c-2.28.19-4.67,1.55-6.63,2.93-3.15,2.23-6.49,7.89-3.47,11.56,2.64,3.2,7.31,3.64,10.81,4l6.08-5.75-.09-9.95Z"/><path class="cls-8" d="M117,130.23c-2.54,0-9.22-.49-12.48-10-1.31-3.83,3.15-6.72,4.74-7.42a25.65,25.65,0,0,1,7.17-1.53l6.69,3.36.67,11.27Z"/></g></svg>