<svg xmlns="http://www.w3.org/2000/svg" viewBox="0 0 195 155"><defs><style>.cls-1{fill:#d3c5e0;}.cls-2{fill:none;}.cls-3{fill:#916fb2;}.cls-4{fill:#6c3f99;}.cls-5{fill:#9f82bd;}</style></defs><title>disappearance copy</title><g id="Layer_20" data-name="Layer 20"><circle class="cls-1" cx="98.23" cy="77.06" r="45.85" transform="translate(18.27 172.94) rotate(-88.29)"/><path class="cls-2" d="M97.66,102.63c-.34.28-.71.58-1.07.9C97,103.21,97.32,102.91,97.66,102.63Z"/><path class="cls-2" d="M99.09,101.42c-.28.26-.59.52-.92.79C98.5,101.94,98.81,101.68,99.09,101.42Z"/><path class="cls-2" d="M98.8,116.29a19.26,19.26,0,0,0,1.81-1.46A19.26,19.26,0,0,1,98.8,116.29Z"/><path class="cls-2" d="M101.47,114c.56-.56,1.1-1.13,1.62-1.7C102.57,112.89,102,113.46,101.47,114Z"/><path class="cls-2" d="M105.53,109.64l-.74.83a.6.6,0,0,1-.08.08.6.6,0,0,0,.08-.08Z"/><path class="cls-2" d="M110.78,106.74a10.33,10.33,0,0,1-.61.9A10.33,10.33,0,0,0,110.78,106.74Z"/><path class="cls-2" d="M98.71,99a2,2,0,0,1,1.17-.44A2,2,0,0,0,98.71,99Z"/><path class="cls-2" d="M111,106.38c.09-.21.12-.36.07-.46C111.07,106,111,106.17,111,106.38Z"/><path class="cls-2" d="M87.41,94.68l-.78.71Z"/><path class="cls-2" d="M89.21,93c-.44.43-.88.84-1.26,1.2C88.33,93.81,88.77,93.4,89.21,93Z"/><path class="cls-2" d="M77,104.09l1.29-1c1.36-1.12,2.78-2.37,4.17-3.66-1.39,1.29-2.81,2.54-4.17,3.66Z"/><path class="cls-2" d="M91.21,91c1.44-1.54,2.46-2.87,1.62-2.88h0C93.67,88.1,92.65,89.43,91.21,91Z"/><path class="cls-2" d="M84.49,97.46c.68-.64,1.33-1.28,2-1.89l.18-.18-.18.18C85.82,96.18,85.17,96.82,84.49,97.46Z"/><path class="cls-2" d="M89.21,93c.45-.43.91-.89,1.35-1.33C90.12,92.08,89.66,92.54,89.21,93Z"/><path class="cls-2" d="M80.17,98.21c-2.13,1.78-4.37,3.63-6.58,5.38A31.55,31.55,0,0,1,71,105.52a31.55,31.55,0,0,0,2.64-1.93C75.8,101.84,78,100,80.17,98.21Z"/><path class="cls-2" d="M120.39,109q3-3,6-6.06Q123.45,106,120.39,109Z"/><path class="cls-2" d="M138.28,90.51c-1.19,1.26-2.4,2.48-3.61,3.71C135.88,93,137.09,91.77,138.28,90.51Z"/><path class="cls-2" d="M107,111.4c.32-.34.63-.69.93-1l.85-1h0l-2.14-.93c-.41.42-.79.83-1.11,1.18l-.74.83Z"/><path class="cls-3" d="M105.22,113.31c.6-.63,1.21-1.27,1.78-1.91h0l-2.21-.93a.6.6,0,0,1-.08.08s-.06.08-.08.09l-.76.83-.78.85c-.52.57-1.06,1.14-1.62,1.7l-.86.81a19.26,19.26,0,0,1-1.81,1.46c-.32.22-.64.42-1,.61l2.77,1c.35-.32.78-.72,1.26-1.19C102.83,115.76,104,114.56,105.22,113.31Z"/><path class="cls-3" d="M108.8,120.43c3.78,1.08,7.6,2.06,11.44,2.9a11.59,11.59,0,0,0,4.18.31,4.79,4.79,0,0,0,3.48-2.3,3.24,3.24,0,0,0-.66-4,4.57,4.57,0,0,0-1.64-.64c-2.15-.53-4.29-.68-6.4-1.27-1.36-.38-2.71-.78-4.06-1.19q-1.5,1.56-3.08,3.14C111,118.43,109.92,119.45,108.8,120.43Z"/><path class="cls-3" d="M109.77,108.18c.14-.18.28-.36.4-.54a10.33,10.33,0,0,0,.61-.9,2.84,2.84,0,0,0,.17-.36c.09-.21.12-.36.07-.46-.54-1.09-2.71.82-4.38,2.54l2.14.93C109.14,109,109.47,108.56,109.77,108.18Z"/><path class="cls-3" d="M95,105.06a19.25,19.25,0,0,1,1.62-1.53c.36-.32.73-.62,1.07-.9l.51-.42c.33-.27.64-.53.92-.79a4.73,4.73,0,0,0,1.17-1.42,1.21,1.21,0,0,0,0-1,2.49,2.49,0,0,0-.2-.34.4.4,0,0,0-.21-.12,2,2,0,0,0-1.17.44,39.56,39.56,0,0,0-5.22,4.72l-.43.43-.6.59c-1.34,1.34-2.61,2.76-4,4a28.36,28.36,0,0,1-3.62,2.85,5.56,5.56,0,0,0-1,.63c-.24.25,0,.44.25.61a3.89,3.89,0,0,0,1.71.42l1,.1c.41,0,.87.26,1.21-.09a1.5,1.5,0,0,0,.29-.61,5.85,5.85,0,0,1,.48-.93,19.15,19.15,0,0,1,2.79-3.37C92.9,107,94.25,105.83,95,105.06Z"/><path class="cls-3" d="M120.39,109l-2,2-.56.56-.55.56c3,.77,6,1.47,9,2.12,4,.87,8.36,2.25,12.47,2a5.33,5.33,0,0,0,3.67-1.46,5.71,5.71,0,0,0,1.25-3.74,4.65,4.65,0,0,0-.2-1.66,4.42,4.42,0,0,0-2.15-2.24,27.66,27.66,0,0,0-8.33-2.89c-2.37-.49-4.51-.87-6.53-1.26Q123.45,106,120.39,109Z"/><path class="cls-3" d="M144.27,83.52c-.57.61-1.13,1.28-1.7,2-.29.36-.59.73-.89,1.12l-.69.82c.43.11.86.22,1.3.31,2.87.57,5.65,1.58,8.64,1a3,3,0,0,0,2.78-2.61,5.89,5.89,0,0,0-.16-3.07,5.5,5.5,0,0,0-3.14-2.51l-.92-.38a10.45,10.45,0,0,0-3.42,1.71A13.91,13.91,0,0,0,144.27,83.52Z"/><path class="cls-3" d="M73.88,107c.26-.3.55-.6.85-.9.74-.73,1.56-1.43,2.24-2l1.29-1c1.36-1.12,2.78-2.37,4.17-3.66.7-.64,1.39-1.29,2.06-1.93s1.33-1.28,2-1.89l.18-.18.78-.71.54-.51c.38-.36.82-.77,1.26-1.2s.91-.89,1.35-1.33l.65-.67c1.44-1.54,2.46-2.87,1.62-2.88a3.92,3.92,0,0,0-1.44.83C89.2,90.51,85,94.2,80.17,98.21c-2.13,1.78-4.37,3.63-6.58,5.38A31.55,31.55,0,0,1,71,105.52a15.43,15.43,0,0,1-1.37.77,12,12,0,0,1-1.47.61h0c1.46.8,2.94,1.57,4.45,2.27a4.2,4.2,0,0,1,.62-1.29A9.24,9.24,0,0,1,73.88,107Z"/><path class="cls-3" d="M131.09,98c-.57.63-1.16,1.25-1.74,1.88,2.36.49,4.74.93,7.14,1.29,3.67.56,7.45,1.27,11.15,1.51a3.6,3.6,0,0,0,1.27-.08,2.9,2.9,0,0,0,1.33-.9,5.56,5.56,0,0,0,1.4-4.33c-.44-3.71-3.93-4.47-6.81-5.29-2.16-.62-4.35-1.09-6.55-1.54-1.19,1.26-2.4,2.48-3.61,3.71S132.25,96.68,131.09,98Z"/><path class="cls-2" d="M99.67,64h0Z"/><path class="cls-2" d="M96.45,54.35l.11-.05S96.48,54.29,96.45,54.35Z"/><path class="cls-4" d="M101.86,116.69c1-.93,2.16-2.13,3.36-3.38C104,114.56,102.83,115.76,101.86,116.69Z"/><path class="cls-4" d="M104.71,110.55s-.06.08-.08.09l-.76.83.76-.83S104.68,110.58,104.71,110.55Z"/><path class="cls-4" d="M100.6,117.88c.35-.32.78-.72,1.26-1.19C101.38,117.16,101,117.56,100.6,117.88Z"/><path class="cls-4" d="M107,111.4c-.57.64-1.18,1.28-1.78,1.91.6-.63,1.21-1.27,1.78-1.91Z"/><path class="cls-4" d="M115.14,114.25q-1.5,1.56-3.08,3.14Q113.64,115.82,115.14,114.25Z"/><path class="cls-4" d="M108.78,109.39c.36-.43.69-.83,1-1.21-.3.38-.63.78-1,1.21Z"/><path class="cls-4" d="M100.26,100a1.21,1.21,0,0,0,0-1A1.21,1.21,0,0,1,100.26,100Z"/><path class="cls-4" d="M100.29,99a2.49,2.49,0,0,0-.2-.34.4.4,0,0,0-.21-.12.4.4,0,0,1,.21.12A2.49,2.49,0,0,1,100.29,99Z"/><path class="cls-4" d="M93.49,103.7l-.43.43-.6.59.6-.59Z"/><path class="cls-4" d="M120.39,109l-2,2-.56.56.56-.56Z"/><path class="cls-4" d="M144.27,83.52a13.91,13.91,0,0,1,1.8-1.65A13.91,13.91,0,0,0,144.27,83.52Z"/><path class="cls-4" d="M142.57,85.52c-.29.36-.59.73-.89,1.12l-.69.82.69-.82C142,86.25,142.28,85.88,142.57,85.52Z"/><path class="cls-4" d="M69.58,106.29a12,12,0,0,1-1.47.61h0A12,12,0,0,0,69.58,106.29Z"/><path class="cls-4" d="M73.88,107a9.24,9.24,0,0,0-.7.91A9.24,9.24,0,0,1,73.88,107Z"/><path class="cls-4" d="M74.73,106.07c-.3.3-.59.6-.85.9C74.14,106.67,74.43,106.37,74.73,106.07Z"/><path class="cls-4" d="M92.83,88.09a3.92,3.92,0,0,0-1.44.83,3.92,3.92,0,0,1,1.44-.83Z"/><path class="cls-4" d="M99.69,64a3,3,0,0,1,1.34.33A2.68,2.68,0,0,0,99.69,64Z"/><path class="cls-5" d="M165,63.88C164,52.79,159.66,49,159.66,49l-16,1.36-1.08.09h0s4.89,4.25,7.29,13.94A48.88,48.88,0,0,1,151,79.44l11.11.32S166,75.23,165,63.88Z"/><path class="cls-3" d="M42.52,94.62h0l-1.2-.42A10.53,10.53,0,0,0,42.52,94.62Z"/><path class="cls-3" d="M118.31,47.6a3.83,3.83,0,0,0-3-2.93,13.08,13.08,0,0,0-4.37,0c-10.52,1-21.06-2.86-31.46.76a65.44,65.44,0,0,0-12,6.15c-.08.33-5.05,2.87-5.69,3.28-4.32,2.78-6.38,2.46-9.75,1.66h0a95.38,95.38,0,0,0-7.53,18.66c-2.45,8.66-1.44,18.94-1.37,19.63,2.57.73,5.43,1.84,7.93,2.61,3.39,1,6.64,3.26,9.75,5.22,1.07-1.74,3.86-3,5.17-4,5.81-4.54,16.87-15.88,22.33-20,5.78-4.39,14.91-10.51,13.44-13.48a1.85,1.85,0,0,0-.78-.76A3,3,0,0,0,99.69,64h0c-6.07.09-11.23,4.72-16.89,6.37a13.84,13.84,0,0,1-6.86.56,4,4,0,0,1-3.19-2.56A3.48,3.48,0,0,1,74.21,65a12.29,12.29,0,0,1,3.64-1.61,62.31,62.31,0,0,0,9.82-4.62,84.57,84.57,0,0,1,8.78-4.39c0-.06.07-.08.11-.05,4.16,0,8.44.71,12.44.14a16.63,16.63,0,0,0,5.92-1.81,8.56,8.56,0,0,0,1.26-.83C117.46,50.79,118.55,49.21,118.31,47.6Z"/><path class="cls-4" d="M43.19,94.85v0c-.22-.06-.45-.14-.66-.19Z"/><path class="cls-4" d="M52.09,56.52h0L36.82,48.4s-5.29-.3-11.54,14.71c-4.76,11.45-.69,25.22-.69,25.22L41.33,94.2l1.2.42c.21,0,.44.13.66.19-.07-.69-1.08-11,1.37-19.63A95.38,95.38,0,0,1,52.09,56.52Z"/><path class="cls-4" d="M123.06,53.64h0l-.49,0a.49.49,0,0,1-.44-.54.5.5,0,0,1,.54-.45l.46,0a.5.5,0,0,1,0,1Zm2.83-.08a.5.5,0,0,1-.5-.44.51.51,0,0,1,.44-.56l.46-.05a.5.5,0,0,1,.13,1l-.48.06Zm-6.12-.18h0l-.47,0a.5.5,0,0,1-.47-.53.5.5,0,0,1,.53-.47l.47,0a.5.5,0,0,1,0,1Zm9.39-.27a.51.51,0,0,1-.5-.43.5.5,0,0,1,.43-.57l.46-.07a.51.51,0,0,1,.57.43.5.5,0,0,1-.42.56l-.47.07Zm3.26-.48a.5.5,0,0,1-.49-.43.51.51,0,0,1,.42-.57l.47-.06a.49.49,0,0,1,.56.42.48.48,0,0,1-.42.56l-.46.07Zm3.27-.48a.5.5,0,0,1-.49-.43.49.49,0,0,1,.42-.56l.47-.07a.5.5,0,0,1,.56.42.51.51,0,0,1-.42.57l-.47.07Zm3.27-.48a.51.51,0,0,1-.5-.43.5.5,0,0,1,.43-.56l.46-.07a.5.5,0,0,1,.57.42.51.51,0,0,1-.42.57l-.47.07Z"/><path class="cls-4" d="M116.47,53.11h-.09a1.38,1.38,0,0,1-.29-.08l-.15,0a.5.5,0,1,1,.11-1l.25,0a.48.48,0,0,1,.2.07.54.54,0,0,1,.42.59A.48.48,0,0,1,116.47,53.11Z"/><path class="cls-4" d="M97.11,126.84h-.17l-.43-.07a.5.5,0,0,1-.38-.59.51.51,0,0,1,.59-.39,1.81,1.81,0,0,0,.31,0h.1a.5.5,0,0,1,0,1Zm2.91-.62a.52.52,0,0,1-.47-.33.5.5,0,0,1,.3-.64l.46-.17a.5.5,0,1,1,.37.92l-.48.19A.57.57,0,0,1,100,126.22Zm3.17-1.49a.52.52,0,0,1-.44-.25.51.51,0,0,1,.19-.68l.43-.25a.5.5,0,0,1,.68.18.5.5,0,0,1-.17.68l-.44.26A.57.57,0,0,1,103.19,124.73Zm-8.44,0a.51.51,0,0,1-.5-.48v-.15a3,3,0,0,1,0-.43.51.51,0,0,1,.56-.44.5.5,0,0,1,.43.56c0,.1,0,.21,0,.31v.11a.49.49,0,0,1-.47.52Zm11.36-1.91a.51.51,0,0,1-.4-.2.5.5,0,0,1,.11-.7l.39-.29a.5.5,0,1,1,.6.79l-.4.31A.53.53,0,0,1,106.11,122.81Zm-9.89-1.16a.5.5,0,0,1-.36-.85c.12-.13.24-.25.37-.37a.5.5,0,0,1,.69.73,3.64,3.64,0,0,0-.34.34A.51.51,0,0,1,96.22,121.65Zm12.61-1a.45.45,0,0,1-.37-.17.48.48,0,0,1,0-.7l.38-.33a.49.49,0,0,1,.7,0,.5.5,0,0,1,0,.71l-.38.33A.5.5,0,0,1,108.83,120.61Zm-9.91-1.17a.52.52,0,0,1-.4-.21.51.51,0,0,1,.11-.7l.4-.29a.49.49,0,0,1,.7.1.51.51,0,0,1-.1.7l-.41.3A.54.54,0,0,1,98.92,119.44Zm-7-1.13-.12,0-.52-.14a.5.5,0,0,1-.32-.63.49.49,0,0,1,.63-.32l.44.12a.5.5,0,0,1,.38.6A.51.51,0,0,1,91.89,118.31Zm3,0a.49.49,0,0,1-.49-.4.49.49,0,0,1,.39-.59l.45-.11a.51.51,0,0,1,.62.36.5.5,0,0,1-.36.61,4.7,4.7,0,0,1-.51.12Zm16.53-.05a.5.5,0,0,1-.35-.86l.36-.35a.5.5,0,1,1,.7.72l-.36.35A.52.52,0,0,1,111.4,118.24Zm-9.81-1.07a.46.46,0,0,1-.36-.16.49.49,0,0,1,0-.7l.33-.32a.52.52,0,0,1,.72,0,.49.49,0,0,1,0,.69l0,0-.33.32A.49.49,0,0,1,101.59,117.17Zm-3.5-.19a.5.5,0,0,1-.26-.93c.14-.08.27-.17.4-.26a.51.51,0,0,1,.7.14.5.5,0,0,1-.14.69l-.44.28A.5.5,0,0,1,98.09,117Zm-9.18-.4a.52.52,0,0,1-.38-.17c-.12-.14-.23-.29-.34-.44a.5.5,0,1,1,.82-.57c.09.12.18.24.28.35a.51.51,0,0,1-.05.71A.52.52,0,0,1,88.91,116.58Zm25-.81a.47.47,0,0,1-.35-.15.49.49,0,0,1,0-.7l.35-.36a.5.5,0,1,1,.71.7l-.35.36A.53.53,0,0,1,113.88,115.77Zm-13-.94a.52.52,0,0,1-.36-.16.5.5,0,0,1,0-.71l.36-.34a.5.5,0,0,1,.7,0,.5.5,0,0,1,0,.71l-.36.35A.52.52,0,0,1,100.84,114.83Zm3.23-.13a.49.49,0,0,1-.35-.14.5.5,0,0,1,0-.7l.35-.36a.5.5,0,0,1,.72.7l-.35.35A.51.51,0,0,1,104.07,114.7Zm-16-1.35a.4.4,0,0,1-.15,0,.49.49,0,0,1-.32-.62,5.44,5.44,0,0,1,.19-.52.5.5,0,0,1,.92.4,3.61,3.61,0,0,0-.16.42A.5.5,0,0,1,88.1,113.35Zm28.21-.09a.5.5,0,0,1-.35-.15.49.49,0,0,1,0-.7l.35-.36a.49.49,0,0,1,.7,0,.5.5,0,0,1,0,.71l-.35.36A.51.51,0,0,1,116.31,113.26Zm-37.23-.64h0l-.51-.05a.5.5,0,0,1,.1-1l.49,0a.52.52,0,0,1,.46.54A.5.5,0,0,1,79.08,112.62Zm3,0a.5.5,0,0,1-.49-.43.51.51,0,0,1,.42-.57l.46-.08a.49.49,0,0,1,.59.38.5.5,0,0,1-.38.6c-.17,0-.35.07-.53.09Zm21.21-.29a.5.5,0,0,1-.34-.13.51.51,0,0,1,0-.71l.34-.37a.5.5,0,1,1,.74.68l-.34.37A.52.52,0,0,1,103.28,112.32Zm3.21-.15a.5.5,0,0,1-.37-.84l.34-.36a.5.5,0,0,1,.71,0,.51.51,0,0,1,0,.71l-.34.37A.5.5,0,0,1,106.49,112.17Zm-30.86-.11h-.12l-.5-.13a.5.5,0,0,1,.27-1c.16,0,.31.09.47.12a.51.51,0,0,1,.37.61A.5.5,0,0,1,75.63,112.06Zm9.7-.67a.5.5,0,0,1-.26-.93l.42-.26a.5.5,0,1,1,.53.85l-.09.06-.34.21A.51.51,0,0,1,85.33,111.39Zm33.46-.61a.51.51,0,0,1-.36-.15.51.51,0,0,1,0-.71l.36-.35a.5.5,0,0,1,.71,0,.49.49,0,0,1,0,.7l-.35.35A.5.5,0,0,1,118.79,110.78Zm-46.18-.29a.49.49,0,0,1-.44-.26,1.74,1.74,0,0,1-.2-.67.49.49,0,0,1,.45-.54.48.48,0,0,1,.54.45.62.62,0,0,0,.09.28.5.5,0,0,1-.21.68A.46.46,0,0,1,72.61,110.49Zm17.31-.11a.5.5,0,0,1-.32-.11.51.51,0,0,1-.06-.71l.33-.39a.5.5,0,0,1,.71,0,.49.49,0,0,1,0,.7l-.32.37A.5.5,0,0,1,89.92,110.38Zm15.72-.65a.5.5,0,0,1-.37-.84l.34-.37a.5.5,0,1,1,.73.69l-.33.36A.5.5,0,0,1,105.64,109.73Zm3.17-.17a.45.45,0,0,1-.32-.13.49.49,0,0,1-.06-.7l.32-.38a.49.49,0,0,1,.7-.06.5.5,0,0,1,.07.7l-.33.39A.49.49,0,0,1,108.81,109.56Zm-20.69-.28a.47.47,0,0,1-.37-.16.5.5,0,0,1,0-.71l.37-.33a.48.48,0,0,1,.7,0,.49.49,0,0,1,0,.7l-.38.35A.5.5,0,0,1,88.12,109.28Zm33.15-1a.51.51,0,0,1-.35-.86l.36-.35a.51.51,0,0,1,.71,0,.5.5,0,0,1,0,.71l-.35.35A.51.51,0,0,1,121.27,108.32Zm-28.94-.48A.5.5,0,0,1,92,107l.36-.35a.5.5,0,0,1,.69.72l-.35.34A.5.5,0,0,1,92.33,107.84Zm-28.48-.19h-.08a5.17,5.17,0,0,1-.54-.11.5.5,0,0,1,.25-1l.44.1a.5.5,0,0,1,.42.57A.5.5,0,0,1,63.85,107.65Zm3-.14a.5.5,0,0,1-.1-1c.15,0,.31-.07.46-.12a.5.5,0,0,1,.61.36.49.49,0,0,1-.35.61l-.51.13Zm6.9-.15a.46.46,0,0,1-.32-.11.5.5,0,0,1-.07-.7l.35-.4a.49.49,0,0,1,.7,0,.5.5,0,0,1,0,.71l-.32.35A.49.49,0,0,1,73.72,107.36Zm34.39-.1a.48.48,0,0,1-.37-.17.5.5,0,0,1,0-.71l.39-.33a.51.51,0,0,1,.71.06.52.52,0,0,1-.07.71l-.37.31A.46.46,0,0,1,108.11,107.26Zm-17.5-.43a.45.45,0,0,1-.34-.14.5.5,0,0,1,0-.71l.35-.36a.51.51,0,0,1,.71,0,.5.5,0,0,1,0,.71l-.35.36A.49.49,0,0,1,90.61,106.83Zm20.26-.1a.45.45,0,0,1-.2,0,.5.5,0,0,1-.26-.66c.08-.2.09-.24.09-.24a.5.5,0,1,1,1-.08s0,.07,0,.08a1.51,1.51,0,0,1-.13.54l-.05.1A.49.49,0,0,1,110.87,106.73Zm-40.79-.47a.5.5,0,0,1-.24-.94,4.49,4.49,0,0,0,.42-.24.5.5,0,0,1,.68.17.49.49,0,0,1-.17.69l-.45.26A.5.5,0,0,1,70.08,106.26Zm-9.15-.36a.52.52,0,0,1-.42-.22,3.05,3.05,0,0,1-.28-.5.49.49,0,0,1,.23-.66.5.5,0,0,1,.67.23,2.71,2.71,0,0,0,.21.37.51.51,0,0,1-.13.69A.51.51,0,0,1,60.93,105.9Zm62.82-.05a.5.5,0,0,1-.35-.15.5.5,0,0,1,0-.71l.35-.35a.5.5,0,0,1,.71,0,.5.5,0,0,1,0,.7l-.35.36A.51.51,0,0,1,123.75,105.85Zm-28.89-.51a.47.47,0,0,1-.32-.12.45.45,0,0,1-.06-.66l.08-.09.27-.28a.5.5,0,0,1,.71,0,.49.49,0,0,1,0,.7l-.25.27A.62.62,0,0,1,94.86,105.34Zm-18.64-.41a.5.5,0,0,1-.32-.88l.39-.33a.5.5,0,1,1,.63.77l-.37.32A.52.52,0,0,1,76.22,104.93Zm16.85-.59a.5.5,0,0,1-.35-.86l.34-.35a.51.51,0,0,1,.71,0,.5.5,0,0,1,0,.71l-.36.36A.49.49,0,0,1,93.07,104.34Zm-20.1,0a.47.47,0,0,1-.39-.19.5.5,0,0,1,.09-.7l.39-.31a.5.5,0,1,1,.61.79l-.39.31A.5.5,0,0,1,73,104.29Zm53.24-.94a.47.47,0,0,1-.35-.14.5.5,0,0,1,0-.71l.35-.36a.49.49,0,0,1,.7,0,.48.48,0,0,1,0,.7l-.35.36A.47.47,0,0,1,126.21,103.35Zm-28.39-.48-.4-.33-.32-.38.34-.28a.54.54,0,0,1,.73.05.48.48,0,0,1,0,.68l-.06,0Zm-18.89-.16a.5.5,0,0,1-.32-.88l.38-.32a.49.49,0,0,1,.7,0,.51.51,0,0,1,0,.71l-.39.32A.49.49,0,0,1,78.93,102.71ZM61,102.65a.47.47,0,0,1-.3-.1.51.51,0,0,1-.11-.7c.1-.14.22-.28.35-.43a.5.5,0,0,1,.7,0,.5.5,0,0,1,0,.71c-.1.11-.19.23-.28.35A.52.52,0,0,1,61,102.65Zm14.71-.54a.5.5,0,0,1-.39-.18.51.51,0,0,1,.07-.71l.39-.31a.5.5,0,1,1,.63.77L76,102A.51.51,0,0,1,75.71,102.11Zm19.84-.25a.51.51,0,0,1-.37-.15.5.5,0,0,1,0-.71l.37-.35a.5.5,0,0,1,.68.73l-.36.34A.47.47,0,0,1,95.55,101.86Zm33.08-1a.49.49,0,0,1-.37-.84l.34-.36a.5.5,0,1,1,.73.68l-.34.37A.51.51,0,0,1,128.63,100.82ZM100,100.67a.52.52,0,0,1-.29-.09.51.51,0,0,1-.12-.7,2.23,2.23,0,0,0,.19-.32.51.51,0,0,1,.65-.28.49.49,0,0,1,.28.63l0,.1a2.47,2.47,0,0,1-.26.44A.5.5,0,0,1,100,100.67Zm-18.42-.27a.5.5,0,0,1-.33-.87l.37-.33a.49.49,0,0,1,.7,0,.5.5,0,0,1,0,.71l-.37.33A.5.5,0,0,1,81.56,100.4Zm-17.91,0a.51.51,0,0,1-.42-.23.5.5,0,0,1,.15-.69l.42-.27a.5.5,0,0,1,.54.85l-.42.26A.45.45,0,0,1,63.65,100.39Zm14.76-.5a.48.48,0,0,1-.38-.18.49.49,0,0,1,.06-.7l.39-.32a.49.49,0,0,1,.7.06.51.51,0,0,1-.06.71l-.39.32A.54.54,0,0,1,78.41,99.89Zm19.78-.32a.48.48,0,0,1-.4-.21.5.5,0,0,1,.1-.7l.44-.3a.5.5,0,1,1,.54.84l-.39.27A.45.45,0,0,1,98.19,99.57ZM66.54,98.43a.52.52,0,0,1-.39-.19.49.49,0,0,1,.08-.7l.38-.32a.5.5,0,1,1,.64.78l-.4.32A.51.51,0,0,1,66.54,98.43Zm64.87-.37-.4-.3-.34-.36.31-.34a.49.49,0,0,1,.7,0,.5.5,0,0,1,0,.71ZM84.13,98a.49.49,0,0,1-.36-.15.5.5,0,0,1,0-.71l.32-.3a.53.53,0,0,1,.73,0,.48.48,0,0,1,0,.69l-.34-.36.31.39-.33.31A.45.45,0,0,1,84.13,98ZM131,97.76h0ZM81.1,97.65a.5.5,0,0,1-.39-.18.51.51,0,0,1,.07-.71l.38-.32a.5.5,0,0,1,.64.77l-.38.32A.51.51,0,0,1,81.1,97.65ZM69.21,96.16a.5.5,0,0,1-.37-.17.5.5,0,0,1,0-.71l.38-.33a.49.49,0,0,1,.7,0,.48.48,0,0,1,0,.7l-.38.33A.46.46,0,0,1,69.21,96.16Zm64.2-.45a.47.47,0,0,1-.35-.14.5.5,0,0,1,0-.71l.35-.35a.5.5,0,0,1,.71,0,.49.49,0,0,1,0,.7l-.34.36A.51.51,0,0,1,133.41,95.71Zm-46.76-.12a.49.49,0,0,1-.37-.16.49.49,0,0,1,0-.7l.36-.34a.49.49,0,0,1,.71,0,.48.48,0,0,1,0,.7l-.37.34A.46.46,0,0,1,86.65,95.59Zm-2.88-.2a.5.5,0,0,1-.32-.88l.38-.33a.5.5,0,1,1,.65.77l-.38.32A.52.52,0,0,1,83.77,95.39Zm-12-1.58a.49.49,0,0,1-.37-.16.5.5,0,0,1,0-.71l.36-.33a.5.5,0,0,1,.71,0,.48.48,0,0,1,0,.7l-.37.34A.46.46,0,0,1,71.82,93.81Zm64-.59a.5.5,0,0,1-.35-.85l.34-.36a.51.51,0,0,1,.71,0,.5.5,0,0,1,0,.71l-.35.36A.51.51,0,0,1,135.86,93.22Zm-46.66,0a.5.5,0,0,1-.35-.86l.36-.35a.49.49,0,0,1,.7,0,.5.5,0,0,1,0,.71l-.36.35A.54.54,0,0,1,89.2,93.2Zm-2.75-.07a.5.5,0,0,1-.39-.18.5.5,0,0,1,.06-.7l.39-.32a.48.48,0,0,1,.7.06.49.49,0,0,1-.06.7l-.38.32A.51.51,0,0,1,86.45,93.13Zm-12.07-1.7a.48.48,0,0,1-.36-.16.49.49,0,0,1,0-.7l.37-.34a.5.5,0,0,1,.71,0,.51.51,0,0,1,0,.71l-.36.34A.51.51,0,0,1,74.38,91.43Zm14.76-.54a.5.5,0,0,1-.39-.18.52.52,0,0,1,.07-.71l.39-.31a.5.5,0,0,1,.7.07.5.5,0,0,1-.07.71l-.39.31A.45.45,0,0,1,89.14,90.89Zm49.15-.19a.49.49,0,0,1-.36-.84l.34-.36a.5.5,0,1,1,.73.68l-.34.37A.51.51,0,0,1,138.29,90.7Zm-46.65,0a.51.51,0,0,1-.37-.84c.11-.12.22-.25.33-.36a.49.49,0,0,1,.7-.06.51.51,0,0,1,0,.71l-.34.38A.48.48,0,0,1,91.64,90.7ZM76.94,89a.5.5,0,0,1-.34-.87l.36-.34a.5.5,0,1,1,.69.73l-.37.34A.49.49,0,0,1,76.94,89Zm15-.27a.51.51,0,0,1-.42-.23.49.49,0,0,1,.15-.69,5.19,5.19,0,0,1,.46-.28.51.51,0,0,1,.68.2.5.5,0,0,1-.21.68l-.39.24A.53.53,0,0,1,91.92,88.77Zm48.71-.67a.49.49,0,0,1-.32-.12.51.51,0,0,1-.06-.71l.31-.37a.5.5,0,0,1,.84.54.32.32,0,0,1-.1.13l-.29.35A.49.49,0,0,1,140.63,88.1ZM79.49,86.64a.48.48,0,0,1-.36-.16.49.49,0,0,1,0-.7l.37-.35a.5.5,0,0,1,.68.74l-.36.34A.51.51,0,0,1,79.49,86.64Zm63.35-1.26a.5.5,0,0,1-.32-.11.5.5,0,0,1-.07-.7l.32-.39a.5.5,0,0,1,.7-.07.5.5,0,0,1,.07.71l-.31.38A.51.51,0,0,1,142.84,85.38ZM82.06,84.26a.54.54,0,0,1-.37-.16.51.51,0,0,1,0-.71l.37-.34a.51.51,0,0,1,.71,0,.5.5,0,0,1,0,.71l-.37.34A.55.55,0,0,1,82.06,84.26Zm63.14-1.45a.51.51,0,0,1-.37-.17.49.49,0,0,1,0-.7l.39-.34a.5.5,0,0,1,.64.76l-.36.32A.5.5,0,0,1,145.2,82.81Zm-60.54-.9a.48.48,0,0,1-.37-.17.5.5,0,0,1,0-.71l.38-.33a.49.49,0,0,1,.7,0,.5.5,0,0,1,0,.7l-.38.33A.46.46,0,0,1,84.66,81.91Zm63.46-1a.49.49,0,0,1-.46-.3.5.5,0,0,1,.25-.66l.49-.2A.49.49,0,0,1,149,80a.51.51,0,0,1-.28.65,3.38,3.38,0,0,0-.44.18A.79.79,0,0,1,148.12,80.9ZM87.33,79.63a.5.5,0,0,1-.32-.88l.4-.32a.5.5,0,0,1,.7.08.5.5,0,0,1-.08.7l-.39.31A.45.45,0,0,1,87.33,79.63Zm2.78-2.12a.5.5,0,0,1-.3-.9l.41-.3a.5.5,0,1,1,.59.81l-.4.29A.47.47,0,0,1,90.11,77.51Zm2.81-2.09a.47.47,0,0,1-.39-.2.5.5,0,0,1,.09-.7l.4-.3a.5.5,0,0,1,.7.1.49.49,0,0,1-.09.7l-.4.3A.5.5,0,0,1,92.92,75.42Zm2.78-2.13a.51.51,0,0,1-.39-.19.49.49,0,0,1,.08-.7l.39-.31a.49.49,0,0,1,.7.07.5.5,0,0,1-.07.7l-.4.32A.51.51,0,0,1,95.7,73.29ZM78.59,71.43l-.12-.5,0-.5h.07l.38-.05a.49.49,0,0,1,.56.43.5.5,0,0,1-.43.56Zm-3.09-.31-.14,0a4.4,4.4,0,0,1-.51-.18.5.5,0,1,1,.36-.93,3.66,3.66,0,0,0,.43.15.5.5,0,0,1,.34.62A.49.49,0,0,1,75.5,71.12ZM98.38,71a.49.49,0,0,1-.37-.16.5.5,0,0,1,0-.71l.36-.33a.5.5,0,0,1,.71,0,.51.51,0,0,1,0,.71l-.38.35A.5.5,0,0,1,98.38,71Zm-16.46-.16a.49.49,0,0,1-.48-.37.5.5,0,0,1,.36-.61l.47-.13a.5.5,0,1,1,.27,1l-.5.14Zm3.31-1.13a.49.49,0,0,1-.46-.3.5.5,0,0,1,.26-.66l.45-.2a.5.5,0,0,1,.66.26.51.51,0,0,1-.25.66l-.47.2A.43.43,0,0,1,85.23,69.74ZM72.74,67.5a.47.47,0,0,1,.4.36c.11.38.28,1.2-.37,1.21s-.87-1.39-.24-1.56A.38.38,0,0,1,72.74,67.5Zm28.06,1a.49.49,0,0,1-.3-.1.51.51,0,0,1-.09-.71l.28-.38a.51.51,0,0,1,.7-.12.5.5,0,0,1,.12.69c-.09.14-.2.28-.31.43A.53.53,0,0,1,100.8,68.51Zm-12.42-.28a.49.49,0,0,1-.44-.27.49.49,0,0,1,.21-.67l.44-.23a.5.5,0,0,1,.47.89l-.45.23A.59.59,0,0,1,88.38,68.23Zm3.12-1.59a.5.5,0,0,1-.22-1l.46-.22a.5.5,0,0,1,.43.91l-.45.21A.42.42,0,0,1,91.5,66.64Zm-18-.82a.5.5,0,0,1-.33-.12.51.51,0,0,1,0-.71q.19-.21.39-.39a.5.5,0,1,1,.67.74c-.1.1-.21.2-.31.31A.5.5,0,0,1,73.53,65.82Zm28.21-.49a.49.49,0,0,1-.44-.26,1.24,1.24,0,0,0-.21-.27.5.5,0,1,1,.68-.72,2,2,0,0,1,.41.51.5.5,0,0,1-.2.68A.53.53,0,0,1,101.74,65.33Zm-7-.07a.52.52,0,0,1-.47-.33.51.51,0,0,1,.3-.64l.49-.17a.5.5,0,1,1,.31.95l-.46.16A.47.47,0,0,1,94.71,65.26Zm3.39-.86a.51.51,0,0,1-.5-.43.5.5,0,0,1,.43-.56l.51-.06a.5.5,0,1,1,.1,1l-.47.06Zm-21.6-.35a.52.52,0,0,1-.47-.33.5.5,0,0,1,.3-.64l.48-.17a.52.52,0,0,1,.64.32.5.5,0,0,1-.32.63l-.46.16A.47.47,0,0,1,76.5,64.05Zm3.3-1.18a.51.51,0,0,1-.47-.31.5.5,0,0,1,.28-.65l.46-.19a.5.5,0,1,1,.38.92l-.47.2ZM83,61.44a.5.5,0,0,1-.23-.95l.45-.22a.49.49,0,0,1,.67.22.5.5,0,0,1-.22.67l-.45.22A.46.46,0,0,1,83,61.44Zm3.1-1.61a.51.51,0,0,1-.44-.27.49.49,0,0,1,.21-.67l.43-.24a.5.5,0,0,1,.48.88l-.44.24A.5.5,0,0,1,86.09,59.83Zm3.08-1.68a.5.5,0,0,1-.24-.94l.44-.24a.51.51,0,0,1,.68.2.5.5,0,0,1-.21.68l-.44.24A.46.46,0,0,1,89.17,58.15Zm3.09-1.64a.51.51,0,0,1-.45-.27.5.5,0,0,1,.22-.67l.45-.23a.5.5,0,0,1,.67.23.49.49,0,0,1-.22.67l-.44.22A.48.48,0,0,1,92.26,56.51ZM95.42,55a.5.5,0,0,1-.2-1l.47-.2a.5.5,0,1,1,.38.92l-.45.2A.65.65,0,0,1,95.42,55Zm10.4-.11a.5.5,0,0,1,0-1h.51a.51.51,0,0,1,.5.49.5.5,0,0,1-.49.51A3,3,0,0,1,105.82,54.91Zm-3-.08h0l-.45,0a.52.52,0,0,1-.49-.53.48.48,0,0,1,.5-.47l.5,0a.51.51,0,0,1,.47.53A.5.5,0,0,1,102.82,54.83Zm6.48-.19a.49.49,0,0,1-.49-.42.51.51,0,0,1,.42-.57l.48-.08a.51.51,0,0,1,.58.41.51.51,0,0,1-.41.58l-.5.08Zm-10,0h0l-.5,0a.49.49,0,0,1-.47-.52.51.51,0,0,1,.52-.48l.5,0a.5.5,0,0,1,0,1Zm13.38-.78a.52.52,0,0,1-.48-.34.5.5,0,0,1,.32-.64l.45-.16a.49.49,0,0,1,.64.29.5.5,0,0,1-.29.65l-.48.17Z"/><path class="cls-4" d="M79.07,71.18a13,13,0,0,1-3.32,2.53,12.63,12.63,0,0,1-9.71.9.77.77,0,1,0-.45,1.47,14.23,14.23,0,0,0,15.72-5.2Z"/></g></svg>