<svg xmlns="http://www.w3.org/2000/svg" viewBox="0 0 195 155"><defs><style>.cls-1{fill:#bee5f6;}.cls-2{fill:#f4fbfd;}.cls-3{fill:#27aae1;}.cls-4{fill:#2bace2;}.cls-5{fill:none;stroke:#fff;stroke-linecap:round;stroke-linejoin:round;stroke-width:1.88px;opacity:0.51;}.cls-6{fill:#73c8eb;}.cls-7{fill:#fff;}</style></defs><title>education</title><g id="Layer_4" data-name="Layer 4"><path class="cls-1" d="M109.57,34.15A44.63,44.63,0,0,0,103.3,33c.19,0,.36.12.54.18A28.14,28.14,0,0,0,109.57,34.15Z"/><path class="cls-1" d="M67.28,44.67l.08-.23a45.46,45.46,0,0,0-13.18,21l14.43.38A31.06,31.06,0,0,1,67.28,44.67Z"/><path class="cls-1" d="M127.22,62.13a31.78,31.78,0,0,1-2,5.19l17.26.46a45.81,45.81,0,0,0-15.89-25.1A31.13,31.13,0,0,1,127.22,62.13Z"/><path class="cls-2" d="M126.56,42.68a31.4,31.4,0,0,0-6-10,27.76,27.76,0,0,1-11,1.47,28.14,28.14,0,0,1-5.73-1c-.18-.06-.35-.13-.54-.18a27.42,27.42,0,0,1-13.79-9.8A31.19,31.19,0,0,0,67.36,44.44l-.08.23a31.22,31.22,0,0,0,57.91,22.65,31.78,31.78,0,0,0,2-5.19A31.13,31.13,0,0,0,126.56,42.68Z"/><path class="cls-3" d="M106.29,22.39a27.4,27.4,0,0,0-17,.53l.19.24a27.37,27.37,0,0,0,31.08,9.52l.22-.07A27.37,27.37,0,0,0,106.29,22.39Z"/><path class="cls-1" d="M98.68,65h-5a.94.94,0,0,1-.94-.93V46.3a14.06,14.06,0,0,0-14-13.73c-3.62,0-5,.71-6.08,1.23a7.06,7.06,0,0,1-1,.43.94.94,0,0,1-.56-1.79,4.44,4.44,0,0,0,.71-.32A13.65,13.65,0,0,1,78.7,30.7,15.93,15.93,0,0,1,94.61,46.26V63.17h4.07a.94.94,0,1,1,0,1.87Z"/><circle class="cls-4" cx="81.87" cy="48.9" r="2.9"/><circle class="cls-4" cx="111.41" cy="48.9" r="2.9"/><line class="cls-5" x1="77.94" y1="53.36" x2="85.81" y2="53.36"/><line class="cls-5" x1="108.01" y1="53.36" x2="115.88" y2="53.36"/><polygon class="cls-6" points="101.37 77.34 101.37 77.39 150.06 63.96 150.08 58.98 98.05 73.33 46.1 58.29 46.09 63.52 93.81 77.34 101.37 77.34"/><polygon class="cls-1" points="93.81 77.34 93.63 77.34 93.63 131.55 93.63 140.18 93.63 142.7 101.37 142.7 101.37 140.53 101.37 132.16 101.37 77.39 101.37 77.34 93.81 77.34"/><path class="cls-3" d="M46.09,63.52l-3.42-1-.08,25H54.94a3.06,3.06,0,0,1,3,2.59,2.32,2.32,0,0,1,0,.46h0a2.31,2.31,0,0,1,0,.46,3.06,3.06,0,0,1-3,2.59H42.57V95H56.81a3.06,3.06,0,0,1,3,2.59,2.31,2.31,0,0,1,0,.46,2.42,2.42,0,0,1,0,.47,3.06,3.06,0,0,1-3,2.59H42.55v1.29H54.94A3.07,3.07,0,0,1,58,105.43h0a2.42,2.42,0,0,1,0,.47,3.06,3.06,0,0,1-3,2.58H42.53v1.3h8.19A3.07,3.07,0,0,1,53.64,112a1.91,1.91,0,0,1,0,1.62,3.07,3.07,0,0,1-2.93,2.24H42.5l0,9.66,51.16,14.63V77.34h.18Z"/><polygon class="cls-7" points="58 90.62 57.99 90.61 58 90.62 58 90.62"/><path class="cls-1" d="M58,90.15a3.42,3.42,0,0,1,0,.46A2.32,2.32,0,0,0,58,90.15Z"/><path class="cls-1" d="M58,90.62a3.41,3.41,0,0,1,0,.46A2.31,2.31,0,0,0,58,90.62Z"/><path class="cls-1" d="M59.82,97.56a2.31,2.31,0,0,1,0,.46A2.31,2.31,0,0,0,59.82,97.56Z"/><path class="cls-1" d="M59.87,98a2.5,2.5,0,0,1,0,.47A2.42,2.42,0,0,0,59.87,98Z"/><path class="cls-1" d="M58,105.43h0a3.75,3.75,0,0,1,0,.47A2.42,2.42,0,0,0,58,105.43Z"/><path class="cls-1" d="M53.64,113.65a1.91,1.91,0,0,0,0-1.62,2.79,2.79,0,0,1,0,1.62Z"/><path class="cls-1" d="M55.7,88.32A2.3,2.3,0,1,0,58,91.08a3.41,3.41,0,0,0,0-.46h0a3.42,3.42,0,0,0,0-.46A2.31,2.31,0,0,0,55.7,88.32Z"/><path class="cls-1" d="M57.57,95.72a2.3,2.3,0,1,0,2.25,2.77,2.5,2.5,0,0,0,0-.47,2.32,2.32,0,0,0-2.3-2.3Z"/><path class="cls-1" d="M55.7,103.13A2.3,2.3,0,1,0,58,105.9a3.75,3.75,0,0,0,0-.47A2.31,2.31,0,0,0,55.7,103.13Z"/><path class="cls-1" d="M51.86,110.88a2,2,0,1,0,1.78,2.77,2.79,2.79,0,0,0,0-1.62A2,2,0,0,0,51.86,110.88Z"/><circle class="cls-1" cx="138.6" cy="90.62" r="2.3"/><circle class="cls-1" cx="136.73" cy="98.02" r="2.3"/><circle class="cls-1" cx="138.6" cy="105.43" r="2.3"/><circle class="cls-1" cx="142.44" cy="112.84" r="1.96"/><path class="cls-3" d="M139.36,87.56H152.5l.08-24.29-2.52.69L101.37,77.38v63.15l51-14.24,0-10.4h-8.82a3.06,3.06,0,0,1,0-6.11h8.84v-1.3H139.36a3.06,3.06,0,1,1,0-6.11h13.09v-1.29h-15a3.06,3.06,0,0,1,0-6.11h15v-1.3H139.36a3.06,3.06,0,0,1-3.06-3h0A3.07,3.07,0,0,1,139.36,87.56Zm-7.52-1.68L114.2,90.7a.68.68,0,0,1-.2,0,.74.74,0,0,1-.72-.55.74.74,0,0,1,.52-.92l17.64-4.82a.75.75,0,0,1,.4,1.45Zm-17.54,0-.2,0a.75.75,0,0,1-.2-1.48l28.75-7.85a.75.75,0,1,1,.39,1.44Z"/></g></svg>