<svg xmlns="http://www.w3.org/2000/svg" viewBox="0 0 195 155"><defs><style>.cls-1{fill:#262262;}.cls-2{fill:#bebdd0;}.cls-3{fill:#5c5989;}</style></defs><title>expression</title><g id="Layer_15" data-name="Layer 15"><path class="cls-1" d="M166.24,88.21a35.9,35.9,0,0,0-1.83-11.32h0a36.81,36.81,0,0,0-5.52-10.59c-3.89-4.79-6.46-7.68-12.95-10.58a36,36,0,0,0-15.85-3.65A34.83,34.83,0,0,0,119,53.87v0c-1.81.64-3.38,1.27-4.78,1.89l-.21.1a34,34,0,0,0-19,22,36.88,36.88,0,0,0,35,46.58c1,0,2,0,3.06-.14,2.19,5.17,5.65,13.41,5.77,14,.17.85,19.67-27.72,19.67-27.72l-.06,0A36,36,0,0,0,166.24,88.21Z"/><path class="cls-2" d="M95.43,78.09a36,36,0,0,1,19.49-22.65A45.85,45.85,0,1,0,38.15,98.09c4.82,7,23.67,34.51,23.86,33.57s6.08-14.84,8.52-20.58a45.92,45.92,0,0,0,26.38-8.65A36,36,0,0,1,95.43,78.09Z"/><polygon class="cls-3" points="96.91 102.43 96.91 102.42 96.91 102.43 96.91 102.43"/><path class="cls-1" d="M141.16,53.83v0C141.5,54,141.55,54,141.16,53.83Z"/><circle class="cls-1" cx="52.01" cy="65.46" r="3.35"/><circle class="cls-1" cx="69.59" cy="65.46" r="3.35"/><circle class="cls-1" cx="84.81" cy="65.46" r="3.35"/><circle class="cls-2" cx="118.55" cy="88.08" r="2.56"/><circle class="cls-2" cx="130.99" cy="88.08" r="2.56"/><circle class="cls-2" cx="142.63" cy="88.08" r="2.56"/><path class="cls-3" d="M114.92,55.46l-.89.38a34,34,0,0,0-19,22A35.85,35.85,0,0,0,95,96.72a39.88,39.88,0,0,0,2,5.73,45.85,45.85,0,0,0,18-47Z"/></g></svg>