<svg xmlns="http://www.w3.org/2000/svg" viewBox="0 0 195 155"><defs><style>.cls-1{fill:#d3c5e0;}.cls-2{fill:#6c3f99;}.cls-3{fill:#916fb2;}.cls-4{fill:#7f57a6;}</style></defs><title>ejudicial killing</title><g id="Layer_13" data-name="Layer 13"><circle class="cls-1" cx="97.5" cy="77.5" r="45.85"/><path class="cls-2" d="M93.72,73.78l0,.09,24.67,9.83c.14.07.46.21.91.39A12.42,12.42,0,0,0,123,85a6.28,6.28,0,0,0,2.39-.26,4.48,4.48,0,0,0,2.24-1.64c.39-.54,1.32-1.64,2.43-2.88,1.69-1.88,3.83-4.16,5.55-6L137.81,72l24.69,9.83A2.67,2.67,0,0,0,166,80.33l1.28-3.22a2.66,2.66,0,0,0-1-3.18,2.67,2.67,0,0,0,2.9-1.64l4.39-11a2.67,2.67,0,0,0-1.49-3.46L78.57,20.58a2.66,2.66,0,0,0-3.46,1.48l3.73,10.36,13.39,4.67-8.39,9.24,11.81,1.41L90.39,72.59Zm36.05-3.26c-1.2,1.28-2.44,2.62-3.52,3.82s-2,2.21-2.48,3a.81.81,0,0,1-.48.33,3.59,3.59,0,0,1-1.66,0C121,77.51,97.08,68,97.08,68c5.5-5.94,10.17-10.32,11.67-10a1.13,1.13,0,0,0,.24.05l2.53,1c-.85,1.29-3.68,6.2-.35,10.51,3.87,5,2-1.22,1.58-3s.09-5.11,2.19-6.18l17.69,7C131.83,68.35,130.82,69.4,129.77,70.52Z"/><path class="cls-3" d="M62.78,27.76c-.7-.75-1.7-.09-2.87,1.39a51.66,51.66,0,0,0-5,7.77,24.31,24.31,0,0,1-4.65,6.4,13.13,13.13,0,0,0-2.48,3.81,2.66,2.66,0,0,0,1.15,3.58l.19.09c.49.92,5.3,10.3-1,18.36-6.59,8.48-37.72,21.07-24.21,28l21.68,11.11S63,90.32,75,79.32L81,57.54,68.11,52.35l9.41-8.55L65.29,38.37c-.6-3-1.14-6-1.82-9A3.49,3.49,0,0,0,62.78,27.76ZM81.86,74.39"/><path class="cls-4" d="M71,105.93h0Z"/><path class="cls-4" d="M71.77,104.27v0S71.78,104.27,71.77,104.27Z"/><path class="cls-4" d="M70.51,106.94h0l0,.07Z"/><path class="cls-4" d="M73.3,100.65v0S73.31,100.66,73.3,100.65Z"/><path class="cls-4" d="M72.38,102.79a.08.08,0,0,1,0,0S72.36,102.77,72.38,102.79Z"/><path class="cls-4" d="M69.65,107.25h0S69.66,107.23,69.65,107.25Z"/><path class="cls-4" d="M69.45,108.37h0Z"/><path class="cls-4" d="M69.78,108s0,0,0,0S69.76,108,69.78,108Z"/><path class="cls-4" d="M69.76,108h0A0,0,0,0,0,69.76,108Z"/><path class="cls-4" d="M77.85,87.14s0-.07,0-.1Z"/><path class="cls-4" d="M74.52,97.31h0Z"/><path class="cls-4" d="M77.47,87v0S77.47,87,77.47,87Z"/><path class="cls-4" d="M69.72,106.65c0-.05,0-.09,0-.1S69.67,106.61,69.72,106.65Z"/><path class="cls-4" d="M73.11,96v0Z"/><path class="cls-4" d="M77.47,87l0,0h0Z"/><polygon class="cls-4" points="75.77 93.83 75.77 93.83 75.78 93.84 75.77 93.83"/><path class="cls-4" d="M75.91,93.67v0A0,0,0,0,0,75.91,93.67Z"/><path class="cls-4" d="M77.81,87V87A.13.13,0,0,0,77.81,87Z"/><path class="cls-4" d="M76.55,91.66v0Z"/><path class="cls-4" d="M72.3,102.92h0S72.31,102.94,72.3,102.92Z"/><polygon class="cls-4" points="71.62 101.13 71.62 101.13 71.62 101.13 71.62 101.13"/><path class="cls-4" d="M71.65,101.22s0-.07,0-.09S71.61,101.17,71.65,101.22Z"/><path class="cls-4" d="M71.7,101h0Z"/><polygon class="cls-4" points="71.09 102.42 71.09 102.43 71.09 102.42 71.09 102.42"/><path class="cls-4" d="M71.18,102.13h0Z"/><polygon class="cls-4" points="71.83 100.2 71.84 100.2 71.84 100.2 71.83 100.2"/><path class="cls-4" d="M72.49,97.33a5.19,5.19,0,0,1-.24.94.33.33,0,0,1,0,.27l-.13,0v.09s0-.07-.06,0l.06.05s-.09.18-.14,0l-.1.28c0,.06.09.07,0,.13s0,0-.06,0c-.17.18.14.32,0,.5v0c0,.05,0,.11,0,.12s-.05-.06,0-.09,0,.09.11.11,0,.08,0,.12-.08.16-.18.18.11.12.09.19-.08,0-.13,0l.06,0s0,0-.07,0,.06.08,0,.15l0-.07a.25.25,0,0,1-.05.16s0,0,0-.06,0,.09,0,.11.06,0,.11,0,0,.12,0,.12l0-.06c0,.09.06.07,0,.15h0c.06.08,0,.13-.07.22v0s0,.08,0,.1.06,0,.12,0c-.12,0,.08.14,0,.23s-.06,0,0-.07-.18-.11-.2-.19,0,.1,0,.08l.09,0,0,.06c.06,0,.12,0,.13.06s-.1,0-.07,0,.09.07,0,.14,0,0,0,0,0,.16-.16.14,0,0,0,0h0c-.06-.09,0,.07-.09,0,.06,0,0,.1,0,.13l.08,0c.16.2-.14-.06-.16.08s0,0,.06,0-.1,0-.1.14a.19.19,0,0,1-.16,0c0,.06-.09.14,0,.19s0-.11.08-.17l.07,0c0,.07,0,.17-.07.21s0,0,.05,0,.06.16,0,.24,0-.06,0-.1,0,.06-.08.14,0-.06,0-.09l0,.11h0c.1,0,0,.07,0,.15s.08.22.13.33-.07,0-.09,0,0,0,0-.05-.14.08-.17,0,.07,0,.08.05L71,103c.06,0,.08,0,.1,0s0,.07,0,.14-.09,0-.07-.06,0,.07,0,.11,0,.13.1.1l-.07.06s0,0,0-.05,0,.06,0,.09,0,.08-.09.07,0,.08-.06.07.05,0,.07,0l0,.11s-.16,0-.17-.07.12.06.09.13-.09.06-.17,0-.11.12-.11.18.06,0,.13,0,.15.24.07.35l0,0a.25.25,0,0,0,.05.13.22.22,0,0,0-.28.13s.11,0,.17,0l0,.08,0,0c0,.08-.15.09-.06.14l-.15,0h.06s0,.11,0,.13,0,.12-.1.14.13,0,.12.06-.1.12-.17.09-.07.06,0,.08l-.08,0c.11.05.07.14.07.22-.16-.07,0,.08-.18.06.11,0,0,.15.09.19s-.11,0-.15,0l0,0c-.06,0-.11.11-.17.16L70,106h0s0,.07.06,0v0c.1,0,0,.06,0,.13a0,0,0,0,1,0,0s-.06,0-.1,0,.14.18.22.12a.05.05,0,0,1,0,.09l-.1,0,.09.08c0,.05-.07.05-.1.08s-.15-.15-.18,0a.39.39,0,0,0,0-.13s0,0,0,0,0,0,0,.13-.12,0-.17,0l.08,0s0,0,0,0a.06.06,0,0,1,.06,0s.08.13,0,.13c.16,0,0,.17.15.15a0,0,0,0,1,0,.06c0-.08-.11,0-.17,0s.08,0,.1,0-.07.06-.1.07v0l-.06,0s.09,0,.09,0,0,.08-.05.06-.13,0-.13-.11,0,.18,0,.15l0,.05s.14-.08.12,0h0l.05.09-.06,0a0,0,0,0,1,0,.05s0,0-.08,0,0,.08,0,.1,0,0-.07,0-.05.15-.11.17,0,0,.06.06c-.17,0-.14.22-.16.34.14,0,0,0,.11.11s-.14.07-.14,0v.06c-.09,0,0-.12-.14-.09s.11.17,0,.24,0,.07-.09,0,0,0,0-.08h0c-.08.15.1.08.13.19s-.1,0-.14,0,0,.06,0,.09.1-.08.15,0c-.12,0-.06.14,0,.18s0-.09.21-.18c0,0-.13-.06-.06-.12s.05,0,.07,0,0-.06,0-.09.1.09.15,0l-.12-.06s.09,0,.08,0,.11,0,.1.12c.15-.07,0-.18,0-.28l0,0s0-.06,0-.09,0,.06.09.06l0-.09a0,0,0,0,1,0,0s0-.06,0-.06l.09.1,0-.12s.1,0,.1,0l0-.14.09,0s0,0,0,0-.08-.26.08-.17c0-.13,0-.16,0-.3.05.12.15-.08.14,0,.06,0,0-.1,0-.15s.13,0,.14.08l0-.08h0l0-.06c.06,0,.09,0,.12,0l-.07,0,.06,0s0,0,0-.07h0v0c0,.06,0,0,.08,0a.25.25,0,0,0,0-.12h-.06c0-.12.08,0,.11-.06h-.06c.14-.08,0-.22.11-.28s.07.07.05.06a.56.56,0,0,0,0-.29c.09,0,.12,0,.19-.06a.08.08,0,0,0,0-.1s0-.16.1-.14,0-.05,0-.09h0c.17,0,0-.19.13-.25v0s0,0,.08,0l.07-.18,0,0s0-.09,0-.12,0-.06.1,0v0c0-.06,0-.06,0-.07s.13,0,.09-.1l0,0s-.08-.05-.06-.08,0,0,0,0,.06-.14,0-.17a0,0,0,0,1,.07,0c0-.14,0,0,0-.19l0,0,0-.06.1,0h0s0-.07,0-.11l.05,0c0-.13.13-.1.1-.23s0,0,0,0,.12,0,.06-.17l0,0,0-.06.07,0-.09-.08h.08l0,0c.15,0,.07-.1.19-.13l-.09,0c-.12-.23.24-.35.23-.58l.06,0-.05-.11c.07,0,.05,0,.09,0s-.09-.07-.07-.18,0,0,.06.07a.53.53,0,0,1,.08-.32h0c0-.08.06-.15.08-.22s0,0,0,0,0,0,0-.09l0,0s0-.17.09-.16-.08,0-.06-.07,0-.14.08-.2,0,.08,0,.06,0-.08,0-.12l0,0V102c.11,0,0-.17.11-.13s-.06,0,0,0,0-.08.07,0h0v0l.06,0a.17.17,0,0,0-.1-.13c.05,0,0-.11.11-.1v0c0-.14.26-.15.18-.29s0,0,0,0l0-.08,0,0,0-.16h0a1.42,1.42,0,0,0,.11-.33v0c0-.14.07-.1.06-.21s0,0,0,0l0-.08,0,0c0-.09.15-.14.08-.12s0-.12-.08-.14,0,0,.1,0,0-.1,0-.17h0a.56.56,0,0,1,0-.13v0c0-.11.14-.07,0-.2,0,0,0-.11.11-.08,0-.13,0-.22,0-.34s0,0,.09-.07l-.06,0c0-.16.26-.29.3-.47h.06l0-.06c.09-.17.2-.41.26-.56s-.06-.16,0-.23h0a.86.86,0,0,1,.13-.43s0,0,0,0,0-.09,0-.12l-.06,0c0-.06,0-.1.09-.11l0-.09h0l0,0h.09s0-.12-.06-.17.07,0,.07,0l.11-.24,0,0a.08.08,0,0,1,0-.13c0,.07.08,0,.14,0s-.07,0-.09,0,0-.15,0-.16v0c0-.06.11-.05.13-.11s0-.09-.08-.11.08,0,.1,0,0-.14.08-.13c-.13-.1.13-.18,0-.24L75,96s-.11,0-.1-.11.1,0,.14,0L75,95.82c.23-.22.26-.59.47-.84a1.56,1.56,0,0,1,.09-.46v0l.09-.13-.1.08s0-.07,0-.1a1,1,0,0,0,.26-.56c-.1-.18.16,0,.1-.2,0,0,0,0,0,0a1.33,1.33,0,0,0,0-.39c.14.06,0-.09.1,0l0,0s.08-.08.12,0L76,93.05l.06,0c0-.08,0-.26.18-.26a1.73,1.73,0,0,1,.22-.76.19.19,0,0,1,0-.18l.09,0c0-.07-.07-.16,0-.2s0,0,0,0,.07-.11,0-.19a.09.09,0,0,1,.14-.06c-.11,0,.07-.13.07-.13s1.43-3.12,1.07-4.14c0,0-.07-.13-.15-.13s.11-.05.06-.08-.14-.08-.24,0v-.06s0,.09,0,0l.11,0a.14.14,0,0,1-.11,0c0,.05.17.12.08.19v0c0,.08-.09,0-.11,0v0l-.08,0s0-.14,0-.1,0,0,0,0-.06,0-.1,0l0,.07c-.05,0,0,0,0,0l0,.1c-.14,0,0,.12-.11.12s0,0-.08,0l0,.16s0-.06,0,0,0,.06,0,.07,0,.12-.13.09.1.08,0,.16,0-.08,0,0l0,.11s-.08-.05-.05-.09c-.17.26-.5.31-.52.59-.07,0,0,0-.06-.08,0,.22-.23.21-.28.37l.05,0c-.24.16-.23.46-.39.68h0a.44.44,0,0,1,0,.15s-.1-.06-.1,0,0,0,.07,0a3.86,3.86,0,0,0-.52,1c-.13.49-.42,1-.55,1.45,0-.08.14,0,.09,0-.27.07-.06.27-.26.37,0,.29-.29.47-.22.78l-.06,0s0,.06,0,.1h0c-.06.09,0,.22-.08.27l.06,0c0,.06-.06,0,0,.08h0l0,.09c-.12,0-.07.15-.14.18a.68.68,0,0,1-.06.33c-.07,0-.12.14-.18.21a3.68,3.68,0,0,1-.2.62l.08,0,0,0s0,0,0,0,0,.14-.09.16c.08,0,0,0,0-.06s.11,0,0,.08h0l0,.06c-.06,0-.11,0-.17,0,0,.19,0,.35-.08.53-.06,0,0,.14-.14.06,0,.13.1,0,.17.1s0,.07,0,.06-.08,0-.08,0l0,.08s0,0,0,0c0,.18-.17.25-.15.41s0,0,.07,0c0,.17-.12.1-.1.25l0,0c0,.06.07.09,0,.15s0-.08-.06-.13,0,.18,0,.16-.07.06-.1.09.07,0,.09,0a.79.79,0,0,0-.15.27l0,0C72.66,97.28,72.51,97.21,72.49,97.33Z"/><path class="cls-4" d="M71.06,102.46l0,0s0,0,0,0Z"/><path class="cls-4" d="M71.74,100.68s0,0,0,0S71.74,100.67,71.74,100.68Z"/><path class="cls-4" d="M71.78,100.2s0,0,0,0S71.8,100.19,71.78,100.2Z"/><path class="cls-4" d="M70.88,103.54a0,0,0,0,0,0,0S70.87,103.54,70.88,103.54Z"/><path class="cls-4" d="M69.84,106.34h0S69.84,106.33,69.84,106.34Z"/><path class="cls-4" d="M70,106.22v0A0,0,0,0,0,70,106.22Z"/><path class="cls-4" d="M71.1,102.85a.08.08,0,0,0,0,0S71.09,102.84,71.1,102.85Z"/><path class="cls-4" d="M70,106.15l0,0h0Z"/><path class="cls-4" d="M69.81,106.39s0,0,0,0S69.8,106.37,69.81,106.39Z"/><path class="cls-4" d="M70.6,104.61h0S70.59,104.58,70.6,104.61Z"/><polygon class="cls-4" points="69.94 105.94 69.94 105.93 69.93 105.91 69.94 105.94"/><path class="cls-4" d="M69.72,106.55v0l0,0Z"/><path class="cls-4" d="M70.29,105.16l0,0S70.34,105.17,70.29,105.16Z"/><path class="cls-4" d="M93.63,112.83a0,0,0,0,0,0,0Z"/><path class="cls-4" d="M93.47,110.51l0,0S93.48,110.51,93.47,110.51Z"/><path class="cls-4" d="M93.76,114.22h0s0,0,0,.1Z"/><path class="cls-4" d="M92.92,105.58v0S92.93,105.58,92.92,105.58Z"/><path class="cls-4" d="M93.23,108.5s0,0,0,0A0,0,0,0,0,93.23,108.5Z"/><path class="cls-4" d="M93.18,115.06l0,0A.07.07,0,0,0,93.18,115.06Z"/><path class="cls-4" d="M93.59,116.42h0Z"/><path class="cls-4" d="M93.69,115.85l0,0S93.67,115.85,93.69,115.85Z"/><path class="cls-4" d="M93.65,115.8h0Z"/><path class="cls-4" d="M89.85,87.84s0-.07-.08-.1Z"/><path class="cls-4" d="M92.24,101.14h0Z"/><path class="cls-4" d="M89.43,87.86v0A0,0,0,0,0,89.43,87.86Z"/><path class="cls-4" d="M92.93,114.34c-.05,0,0-.12-.05-.11S92.87,114.33,92.93,114.34Z"/><path class="cls-4" d="M90.35,100.48v0Z"/><path class="cls-4" d="M89.43,87.86v0h0Z"/><polygon class="cls-4" points="91.53 96.53 91.53 96.53 91.53 96.53 91.53 96.53"/><path class="cls-4" d="M91.56,96.27l0,0A.06.06,0,0,0,91.56,96.27Z"/><path class="cls-4" d="M89.77,87.74l0-.06S89.75,87.72,89.77,87.74Z"/><path class="cls-4" d="M91.07,93.64s0,0,0,0S91.08,93.65,91.07,93.64Z"/><path class="cls-4" d="M93.23,108.69a0,0,0,0,1,0,0S93.24,108.71,93.23,108.69Z"/><polygon class="cls-4" points="91.71 107.06 91.71 107.06 91.71 107.06 91.71 107.06"/><path class="cls-4" d="M91.79,107.15s0-.07-.08-.08S91.73,107.12,91.79,107.15Z"/><path class="cls-4" d="M91.7,106.85v0Z"/><polygon class="cls-4" points="91.92 108.83 91.93 108.83 91.92 108.82 91.92 108.83"/><path class="cls-4" d="M91.86,108.44s0,0,0,0A0,0,0,0,0,91.86,108.44Z"/><polygon class="cls-4" points="91.42 105.91 91.42 105.91 91.42 105.91 91.42 105.91"/><path class="cls-4" d="M90.5,102.31a9.78,9.78,0,0,1,.28,1.19c.11.06.13.18.17.29l-.12,0,0,.09s0-.07-.07,0l.08,0s0,.26-.1.11l.06.37c0,.09.11,0,.09.13s0,0-.07,0c-.05.29.29.28.28.54h0s.05.12.07.12-.08,0,0-.13.07.09.16.07,0,.09,0,.14,0,.22-.06.31.15.07.17.16-.08,0-.1.09h.07c0,.08,0,.07,0,.07s.1,0,.07.16l-.07,0a.59.59,0,0,1,0,.21s0,0,0-.07.06.09,0,.12,0-.09.09-.06.11.1,0,.15l-.07-.05c.06.1.09,0,.08.17h0c.09.07,0,.18,0,.3l0,0s.08.06.08.08,0,0,.11-.07c-.09.1.14.11.1.27,0,0-.08,0,0-.07-.12,0-.21,0-.27-.1s.06.11,0,.1h.1a.25.25,0,0,1,0,.08c.07,0,.09-.08.15,0s-.1.06,0,.07.11,0,.1.15,0,0,0,0,0,.2-.07.24-.06,0-.06,0h0c-.1-.08,0,.07-.08.06.07,0,.07.1.07.15l.07,0c.24.14-.15,0-.09.18s0,0,.07,0-.06.11,0,.21a.22.22,0,0,1-.13.12c0,.06,0,.2.08.22s-.11-.09,0-.24l.08,0c0,.08.07.19.05.26a.06.06,0,0,1,0,0c0,.12.14.15.13.27s-.07,0-.08-.09,0,.08,0,.21,0-.09-.07-.09l0,.13h0c.11,0,0,.11,0,.19s.18.21.28.3a.06.06,0,0,1-.08,0c0-.06,0,0,0,0s-.08.16-.13.13,0-.05.09,0l0,.15s0-.08.1,0a.45.45,0,0,1,0,.18s-.07,0-.08,0,0,.11,0,.12.07.15.14.06l0,.1s0,0,0-.05,0,.07,0,.1,0,.12,0,.14a.08.08,0,0,1,0,.11s0,0,.08,0l0,.14s-.17.05-.19,0,.13,0,.14.08,0,.12-.16.07,0,.19,0,.27,0-.09.1-.1c.06.21.26.19.25.35v0c.06.09,0,.08.11.12-.09,0-.22.15-.17.31,0,0,.07-.11.14-.09l0,.1h0c0,.09-.09.19,0,.2l-.12.12,0-.05s.08.11.1.13a.16.16,0,0,1,0,.21s.1-.08.13,0c-.14,0,0,.19-.1.2s0,.1,0,.09h-.09c.13,0,.14.12.18.21-.17,0,0,.1-.12.17.12,0,.08.16.18.16s-.09.08-.13.11l0,0s0,.18-.06.27l.12.06-.05,0s.06.06.09,0v0c.11,0,0,.05.1.13a0,0,0,0,1-.06,0s0,0-.09.06.22.11.26,0,.08,0,.07.09l-.1,0,.12,0c0,.06,0,.09,0,.15s-.21-.09-.19,0c0-.07-.08-.1-.11-.13s0,0-.06,0c0,.11.07,0,.1.13s-.11,0-.13.14l.06-.08h0a.06.06,0,0,1,0,0s.13.11.08.13c.12-.12.14.17.21.09s0,.08,0,.1-.09.08-.15.07,0-.08.09,0,0,.1,0,.13h0l0,.08s.06-.09.1,0,0,.1,0,.1-.14,0-.17,0,0,.22.12.14v.06s.08-.16.12,0h0l.08.08,0,0a.05.05,0,0,1,0,0s0,0-.07,0,.06.08.09.09,0,.07-.06.06,0,.19,0,.25,0,0,.08,0c-.14.11,0,.33,0,.49.13-.07,0,0,.15,0,0,0-.08.16-.14,0l0,.08c-.06.07-.08-.13-.16,0s.17.13.14.25,0,.08-.06.07,0,0,0-.08v0c0,.21.12,0,.2.14s-.06.11-.1.13,0,.08,0,.11,0-.15.1-.13c-.1.08,0,.19.07.22.09-.2,0-.13.09-.32,0,0-.14,0-.12-.1.06.05.06,0,.07,0s0-.06-.06-.09.14,0,.14-.07h-.13s.1,0,0-.08.11,0,.15.08c.09-.16-.1-.2-.16-.3h0s-.05-.06-.06-.09.07,0,.1,0l0-.12h0s0-.06,0-.07l.14,0-.12-.11s.06-.11.11,0l0-.17.09,0s0,0,0,0-.2-.25,0-.24c-.1-.13-.08-.19-.15-.35.11.12.08-.16.14,0,0-.09-.07-.09-.09-.15s.12-.06.16,0l0-.07h0l-.07,0c0-.08.09,0,.09-.11h-.08l0-.06s-.06,0-.07-.06h0l0-.06c.06.06,0-.06.07,0a.41.41,0,0,0,0-.15l0,0c-.06-.12.08,0,.07-.12l-.06,0c.08-.17-.1-.25,0-.37,0,.06.1,0,.08,0s0-.25-.14-.34c.09,0,.11-.06.14-.17s0-.08-.09-.1,0-.2,0-.22,0-.06,0-.09l0,0-.06,0c.12-.15-.11-.2,0-.35l0,0,0,0s0,0,.08,0l0-.25,0,.06s-.08-.08,0-.14,0-.09.06-.12l0,0c0-.07,0-.07-.08,0s.11-.09,0-.16v.06s-.09,0-.1-.06,0,0,0,0,0-.19,0-.22,0,0,.08,0c-.09-.15,0-.07-.08-.22h0l0,0,.06-.09,0,0s0-.08,0-.14h0c0-.14.07-.18,0-.31s0,0,0,0,.08-.12,0-.23c0,0,0,0,.06,0l0-.06h.07l-.12,0,.07,0,0,0c.13-.09,0-.16.1-.27l-.09,0c-.22-.19,0-.52-.1-.77h.07l-.1-.09c0-.07.07,0,.1,0s-.11,0-.15-.17.05,0,.08.05a.94.94,0,0,1-.1-.4s0,0,0,0,0-.2,0-.3,0,0,0,0,0-.09,0-.11l.06,0c0-.07-.07-.2,0-.23s-.08,0-.09,0-.07-.17,0-.28,0,.09,0,.06,0-.09-.08-.13h0l-.1-.22c.11-.06,0-.22,0-.22s0,.08-.06,0,0-.1,0-.1h0l0-.08.08,0a.15.15,0,0,0-.16-.09c0-.07,0-.15,0-.19l0,0c-.06-.16.15-.31,0-.42s0,0,0,0v-.11l.06,0-.11-.16h0a2.65,2.65,0,0,0-.09-.44l0,0c-.08-.15,0-.16,0-.27s0,0,0,0l0-.11,0,0c-.09-.07.07-.24,0-.18s-.09-.11-.14-.12,0,0,.06-.11-.07-.09-.06-.2h0a1.07,1.07,0,0,1-.07-.15l0,0c-.09-.11.09-.17-.09-.24,0,0,0-.14.06-.15a2.78,2.78,0,0,1-.16-.4c.11,0,0,0,0-.13l-.06,0c0-.21.07-.47,0-.7l.06,0-.07,0c0-.26,0-.58-.07-.78s-.14-.15-.13-.25h0a1.75,1.75,0,0,1-.12-.56s0,0,.07,0,0-.11,0-.16l0,.06c-.07,0,0-.13,0-.17l-.08-.08,0,0h0l.07-.06s-.06-.13-.14-.15,0-.1.06,0l0-.33,0,.06c-.06,0-.12-.08-.1-.13s.09,0,.13,0-.05,0-.08,0-.1-.16-.07-.19l0,0c0-.07.07-.12,0-.2s0-.11-.13-.08.07,0,.08-.08,0-.18,0-.2c-.17,0,0-.27-.12-.27l.06-.09a.13.13,0,0,1-.14-.06c0-.06.09-.06.13-.08l-.14,0c.09-.37-.08-.81,0-1.21a2.38,2.38,0,0,1-.17-.57l0,0v-.2l0,.15a.6.6,0,0,1-.06-.11,1.59,1.59,0,0,0-.07-.77c-.18-.15.12-.14,0-.28l.06,0a2,2,0,0,0-.24-.42c.16,0,0-.12.06-.12h-.06s0-.14.07-.13l-.08-.07.06,0c0-.1-.1-.32,0-.39a2.67,2.67,0,0,1-.2-1c-.06,0-.08-.13-.1-.2l.07-.09c0-.07-.15-.14-.11-.21h0c0-.07,0-.15-.08-.21s0-.17.09-.16c-.12,0,0-.18,0-.18s-.37-4.31-1.22-5.25c-.07,0-.12-.11-.19-.07s.07-.12,0-.12-.17,0-.23.1l0-.06s.06.08,0,.08h.12a.16.16,0,0,1-.07.11s.21.05.16.17v0c0,.1-.06.07-.08.09v0l0,.09c0-.06-.08-.15-.06-.1s0,0,0,0,0,.05-.09.05l0,.09s0-.06,0,0l.07.11c-.13,0,.09.12,0,.19,0-.08,0,0-.09,0l0,.21s0,0,0,0,0,.06,0,.08,0,.16-.07.17.13,0,.1.18,0-.11-.08,0l0,.14s-.09,0-.09-.07c0,.38-.26.63-.14,1-.06,0,0,0-.09-.06.12.23-.09.37-.05.58H89c-.12.32,0,.66,0,1l0,0a.42.42,0,0,1,.11.16s-.12,0-.08.07,0-.07.06-.06a6,6,0,0,0,0,1.38c.14.62.14,1.32.28,1.93,0-.1.11-.08.1,0-.2.23.09.33,0,.55.12.35,0,.7.21,1l-.07,0s0,.06,0,.11h0c0,.13.08.27.06.34h.07c0,.07,0,0,0,.11h0l.08.07c-.12,0,0,.21,0,.28A1.17,1.17,0,0,1,90,98c-.06,0,0,.22,0,.34a7,7,0,0,1,.15.81l.08,0v.07s0,0,0,0,0,.16,0,.23,0,0,0-.1.12,0,.09.07h0l.06,0c-.07,0-.09.07-.15.09.05.24.19.38.2.64-.08,0,0,.17-.09.14.07.14.1,0,.2,0s0,.08,0,.09-.07,0-.09,0l0,.1s0,0,0,0c.1.2,0,.38.08.55,0,0,0-.08,0-.07.12.17,0,.17,0,.33l-.06,0c0,.05.1.06.07.16s-.07-.07-.11-.1,0,.21.1.16,0,.1,0,.15,0-.08.07,0a1.76,1.76,0,0,0,0,.39s0,0,0,0S90.45,102.17,90.5,102.31Z"/><path class="cls-4" d="M91.92,108.88v0a.06.06,0,0,1,0,0Z"/><path class="cls-4" d="M91.59,106.49h0Z"/><path class="cls-4" d="M91.37,105.93s0,0,0,0A.06.06,0,0,0,91.37,105.93Z"/><path class="cls-4" d="M92.33,110.2s0,0,0,0Z"/><path class="cls-4" d="M92.87,113.93v0S92.87,113.92,92.87,113.93Z"/><path class="cls-4" d="M93,113.71l0,0A.08.08,0,0,0,93,113.71Z"/><path class="cls-4" d="M92.16,109.3l0,0S92.14,109.29,92.16,109.3Z"/><path class="cls-4" d="M92.91,113.62v-.05h0Z"/><path class="cls-4" d="M92.87,114v-.07A.06.06,0,0,0,92.87,114Z"/><path class="cls-4" d="M92.64,111.55h0Z"/><polygon class="cls-4" points="92.75 113.42 92.75 113.41 92.73 113.4 92.75 113.42"/><path class="cls-4" d="M92.88,114.23s0,0,0,0v0Z"/><path class="cls-4" d="M92.65,112.35h.06S92.69,112.33,92.65,112.35Z"/><path class="cls-4" d="M116.61,97.21l0,0Z"/><path class="cls-4" d="M115.37,95.87h0S115.38,95.86,115.37,95.87Z"/><path class="cls-4" d="M117.37,98h0l.06.06Z"/><path class="cls-4" d="M112.59,93.18h0Z"/><path class="cls-4" d="M114.23,94.78s0,0,0,0S114.21,94.8,114.23,94.78Z"/><path class="cls-4" d="M117.35,98.89v-.06A.06.06,0,0,0,117.35,98.89Z"/><path class="cls-4" d="M118.31,99.46h0Z"/><path class="cls-4" d="M118.1,99h0S118.09,99.05,118.1,99Z"/><path class="cls-4" d="M118.05,99h0S118.05,99,118.05,99Z"/><path class="cls-4" d="M101.8,84.23s-.07,0-.11,0Z"/><path class="cls-4" d="M110,90.88h0Z"/><path class="cls-4" d="M101.5,84.51v0S101.49,84.51,101.5,84.51Z"/><path class="cls-4" d="M116.82,98.61s-.07-.07-.1,0S116.77,98.64,116.82,98.61Z"/><path class="cls-4" d="M108.25,91.73h0Z"/><path class="cls-4" d="M101.5,84.51v0Z"/><path class="cls-4" d="M107.21,88.49Z"/><path class="cls-4" d="M107.11,88.31l0,0S107.13,88.31,107.11,88.31Z"/><path class="cls-4" d="M101.69,84.22h0Z"/><path class="cls-4" d="M105.49,87h0Z"/><path class="cls-4" d="M114.32,94.9v0S114.34,94.91,114.32,94.9Z"/><polygon class="cls-4" points="112.42 94.91 112.42 94.91 112.42 94.91 112.42 94.91"/><path class="cls-4" d="M112.52,94.91a.09.09,0,0,0-.1,0S112.46,94.93,112.52,94.91Z"/><path class="cls-4" d="M112.31,94.78h0Z"/><polygon class="cls-4" points="113.42 95.86 113.43 95.85 113.42 95.86 113.42 95.86"/><path class="cls-4" d="M113.19,95.66s0,0,0,0S113.18,95.66,113.19,95.66Z"/><polygon class="cls-4" points="111.65 94.39 111.65 94.39 111.65 94.38 111.65 94.39"/><path class="cls-4" d="M109.23,92.77a5.56,5.56,0,0,1,.79.55.3.3,0,0,1,.26.07l-.07.1.08,0s-.06,0-.05,0l.07,0s.13.15,0,.14l.22.19s.1-.06.13,0,0,0-.06,0c.11.22.35,0,.47.16h0s.09,0,.1,0-.07,0-.07-.07.1,0,.15-.06.07,0,.11.05.12.13.1.23.15-.06.21,0-.07,0,0,.12l.05,0s0,0,0,.07.09,0,.13.06h-.07c.06,0,.07,0,.13.11s0,0-.06,0,.08,0,.09,0,0-.07,0-.1.12,0,.1.06l-.08,0c.1,0,.09,0,.15,0l0,0c.1,0,.11.09.18.16h0s.1,0,.11,0,0-.06,0-.11c0,.12.16,0,.21.09s-.08,0-.08,0-.16.12-.24.11.1,0,.06.06l.07-.07,0,0s0-.11.1-.11,0,.1,0,.08.1-.06.14,0,0,0,0,0,.13.09.06.2,0,0-.06,0h0c-.11,0,.06,0,0,.09s.09,0,.12,0l0-.06c.24-.08-.1.1,0,.17s0,0,.07,0,0,.11.09.15a.23.23,0,0,1,0,.16c.06,0,.09.13.17.08s-.13,0-.13-.13l.07,0s.15.08.16.14l0,0c.1,0,.17,0,.23.08s-.07,0-.11,0,0,0,.11.13,0,0-.1,0l.09,0h0c.08-.07,0,.07.12.08s.23,0,.35,0,0,.07,0,.08,0,0-.05,0,0,.15,0,.16,0-.06.07,0l.09.08s0-.09.07-.08.06,0,.11.09,0,.08-.08,0a.07.07,0,0,0,.1.05c0-.09.12,0,.13-.06l0,.08s0,0,0,0,.06,0,.08,0,.06.08,0,.11a.06.06,0,0,1,0,.08s0,0,.06,0l.09.08a1.08,1.08,0,0,1-.13.15c.06,0,.1-.1.15,0s0,.11-.09.15.07.14.13.16,0-.07,0-.12.28-.06.35,0v0a.26.26,0,0,0,.15,0,.2.2,0,0,0,0,.3s0-.11.07-.15l.07,0s0,0,0,0,0,.18.11.11l0,.15,0-.06s.11,0,.13,0,.09.06.09.14,0-.13.1-.1c-.09.11.07.14,0,.19s0,.08.07,0l-.06.07c.09-.1.16,0,.23,0-.12.11.07,0,0,.18.08-.08.13.05.2,0s0,.11,0,.15l.05,0c0,.06.06.14.09.21l.11,0v0s.07,0,.07,0l0,0c.08-.08.06,0,.14,0a0,0,0,0,1,0,0s0,.06,0,.1.22-.08.19-.17.08,0,.09,0l0,.09.1-.06c.05,0,0,.09.05.12s-.2.09-.12.16-.11,0-.14,0,0,0,0,0,.06,0,.13,0a.13.13,0,0,0,0,.17v-.08h0s0,0,0-.07.15,0,.13,0c0-.16.18,0,.19-.09a0,0,0,0,1,0,.06c-.1,0,0,.11-.08.15s0-.08,0-.08,0,.08,0,.12h0l0,.07s0-.1.06-.08.06,0,0,.07-.1.11-.15.09.14.1.16,0l0,0c0-.05,0-.15.07-.1h.08v0a0,0,0,0,1,.06,0s0,.05,0,.08.09,0,.11,0,0,0,0,.08.12.1.11.16,0,0,.08,0c-.06.16.15.21.26.27.06-.12,0,0,.13-.07,0,0,0,.16-.09.12l.06,0c0,.09-.12,0-.13.1s.19,0,.23.06.07,0,0,.08,0,0-.07,0v0c.1.13.11-.06.22,0s0,.11,0,.14.05,0,.09,0,0-.12,0-.15.11.1.16.09c0-.19-.07-.07-.09-.25,0,0-.1.09-.14,0s0,0,0-.06-.06,0-.1,0,.13-.07.08-.14l-.1.1s.08-.07,0-.09c.08,0,.07-.09.15,0,0-.16-.17-.06-.26-.08h0a.11.11,0,0,1-.08,0c0-.06.07,0,.09-.06L118,99h0s-.06,0,0,0a.34.34,0,0,0,.12-.06H118s0-.11.06-.09l-.12-.08,0-.07s0,0,0,0-.27,0-.13-.14c-.13,0-.15-.07-.28-.12.14,0,0-.16.09-.12s-.1,0-.14,0a.11.11,0,0,1,.12-.11h-.13c0-.08,0-.08,0-.13l-.06.06v-.07s0,0-.08,0h0l0,0c.07,0,0,0,0-.08l-.1-.07,0,0c-.11,0,.05-.06,0-.12l0,0c0-.15-.19-.08-.21-.19s.09,0,.07,0-.15-.12-.26-.12,0-.11,0-.19-.06,0-.11,0-.14-.09-.09-.14,0,0-.09,0v0l0,.06c0-.18-.18,0-.18-.21h0s0,0,.06-.06l-.14-.14v.07s-.1,0-.11-.06,0,0,0-.11h.05c-.05,0-.05,0-.09,0s0-.13-.06-.12l0,0a.08.08,0,0,1-.1,0s0,0,0,0-.11-.1-.14-.1,0-.07,0-.07c-.14,0,0,0-.17-.08l0,0h-.06v-.09l0,0s-.07,0-.09-.07l.05,0c-.11,0-.05-.16-.18-.17s0,0,0,0c-.14,0,0-.12-.15-.11l0,0h-.06l0,0-.1.06,0-.08,0,0c0-.14-.07-.11,0-.23l0,.07c-.26,0-.24-.34-.45-.41l0,0h-.12c0-.07.06,0,.07-.07s-.1.06-.19,0,0,0,.08,0-.24-.1-.26-.18l0,0c-.07,0-.12-.1-.18-.15s0,0,.06,0,0-.06-.07,0l.06,0s-.15-.07-.12-.14,0,.07-.08,0-.13,0-.16-.15.08,0,.07,0-.08,0-.13,0l0,0-.18-.08c0-.1-.14-.1-.08-.15s0,.07-.06,0-.07,0,0-.09h0l0,0,.08,0a.16.16,0,0,0-.16,0c0-.06-.08-.08-.06-.15h0c-.12-.06,0-.29-.2-.27,0,0,0,0,0,0l-.06-.06.05,0-.15,0,0,0a1.48,1.48,0,0,0-.27-.21h0c-.13,0-.07-.11-.16-.14s0,0,0,0l-.06-.06h0c-.1,0-.07-.19-.09-.12a.36.36,0,0,0-.15,0c-.07-.05,0-.05,0-.11s-.1,0-.15-.08l0,0-.12-.05h0c-.12,0,0-.15-.17-.08s-.09-.08,0-.13l-.31-.14c.06-.1,0,0,0-.11l0,0c-.13-.1-.17-.34-.33-.44l0,0-.07,0a3.62,3.62,0,0,0-.43-.44c-.06,0-.17,0-.21-.07h0a1.17,1.17,0,0,1-.36-.27s0,0,0,0-.07-.06-.09-.08V91c-.08,0-.09-.07-.07-.12H110a0,0,0,0,1,0,0l0,0,0-.09a.26.26,0,0,0-.18,0s0-.09,0-.06l-.18-.19v0a.07.07,0,0,1-.13,0c.07,0,.06-.06.08-.11s0,.06,0,.08-.15,0-.15-.08h0c-.06,0,0-.12-.06-.16s-.07,0-.13,0,0-.08,0-.1a.1.1,0,0,1-.09-.13c-.14.09-.12-.18-.22-.09V90s-.09.08-.14,0,0-.1,0-.13l-.11.08c-.11-.29-.45-.45-.59-.74a1.29,1.29,0,0,1-.4-.24h0l-.1-.13,0,.12a.29.29,0,0,1-.1,0,1,1,0,0,0-.42-.44c-.2,0,0-.16-.15-.16l0,0a1.41,1.41,0,0,0-.38-.1c.11-.11-.07-.06,0-.11l0,0s0-.11,0-.14l-.1,0,0,0c-.06-.06-.23-.13-.18-.26a1.79,1.79,0,0,1-.62-.47c-.06,0-.12,0-.16-.06v-.1c-.06,0-.17,0-.18-.06h0c-.06,0-.07-.1-.16-.08s-.07-.12,0-.16-.09-.1-.09-.1-2.36-2.43-3.43-2.44c-.06,0-.15,0-.17.08s0-.12-.06-.08-.13.11-.12.22l0,0s.08,0,0,.06l.08-.08a.13.13,0,0,1,0,.12c.06,0,.18-.12.21,0h0c.06,0,0,.09,0,.12l0,0v.09c0-.06-.13,0-.09,0s0,0,.06,0,0,.06,0,.09l.06,0s0,0,0,0l.11,0c-.08.11.12,0,.07.14s0,0-.07.06l.14.1s-.07,0,0,0,.06,0,.07,0,.1.08,0,.14.11,0,.16,0-.07,0-.07,0l.09.06s-.07,0-.1,0c.18.24.11.57.36.69,0,.07-.05,0-.1,0,.21.06.11.28.25.38l0,0c.07.27.34.38.49.6v0c.06,0,.1,0,.15,0s-.1.06,0,.1,0-.06,0-.08c.08.25.46.53.69.82.4.3.74.73,1.14,1-.06,0,0-.13.07-.07,0,.27.23.15.24.37.27.13.33.44.64.48l0,0s0,0,.08,0v0c.06.08.19.11.21.17l0,0s0,.06.06.06l0,0h.1c-.09.1.12.12.12.19a.74.74,0,0,1,.28.18c0,.06.08.15.13.24a4,4,0,0,1,.5.4l0-.06,0,0s0,0,0,0,.12.06.12.14c0-.08,0,0-.05-.06a.05.05,0,0,1,.1,0h0s0,.1-.07.15c.16.11.33.11.45.26-.06,0,.12.08,0,.15.12,0,0-.09.15-.12s.07,0,0,.06,0,.07-.06.06l.07,0s0,0,0,0c.17,0,.16.25.32.29s0,0,0-.08.05.15.19.19l-.06,0c.06,0,.11,0,.13,0s-.08,0-.13,0,.14.1.15,0,0,.09.05.12,0-.07,0-.07a.85.85,0,0,0,.2.23s0,0,0,0S109.14,92.72,109.23,92.77Z"/><path class="cls-4" d="M113.45,95.89l0,0a.06.06,0,0,1,0,0Z"/><path class="cls-4" d="M112.05,94.63h0Z"/><path class="cls-4" d="M111.62,94.44s0,0,0,0A.11.11,0,0,0,111.62,94.44Z"/><path class="cls-4" d="M114.38,96.44s0,0,0,0Z"/><path class="cls-4" d="M116.58,98.39h0A0,0,0,0,0,116.58,98.39Z"/><path class="cls-4" d="M116.53,98.2h0Z"/><path class="cls-4" d="M113.82,96h0Z"/><path class="cls-4" d="M116.46,98.18l0,0h0Z"/><path class="cls-4" d="M116.61,98.43s0,0,0,0S116.59,98.43,116.61,98.43Z"/><path class="cls-4" d="M115.26,97.07h0S115.23,97.08,115.26,97.07Z"/><polygon class="cls-4" points="116.24 98.16 116.24 98.15 116.22 98.16 116.24 98.16"/><path class="cls-4" d="M116.72,98.57h0v0A0,0,0,0,0,116.72,98.57Z"/><path class="cls-4" d="M115.65,97.56l0,0S115.68,97.52,115.65,97.56Z"/></g></svg>