<svg xmlns="http://www.w3.org/2000/svg" viewBox="0 0 195 155"><defs><style>.cls-1{fill:#bee5f6;}.cls-2{fill:#73c8eb;}.cls-3{fill:#27aae1;}</style></defs><title>food</title><g id="Layer_14" data-name="Layer 14"><circle class="cls-1" cx="97.5" cy="77.56" r="45.85"/><path class="cls-2" d="M129.92,59.36a18.34,18.34,0,0,0-17,11.6,18.3,18.3,0,0,0-33.06-.6,18.35,18.35,0,1,0-.41,15.53,18.33,18.33,0,0,0,33.84-.6,18.33,18.33,0,1,0,16.67-25.93Z"/><path class="cls-2" d="M73.19,51.83a.75.75,0,0,1-.66-1.11c.18-.32.38-.65.62-1a9.1,9.1,0,0,0,0-10.88,6,6,0,0,1,0-7.38A8.64,8.64,0,0,0,75,26a8.56,8.56,0,0,0-1.81-5.43,5.69,5.69,0,0,1-1.27-3.69,5.59,5.59,0,0,1,1.28-3.68.75.75,0,1,1,1.24.84,4.2,4.2,0,0,0-1,2.84,4.19,4.19,0,0,0,1,2.84A10.16,10.16,0,0,1,76.46,26a10.15,10.15,0,0,1-2.06,6.27,4.49,4.49,0,0,0,0,5.7,10.6,10.6,0,0,1,0,12.56c-.22.32-.4.6-.56.89A.73.73,0,0,1,73.19,51.83Z"/><path class="cls-2" d="M89,51.83a.73.73,0,0,1-.35-.09.75.75,0,0,1-.3-1c.17-.32.38-.65.62-1a9.08,9.08,0,0,0,0-10.88,6,6,0,0,1,0-7.38A8.61,8.61,0,0,0,90.76,26,8.56,8.56,0,0,0,89,20.59a5.69,5.69,0,0,1-1.27-3.69A5.64,5.64,0,0,1,89,13.22a.76.76,0,0,1,1-.2.75.75,0,0,1,.2,1,4.2,4.2,0,0,0-1,2.84,4.23,4.23,0,0,0,1,2.84A10.09,10.09,0,0,1,92.26,26a10.15,10.15,0,0,1-2.06,6.27,4.49,4.49,0,0,0,0,5.69,10.6,10.6,0,0,1,0,12.57c-.22.32-.4.6-.56.89A.74.74,0,0,1,89,51.83Z"/><path class="cls-2" d="M102.05,51.83a.77.77,0,0,1-.36-.09.75.75,0,0,1-.3-1c.18-.32.38-.65.62-1a9.06,9.06,0,0,0,0-10.88,6,6,0,0,1,0-7.38A8.61,8.61,0,0,0,103.83,26,8.62,8.62,0,0,0,102,20.59a5.64,5.64,0,0,1-1.28-3.69A5.65,5.65,0,0,1,102,13.22a.75.75,0,0,1,1.24.84,4.2,4.2,0,0,0-1,2.84,4.19,4.19,0,0,0,1,2.84A10.15,10.15,0,0,1,105.33,26a10.15,10.15,0,0,1-2.07,6.27,4.49,4.49,0,0,0,0,5.7,10.56,10.56,0,0,1,0,12.56,10.33,10.33,0,0,0-.55.89A.76.76,0,0,1,102.05,51.83Z"/><path class="cls-2" d="M117.84,51.83a.73.73,0,0,1-.35-.09.75.75,0,0,1-.3-1c.18-.33.38-.65.62-1a9.1,9.1,0,0,0,0-10.88,6,6,0,0,1,0-7.38,8.64,8.64,0,0,0,1.8-5.43,8.56,8.56,0,0,0-1.81-5.43,5.69,5.69,0,0,1-1.27-3.69,5.59,5.59,0,0,1,1.28-3.68.74.74,0,0,1,1-.2.75.75,0,0,1,.2,1,4.2,4.2,0,0,0-1,2.84,4.19,4.19,0,0,0,1,2.84A10.16,10.16,0,0,1,121.12,26a10.15,10.15,0,0,1-2.06,6.27,4.49,4.49,0,0,0,0,5.7,10.6,10.6,0,0,1,0,12.56c-.22.32-.4.6-.56.89A.74.74,0,0,1,117.84,51.83Z"/><path class="cls-3" d="M85.5,75.58,47.69,33.77a4.56,4.56,0,0,0-6.77,6.12L73.2,75.58H68.29L38.22,42.34A4.57,4.57,0,0,0,31.78,42h0a4.58,4.58,0,0,0-.33,6.44L56,75.58H44.74A51.79,51.79,0,0,0,77.9,123.89v5.58h37.44v-5.68a51.76,51.76,0,0,0,32.92-48.21Z"/></g></svg>