<svg xmlns="http://www.w3.org/2000/svg" viewBox="0 0 195 155"><defs><style>.cls-1{fill:#bee5f6;}.cls-2{fill:#27aae1;}</style></defs><title>housing</title><g id="Layer_8" data-name="Layer 8"><path class="cls-1" d="M111.19,33.12A45.84,45.84,0,0,0,62.4,105.56V90.31L98.56,68.52l35.55,21.79v15.56a45.86,45.86,0,0,0-22.92-72.75Z"/><polygon class="cls-2" points="62.4 90.31 62.4 105.56 62.4 129.47 107.39 129.47 107.39 122.09 107.39 104.62 120.85 104.62 120.85 117.08 120.85 129.47 134.1 129.47 134.1 105.87 134.1 90.31 98.56 68.52 62.4 90.31"/><rect class="cls-2" x="107.39" y="129.47" width="13.47" height="0.03"/><path class="cls-2" d="M155.25,94.8,99.51,60.63a1.49,1.49,0,0,0-1.55,0L41.26,94.8A1.5,1.5,0,0,0,42,97.58a1.54,1.54,0,0,0,.77-.21l55.91-33.7,55,33.69a1.5,1.5,0,1,0,1.57-2.56Z"/><path class="cls-2" d="M155.25,87.36,99.51,53.18a1.49,1.49,0,0,0-1.55,0L41.26,87.35A1.5,1.5,0,0,0,42,90.13a1.44,1.44,0,0,0,.77-.21l55.91-33.7,55,33.69a1.5,1.5,0,1,0,1.57-2.55Z"/><path class="cls-2" d="M155.25,79.91,99.51,45.73a1.49,1.49,0,0,0-1.55,0L41.26,79.9A1.5,1.5,0,0,0,42,82.69a1.46,1.46,0,0,0,.77-.22l55.91-33.7,55,33.69a1.5,1.5,0,1,0,1.57-2.55Z"/><path class="cls-2" d="M42,74.54a1.46,1.46,0,0,0,.77-.22l55.91-33.7,55,33.7a1.5,1.5,0,1,0,1.57-2.56L99.51,37.59a1.47,1.47,0,0,0-1.55,0L41.26,71.75A1.5,1.5,0,0,0,42,74.54Z"/></g></svg>