<svg xmlns="http://www.w3.org/2000/svg" viewBox="0 0 195 155"><defs><style>.cls-1{fill:#d3c5e0;}.cls-2{fill:#916fb2;}.cls-3{fill:#916fb3;}.cls-4{fill:#9575b6;}.cls-5{fill:#6c3f99;}.cls-6{fill:#9f82bd;}.cls-7{fill:#7f57a6;}</style></defs><title>torture</title><g id="Layer_12" data-name="Layer 12"><circle class="cls-1" cx="97.5" cy="77.5" r="45.85"/><path class="cls-2" d="M147,80.1c.52.43,5,5.17,6.06,6.46,2.2,2.65,1.45,4.23.6,5.64-1.05,1.76-3.63,2.38-5.57,2-2.43-.43-5.31-3.85-6.29-4.95-.8-.9-2-2.41-2-2.41a5.77,5.77,0,0,1,1.73-3.68A9.66,9.66,0,0,1,147,80.1Z"/><path class="cls-2" d="M71.17,72.88,20.57,86.17c3.45-.47-1.59.24-2.36.14a6,6,0,0,1-.68-11.76L70,60.78l.3,3-2.66,5.78Z"/><path class="cls-2" d="M121.49,18.39a6,6,0,0,0-8.49,0L73.48,58,76,60.39l.08,5.87,6.2-.07L95.78,52.68c1.47,1.48,6.37,6.2,6.37,6.2a12.48,12.48,0,0,0,6.22-3c2-1.74,2.9-6.08,2.9-6.08-.3-.27-4.63-4.7-6.21-6.41l16.45-16.49A6,6,0,0,0,121.49,18.39Z"/><path class="cls-3" d="M110.23,57.13s-9.13,3-10,5.33a5.65,5.65,0,0,0,.12,3.85,3.7,3.7,0,0,0,2.14,1.74c2.68.88,5.68-.88,8-2a1.06,1.06,0,0,0,.64-.57,1.12,1.12,0,0,0,0-.48,20.35,20.35,0,0,1-.72-3.41C110.23,59.59,110.3,57.15,110.23,57.13Z"/><path class="cls-3" d="M111.88,66.68c-.93,0-5.21,2.13-5.94,2.51-3,1.63-2,6-.46,7.06a6.68,6.68,0,0,0,5.72.56c1.66-.68,12.23-6.23,13.8-7.07,3.42-1.83,8.85-4.51,8.85-5.11,0-1-3.49-1.66-5.69-6.11a.91.91,0,0,0-.44-.52,1,1,0,0,0-.53,0,31.33,31.33,0,0,0-4.46,1.73c-1.4.59-3,1-2.78,2.66.34,2.12.27,4.7-1,6.4a5.58,5.58,0,0,1-1.75,1.8,3.24,3.24,0,0,1-3.63-.6C112.91,69.24,112.24,66.67,111.88,66.68Z"/><path class="cls-3" d="M134.24,65.94l-.23.11c-6.48,3.14-12.73,6.64-19.09,10-1.77.93-3.34,2-3.72,4.15-.23,1.3,1.28,4,2.6,4.31a7.39,7.39,0,0,0,5.53-.86c2.76-1.51,8.77-4.92,8.77-4.92,1.73-.87,3.37-2,5-3,1.42-.83,2.89-1.59,4.29-2.46.7-.43,1.34-.92,2-1.38,1.63-1.08.16-4.33-.61-5a4.41,4.41,0,0,0-1-.6C136.48,65.75,135.53,65.33,134.24,65.94Z"/><path class="cls-3" d="M137.6,74.41c-2.78,1.87-5.93,3.36-8.8,5.1a8.71,8.71,0,0,0-3.12,2.5c-1.48,2.29.19,4.78,2.5,5.45a16,16,0,0,0,7.56.29,3.9,3.9,0,0,0,2-.93,6.18,6.18,0,0,0,1.05-2,7.26,7.26,0,0,1,2.9-3.32c1.66-1,6.31-3.74,4.55-5.93a7.35,7.35,0,0,0-2.67-1.39C141.85,73.46,141.1,72.05,137.6,74.41Z"/><path class="cls-4" d="M173.11,61.46c-.57-5.15-4.36-10.37-4.36-10.37s-5.15.9-9,1.2-7.17.66-9.73-.45-15.73-9.39-18.53-9.54-9.2,2.37-10.8,3.26-8.74,5.5-9.14,7a24.61,24.61,0,0,0-.25,7.07,12.35,12.35,0,0,0,.43,3.25A40,40,0,0,0,113.39,68,3.15,3.15,0,0,0,115,69.74a2.15,2.15,0,0,0,1.78-.21A5.79,5.79,0,0,0,119,64.78c-.09-1.32-1.11-4.08.41-5s5.46-2.28,6.42-2.73c1.23-.57,2.83-1,3.31.51,1,2.95,3.39,4.66,7.36,6.57a21.86,21.86,0,0,0,3.24,1.46c.55.16,1.35.45,1.58,1s-.09,1.26-.08,1.86a5.61,5.61,0,0,0,1,3.19c.85,1.19,2.6,1.59,3.86,2.26A3.36,3.36,0,0,1,147.51,75c.53.85.24,2,.43,2.94s1.12,1.7,1.85,2.5a5.56,5.56,0,0,0,2.73,2c1.86.42,4.14-1.74,5.59-2.66s3.34-2.42,5.13-2.66l10.14-1.36A134.16,134.16,0,0,0,173.11,61.46Z"/><path class="cls-5" d="M180.11,59.58c-1.54-7-4.87-10.12-4.87-10.12l-6.49,1.63s3.79,5.22,4.36,10.37a134.16,134.16,0,0,1,.27,14.32l6.41-1.29S181.66,66.59,180.11,59.58Z"/><path class="cls-5" d="M107.33,109.72c3.34-.17,9.5.83,12.88.77s4.74-3.33.18-5a40.87,40.87,0,0,0-18.17-1.93c-6.6.58-13.62,3-13.74,1.89-.17-1.55,2.71-1.77,5.4-2.49,9.3-2.49,16-1.46,25.54-2.26a1.92,1.92,0,0,0,1.61-.81,1.41,1.41,0,0,0,.14-.81A2.73,2.73,0,0,0,120,97.22a6.42,6.42,0,0,0-2-.92c-7-2.09-13.3-2-22-.88C91.87,96,84.55,99,84.72,97.23c.09-.85,8.77-3,10.82-3.26,2.77-.4,5.56-.8,8.35-1,.83-.06,1.83-.23,2.13-1a1.55,1.55,0,0,0-.66-1.72,4.57,4.57,0,0,0-1.88-.64c-7-1.28-14.38.48-21.21,2-4.07.91-8.16,1.84-12.17,3-3.43,1-6.91,1.56-10.31,2.77-2.89,1-4.92,1.84-8,.58a5.2,5.2,0,0,0-1.58-.48,33.48,33.48,0,0,0-4.91,9c-1.56,4.5-.87,10.42-.87,10.42a11,11,0,0,0,2.22,1.19l9.22,4A12.34,12.34,0,0,1,59.1,124c.35.29,3.2,2.21,3.23,2.41A39.94,39.94,0,0,0,69.19,131c6.12,3,13,1.63,19.45,3.15a8.77,8.77,0,0,0,2.72.38,2.39,2.39,0,0,0,2.11-1.46,2.79,2.79,0,0,0-.93-2.66,9.4,9.4,0,0,0-4.22-2.16c-3.91-1.1-8.61-.26-12.19-2.43a1.56,1.56,0,0,1-.85-1.41c.22-2.27,7.78-2.53,12.75-3,4.7-.43,15.28-3,20.33-3.58,8.5-.91,13.46,1.3,12.41-2-.78-2.47-6.79-4.57-15-3.63-7.71.88-16.21,2.49-16.88,2.07C86.9,113,99.49,110.13,107.33,109.72Z"/><path class="cls-6" d="M44.46,93.67s-3.38,1-7.5,7.64c-2.56,4.13-2.06,11.2-2.06,11.2l9.56,4.4h0s-.69-5.92.87-10.42a33.48,33.48,0,0,1,4.91-9l.11-.13Z"/><path class="cls-7" d="M69.38,30.2h0Z"/><path class="cls-7" d="M69.41,32.05l0,0Z"/><path class="cls-7" d="M69.32,29.1h0a.28.28,0,0,0,0-.08Z"/><path class="cls-7" d="M69.69,36v0Z"/><path class="cls-7" d="M69.54,33.65s0,0,0,0S69.57,33.65,69.54,33.65Z"/><path class="cls-7" d="M69.94,28.43l0,0S69.94,28.45,69.94,28.43Z"/><path class="cls-7" d="M69.61,27.35h0Z"/><path class="cls-7" d="M69.47,27.8l0,0A0,0,0,0,0,69.47,27.8Z"/><path class="cls-7" d="M69.51,27.84h0S69.5,27.85,69.51,27.84Z"/><path class="cls-7" d="M71.8,50.06s0,.06.07.08Z"/><path class="cls-7" d="M70.13,39.5h0Z"/><path class="cls-7" d="M72.22,50.05v0S72.22,50.06,72.22,50.05Z"/><path class="cls-7" d="M70.15,29s0,.1,0,.09S70.21,29,70.15,29Z"/><path class="cls-7" d="M72,40v0Z"/><path class="cls-7" d="M72.22,50.05v0h0Z"/><polygon class="cls-7" points="70.6 43.16 70.6 43.16 70.59 43.16 70.6 43.16"/><path class="cls-7" d="M70.55,43.37l0,0A.05.05,0,0,0,70.55,43.37Z"/><path class="cls-7" d="M71.87,50.14l0,0Z"/><path class="cls-7" d="M70.9,45.46v0S70.89,45.45,70.9,45.46Z"/><path class="cls-7" d="M69.55,33.5v0S69.54,33.48,69.55,33.5Z"/><polygon class="cls-7" points="70.97 34.78 70.97 34.78 70.98 34.78 70.97 34.78"/><path class="cls-7" d="M70.91,34.71s0,.06.06.07S71,34.73,70.91,34.71Z"/><path class="cls-7" d="M71,35h0Z"/><polygon class="cls-7" points="70.86 33.38 70.85 33.38 70.86 33.38 70.86 33.38"/><path class="cls-7" d="M70.91,33.69l0,0S70.9,33.7,70.91,33.69Z"/><polygon class="cls-7" points="71.2 35.7 71.2 35.7 71.2 35.7 71.2 35.7"/><path class="cls-7" d="M71.93,38.56a6.23,6.23,0,0,1-.22-1c-.1,0-.12-.14-.15-.23l.12,0-.05-.08s0,.06.08,0l-.09,0s0-.2.11-.08l0-.3c0-.07-.12,0-.09-.1s0,0,.07,0c.06-.24-.28-.22-.25-.44l0,0s0-.1-.06-.1.07,0,0,.1-.07-.07-.15,0,0-.08,0-.12,0-.17.08-.24-.15-.05-.17-.13.09,0,.11-.07h-.07c0-.07,0-.06,0-.06s-.09,0-.06-.13l.07,0c0-.06,0-.08,0-.17s0,0,0,.06,0-.07,0-.1,0,.07-.09.05-.1-.07,0-.11l.07,0c-.06-.08-.09,0-.07-.13h0c-.09-.05,0-.14,0-.24l0,0S71,35,71,35s0,0-.11.06c.1-.09-.13-.09-.08-.21s.08,0,0,.05.2,0,.26.08-.06-.09,0-.08H71s0-.05,0-.07-.09.07-.14,0,.1,0,0,0-.11,0-.09-.12,0,0,0,0,0-.15.08-.19.06,0,.06,0h0c.09.06,0-.05.08-.05-.07,0-.06-.08-.06-.12l-.07,0c-.23-.1.15,0,.1-.14s0,0-.07,0,.06-.09,0-.17a.21.21,0,0,1,.14-.09s0-.16-.07-.18.1.07,0,.19l-.09,0c0-.07,0-.15,0-.21l0,0c0-.1-.13-.12-.12-.22s.07,0,.08.08,0-.07,0-.17,0,.07.06.07l0-.11h0c-.1,0,0-.08,0-.14s-.16-.17-.26-.24,0,0,.08,0,0,0,0,0,.09-.13.14-.11-.05,0-.09,0v-.11s-.06.06-.11,0,0-.07,0-.14.08,0,.08,0a.05.05,0,0,0,0-.09c0,.07-.06-.12-.14,0l0-.08s0,0,0,0,0-.06,0-.08,0-.1,0-.11,0-.07,0-.09-.06,0-.09,0v-.12s.17,0,.19,0-.14,0-.15-.07.06-.09.17,0a.18.18,0,0,0,0-.21c-.08,0,0,.07-.11.07,0-.16-.24-.14-.23-.27v0a.21.21,0,0,0-.11-.1.2.2,0,0,0,.19-.24s-.07.08-.15.07l0-.08s0,0,0,0,.1-.16,0-.16l.12-.1-.06,0s-.07-.09-.09-.1,0-.12,0-.17-.11.07-.14,0c.15,0,0-.15.11-.15s0-.09,0-.08h.09c-.13,0-.14-.09-.17-.16.17,0,0-.08.13-.14-.12,0-.07-.13-.17-.13s.1-.06.13-.08l0,0c.05,0,0-.15.07-.22l-.11,0,0,0s0-.05-.08,0v0c-.11,0,0,0-.09-.1a0,0,0,0,1,.06,0s.06,0,.09,0-.22-.1-.25,0-.09,0-.07-.07l.1,0-.12,0s0-.08.05-.12.21.07.19,0c0,.06.08.08.1.1s0,0,.06,0-.07,0-.09-.11a.12.12,0,0,0,.14-.11l-.06.07h0s0,0,0,0-.12-.08-.07-.11c-.13.11-.13-.13-.21-.06s0-.07,0-.08.09-.06.16-.06-.06.06-.1,0,0-.08.06-.1h0l0-.07s-.06.07-.09,0,0-.08,0-.08.14,0,.16,0,0-.18-.11-.11v0s-.09.13-.11,0h0l-.08-.06,0,0a.05.05,0,0,1-.05,0s0,0,.07,0,0-.07-.08-.07,0-.06.06,0,0-.16,0-.2,0,0-.08,0c.14-.09,0-.26,0-.39-.13.06,0,0-.15,0,0,0,.09-.14.14,0l0-.07c.07-.05.07.11.17,0s-.18-.1-.14-.2,0-.06.07-.05,0,0,0,.06l0,0c0-.16-.12,0-.2-.11s.07-.08.11-.1,0-.06,0-.09,0,.12-.11.1c.1,0,0-.15-.06-.17-.1.16,0,.1-.1.25,0,0,.14,0,.11.09s-.06,0-.07,0,0,0,0,.07-.13,0-.15,0h.14s-.1,0-.06.06-.11,0-.14-.06c-.1.13.08.16.14.24s0,0,0,0,0,0,0,.07-.07,0-.1,0v.09h0s0,.05,0,.06l-.13,0,.1.08s-.06.09-.1,0l0,.14-.09,0s0,0,0,0,.18.2,0,.19c.09.11.07.15.13.28-.1-.09-.09.13-.14,0,0,.07.07.07.09.11s-.13.05-.17,0l0,.06h0l0,0c0,.06-.09,0-.09.09h.08l0,0s.06,0,.07.06h0l0,.05c-.05-.05,0,0-.07,0a.25.25,0,0,0,0,.12l0,0c.06.1-.08,0-.07.1l.06,0c-.09.14.08.2,0,.3s-.1,0-.08,0,0,.2.12.26c-.09.05-.11.06-.14.14s0,.07.08.08,0,.16,0,.17,0,.05,0,.08h0c-.13.12.1.16,0,.27h0l0,0s0,0-.08,0v.2l0-.05s.07.06,0,.11,0,.07-.07.09l0,0c0,.06,0,.06.08.05s-.11.07,0,.13V31s.09,0,.09,0,0,0,0,0,0,.15,0,.17a.06.06,0,0,1-.08,0c.07.12,0,.06.07.18h0l.05,0-.07.07,0,0a.17.17,0,0,1,0,.12h-.06c0,.11-.07.14,0,.25s0,0,0,0-.09.09,0,.18h-.06l0,.05h-.07l.11,0-.07,0h0c-.13.07,0,.13-.11.21l.08,0c.21.15-.05.41.07.61h-.08l.1.07c0,.06-.06,0-.1,0s.11,0,.15.13-.06,0-.09,0a.49.49,0,0,1,.08.32h0c0,.06,0,.15,0,.23s0,0-.05,0,0,.07,0,.09l-.07,0c0,.06.07.16,0,.19s.08,0,.08,0,.07.13,0,.22,0-.07,0,0,0,.07.07.1H69.6l.09.18c-.11,0,0,.17,0,.17s0-.06.06,0,0,.07,0,.08h0v.06l-.07,0s.1.07.15.07,0,.12,0,.15l0,0c0,.13-.17.25,0,.34,0,0,0,0,0,0v.09l-.06,0,.1.13h0a2.57,2.57,0,0,0,.06.35v0c.07.12,0,.13,0,.22h0v.09l0,0c.08.05-.08.19,0,.15a.51.51,0,0,0,.13.09c0,.09,0,0-.06.08s.07.07,0,.17h0s0,.07,0,.12h0c.09.08-.09.13.08.18,0,0,0,.12-.06.13s.09.2.14.31c-.12,0,0,0,0,.11l.06,0c0,.17-.1.38-.05.56h-.06l.07,0a5.85,5.85,0,0,0,0,.62s.13.11.11.2h0a.87.87,0,0,1,.09.45s0,0-.06,0,0,.1,0,.13l0,0c.06,0,0,.11,0,.14l.08.06,0,0h0l-.08,0s0,.11.13.13,0,.07-.06,0V40l0,0c.06,0,.11.06.09.1s-.09,0-.14,0,0,0,.09,0,.08.12.06.15l0,0s-.08.09-.06.15,0,.09.12.07-.07,0-.08.06,0,.14,0,.16c.16,0,0,.22.1.21l-.07.08s.12,0,.14,0-.09.05-.13.07l.14,0c-.11.29,0,.64,0,.95a1.74,1.74,0,0,1,.13.46l0,0v.16l0-.12s0,0,0,.09a1,1,0,0,0,0,.61c.17.12-.13.11,0,.23l0,0a2.09,2.09,0,0,0,.21.34c-.15,0,0,.09-.06.08h.06s0,.11-.08.1l.08.06H70.7c0,.08.08.25,0,.31a1.75,1.75,0,0,1,.15.78.23.23,0,0,1,.08.16l-.07.07c0,.06.14.11.1.17h0c0,.06,0,.12.06.17s0,.13-.1.12c.13,0,0,.14,0,.14s.15,3.44.94,4.17c.06,0,.11.1.18.06s-.07.1,0,.1.17,0,.23-.09l0,0s-.06-.06,0-.06h-.12A.13.13,0,0,1,72.2,50s-.21,0-.15-.13v0c0-.07.07-.06.08-.07h0l0-.07c0,.06.08.12.06.08s0,0,0,0,.06,0,.09,0v-.07s0,.05,0,0l-.07-.09c.14,0-.07-.09,0-.15s0,0,.09,0l0-.16s0,0,0,0,0,0,0-.06,0-.13.08-.13-.12,0-.09-.15,0,.08.08,0l0-.11s.1,0,.09.05c0-.3.3-.5.19-.76.06,0,0,0,.09,0-.11-.19.11-.3.08-.46h0c.13-.25,0-.52,0-.79l0,0c-.06,0-.07-.09-.1-.13s.12,0,.08-.06,0,.06-.06,0a4.15,4.15,0,0,0,0-1.09c-.11-.49-.08-1.05-.18-1.54,0,.08-.12.06-.1,0,.21-.18-.07-.26.06-.44-.11-.27,0-.56-.15-.8h.06c0-.05,0-.05,0-.09h0c0-.1-.07-.21,0-.28H72.3c0-.06.06,0,0-.09h0l-.07-.07c.12,0,0-.16,0-.22a.64.64,0,0,1-.1-.32c.06,0,0-.18.06-.27a3.74,3.74,0,0,1-.1-.64h-.08V41h0c.09-.06,0-.13,0-.18s0,0,0,.07-.12,0-.09,0h0l0,0c.06,0,.09-.06.15-.07,0-.19-.17-.31-.16-.51.07,0,0-.14.09-.11-.06-.12-.1,0-.19,0s0-.07,0-.08S72,40,72,40l0-.08s0,0,0,0c-.09-.16.05-.3,0-.44s0,.06-.06.06.07-.14,0-.27l.06,0s-.1,0-.06-.13.06.06.1.09,0-.18-.1-.13,0-.09.05-.12,0,.06-.08,0a1.06,1.06,0,0,0,0-.31h0C71.8,38.68,72,38.67,71.93,38.56Z"/><path class="cls-7" d="M70.86,33.34v0h0Z"/><path class="cls-7" d="M71.07,35.24h0Z"/><path class="cls-7" d="M71.26,35.68s0,0-.05,0A.06.06,0,0,0,71.26,35.68Z"/><path class="cls-7" d="M70.53,32.29h0Z"/><path class="cls-7" d="M70.19,29.33h0A0,0,0,0,0,70.19,29.33Z"/><path class="cls-7" d="M70.1,29.5a.08.08,0,0,0,0,0S70.11,29.51,70.1,29.5Z"/><path class="cls-7" d="M70.65,33s0,0,0,0A0,0,0,0,0,70.65,33Z"/><path class="cls-7" d="M70.13,29.57v0h0Z"/><path class="cls-7" d="M70.19,29.27s0,0,0,.06S70.21,29.29,70.19,29.27Z"/><path class="cls-7" d="M70.29,31.22h0S70.32,31.23,70.29,31.22Z"/><polygon class="cls-7" points="70.28 29.73 70.28 29.74 70.3 29.75 70.28 29.73"/><path class="cls-7" d="M70.2,29.09s0,0,0,0v0Z"/><path class="cls-7" d="M70.32,30.58h-.06S70.28,30.6,70.32,30.58Z"/><path class="cls-7" d="M52.14,31.91l0,0Z"/><path class="cls-7" d="M53.34,33.91h0S53.33,33.92,53.34,33.91Z"/><path class="cls-7" d="M51.39,30.74h0l-.06-.09Z"/><path class="cls-7" d="M56.07,38.05l0,0Z"/><path class="cls-7" d="M54.47,35.59l0,0S54.49,35.58,54.47,35.59Z"/><path class="cls-7" d="M51.52,29.73v.06A0,0,0,0,0,51.52,29.73Z"/><path class="cls-7" d="M50.54,28.7h0A0,0,0,0,0,50.54,28.7Z"/><path class="cls-7" d="M50.71,29.26l0,0S50.72,29.25,50.71,29.26Z"/><path class="cls-7" d="M50.77,29.29h0Z"/><path class="cls-7" d="M66.88,52.45s.07,0,.11,0Z"/><path class="cls-7" d="M58.69,41.69h0S58.69,41.7,58.69,41.69Z"/><path class="cls-7" d="M67.24,52.24v0A0,0,0,0,0,67.24,52.24Z"/><path class="cls-7" d="M52.07,30.26c.06,0,.06.1.1.07S52.13,30.23,52.07,30.26Z"/><path class="cls-7" d="M60.68,41.42v0Z"/><path class="cls-7" d="M67.24,52.24v0Z"/><path class="cls-7" d="M61.43,45.48Z"/><path class="cls-7" d="M61.52,45.72l0,0S61.5,45.72,61.52,45.72Z"/><path class="cls-7" d="M67,52.5l.07,0S67,52.51,67,52.5Z"/><path class="cls-7" d="M63.15,47.84l0,0S63.14,47.84,63.15,47.84Z"/><path class="cls-7" d="M54.38,35.42s0,0,0,0S54.36,35.41,54.38,35.42Z"/><polygon class="cls-7" points="56.47 36.18 56.47 36.18 56.47 36.18 56.47 36.18"/><path class="cls-7" d="M56.36,36.13s.07,0,.11,0S56.42,36.14,56.36,36.13Z"/><path class="cls-7" d="M56.57,36.36h0Z"/><polygon class="cls-7" points="55.48 34.71 55.47 34.71 55.48 34.71 55.48 34.71"/><path class="cls-7" d="M55.72,35a0,0,0,0,0,0,0Z"/><polygon class="cls-7" points="57.26 37.08 57.26 37.08 57.26 37.08 57.26 37.08"/><path class="cls-7" d="M59.72,39.86a10.06,10.06,0,0,1-.8-.93.47.47,0,0,1-.28-.18l.09-.09-.09,0c0-.06.07,0,.06,0l-.08,0s-.13-.23.05-.15l-.23-.3c0-.07-.11,0-.14-.07s0,0,.07,0c-.09-.28-.39-.11-.5-.35h0s-.1-.08-.12-.07.09,0,.07.1-.1,0-.16,0-.08-.07-.12-.1-.11-.19-.08-.3-.17,0-.23-.07.07,0,0-.13l0,0c0-.07,0-.07,0-.08s-.11,0-.13-.11h.08a.63.63,0,0,1-.13-.17s0,0,.06,0-.09-.06-.1-.09,0,.09-.05.1-.14,0-.1-.12H57c-.1,0-.09,0-.15-.11l0,0c-.11,0-.11-.14-.18-.24h0s-.11,0-.12,0,0,.08-.06.12c0-.14-.17,0-.21-.19s.09,0,.08,0,.19-.07.28,0-.1-.07,0-.09l-.09,0a.23.23,0,0,1-.05-.07c-.06,0,0,.11-.12.08s0-.1,0-.09-.12,0-.16-.08l0,0c0-.09-.13-.15-.05-.24s.06,0,.07,0h0c.13,0-.06,0,0-.08-.05,0-.1-.06-.12-.11l0,.06c-.28,0,.12-.08,0-.2s0,0-.08,0,0-.13-.08-.2a.19.19,0,0,1,.06-.16c-.06,0-.08-.18-.17-.17s.13,0,.13.21l-.09,0c-.05-.08-.15-.15-.16-.22s0,0,0,0-.19-.06-.24-.18.08,0,.12.05-.05-.07-.1-.19,0,.07.1,0l-.1-.1h0c-.09,0,0-.09-.13-.14s-.25-.1-.38-.14,0-.07,0-.07,0,0,.05,0,0-.18,0-.17,0,.06-.09,0l-.08-.12s0,.09-.09,0a.57.57,0,0,1-.11-.14s.06-.07.09,0,0-.1-.1-.08-.13-.1-.15,0l0-.11s0,0,0,0-.06,0-.09-.07-.05-.1,0-.13-.07-.08,0-.11-.05,0-.07,0l-.09-.12s.13-.12.16-.11-.12.06-.17,0c.1,0,0-.13.12-.13s-.06-.19-.12-.24,0,.09,0,.13c-.15-.16-.31,0-.38-.2V33a.23.23,0,0,0-.16-.06c.09,0,.13-.23,0-.35s0,.12-.09.14l-.07-.08h0c-.08-.06,0-.21-.11-.17l0-.16,0,.06s-.12-.06-.14-.07-.1-.11-.09-.19-.06.12-.12.06c.12-.08-.06-.18,0-.22s0-.1-.07-.07l.07-.05c-.1.07-.17,0-.25-.1.15-.08-.07-.08,0-.21-.11.06-.14-.11-.23-.06s0-.12.06-.15h-.05c0-.06-.06-.18-.08-.27h-.12l0-.05s-.08,0-.09,0l0,0c-.09.06-.06,0-.15-.07s0,0,.05,0,0,0,0-.09-.25,0-.22.11-.1,0-.11,0l.07-.08-.12,0s0-.1,0-.15.23,0,.14-.13a.32.32,0,0,0,.16.06s0,0,0,0-.07,0-.15-.07c.08-.05.09-.09.06-.18l0,.09h0a.06.06,0,0,1,0,.06s-.16,0-.13-.08c0,.17-.19-.08-.22,0s-.08-.05,0-.08,0-.12.11-.14,0,.09-.07.08,0-.11,0-.15h0l0-.09s0,.11-.08.06-.06-.07,0-.09.13-.08.18,0-.15-.17-.18-.07l0-.05c0,.05,0,.18-.08.09h0l-.11,0,0-.06s0,0-.06,0,0-.05,0-.07a.09.09,0,0,0-.13,0s0-.07,0-.08-.12-.16-.11-.23,0,0-.09,0c.08-.16-.14-.29-.25-.41-.08.12,0,0-.15,0,.05,0,0-.18.11-.09l-.07-.06c0-.09.13.08.17,0s-.22,0-.25-.16-.08-.05,0-.09,0,0,.07,0v0c-.1-.18-.13,0-.25,0s0-.13,0-.16,0-.07-.09-.08,0,.15,0,.16-.1-.16-.16-.16c0,.21.07.1.07.32,0,0,.12-.07.15,0s0,0,0,.06.06,0,.09.06-.14,0-.1.12l.12-.06s-.09,0,0,.09c-.08,0-.08.08-.17,0,0,.18.18.13.29.19h0s.07,0,.09.05-.08,0-.1,0l.07.09h0s.06,0,0,.06a.71.71,0,0,0-.15,0l.15,0s0,.13-.08.08l.12.13-.06.07s.05,0,0,0,.29.13.13.21c.14.07.15.12.29.24-.15-.06,0,.18-.11.09,0,.09.1,0,.15.09s-.08.1-.15.07l.08,0h0l.08,0c0,.09-.07.07,0,.13l.08,0v.07s.06,0,.09,0h0l0,.05c-.08,0,0,0,0,.07l.1.11,0,0c.12.07-.06.05,0,.14l0,0c0,.18.2.17.22.3a.08.08,0,0,0-.09,0c.08.07.16.2.28.24a.2.2,0,0,0,0,.21c0,.06.07.07.12.05s.14.16.09.2,0,.06.09.07l0,0,0,0c0,.19.19.13.17.3h0l.05,0s0,0-.07,0l.14.21v-.07s.11,0,.12.11,0,.07,0,.12l-.05,0c.05.06.05.06.1,0s-.06.12,0,.15l0,0s.09,0,.11,0,0,.05,0,0,.1.16.14.17a0,0,0,0,1-.06,0c.14.1,0,.07.18.17l0,0,.07,0v.11l0-.06s.07.06.09.12h0c.11.1,0,.19.17.26s0,0,0,0,0,.13.14.18c0,0,0,0,0,0l.06,0-.06,0,.12,0,0,.07h0c-.07.13.06.15,0,.28l.07-.07c.28.07.21.48.44.64l-.06,0,.13,0c0,.09-.07,0-.09,0s.12,0,.22.07-.06,0-.1,0a.78.78,0,0,1,.27.32l0,0c.08.06.12.17.18.24s0,0-.06,0,0,.08.07.08h-.07c0,.07.16.15.11.2a.06.06,0,0,1,.1,0c-.07.1.14.12.15.23s-.08-.05-.07,0,.08.06.13.08l0,0,.19.15c-.07.09.14.17.07.21s0-.09.07,0,.07.06,0,.1h0l.05.06h-.09a.17.17,0,0,0,.18,0c0,.07.08.12,0,.18h0c.12.13,0,.35.19.39,0,0,0,0,0,0l.06.09h-.06l.17.09,0,0a1.65,1.65,0,0,0,.27.35h0c.14.09.07.14.17.21s0,0,0,0l.06.09h0c.11,0,0,.24.08.16s.13.06.17,0,0,0,0,.13.11.05.15.16l0,0s.07.05.12.1h0c.13,0,0,.18.18.16,0,.06.08.13,0,.17a2.22,2.22,0,0,1,.33.28c-.08.09,0,0,0,.13l0,0c.13.17.15.45.31.63l0,0h.08c.13.22.3.5.42.66a.45.45,0,0,1,.23.17h0a1.59,1.59,0,0,1,.36.45s0,0-.06,0,.07.1.1.13v-.07c.08,0,.08.11.06.16l.11,0s0,0,0,0h0l0,.08s.11.09.2.08,0,.1,0,.06l.18.27v0c0-.05.14,0,.15.07s-.08,0-.1.1,0-.07.06-.07.16.1.15.14h0c.06,0,0,.14,0,.2s.08.09.16,0,0,.08,0,.11a.13.13,0,0,1,.08.18c.17,0,.11.25.23.18v.11a.13.13,0,0,1,.15,0c0,.07,0,.1-.07.13l.13,0c.09.37.44.68.57,1.06a2.37,2.37,0,0,1,.4.43h0l.08.19,0-.16s.08,0,.1.08a1.68,1.68,0,0,0,.41.66c.23,0,0,.17.15.24h-.06a2.16,2.16,0,0,0,.4.27c-.13.07.08.09,0,.13l.06,0c0,.06,0,.14,0,.16h.11l0,.05c.05.08.23.24.16.36a2.61,2.61,0,0,1,.62.78c.07,0,.13.08.18.13l0,.11c.06.05.19.06.19.14h0c.06,0,.07.13.17.15s.06.16,0,.18c.1-.07.09.16.09.16s2.3,3.67,3.48,4.12c.07,0,.16,0,.2,0s0,.14,0,.12.15-.07.15-.2l0,0s-.09,0,0-.07l-.11,0a.15.15,0,0,1,0-.13c-.07,0-.21.06-.23-.08l0,0c-.06-.07,0-.09,0-.12V52c0,.07.14.1.1.06s0,0-.07,0,0-.06.06-.08l-.06-.08s0,.06.06,0L67,51.78c.1-.1-.13-.07-.06-.19.08,0,0,0,.08-.05l-.13-.16s.06,0,0,0-.07,0-.08,0-.09-.12,0-.17-.13,0-.16-.12.07.08.08,0l-.1-.1s.09,0,.11,0c-.16-.34-.05-.68-.31-.91,0-.08.06,0,.11,0-.21-.15-.09-.37-.22-.53l0,0c0-.34-.33-.57-.47-.88v.06c-.07,0-.12-.07-.17-.1s.12,0,0-.1,0,.07,0,.08a7.12,7.12,0,0,0-.66-1.2c-.41-.49-.74-1.11-1.13-1.6.06.08-.07.12-.09.05.07-.3-.23-.26-.23-.51-.27-.25-.3-.63-.64-.8l0,0c0-.06-.05-.05-.08-.09h0c-.05-.12-.19-.2-.21-.28l-.06,0c0-.06,0-.07-.06-.1l0,0-.11,0c.11-.07-.11-.18-.1-.26a1,1,0,0,1-.29-.32c0-.06-.07-.2-.11-.31a5.4,5.4,0,0,1-.5-.66l-.07,0,0,0s0,0,0,0-.13-.13-.12-.21c0,.08,0,.05,0,.09s-.1.07-.11,0h0l-.06,0s0-.1.09-.15c-.16-.18-.35-.25-.47-.47.07,0-.12-.14,0-.17-.13-.1-.07.08-.18.07s-.08,0,0-.08,0-.07.07,0l-.07-.08s0,0,0,0c-.18-.12-.15-.34-.32-.45s0,.07,0,.09,0-.18-.18-.29h.07c-.07,0-.13,0-.14-.12s.09,0,.15,0-.15-.17-.17-.09,0-.11,0-.16,0,.09,0,.07a1.68,1.68,0,0,0-.19-.34s0,0,0,0C59.68,40.05,59.82,40,59.72,39.86Z"/><path class="cls-7" d="M55.46,34.66l0,.05a.06.06,0,0,1,.06,0Z"/><path class="cls-7" d="M56.84,36.63h0Z"/><path class="cls-7" d="M57.29,37s0,0,0,0A.11.11,0,0,0,57.29,37Z"/><path class="cls-7" d="M54.5,33.67h0S54.5,33.66,54.5,33.67Z"/><path class="cls-7" d="M52.31,30.59v0S52.32,30.6,52.31,30.59Z"/><path class="cls-7" d="M52.34,30.83l0,0S52.36,30.83,52.34,30.83Z"/><path class="cls-7" d="M55.06,34.39l0,0Z"/><path class="cls-7" d="M52.42,30.88l0,.05h0Z"/><path class="cls-7" d="M52.28,30.53a.33.33,0,0,1,0,.06A.06.06,0,0,0,52.28,30.53Z"/><path class="cls-7" d="M53.6,32.61h0S53.63,32.61,53.6,32.61Z"/><polygon class="cls-7" points="52.65 31 52.66 31 52.68 31 52.65 31"/><path class="cls-7" d="M52.17,30.33l0,0v0Z"/><path class="cls-7" d="M53.23,31.9l-.06,0S53.2,31.94,53.23,31.9Z"/><path class="cls-7" d="M45.75,52.18v0Z"/><path class="cls-7" d="M47.46,52.8h0S47.46,52.81,47.46,52.8Z"/><path class="cls-7" d="M44.72,51.84h0l-.07,0Z"/><path class="cls-7" d="M51.16,53.94h0Z"/><path class="cls-7" d="M49,53.25l0,0A0,0,0,0,0,49,53.25Z"/><path class="cls-7" d="M44.33,51l0,.06S44.35,51,44.33,51Z"/><path class="cls-7" d="M43.21,50.94v0Z"/><path class="cls-7" d="M43.59,51.23h0S43.59,51.21,43.59,51.23Z"/><path class="cls-7" d="M43.64,51.21h0Z"/><path class="cls-7" d="M64.85,57s.06,0,.1,0Z"/><path class="cls-7" d="M54.55,54.78v0S54.55,54.79,54.55,54.78Z"/><path class="cls-7" d="M65,56.6h0Z"/><path class="cls-7" d="M44.93,51s.09,0,.1,0S45,51,44.93,51Z"/><path class="cls-7" d="M55.68,53.24h0Z"/><path class="cls-7" d="M65,56.6l0,0v0Z"/><polygon class="cls-7" points="58.09 55.66 58.09 55.65 58.08 55.66 58.09 55.66"/><path class="cls-7" d="M58.26,55.77h0A0,0,0,0,0,58.26,55.77Z"/><path class="cls-7" d="M65,57l0,0Z"/><path class="cls-7" d="M60.3,56.19s0,0,0,0Z"/><path class="cls-7" d="M48.84,53.19l0,0S48.82,53.19,48.84,53.19Z"/><polygon class="cls-7" points="50.53 52.32 50.53 52.32 50.53 52.32 50.53 52.32"/><path class="cls-7" d="M50.44,52.35s.06,0,.09,0S50.48,52.32,50.44,52.35Z"/><path class="cls-7" d="M50.68,52.38h0Z"/><polygon class="cls-7" points="49.2 51.93 49.2 51.93 49.2 51.93 49.2 51.93"/><path class="cls-7" d="M49.5,52l0,0Z"/><polygon class="cls-7" points="51.45 52.43 51.45 52.43 51.45 52.43 51.45 52.43"/><path class="cls-7" d="M54.34,52.77a5.87,5.87,0,0,1-1-.13c-.08.08-.17.06-.27.06l0-.13-.08,0s.06,0,0-.07l0,.07s-.18-.07,0-.13l-.29-.07c-.06,0-.06.09-.13,0s0,0,0-.07c-.19-.14-.3.18-.49.08h0s-.1,0-.11,0,.06-.06.1,0-.09,0-.1.12-.08,0-.13,0-.16-.06-.19-.15-.1.12-.18.1,0-.07,0-.12l0,.06c-.06,0-.05,0,0-.07s-.07.07-.14,0l.06,0a.37.37,0,0,1-.16,0s0,0,.06,0-.08,0-.1,0,0,0,0,.11-.11.06-.12,0l.06-.05c-.1,0-.06.07-.15,0a0,0,0,0,1,0,0c-.08.07-.14,0-.23,0h0s-.07.06-.09.05,0,.06,0,.12c-.05-.12-.13.09-.23,0s.05-.07.07,0,.09-.18.16-.21-.09,0-.07,0l0,.1-.06,0c0,.06,0,.11,0,.13s0-.1,0-.06-.06.09-.14,0,0,0,0,0-.16,0-.15-.14,0-.06,0,0v0c.09-.07-.06,0,0-.09,0,.06-.1,0-.13,0v.08c-.18.18,0-.14-.09-.14s0,0,0,.06-.06-.09-.14-.08a.22.22,0,0,1,0-.17c-.06,0-.14-.07-.19,0s.1-.06.18.07l-.05.07c-.07,0-.16,0-.2,0a.11.11,0,0,1,0,0c-.1,0-.15.08-.24,0s.06-.05.1-.05-.06,0-.15-.06.06,0,.09,0H49.2c0,.1-.08,0-.15,0s-.21.09-.31.16a.07.07,0,0,1,0-.09c0,.06,0,0,0,0s-.09-.13,0-.17,0,.06-.05.08l-.11,0c0,.06,0,.08,0,.1s-.07,0-.13,0,0-.08,0-.07a.06.06,0,0,0-.1,0c.06.06-.13,0-.09.11l-.06-.07s0,0,0,0-.07,0-.09,0-.09,0-.08-.08a.06.06,0,0,1-.08-.05s0,.05,0,.07l-.11,0a.49.49,0,0,1,0-.19s0,.13-.1.11-.07-.08,0-.17-.12-.1-.18-.09,0,0,0,.12-.23.18-.34.12l0,0c-.08,0-.07,0-.13.06a.22.22,0,0,0-.15-.27c0,.05,0,.1,0,.17H47s0,0,0,0-.11-.14-.16,0l0-.14,0,.06s-.11,0-.13.05-.11,0-.15-.09,0,.13,0,.13-.13-.08-.11-.16-.06-.06-.08,0l0-.09c0,.12-.13.1-.21.1.06-.16-.08,0-.08-.17,0,.11-.14,0-.18.11s0-.11,0-.15l0,0c0-.06-.12-.09-.18-.14l-.08.08v0s-.07,0-.05.07h0c0,.11,0,0-.12.05a.07.07,0,0,1,0-.06s0-.06,0-.1-.16.17-.09.24a.05.05,0,0,1-.09,0v-.1l-.06.09c-.06,0-.06-.06-.1-.08s.14-.17,0-.19c.06,0,.1,0,.13-.07s0,0,0,0,0,0-.13,0a.13.13,0,0,0,0-.17l0,.08,0,0s0,0,0,.06-.12.09-.12,0c0,.16-.17.07-.14.17s-.07,0-.07,0,0-.12,0-.17,0,.07,0,.1-.06-.07-.08-.1h0l0-.06s0,.09,0,.1-.07,0-.06-.05,0-.13.09-.14-.17,0-.14.07h0s.09.13,0,.12v0l-.08,0,0,0s0,0-.05,0,0,0,0-.08-.08,0-.09.06-.05,0,0-.07-.15,0-.18-.1,0,0,0,.07c0-.16-.23-.11-.35-.12s0,0-.09.12c0,0-.09-.13,0-.14h-.07c0-.08.12,0,.08-.14s-.15.12-.23.05-.07,0,0-.08,0,0,.07,0v0c-.15-.07-.07.1-.17.14s-.06-.09-.06-.13-.06,0-.09,0,.09.09,0,.14c0-.11-.14,0-.18,0,.12.14.1,0,.2.18,0,0,0-.13.11-.07s0,.06,0,.07.06,0,.09,0-.07.11,0,.16l.05-.13s0,.09,0,.08,0,.11-.11.1c.08.14.18,0,.27,0s0,0,0,0,.06,0,.08,0-.05,0-.05.09l.09,0h0s0,0,0,0l-.08.1.11-.07s.06.1,0,.11l.14,0v.09s0,0,0,0,.25-.1.18.07c.13,0,.16,0,.3,0-.12.05.09.13,0,.14.05.05.08,0,.14,0a.11.11,0,0,1-.07.15l.07,0v0l.06,0c0,.06,0,.09,0,.12l0-.08,0,.06s0-.05.07,0h0c-.06,0,0,0,0,.08l.13,0v-.06c.11,0,0,.08.06.1v-.06c.09.13.21,0,.28.08s-.06.07-.06.06.2,0,.29,0c0,.1,0,.13.08.18s.06,0,.1,0,.16,0,.14.09,0,0,.09,0v0c.07.16.18,0,.25.1l0,0,.05,0s0,0,0,.08l.19,0,0,0s.08-.05.12,0,.06,0,.06.09l0,0c.06,0,.06,0,.07-.06s0,.13.1.08h0s0-.09.07-.08,0,0,0,0,.14,0,.17,0a.08.08,0,0,1,0,.09c.14,0,.06,0,.19,0v0l0,0,.05.09,0-.05s.08,0,.12,0l0,0c.12,0,.11.12.23.07s0,0,0,0,.05.12.18,0,0,0,0,0l.06,0,0,.07.06-.09v.08l0,0c0,.14.11.06.15.18v-.1c.21-.14.36.2.59.17l0,.06.1-.06c0,.07,0,.06,0,.1s.07-.1.18-.09,0,0-.07.06a.53.53,0,0,1,.32,0s0,0,0,0,.15,0,.23.05,0,0-.05,0,.05,0,.08,0l0,0c.06,0,.18,0,.17.07s0-.08.06-.06.14,0,.21.06-.08,0-.06,0,.08,0,.12,0l0,0,.19,0c0,.12.18,0,.14.1s0-.06,0,0,.07,0,.05.07h0l0,.06s.1-.06.12-.11.11,0,.11.1h0c.14,0,.17.24.3.15s0,0,0,0l.08,0,0,0,.16,0v0a1.45,1.45,0,0,0,.34.07h0c.13,0,.11.06.2,0h0l.08,0,0,0c.07-.07.14.14.12.06s.11,0,.13-.09,0,0,.06.09.09,0,.17,0v0h.11c.11,0,.09.13.2,0,0,0,.11,0,.09.11a1.94,1.94,0,0,1,.34,0c0,.12,0,0,.07.08v-.06c.17,0,.31.22.5.24v.06l0,0a5.57,5.57,0,0,0,.58.19s.15-.08.22,0h0a1,1,0,0,1,.44.08s0,0,0,.06.09,0,.12,0l0-.06s.1,0,.11.07l.09,0v0l0,0,0,.09s.11,0,.16-.08.06.07,0,.07l.24.08,0,0a.07.07,0,0,1,.12,0c-.06,0,0,.08,0,.14s0-.07,0-.1.14,0,.16,0h0c.06,0,.06.11.12.12s.09,0,.1-.09,0,.08,0,.09.15,0,.15.07c.07-.14.18.11.23,0l0,.09s0-.11.09-.11,0,.1,0,.14l.06-.12c.23.2.6.19.86.38a1.2,1.2,0,0,1,.46,0h0l.15.07-.1-.09s.07,0,.1,0a1,1,0,0,0,.58.19c.16-.11,0,.16.2.08l0,0a1.13,1.13,0,0,0,.38-.08c0,.15.09,0,.06.1l0-.06s.08.07.06.11l.08-.06v.07c.08,0,.26,0,.27.15a1.54,1.54,0,0,1,.77.14c.05,0,.12,0,.18,0l0,.08c.06,0,.14-.08.19,0h0c.06,0,.1.06.17,0s.12.07.08.14c0-.12.13.05.13.05s3.21,1.09,4.17.61c0-.05.12-.07.11-.15s.07.1.09,0,.06-.15,0-.24h.06s-.08,0,0,0l0,.11a.11.11,0,0,1-.06-.09s-.11.18-.18.09h0c-.08,0,0-.08,0-.11h0l-.05-.07s.13,0,.09,0,0,0,0,0,0-.06,0-.1H64.7c0-.05,0,0,0-.05l-.1,0c0-.14-.12,0-.13-.1s0,0,0-.08l-.17,0s.06,0,0,0-.06,0-.07,0-.12,0-.1-.11-.07.1-.16,0,.08,0,0-.06H64s0-.09.08-.06c-.27-.14-.35-.46-.63-.45,0-.08,0,0,.07-.08-.2,0-.23-.2-.39-.23v0c-.19-.22-.48-.18-.72-.31l0,0a.27.27,0,0,1-.15,0s.06-.11,0-.1,0,.05,0,.07c-.18-.19-.65-.26-1-.42-.49-.07-1-.3-1.47-.38.07,0,0,.13,0,.09-.09-.26-.26,0-.38-.21-.29,0-.49-.25-.79-.14v-.07s0,0-.09,0h0c-.09,0-.22,0-.27-.06l0,.07s0-.06-.08,0v0l-.08,0c0-.12-.16,0-.19-.11a.83.83,0,0,1-.34,0c0-.07-.14-.1-.22-.15a4.56,4.56,0,0,1-.63-.14v.08h-.06s0,0,0,0-.13,0-.17-.07,0,0,.07,0,0,.11-.08.06v0l0,0c0-.06,0-.1,0-.16-.19,0-.34,0-.53,0,0-.06-.14,0-.07-.13-.13,0,0,.11-.08.18s-.07,0-.07,0,0-.08,0-.09H55.6l0,0c-.17,0-.26-.14-.41-.1s.05,0,0,.06-.11-.11-.25-.07L55,53s-.08.08-.14,0S55,53,55,53s-.17,0-.15,0-.07-.05-.09-.08,0,.06,0,.08a1.1,1.1,0,0,0-.29-.11s0,0,0,0S54.45,52.77,54.34,52.77Z"/><path class="cls-7" d="M49.17,51.91l0,0s0,0,0,0Z"/><path class="cls-7" d="M51,52.39h0Z"/><path class="cls-7" d="M51.45,52.37s0,0,0,.06A.06.06,0,0,0,51.45,52.37Z"/><path class="cls-7" d="M48.09,51.84v0A0,0,0,0,0,48.09,51.84Z"/><path class="cls-7" d="M45.24,51.1v0Z"/><path class="cls-7" d="M45.37,51.25h0Z"/><path class="cls-7" d="M48.79,52l0,0S48.79,52,48.79,52Z"/><path class="cls-7" d="M45.44,51.24l0,0h0Z"/><path class="cls-7" d="M45.19,51.08l.05,0S45.21,51.08,45.19,51.08Z"/><path class="cls-7" d="M47,51.68Z"/><polygon class="cls-7" points="45.65 51.16 45.65 51.17 45.67 51.15 45.65 51.16"/><path class="cls-7" d="M45,51s0,0,0,0l0,0Z"/><path class="cls-7" d="M46.44,51.43l0,0S46.44,51.47,46.44,51.43Z"/><path class="cls-5" d="M146.88,69A10.51,10.51,0,0,1,142,67.83a.75.75,0,0,1-.32-1,.76.76,0,0,1,1-.32,8.49,8.49,0,0,0,11.54-3.29.75.75,0,1,1,1.33.69A9.72,9.72,0,0,1,146.88,69Z"/></g></svg>