<svg xmlns="http://www.w3.org/2000/svg" viewBox="0 0 195 155"><defs><style>.cls-1{fill:#d3c5e0;}.cls-2{fill:#7f57a6;}.cls-3,.cls-5{fill:none;}.cls-3,.cls-4,.cls-5{stroke:#6c3f99;stroke-miterlimit:10;}.cls-3{stroke-width:10px;}.cls-4{fill:#6c3f99;}.cls-5{stroke-width:4px;}.cls-6{fill:#916fb2;fill-rule:evenodd;}.cls-7{fill:#6f439b;}</style></defs><title>arbitrary arrest</title><g id="Layer_1" data-name="Layer 1"><circle class="cls-1" cx="97.5" cy="77.5" r="45.85"/><path class="cls-2" d="M97.06,95h0Z"/><path class="cls-2" d="M96.86,96.68l0,0S96.85,96.68,96.86,96.68Z"/><path class="cls-2" d="M97.14,93.94h0v0Z"/><path class="cls-2" d="M96.65,100.34v0S96.64,100.34,96.65,100.34Z"/><path class="cls-2" d="M96.79,98.17s0,0,0,0S96.81,98.18,96.79,98.17Z"/><path class="cls-2" d="M97.84,93.39l0,0A.05.05,0,0,0,97.84,93.39Z"/><path class="cls-2" d="M97.64,92.35h0Z"/><path class="cls-2" d="M97.45,92.76l0,0S97.47,92.76,97.45,92.76Z"/><path class="cls-2" d="M97.48,92.8h0Z"/><path class="cls-2" d="M97,113.64s0,0,.06.08Z"/><path class="cls-2" d="M96.64,103.66h0Z"/><path class="cls-2" d="M97.39,113.67v0S97.39,113.68,97.39,113.67Z"/><path class="cls-2" d="M98,93.94S98,94,98,94,98,94,98,93.94Z"/><path class="cls-2" d="M98.41,104.35v0Z"/><path class="cls-2" d="M97.39,113.67v0h0S97.39,113.66,97.39,113.67Z"/><polygon class="cls-2" points="96.65 107.11 96.65 107.11 96.64 107.1 96.65 107.11"/><path class="cls-2" d="M96.57,107.29v0S96.56,107.29,96.57,107.29Z"/><path class="cls-2" d="M97,113.72l0,0S97.06,113.73,97,113.72Z"/><path class="cls-2" d="M96.66,109.27v0A0,0,0,0,0,96.66,109.27Z"/><path class="cls-2" d="M96.82,98s0,0,0,0S96.81,98,96.82,98Z"/><polygon class="cls-2" points="98.07 99.39 98.07 99.39 98.07 99.39 98.07 99.39"/><path class="cls-2" d="M98,99.32s0,.05.06.07S98.06,99.35,98,99.32Z"/><path class="cls-2" d="M98.05,99.55h0Z"/><polygon class="cls-2" points="98.13 98.08 98.12 98.08 98.13 98.08 98.13 98.08"/><path class="cls-2" d="M98.14,98.37s0,0,0,0Z"/><polygon class="cls-2" points="98.18 100.27 98.18 100.27 98.18 100.27 98.18 100.27"/><path class="cls-2" d="M98.55,103a4.68,4.68,0,0,1-.1-.9.31.31,0,0,1-.13-.23h.13l0-.08s0,.06.07,0l-.08,0s0-.19.12-.07v-.28c0-.06-.11,0-.07-.1s0,0,.07,0c.09-.21-.25-.24-.2-.43h0s0-.09,0-.09.07,0,0,.09-.06-.07-.14-.07,0-.07,0-.11,0-.16.1-.21-.14-.07-.15-.14.09,0,.12-.06h-.07s0,0,.06,0-.09,0-.05-.13l.06,0a.25.25,0,0,1,0-.15s0,0,0,0,0-.07,0-.09,0,.06-.1,0-.09-.08,0-.11l.06,0c0-.08-.08,0-.06-.13h0c-.08,0,0-.13,0-.22l0,0s-.08-.06-.07-.07-.06,0-.12,0c.1-.07-.12-.1-.06-.21s.08,0,0,.06c.11,0,.2,0,.25.1s0-.09,0-.08h-.09s0,0,0-.06-.1,0-.15,0,.11,0,.06,0-.11,0-.07-.12,0,0,0,0,0-.15.1-.17.07,0,.06,0h0c.08.06,0-.06.08,0-.06,0,0-.08,0-.12L98,99c-.22-.13.14,0,.12-.13s0,0-.08,0,.08-.08.05-.16a.23.23,0,0,1,.15-.07s0-.15,0-.17.09.08,0,.18l-.08,0c0-.07,0-.15,0-.2h-.06c0-.1-.11-.12-.08-.22s.06,0,.06.09,0-.07,0-.16,0,.06.06.07l0-.1h0c-.1,0,0-.08,0-.14s-.14-.17-.23-.25a.09.09,0,0,1,.08,0s0,0,0,0,.1-.11.15-.08-.06,0-.09,0V97.5s-.06,0-.1,0a.31.31,0,0,1,0-.14s.09,0,.08,0,0-.08,0-.09,0-.12-.13-.06l0-.07s0,0,0,0,0-.06,0-.08,0-.09.06-.09A.06.06,0,0,1,98,97s-.06,0-.09,0v-.11a1.19,1.19,0,0,1,.19,0s-.13,0-.13-.07.07-.09.17,0,.07-.13,0-.19,0,.06-.11.06c0-.16-.23-.17-.19-.28l0,0c0-.07,0-.07-.1-.11.09,0,.25-.08.23-.2s-.09.07-.16,0l0-.08h0c0-.07.11-.13,0-.15l.13-.07-.06,0s0-.09-.07-.11,0-.11,0-.15-.12,0-.13,0,0-.14.13-.14,0-.07,0-.07H98c-.13,0-.12-.09-.14-.17.17,0,0-.07.14-.11-.12,0,0-.12-.15-.14s.11,0,.14-.06l0,0s.06-.14.1-.2l-.1,0,0,0s0,0-.08,0v0c-.11,0,0-.05-.08-.11a.06.06,0,0,1,.06,0s.06,0,.09,0-.2-.11-.25,0-.08,0-.06-.07l.1,0-.1,0s0-.07.06-.11.19.08.19,0c0,.06.07.08.09.11s0,0,.06,0-.07,0-.08-.1.12,0,.15-.09l-.06,0h0s0,0-.06,0-.11-.09-.06-.1c-.14.08-.1-.14-.19-.09a0,0,0,0,1,0-.07c.07.07.11,0,.17,0s-.07,0-.1,0,0-.07.08-.09v0l0-.06s-.07,0-.1,0,0-.07,0-.07.15,0,.16.05,0-.16-.1-.11v-.05s-.11.12-.12,0h0l-.06-.06,0,0s0,0,0,0,0,0,.07,0,0-.07-.07-.08,0,0,.06,0,0-.15,0-.19,0,0-.08,0c.16-.07.06-.24,0-.36s0,0-.14-.05c0,0,.1-.12.14,0v-.07c.07,0,0,.11.16,0s-.16-.11-.11-.2,0-.06.08,0,0,0,0,.06h0c0-.16-.12-.05-.18-.13s.07-.07.12-.08,0-.06,0-.09-.06.11-.13.09c.11,0,0-.14,0-.17-.12.14,0,.09-.13.22s.13,0,.09.09,0,0-.07,0,0,.05,0,.07-.14,0-.16,0h.14s-.1,0-.07,0-.11,0-.13-.07c-.12.1.06.15.11.23h0s0,0,0,.07-.06,0-.1,0v.09h0s0,0,0,0l-.12,0,.09.09s-.07.07-.11,0l0,.13-.09,0s0,0,0,0,.16.2,0,.18c.07.1,0,.14.09.27-.08-.1-.11.11-.15,0,0,.06.06.07.08.12a.11.11,0,0,1-.16,0l0,.06h0l0,0s-.09,0-.1.07h.08l0,0s.06,0,.06.06h0l0,0s0,0-.07,0,0,0,0,.11h0c.05.1-.08,0-.08.08h.06c-.11.11.06.19,0,.27s-.09,0-.07,0,0,.19.09.26c-.1,0-.12,0-.16.11s0,.06.06.08,0,.15,0,.16,0,0,0,.07h0c-.14.1.08.16,0,.26v0l0,0s0,0-.08,0v.19l0,0s.07.07,0,.11,0,.07-.08.08l0,0s0,0,.07,0-.13,0-.06.11v0s.09,0,.08,0,0,0,0,0,0,.14,0,.17S97,96,97,96s0,.06,0,.17h0l0,0-.08.06,0,0s0,.07,0,.11l-.06,0c0,.11-.09.13,0,.24l0,0c.08.1-.1.07,0,.17h0l0,0h-.07l.11,0-.08,0,0,0c-.14,0,0,.11-.14.18h.09c.19.16-.1.37,0,.57h-.08l.09.08c-.06.05-.06,0-.1,0s.11,0,.13.14-.05,0-.08-.05a.44.44,0,0,1,0,.31h0c0,.07,0,.15,0,.22s0,0,0,0,0,.06,0,.09l-.06,0s0,.16,0,.17.08,0,.08,0,0,.13,0,.2,0-.06,0,0,0,.07.06.1h0l.06.17c-.11,0,0,.17-.07.16s0-.06.07,0,0,.07,0,.07h0v.06l-.07,0a.17.17,0,0,0,.14.09s0,.11-.07.13v0c0,.13-.2.21-.08.31s0,0,0,0v.08l0,0,.08.13h0a1.25,1.25,0,0,0,0,.33v0c0,.12,0,.12,0,.2h0v.08h0c.08,0-.1.16,0,.13s.08.09.12.1,0,0-.08.07.06.07,0,.16h0s0,.06,0,.12v0c.07.09-.11.11,0,.18,0,0,0,.11-.08.11a1.76,1.76,0,0,1,.1.3c-.12,0,0,0-.06.1h.06c0,.16-.14.34-.12.51h-.06l.07,0a4.26,4.26,0,0,0,0,.58s.11.12.09.19h0a1,1,0,0,1,0,.42h-.07c.07,0,0,.08,0,.12l0,0c.06,0,0,.1,0,.12l.07.07h0l-.09,0s0,.1.12.13,0,.06-.06,0l0,.24,0,0c.07,0,.11.07.08.1s-.09,0-.14,0,.06,0,.09,0,.07.13,0,.15l0,0c0,.06-.08.09-.08.14s0,.09.12.08-.08,0-.09,0,0,.13,0,.14c.16,0-.06.2.08.21l-.08.06s.12,0,.13.06-.1,0-.14,0l.14,0c-.14.26,0,.6-.16.88a1.25,1.25,0,0,1,.07.43h0l0,.14.06-.1s0,0,0,.08a.88.88,0,0,0,0,.58c.15.13-.14.08,0,.21l-.05,0a1.8,1.8,0,0,0,.17.34c-.15,0,0,.08-.07.07h.06s0,.1-.1.09l.08.06h-.06c0,.07,0,.24-.08.28a1.51,1.51,0,0,1,.05.74s0,.1.06.16l-.08,0c0,.06.12.12.08.17h0s0,.11,0,.16,0,.12-.11.1c.12,0,0,.14,0,.14s-.28,3.19.41,4c.06,0,.1.09.17.07s-.08.08,0,.09.16,0,.24,0l0,0s-.06-.06,0-.05H97.3a.16.16,0,0,1,.08-.08s-.2-.06-.14-.14v0c0-.07.08,0,.09-.06v0l.06-.06s.06.12,0,.08,0,0,0,0,0,0,.09,0v-.07s0,0,0,0l-.06-.09c.14,0-.07-.1.06-.14s0,0,.09,0V113s.05,0,0,0,0,0,0-.07,0-.11.09-.11-.12,0-.07-.14,0,.07.07,0l0-.1s.09,0,.08.06c.07-.28.36-.43.28-.69.07,0,.05,0,.09,0-.09-.18.14-.26.13-.41h-.05c.17-.22.06-.49.13-.73l0,0c-.06,0-.06-.09-.09-.13s.12,0,.1,0,0,0-.07,0a3.77,3.77,0,0,0,.17-1c0-.47,0-1,0-1.45,0,.07-.13,0-.1,0,.23-.15,0-.25.11-.4-.07-.27.12-.51,0-.76h.06s0,0,0-.09h0c0-.09,0-.2,0-.26H98.4c0-.06.06,0,0-.09h0l-.06-.07c.12,0,0-.16.06-.2a.62.62,0,0,1,0-.31c.06,0,.06-.16.09-.24a4,4,0,0,1,0-.61h-.08v0s0,0,0,0,0-.13,0-.17,0,0,0,.07-.12,0-.08-.06h0l0,0c.07,0,.1,0,.16,0,0-.18-.13-.3-.1-.49.07,0,0-.13.11-.09,0-.11-.1,0-.19,0s0-.07,0-.07.08,0,.09,0v-.08s0,0,0,0c-.07-.15.08-.27,0-.41s0,.06-.06.05.08-.12,0-.25l.06,0s-.1,0,0-.12.06.06.1.09,0-.17-.09-.13,0-.08.06-.11,0,.06-.08,0a.82.82,0,0,0,0-.28s0,0,0,0S98.57,103.1,98.55,103Z"/><path class="cls-2" d="M98.14,98v0a.06.06,0,0,1,.05,0Z"/><path class="cls-2" d="M98.1,99.82s0,0,0,0A0,0,0,0,0,98.1,99.82Z"/><path class="cls-2" d="M98.24,100.26s0,0-.06,0Z"/><path class="cls-2" d="M97.94,97h0S98,97,97.94,97Z"/><path class="cls-2" d="M98,94.25h0A0,0,0,0,0,98,94.25Z"/><path class="cls-2" d="M97.86,94.4a.08.08,0,0,0,0,0S97.87,94.41,97.86,94.4Z"/><path class="cls-2" d="M98,97.71s0,0,0,0S98,97.72,98,97.71Z"/><path class="cls-2" d="M97.89,94.47v0h0Z"/><path class="cls-2" d="M98,94.2a.07.07,0,0,1,0,0S98,94.21,98,94.2Z"/><path class="cls-2" d="M97.84,96h0S97.86,96,97.84,96Z"/><polygon class="cls-2" points="98.01 94.64 98.01 94.64 98.03 94.65 98.01 94.64"/><path class="cls-2" d="M98,94s0,0,0,0v0Z"/><path class="cls-2" d="M98,95.43l-.06,0S97.9,95.44,98,95.43Z"/><path class="cls-2" d="M85.59,107.77l0,0Z"/><path class="cls-2" d="M86,108.54h0Z"/><path class="cls-2" d="M85.33,107.33h0l0,0Z"/><path class="cls-2" d="M87,110.06h0A0,0,0,0,1,87,110.06Z"/><path class="cls-2" d="M86.4,109.15h0Z"/><path class="cls-2" d="M85.69,106.67l0,0S85.69,106.68,85.69,106.67Z"/><path class="cls-2" d="M85.21,106.4h0Z"/><path class="cls-2" d="M85.2,106.68h0S85.21,106.67,85.2,106.68Z"/><path class="cls-2" d="M85.24,106.68h0Z"/><path class="cls-2" d="M91.4,114.84s0,0,.07,0Z"/><path class="cls-2" d="M88,111.31h0Z"/><path class="cls-2" d="M91.73,114.59h0Z"/><path class="cls-2" d="M86,106.79c.05,0,0,0,.06,0S86,106.75,86,106.79Z"/><path class="cls-2" d="M89.57,110.42h0Z"/><path class="cls-2" d="M91.73,114.59v0l0,0Z"/><polygon class="cls-2" points="89.1 112.6 89.1 112.6 89.09 112.61 89.1 112.6"/><path class="cls-2" d="M89.1,112.72h0S89.09,112.72,89.1,112.72Z"/><path class="cls-2" d="M91.47,114.83h0S91.49,114.83,91.47,114.83Z"/><path class="cls-2" d="M89.78,113.41h0Z"/><path class="cls-2" d="M86.37,109.08h0S86.36,109.08,86.37,109.08Z"/><polygon class="cls-2" points="87.75 108.78 87.75 108.78 87.75 108.78 87.75 108.78"/><path class="cls-2" d="M87.68,108.79h.07S87.73,108.77,87.68,108.79Z"/><path class="cls-2" d="M87.78,108.85h0Z"/><polygon class="cls-2" points="87.39 108.25 87.38 108.25 87.39 108.25 87.39 108.25"/><path class="cls-2" d="M87.48,108.35s0,0,0,0A0,0,0,0,0,87.48,108.35Z"/><polygon class="cls-2" points="88.11 109.03 88.11 109.03 88.11 109.03 88.11 109.03"/><path class="cls-2" d="M89.25,109.82c-.11-.08-.29-.15-.36-.27a.16.16,0,0,1-.17,0l.1-.08h-.06s0,0,.06,0l-.07,0s0-.09.07-.1l-.09-.11s-.09.06-.09,0,0,0,.06,0-.26.08-.28,0h0s0,0-.07,0,.07,0,0,0-.07,0-.13.06,0,0-.06,0,0-.07,0-.15-.13.07-.15,0,.06,0,.06-.09l0,0s0,0,0-.06-.08,0-.07,0l.06,0s0,0-.06,0,0,0,0,0-.06,0-.06,0,0,0-.06.08-.09,0,0,0l.06,0c-.06,0-.07,0-.08,0s0,0,0,0,0,0-.08-.09h0s-.07,0-.08,0,0,.05-.07.09-.12,0-.11,0,.07,0,.05,0a.77.77,0,0,1,.22-.13s-.06,0,0,0l-.08.06s0,0,0,0-.06.08-.11.09.07-.08,0-.06-.09.06-.1,0h0s-.06,0,0-.13,0,0,0,0h0c.08,0,0,0,0-.07s-.06,0-.07,0l0,0c-.2.1.11-.09,0-.12s0,0-.06,0,0-.07,0-.08a.33.33,0,0,1,.09-.13s0-.08-.09,0,.09,0,0,.08l-.07,0s-.07,0-.07-.07l0,0c-.06,0-.13,0-.14,0s.06,0,.08,0,0,0,0-.08,0,0,.07,0l0,0h0c-.08.06,0,0-.06,0s-.16,0-.25.06a.18.18,0,0,1,.05-.07s0,0,0,0,0-.11.09-.13,0,0-.08,0l0,0s0,.06-.08.07,0,0,0,0,0-.06.06,0,0,0,0,0-.07,0-.12.06l0-.06s0,0,0,0,0,0,0,0a.1.1,0,0,1,0-.07s0,0,0,0,0,0-.06,0l0,0a.71.71,0,0,1,.15-.12s-.11.08-.13.06,0-.08.12-.13,0-.09,0-.1,0,.05-.06.1-.23.08-.24,0v0a.22.22,0,0,0-.11,0c.08-.05.16-.19.11-.22s0,.08-.11.12l0,0,0,0s0-.12,0-.06l.07-.11,0,0s-.07,0-.09,0,0,0,0-.09-.08.1-.11.08,0-.08,0-.13,0-.06,0,0l.07-.06c-.1.08-.12,0-.16,0,.13-.1,0,0,.07-.13-.09.07-.08,0-.16,0s.07-.08.09-.11l0,0s0-.09,0-.14l-.09,0,0,0s-.05,0-.07,0v0c-.08.07,0,0-.09,0a.09.09,0,0,1,0,0s0-.05.06-.08-.19.09-.2.15-.08,0-.07,0l.07-.08-.09.06s0-.06,0-.08.17-.09.14-.13.08,0,.1,0,0,0,0,0-.06,0-.09,0,.08-.08.08-.13l0,.07h0s0,0,0,0-.11,0-.07,0c-.09.12-.13,0-.18.09s0,0,0,0,.06-.08.11-.12,0,.06-.07.07,0,0,0-.08h0v0s0,.07-.07.06,0,0,0,0,.11-.1.14-.09-.07-.05-.12,0v0s0,.11-.08.08h0l-.07,0,0,0s0,0,0,0,0,0,0,0-.06,0-.08,0,0,0,0-.06,0,0,0-.1,0,0-.07,0c.1-.12,0-.13-.08-.16s0,0-.12.08,0-.12.1-.1l0,0c0-.06.08,0,.14-.09s-.16.06-.15,0,0,0,0-.07h0c0-.08-.1,0-.18.07s0-.08.07-.11,0,0,0,0,0,.08-.07.11,0-.06-.08,0,0,0,0,.17.11-.08.1,0,0,0-.05.05,0,0,.06,0-.11.07-.11.12l.11-.09s-.08.06,0,.07-.08.07-.13,0,.1,0,.16,0l0,0s0,0,.06,0-.06,0-.09,0l0,0h0s0,0,0,0l-.11.06.1,0s0,.08-.08.08l.06,0-.07.07s0,0,0,0,.19,0,0,.07c.09,0,.07,0,.15,0-.09,0,0,.11-.11.09s.07,0,.1,0a.26.26,0,0,1-.13.1h.09s-.07.06-.06.09l.06,0,0,0s0,0,.06,0h0c-.06,0,0,0,0,0s0,0,0,0l0,0c.07,0-.06.05,0,.09l.05,0c-.05.11.1,0,.08.11s-.08,0-.07,0,.07.07.15,0-.08.09-.09.14,0,0,.08,0,.06,0,0,.09,0,0,0,0l0,0,0,0c-.08.13.11,0,0,.13h0l-.06.05,0,.08,0-.05s.07,0,.06,0,0,0,0,.08h0s0,0,.07,0-.08.09,0,.07l0,0s.08,0,.09,0,0,0,0,0,0,.06.07,0,0,0-.06,0,0,0,.09,0l0,0h0l0,.07,0,0s0,0,0,0l0,0c.06,0,0,.11.06.1l0,0c.1,0,0,.09.06.06l0,0h0l0,0,.09,0,0,.06,0,0c-.09.11,0,.07-.05.16l.07-.07c.2-.06,0,.21.17.23l-.06,0,.09,0c0,.06-.05,0-.07.06s.09,0,.14,0,0,0-.08,0,.14,0,.13.09l0,0s0,.06.07.08,0,0,0,0,0,0,0,0l-.06,0s.08,0,0,.08.06,0,.08,0,.07,0,0,.08,0,0,0,0,0,0,.08,0l0,0,.1,0c-.07.08.07,0,0,.1s0,0,.06,0,0,0,0,.05h0l-.06,0a.36.36,0,0,0,.13-.06s0,0,0,.09h0c.06,0-.08.2,0,.16s0,0,0,0l0,0-.05,0h.11l0,0a.32.32,0,0,0,.12.11h0c.08,0,0,.06.07.07h0l0,0h0c.07,0,0,.13,0,.07s.09,0,.12,0,0,0,0,.08.07,0,.07,0l0,0s0,0,.07,0h0c.08,0,0,.11.1,0,0,0,0,0,0,.1a.48.48,0,0,1,.17,0c-.08.08,0,0,0,.07l0,0c.06,0,0,.22.07.27l0,0,.07,0a.86.86,0,0,0,.14.25s.12,0,.13,0h0a.21.21,0,0,1,.16.14s0,0-.06,0,0,0,0,0l0,0c.06,0,0,0,0,.08l.08,0s0,0,0,0l0,0-.05.07s.06,0,.13,0,0,.06,0,0l0,.1v0s.1,0,.09,0a.18.18,0,0,0-.09.1s0-.05.06-.07.09,0,.08,0h0s0,.09,0,.11,0,0,.11-.05,0,.06,0,.08.06,0,0,.07c.14-.09,0,.11.13,0l0,.07s.09-.07.12-.06a1.06,1.06,0,0,1-.09.11l.11-.08c0,.19.15.25.15.44.06,0,.16,0,.2.11h0l0,.08v-.08H89c0,.1,0,.22.14.25s-.08.12.05.1l-.05,0a.57.57,0,0,0,.23,0c-.12.1,0,0,0,.08l0,0s0,.07,0,.09l.07,0,0,0s.11.06,0,.16c.13,0,.2.14.26.24a.08.08,0,0,1,.1,0l0,.07s.13,0,.11,0h0s0,.06.09,0,0,.07-.06.11c.1-.08,0,.06,0,.06s.79,1.39,1.56,1.23c.06,0,.11,0,.16-.09s0,.09,0,.06.13-.1.16-.18h0s-.06,0,0,0l-.1.07s0,0,0-.08-.17.11-.15,0h0s0-.07,0-.09h0l0-.06s.08,0,.06,0,0,0,0,0,0,0,.07-.07l0,0s0,0,.05,0h-.08c.1-.09-.08,0,0-.09s0,0,.07-.06l-.06,0s0,0,0,0,0,0,0,0,0,0,0-.1-.1.06-.09,0,0,0,.06,0l0,0s.08,0,.08,0c0-.15.14-.39,0-.44,0-.06,0,0,.09,0-.13,0,0-.19,0-.24l0,0c.06-.19-.1-.22-.12-.36l0,0s-.07,0-.11,0,.1-.07.06-.08,0,0,0,.06c0-.18-.13-.32-.19-.49s-.26-.41-.43-.56c0,0-.09.1-.08.06.12-.2-.11-.07,0-.22-.14-.06-.07-.27-.28-.25l0,0s0,0,0,0h0c0-.05-.09-.05-.09-.09l-.05,0s0,0,0,0l0,0-.07,0c.09-.08-.05-.07,0-.12s-.12,0-.14-.09,0-.09,0-.15a.81.81,0,0,1-.2-.21l-.06,0,0,0,0,0c.06-.08-.06,0,0-.08s0,0,0,0-.09.08-.08,0h0a1.31,1.31,0,0,0,.11-.12c-.07-.05-.2,0-.23-.12s-.06,0,0-.1c-.07,0-.07.07-.16.11s0,0,0,0,0-.06.07-.06l0,0s0,0,0,0,0-.15-.12-.16,0,0,0,.06,0-.1-.07-.1l.06,0s-.1,0-.08,0,.06,0,.1,0-.06,0-.1,0,0-.06,0-.08,0,0-.06.06,0-.1,0-.14l0,0C89.17,110,89.3,109.85,89.25,109.82Z"/><path class="cls-2" d="M87.38,108.22v0l.05,0Z"/><path class="cls-2" d="M87.92,108.92h0A0,0,0,0,0,87.92,108.92Z"/><path class="cls-2" d="M88.15,109s0,0,0,0A.08.08,0,0,0,88.15,109Z"/><path class="cls-2" d="M86.91,108h0Z"/><path class="cls-2" d="M86.06,106.9v0Z"/><path class="cls-2" d="M86,107h0S86,107,86,107Z"/><path class="cls-2" d="M87.15,108.21h0Z"/><path class="cls-2" d="M86.07,107v0h0Z"/><path class="cls-2" d="M86.05,106.88a0,0,0,0,1,0,0S86.07,106.88,86.05,106.88Z"/><path class="cls-2" d="M86.52,107.65h0S86.54,107.65,86.52,107.65Z"/><polygon class="cls-2" points="86.21 107.02 86.21 107.03 86.23 107.02 86.21 107.02"/><path class="cls-2" d="M86,106.8h0v0Z"/><path class="cls-2" d="M86.41,107.36l0,0S86.38,107.4,86.41,107.36Z"/><path class="cls-2" d="M107.76,107.68l0,0S107.75,107.67,107.76,107.68Z"/><path class="cls-2" d="M107.05,108.18v0S107.05,108.17,107.05,108.18Z"/><path class="cls-2" d="M108.15,107.36h0l0,0Z"/><path class="cls-2" d="M105.7,109.39h0S105.7,109.38,105.7,109.39Z"/><path class="cls-2" d="M106.51,108.68a0,0,0,0,1,0,0S106.53,108.7,106.51,108.68Z"/><path class="cls-2" d="M108.86,107.62l0,0A.05.05,0,0,0,108.86,107.62Z"/><path class="cls-2" d="M109.05,107.1h0Z"/><path class="cls-2" d="M108.78,107.13v0S108.79,107.14,108.78,107.13Z"/><path class="cls-2" d="M108.79,107.17v0Z"/><path class="cls-2" d="M101.63,114.48s0,0,0,.07Z"/><path class="cls-2" d="M104.62,110.6v0S104.61,110.59,104.62,110.6Z"/><path class="cls-2" d="M101.93,114.76h0Z"/><path class="cls-2" d="M108.78,107.9s0,0,0,.06S108.83,108,108.78,107.9Z"/><path class="cls-2" d="M105.73,112h0Z"/><path class="cls-2" d="M101.93,114.76h0Z"/><polygon class="cls-2" points="103.5 111.87 103.5 111.87 103.5 111.86 103.5 111.87"/><path class="cls-2" d="M103.39,111.89v0A0,0,0,0,0,103.39,111.89Z"/><path class="cls-2" d="M101.65,114.55v0A.08.08,0,0,0,101.65,114.55Z"/><path class="cls-2" d="M102.81,112.66h0S102.8,112.66,102.81,112.66Z"/><path class="cls-2" d="M106.58,108.65h0S106.58,108.64,106.58,108.65Z"/><polygon class="cls-2" points="107.08 109.97 107.08 109.97 107.09 109.97 107.08 109.97"/><path class="cls-2" d="M107.06,109.9s0,0,0,.07S107.09,109.94,107.06,109.9Z"/><path class="cls-2" d="M107,110Z"/><polygon class="cls-2" points="107.56 109.53 107.55 109.52 107.56 109.53 107.56 109.53"/><path class="cls-2" d="M107.47,109.64h0S107.46,109.64,107.47,109.64Z"/><polygon class="cls-2" points="106.89 110.36 106.88 110.36 106.88 110.36 106.89 110.36"/><path class="cls-2" d="M106.27,111.6c.07-.12.11-.31.22-.39a.18.18,0,0,1,0-.17l.1.08v-.05s0,0,.06.05l-.05-.07s.08,0,.11.06l.09-.1s-.07-.09,0-.09,0,0,0,0-.11-.25,0-.28h0s0,0,0-.06,0,.06,0,0,0-.07-.09-.12,0,0,0-.06.07,0,.15,0-.08-.12-.06-.15,0,.06.1.06l0,0s0,0,0,0,0-.07,0-.08l0,.06s0,0,0-.06,0,0,0,0,0,0,0,0,0,0-.08-.06,0-.08,0,0l0,0c0-.06,0-.07,0-.08l0,0c0-.08,0-.06.07-.08h0s0-.07,0-.07a.15.15,0,0,1-.1-.06c.1,0-.06-.12,0-.12s0,.07,0,0,.14.14.15.2,0-.06,0,0l-.07-.07,0,0s-.09,0-.1-.1.09,0,.06,0-.07-.08,0-.09,0,0,0,0,0-.07.13,0,0,.05,0,.05h0c0,.08,0,0,.07,0s0-.06,0-.07l-.06,0c-.12-.19.11.1.13,0s0,0,0,0,.08,0,.08,0a.35.35,0,0,1,.14.07s.07,0,0-.09,0,.08-.07,0l0-.06s0-.08.06-.08l0,0c0-.06,0-.12,0-.14s0,.06,0,.08,0,0,.07,0,0,0,0,.06l0,0h0c-.07-.07,0,0,0-.07s0-.15-.09-.24a.18.18,0,0,1,.07.05s0,0,0,0,.11,0,.13.06,0,0-.06-.06l0,0s-.06,0-.08-.07,0,0,0-.05.06.05,0,.06,0,0,0,0,0-.08-.08-.11h.06s0,0,0,0,0,0,0,0,0,0,.07,0,0,0,.06,0,0,0-.06-.06l0,0a1,1,0,0,1,.14.12s-.09-.09-.07-.11.08,0,.14.1.09,0,.09,0,0,0-.1-.06-.12-.21,0-.23h0a.16.16,0,0,0,0-.1c.07.07.21.13.24.07s-.09,0-.14-.08l0,0s0,0,0,0,.13,0,.06,0l.12.06,0,0s0-.07,0-.09,0,0,.09,0-.11-.06-.1-.1.08,0,.14,0,.06,0,0,0l.07.06c-.09-.08-.06-.11,0-.15s0,0,.14,0c-.08-.08,0-.08-.07-.15s.1,0,.13.07l0,0s.09,0,.13,0l-.06-.09,0,0s0-.05-.06-.06h0c-.08-.07,0,0,0-.09l0,0s0,0,.08,0-.11-.17-.18-.17,0-.07,0-.07l.08.06-.07-.08s.06,0,.08,0,.12.16.15.12a.36.36,0,0,0,0,.09s0,0,0,0,0-.05,0-.09.09.08.14.07l-.07,0v0s0,0-.06,0,0-.11,0-.08c-.13-.06,0-.12-.12-.16s0,0,0,0,.09,0,.13.09-.06,0-.08-.06.06,0,.09,0v0h0s-.08,0-.08-.06,0,0,0,0,.1.1.1.13a.07.07,0,0,0,0-.11l0,0s-.12,0-.1-.07h0l0-.07,0,0s0,0,0,0l.06,0s0,0,0-.07,0,0,.06,0,0-.05.09,0,0,0,0-.06c.14.08.13,0,.15-.11s0,0-.09-.11.12,0,.11.09v0c.07,0,0,.07.11.12s-.08-.15,0-.15,0,0,.07,0,0,0,0,0h0c.07,0-.07-.09-.1-.17s.08,0,.12,0,0,0,0,0-.08,0-.12,0,.05,0,0-.09,0,0-.17,0c0,0,.1.09,0,.09s0,0-.06,0,0,0,0,.06-.08-.1-.13-.09l.1.09s-.07-.06-.06,0-.09-.07-.08-.11,0,.1,0,.16,0,0,0,0a.05.05,0,0,1,0,0s0,0-.07-.07l0,0h0s0,0,0,0l-.08-.1,0,.1s-.08,0-.08-.07l0,.06-.07,0s0,0,0,0,.06.18-.07.06c0,.08,0,.08,0,.16,0-.09-.11,0-.11-.1s0,.07,0,.1a.2.2,0,0,1-.12-.12v.05h0l0,0s-.07,0-.1,0l.06,0h-.05s0,0,0,.06h0v0c0-.05,0,0-.06,0s0,0,0,0l.05,0c0,.07-.07,0-.09,0l0,0c-.12,0,0,.11-.1.09s-.05-.07,0-.06-.06.08,0,.15a.25.25,0,0,0-.16-.06s0,0,0,.07,0,.07-.09,0,0,0,0,0h0l.05,0c-.14-.06,0,.11-.12.06v0a.34.34,0,0,0-.06-.06l-.07.06,0,0s0,.07,0,.06,0,0-.08,0v0s0,0,0,.07-.11-.06-.08,0l0,0s.06.07,0,.08,0,0,0,0,0,0,0,.07a.1.1,0,0,1-.06-.05c0,.08,0,0,0,.09l0,0,0,0-.08,0,0,0s0,0,0,0l0,0c0,.06-.11,0-.09.08l0,0c0,.09-.09,0,0,.07l0,0v0l0,0,.07.08-.07,0,0,0c-.12-.07-.06,0-.16,0l.07.06c.09.18-.2.07-.2.2l0,0,0,.09c-.06,0,0,0-.07-.07s.07.08,0,.13,0,0,0-.07,0,.14-.07.14l0,0s0,0-.07.08,0,0,0,0,0,0,0,0l0,0s0,.09-.07,0,.06.05,0,.06,0,.08-.07.07a0,0,0,0,1,0,0s0,0,0,.08l0,0V109c-.1-.06,0,.07-.1,0s0,0,0,.05,0,0-.06,0h0v0l0-.06s0,.09.08.13,0,0-.1,0v0c0,.06-.21,0-.15.07s0,0,0,0l0,0,0,0,0,.1,0,0s-.06.08-.09.13v0c0,.08-.06,0-.06.08h0l0,0,0,0c0,.07-.13,0-.07,0a.34.34,0,0,0,.06.12s-.05,0-.09,0,0,.07,0,.08l0,0s0,0,0,.06h0c0,.08-.12,0,0,.1s0,0-.09,0a.86.86,0,0,1,0,.17c-.09-.07,0,0-.07,0l0,0c0,.06-.22,0-.26.11l0,0,0,.06a.8.8,0,0,0-.22.17s0,.12,0,.13h0a.21.21,0,0,1-.11.18s0,0,0-.05,0,0,0,.05l0,0s0,0-.08,0l0,.07h0l0,0-.07,0a.15.15,0,0,0,.05.13s-.06,0-.06,0l-.1.08h0s.06.1,0,.09-.07-.06-.11-.08,0,0,.07,0,0,.09,0,.08v0s-.09,0-.1,0,0,0,.06.11-.07,0-.08,0,0,.06-.08,0c.11.12-.1,0,0,.13l-.07,0a.21.21,0,0,1,.08.11s-.09-.06-.12-.08l.09.1c-.19,0-.23.19-.41.22,0,.07,0,.17-.08.21v0l-.08,0h.09s0,.05,0,.06-.22.06-.23.18-.13-.06-.08.06,0,0,0,0a.48.48,0,0,0,0,.23c-.12-.1,0,0-.09,0l.05,0s-.07,0-.1,0l0,.08,0,0s-.05.12-.16,0c0,.13-.1.23-.2.3s0,.07,0,.1l-.08,0s.05.12,0,.11,0,0,0,0-.06,0,0,.09-.07,0-.12,0-.06,0-.06,0-1.25,1-1,1.73c0,0,0,.1.11.14s-.09,0,0,0,.12.11.2.13v0s0,0,0,0l-.08-.08a.19.19,0,0,1,.09,0s-.14-.16-.06-.14h0s.07,0,.09,0h0l.07,0s0,.08,0,.06,0,0,0,0,0,0,.08,0l0,0s0,0,0,0v-.07c.1.08,0-.08.09,0s0,0,.06.06l0-.06s0,0,0,0,0,0,0,0,0,0,.1,0-.07-.09,0-.1,0,0,0,.06l0,0s.06.07,0,.07c.14,0,.41.08.43-.06.07,0,0,0,0,.08,0-.13.2,0,.24-.07l0,0c.2,0,.2-.13.34-.18h0a.14.14,0,0,1,0-.1s.08.09.08,0a.06.06,0,0,1-.06,0c.17,0,.29-.17.45-.25s.37-.33.49-.52c0,0-.11-.07-.07-.07.22.09,0-.12.21-.07,0-.15.26-.11.21-.32l.05,0s0,0,0,0h0s0-.1.08-.1l0,0s0,0,0,0l0,0,0-.07c.09.09.06,0,.12,0s0-.13.06-.15.09,0,.15,0a.69.69,0,0,1,.18-.24l-.06,0v0l0,0c.08,0,0-.07.07,0s0,0,0,0-.09-.08,0-.07h0v0l.13.08c.05-.07,0-.19.08-.24s0-.06.11,0c0-.07-.08-.06-.13-.13s0,0,0,0,.06,0,.06.06l0,0,0,0c0-.1.15,0,.13-.14s0,0-.05,0,.1,0,.09-.08l0,0s-.06-.09,0-.08,0,.06,0,.09a.06.06,0,0,0,0-.1s.06,0,.08,0,0,0-.06,0a.25.25,0,0,0,.12-.08s0,0,0,0S106.26,111.65,106.27,111.6Z"/><path class="cls-2" d="M107.58,109.52h0l0,0Z"/><path class="cls-2" d="M107,110.15v0S107,110.16,107,110.15Z"/><path class="cls-2" d="M106.93,110.39s0,0,0,0Z"/><path class="cls-2" d="M107.75,109s0,0,0,0A0,0,0,0,0,107.75,109Z"/><path class="cls-2" d="M108.68,108h0Z"/><path class="cls-2" d="M108.55,108a0,0,0,0,0,0,0Z"/><path class="cls-2" d="M107.56,109.29v0S107.56,109.3,107.56,109.29Z"/><path class="cls-2" d="M108.55,108h0Z"/><path class="cls-2" d="M108.71,108l0,0S108.71,108,108.71,108Z"/><path class="cls-2" d="M108,108.58h0S108,108.6,108,108.58Z"/><polygon class="cls-2" points="108.59 108.19 108.58 108.19 108.59 108.2 108.59 108.19"/><path class="cls-2" d="M108.78,108a0,0,0,0,0,0,0h0Z"/><path class="cls-2" d="M108.28,108.43l0,0S108.24,108.41,108.28,108.43Z"/><circle class="cls-3" cx="139.32" cy="90.23" r="23.56"/><circle class="cls-4" cx="53.35" cy="118.09" r="8.33"/><circle class="cls-4" cx="147.65" cy="118.09" r="8.33"/><circle class="cls-5" cx="136.63" cy="125.04" r="5.77"/><circle class="cls-5" cx="125.65" cy="131.97" r="5.77"/><circle class="cls-5" cx="113.37" cy="136.13" r="5.77"/><circle class="cls-5" cx="65.71" cy="123.86" r="5.77"/><circle class="cls-5" cx="75.63" cy="131.57" r="5.77"/><circle class="cls-5" cx="87.5" cy="136.34" r="5.77"/><circle class="cls-3" cx="53.35" cy="90.14" r="23.56"/><path class="cls-6" d="M148.35,29c-.07.27-.14.55-.2.84a81.45,81.45,0,0,1-3.1,9.28c-.85,2.44-1.73,4.88-2.52,7.34-.26.81-1.24,2.73-.85,3.61,1.24,2.84,8.06-12.53,10.45-22.46.67-2.82,1.28-5.67,2.18-8.43.76-2.33,1.47-5.15,4.51-5.4A4.53,4.53,0,0,1,162.31,15a2.4,2.4,0,0,1,.69,1.12,3,3,0,0,1,0,1c-.3,3-1,6.07-1.55,9.05q-.9,4.77-2.22,9.44c-2.33,8.3-7.29,16.66-5.76,17.1,2.05.59,3-3,4.62-6.28,3.63-6.12,4.08-10.55,5.73-17.31a22.49,22.49,0,0,1,2.6-6.7,3.63,3.63,0,0,1,1.89-1.69,3.86,3.86,0,0,1,1.36-.11,4.68,4.68,0,0,1,3,1.12,4.4,4.4,0,0,1,1.08,3c.12,3.35-1.12,6.88-1.94,10.1-.92,3.59-1.91,7.16-3,10.69-1.67,5.17-7.47,13.77-5.08,14,1.17.1,6.05-10.46,6.94-13,.67-2,1.34-3.9,2-5.87.54-1.7.73-3.44,1.22-5.18a3.89,3.89,0,0,1,.57-1.32,2.64,2.64,0,0,1,3.27-.42,3.91,3.91,0,0,1,1.77,2.9,9.13,9.13,0,0,1-.37,3.4,152,152,0,0,1-4.74,15.16c-1.75,4.71-3.93,9.12-4.85,14.07-.89,4.8-3.14,9.25-5.7,13.45-.77,1.27-1.58,2.52-2.39,3.77-1.86,2.88-4.3,5.9-5.42,9.12-.75,2.18-.75,2.23-1.4,4.43-2.06,7-16.62,13.14-27.45,4.46-2-1.64-5.47-6.65-5.24-7.72,1.07-5,2.57-6.35-.28-11.13-.31-.53-2.23-4.65-2.5-4.73A52.51,52.51,0,0,1,114.45,71c-2.65-8.57.84-17.05.29-25.65a10.35,10.35,0,0,1,.12-3.56,3.13,3.13,0,0,1,2.47-2.35,4,4,0,0,1,3.37,1.86,12.06,12.06,0,0,1,1.94,5.93c.57,5.27-1.66,11.07.43,16.19a2.21,2.21,0,0,0,1.7,1.44c3.12.28,5.24-9.31,7-15.56,1.6-5.63,4.17-11,6.37-16.46,2.53-6.26,4-12.47,6.93-18.6a4.49,4.49,0,0,1,2.13-2.49,4.74,4.74,0,0,1,2.51,0,2.47,2.47,0,0,1,2,2.34c.42,2.45-.48,4.69-1,7C150.12,23.78,149,26.32,148.35,29Z"/><path class="cls-7" d="M131.78,75c1.17,1.19,3.07,1.7,4.8,2.08,3.89.85,8.14,1.67,11.68,0,3.16-1.49.68-3.88-1.37-5.22a18.25,18.25,0,0,0-5.73-2.26,15.63,15.63,0,0,0-3.2-.46,2.23,2.23,0,0,1-1.64-.49c-.33-.39-.25-1.06-.41-1.55a5.06,5.06,0,0,0-1.75-2.42c-1.35-1-3.6-.84-5.17-1.41-.83-.3-.87-1.06-1.61-.18s.28,2.18.86,2.8a11.3,11.3,0,0,1,1.64,1.82c1.17,1.93.19,4.51,1.3,6.48A3.89,3.89,0,0,0,131.78,75Z"/><path class="cls-6" d="M60,27.81c0,.29,0,.57,0,.86a82,82,0,0,0,.8,9.75c.24,2.58.51,5.15.69,7.73.06.85.56,3,0,3.72-1.88,2.46-4.84-14.1-4.79-24.31,0-2.9.1-5.81-.11-8.71-.18-2.44-.21-5.35-3.09-6.31a4.5,4.5,0,0,0-3.69.39,2.42,2.42,0,0,0-.94.91,2.71,2.71,0,0,0-.27,1c-.43,3-.49,6.13-.66,9.16-.17,3.23-.2,6.47-.1,9.7.29,8.61,3.11,17.91,1.53,18-2.14.08-2.22-3.67-3-7.21-2.07-6.8-1.45-11.22-1.44-18.17A22.48,22.48,0,0,0,44,17.18a3.64,3.64,0,0,0-1.43-2.1,3.83,3.83,0,0,0-1.3-.43,4.71,4.71,0,0,0-3.19.37,4.41,4.41,0,0,0-1.77,2.69c-.92,3.23-.55,7-.52,10.28,0,3.7.14,7.4.41,11.1.39,5.43,4,15.16,1.6,14.8-1.16-.18-3.39-11.61-3.63-14.3-.19-2.06-.38-4.11-.52-6.17-.12-1.79.11-3.52,0-5.33a3.54,3.54,0,0,0-.23-1.41,2.62,2.62,0,0,0-3.07-1.19,3.9,3.9,0,0,0-2.42,2.39,9.23,9.23,0,0,0-.44,3.39,147.58,147.58,0,0,0,1,15.86c.57,5,1.64,9.79,1.35,14.81a40.31,40.31,0,0,0,2.33,14.42c.44,1.42.93,2.83,1.41,4.24,1.13,3.24,2.78,6.75,3.09,10.15a44.4,44.4,0,0,1,0,6.92c-.11,1.93,4.19,11.08,15.31,11.16,12.06.1,17.24-8,17.27-9.12.15-5.09-.7-6.47,3.21-10.44.43-.44,3.28-4,3.56-4a52.39,52.39,0,0,0,6.9-8.53c4.62-7.69,3.25-16.76,5.84-25a10.36,10.36,0,0,0,.72-3.49,3.09,3.09,0,0,0-1.83-2.86,4,4,0,0,0-3.72,1,11.86,11.86,0,0,0-3.29,5.29c-1.81,5-1,11.15-4.28,15.62a2.23,2.23,0,0,1-2,1c-3.1-.47-2.87-10.3-3.11-16.79C71,45.68,69.79,39.82,69,34c-1-6.68-.87-13.05-2.29-19.71a4.45,4.45,0,0,0-1.48-2.92,4.67,4.67,0,0,0-2.43-.64,2.47,2.47,0,0,0-2.54,1.79c-1,2.27-.65,4.66-.67,7.05C59.51,22.35,60,25.08,60,27.81Z"/><path class="cls-7" d="M65.12,76.43c-1.42.88-3.39.92-5.16.88-4-.1-8.3-.32-11.34-2.77-2.72-2.2.26-3.94,2.57-4.75a18.21,18.21,0,0,1,6.1-.82,15.15,15.15,0,0,1,3.22.31,2.25,2.25,0,0,0,1.71-.08c.41-.3.5-1,.77-1.41a5,5,0,0,1,2.27-1.93c1.56-.67,3.7,0,5.37-.14.87-.09,1.09-.82,1.6.21s-.79,2-1.5,2.51a10.92,10.92,0,0,0-2,1.38c-1.6,1.6-1.26,4.33-2.81,6A3.85,3.85,0,0,1,65.12,76.43Z"/></g></svg>