<svg xmlns="http://www.w3.org/2000/svg" viewBox="0 0 195 155"><defs><style>.cls-1{fill:#bebdd0;}.cls-2{fill:#726f99;}.cls-3{fill:#262262;}.cls-4{fill:#282464;}.cls-5,.cls-7{fill:none;}.cls-5,.cls-6{stroke:#fff;}.cls-5,.cls-6,.cls-7{stroke-linecap:round;stroke-linejoin:round;}.cls-6{fill:#fff;}.cls-6,.cls-7{stroke-width:1.5px;}.cls-7{stroke:#bebdd0;}.cls-8{fill:#5c5989;}</style></defs><title>assembly association</title><g id="Layer_1" data-name="Layer 1"><path class="cls-1" d="M72.69,9.77s.52-3.86,1.09-3.53.4,9.55,4,14.75c1.86,2.66,9.68,3.67,12.29-2,1.36-3,2.22-11.46,3.22-11.73s1,6.46,1.09,7.63.1,10-1.28,11.44-9.77,3.08-12.6,3.11-5.73.83-6.67-2.62a59.44,59.44,0,0,1-1.41-11.19A37,37,0,0,1,72.69,9.77Z"/><path class="cls-1" d="M107.69,22.66c1.12,1.55,3.55,1.88,5.25,1.85,2.1,0,5.07-1.19,6.09-3.32,2.29-4.75,1.82-11,1.85-12.92a2.34,2.34,0,0,1,.12-.84.72.72,0,0,1,.59-.5c.35,0,.61.33.72.68a17.76,17.76,0,0,1,.4,4.06,33.68,33.68,0,0,0,.43,4.37,17.09,17.09,0,0,1,.17,3.85,35,35,0,0,1-.33,4,4.79,4.79,0,0,1-.82,2.54c-1.29,1.31-9.22,2.84-11.89,2.88s-5.42.77-6.33-2.4a36.72,36.72,0,0,1-1.08-6.17c-.23-2.2-.77-4.34-.8-6.58a33,33,0,0,1,.64-5.95.25.25,0,0,1,.06-.15.2.2,0,0,1,.15,0,.7.7,0,0,1,.62.31C105.48,11.71,105.86,20.14,107.69,22.66Z"/><circle class="cls-1" cx="97.5" cy="77.5" r="45.85"/><path class="cls-2" d="M100.77,51.34s-4.42,24.72,8.92,25.55c7.63.48,14.29-6.64,17.16-11.64,4.27-7.45,1.46-15.34,1.46-15.34Z"/><path class="cls-2" d="M70.66,10.56S68.12,16.14,68,19.48s.72,3.47.23,7.36C68,29.17,67,34.07,65.84,46.16,64.36,61.4,72.78,74.7,84,75.94c12.21,1.34,13.12-14.31,13.12-14.31L74.06,40.79Z"/><path class="cls-3" d="M70.06,13.56c.13,3.65.57,10.89.21,14S67.9,43.13,68.09,48.28s1.67,12.39,5.6,17.79,9.94,9.44,15.84,7.78,6.47-6.79,7.16-9.59a66.17,66.17,0,0,0,1-17C97.24,43.05,95.24,35,95,31.9a97.48,97.48,0,0,1,.44-11.48c.73-9.73,0-13.75-.88-14.08C93,5.73,93,9.49,92.66,13.45s1.07,11.44-5.23,12.48c-4.14.69-10.58,2.64-11.94-1.28C73,17.49,73.78,6.24,73.78,6.24A9.08,9.08,0,0,0,70.06,13.56Z"/><path class="cls-3" d="M102.8,7.93c-.57,0-1,2.59-1.13,3.63a30.83,30.83,0,0,0-.46,7.11c.4,5.7,2.57,12.24.87,21.09-1.51,7.87-2.08,16.9-.18,24.78,1.68,6.93,4.47,12.09,14,8.54s12.28-13.57,12.55-19-.73-11.39-1.22-16.76c-.37-4-.44-5.84-.94-10.23s-.83-9-2.57-13.28a5.69,5.69,0,0,0-.94-1.69.32.32,0,0,0-.22-.14c-.2,0-.25.29-.22.49a30.07,30.07,0,0,1,.06,8.42c-.66,3.76-2.94,6.41-6.72,6.43-2.58,0-7.12.73-9-1.66a12,12,0,0,1-1.39-2.48c-1.13-2.47-1.11-11.73-1.77-14.07C103.23,8.28,103,7.93,102.8,7.93Z"/><path class="cls-2" d="M105.93,89s-1,3.45-.44,5.61,4.06,8.7,16.25,9.93,28.12-.53,34.58-.19,9.94,1.77,15.11.75,6-7.8,6-7.8a7,7,0,0,1-5,4.31c-3.77,1-11.42.26-20.21.26-13.77,0-30.07.61-39.61-4.27C104,93.2,105.93,89,105.93,89Z"/><path class="cls-4" d="M158.45,78.86s-7.7-1.3-10.43-1.65c-3.18-.39-6.36-.73-9.55-1-4-.39-8.64-1.28-12.63-1a30.6,30.6,0,0,0-12.72,3.68c-6.19,3.41-12.76,12.07-6.82,17.68,5.18,4.89,14.36,5.56,21.23,6.16a255,255,0,0,0,29.25.66c6.37-.2,15.54,2,20.16-3.44.63-.75,1-2.29.53-2.57-.7,0-1.49,1-2.64,1.48-3.11,1.38-6.46,1.11-9.87.93-3.23-.17-6.69.34-8.43-2.69-2.16-3.78-2.15-8.25-2.08-12.51a6,6,0,0,1,.46-2.68c.59-1.14,1.55-1,2.5-1.55C157.72,80.13,158.68,79.31,158.45,78.86Z"/><path class="cls-1" d="M163.34,93c1,1.83,4.07,2.8,6,2.76a8.25,8.25,0,0,0,7.1-4.76.82.82,0,0,0,.07-.51c-.14-.46-.83-.41-1.3-.27a40.73,40.73,0,0,1-6.38,1.38c-1.77.25-4.24-.08-5.78.75A2.6,2.6,0,0,0,163.34,93Z"/><path class="cls-2" d="M101.34,118.54s-.24,5.85.79,9.33,7.24,12.71,20.35,12.86,24.79-3.57,31.66-4,13,1.84,20.2-1.73c6.42-3.15,3.09-14.09,3.09-14.09s-.1,7.18-4.18,9.63c-3.74,2.26-12.11.76-21.36,2.11-14.5,2.11-30.26,6.79-41.4.21C100.4,126.9,101.34,118.54,101.34,118.54Z"/><path class="cls-5" d="M124,113.81a.92.92,0,0,0-.89-1,1,1,0,0,0-1,.88"/><path class="cls-4" d="M155.26,109.55l-.12,0c-1.63.62-3.37,5-3.66,6.42a21.11,21.11,0,0,0-.15,7.09,11.62,11.62,0,0,0,2.42,4.91c1,1,3.47.65,4.69.57,7.43-.46,11.61-.68,13.83-2.07,4.19-2.63,5.11-7.27,5.41-6.65,0,0,.82,5.63-1.63,9.49-1.73,2.7-6.12,3.95-9,4.3-4.57.56-10.34-.65-15.2,0-6.76.89-16.08,3.22-27.36,3.49-6.28.14-17.48-1-22.68-14.72-2.2-5.8,1.57-9.38,7-11.72,6.37-2.74,28.25-3,32.09-3.34,5-.41,10.23-1.15,16.18.16C159.89,108.13,156,109.29,155.26,109.55Z"/><path class="cls-1" d="M162.31,123.29c1.46,1.51,4.67,1.66,6.54,1.11a8.22,8.22,0,0,0,5.62-6.42.91.91,0,0,0-.07-.52c-.26-.4-.91-.18-1.33.08a41.64,41.64,0,0,1-5.79,3c-1.65.69-4.12,1-5.39,2.22A2.43,2.43,0,0,0,162.31,123.29Z"/><path class="cls-6" d="M135.88,114.55a97.48,97.48,0,0,1-.08,10.81"/><path class="cls-6" d="M131,114.49a97.64,97.64,0,0,1,.08,10.82"/><path class="cls-6" d="M126,114.5a90.93,90.93,0,0,1,.25,10.57"/><line class="cls-7" x1="124.75" y1="111.13" x2="126.41" y2="110.96"/><line class="cls-7" x1="125.21" y1="128.17" x2="126.86" y2="128"/><line class="cls-7" x1="129.8" y1="111.12" x2="131.46" y2="110.95"/><line class="cls-7" x1="130.31" y1="128.58" x2="131.97" y2="128.41"/><line class="cls-7" x1="135.44" y1="128.45" x2="137.09" y2="128.28"/><line class="cls-7" x1="134.55" y1="111.27" x2="136.21" y2="111.1"/><path class="cls-6" d="M138.07,83.75a63.47,63.47,0,0,1-.36,8.72"/><path class="cls-6" d="M133.2,83.42a63.56,63.56,0,0,1-.21,8.73"/><path class="cls-6" d="M128.22,83.13a60.84,60.84,0,0,1,0,8.54"/><path class="cls-7" d="M145.93,89.93c.31,1.13,1.81,4.68,1,6.74a1.61,1.61,0,0,1-1.84.83c-3-.94.44-8,.78-8.38a29.17,29.17,0,0,0,2-2.73c3-5-4.51-6.68-3.84-1.27.45,3.57,3.58,5.43,6.5,9.78"/><line class="cls-7" x1="127.14" y1="94.03" x2="128.79" y2="94.24"/><line class="cls-7" x1="132.14" y1="94.42" x2="133.79" y2="94.64"/><line class="cls-7" x1="136.81" y1="94.88" x2="138.46" y2="95.1"/><line class="cls-7" x1="126.87" y1="80.35" x2="128.53" y2="80.5"/><line class="cls-7" x1="131.88" y1="80.54" x2="133.54" y2="80.69"/><line class="cls-7" x1="136.57" y1="80.81" x2="138.23" y2="80.96"/><path class="cls-6" d="M77.8,47.8a111.7,111.7,0,0,1,11.86-.11"/><path class="cls-6" d="M77.48,52.29a114.78,114.78,0,0,1,11.88-.16"/><path class="cls-6" d="M77.65,56.39a106.87,106.87,0,0,1,11.6,0"/><path class="cls-7" d="M83,39.23c-1.31.24-5.89,2.6-8.25,1.79s-1.6-3.15-.14-3.46c3.5-.75,8.85,1.28,9.33,1.63a35.35,35.35,0,0,0,3,2.1c5.67,3.16,7.9-4.8,1.66-3.64l-6,1.28"/><line class="cls-7" x1="74.76" y1="57.9" x2="74.62" y2="56.19"/><line class="cls-7" x1="91.66" y1="58.01" x2="91.53" y2="56.31"/><line class="cls-7" x1="74.99" y1="53.45" x2="74.89" y2="51.75"/><line class="cls-7" x1="91.94" y1="53.14" x2="91.84" y2="51.44"/><line class="cls-7" x1="92.12" y1="48.61" x2="92.02" y2="46.91"/><line class="cls-7" x1="75.04" y1="48.59" x2="74.94" y2="46.89"/><path class="cls-6" d="M109.36,44.46a76.85,76.85,0,0,1,9.7.77"/><path class="cls-6" d="M108.9,49.61a75.39,75.39,0,0,1,9.72.61"/><path class="cls-6" d="M108.75,54.57a71.83,71.83,0,0,1,9.5.41"/><path class="cls-7" d="M115,38.8c1.28-.23,5.34-1.46,7.61-.58a1.45,1.45,0,0,1,.84,1.78c-1.19,2.73-8.89-.82-9.36-1.16a31.84,31.84,0,0,0-3-2c-5.51-3.08-7.71,3.9-1.61,3.54,4-.24,6.27-3.09,11.28-5.61"/><line class="cls-7" x1="105.63" y1="54.94" x2="105.67" y2="53.23"/><line class="cls-7" x1="120.23" y1="56.31" x2="120.18" y2="54.6"/><line class="cls-7" x1="106.67" y1="50.42" x2="106.62" y2="48.71"/><line class="cls-7" x1="120.89" y1="51.11" x2="120.84" y2="49.4"/><line class="cls-7" x1="121.08" y1="45.85" x2="121.03" y2="44.14"/><line class="cls-7" x1="107.08" y1="45.56" x2="107.03" y2="43.86"/><path class="cls-2" d="M89.15,87.78s2.42,4,1.66,7.55c-1,4.75-3.24,9.26-20.31,10.09-12.36.6-24.42-1.41-30.95-1.25s-10.4,1.74-15.58.36S17.69,94,17.69,94a9.69,9.69,0,0,0,5.53,4.75c3.77,1.33,13.19,1.46,22.05,1.77,13.89.48,30,3.07,39.07-3.53C90.67,92.41,89.15,87.78,89.15,87.78Z"/><path class="cls-2" d="M93.24,122.64a24.25,24.25,0,0,1-.62,7.09C92,132.23,83,142.66,66,141.34c-12.94-1-22.32-3.72-29.1-4.71s-11.78-.53-16.9-2.82-4.22-10.9-4.22-10.9a9.24,9.24,0,0,0,4.61,6.23c3.68,2,14.61,2,23.72,3.85,14.29,2.95,27.73,6.83,38.22,1.94C89.68,131.5,93.24,122.64,93.24,122.64Z"/><path class="cls-3" d="M36.12,74.33c.36-.6,2.7,0,7.81.25,10,.5,20.52.8,22.33,1,5.25.44,10.52.59,15.13,3.22,5.72,3.27,12.8,12.33,8.76,18.87C88.68,100,79.5,103.2,68,102.83c-4.31-.13-16.22-1.32-20.54-1.35-12.17-.07-11.54,1-17,1-6.71,0-12.1-2.48-12.75-8.43s.71,3.55,12.73,2c16.07-2,3.38-11.19,4-15.83.4-3.08,5.29-1.06,4.46-3.17C38.27,75.6,35.52,76,36.12,74.33Z"/><path class="cls-3" d="M39.45,107.83c1.42,2.31-3.11.28-3.81,3.28-1.27,5.47,9.31,18.23-1.93,16.55-7.48-1.12-11.74-1.91-13.44-3.94-1-1.16-3.58-8.35-5.39-5-2,3.61,3.25,9.72,6.07,11.33,3.28,1.88,7.24,2.19,11,2.45a131.06,131.06,0,0,1,23.35,4.2c6.37,1.77,12.71,3.2,19.17,1.77,10.42-2.31,18-6.5,18.73-15.8.42-5.15-6.26-8.19-10.42-9.83-7.93-3.11-17.39-3.5-25.84-4.54q-4.84-.58-9.7-1.08c-2-.2-6.86-1.14-8.74-.3A2.57,2.57,0,0,1,39.45,107.83Z"/><path class="cls-1" d="M21.08,115.89c-.69,1.78.52,4.24,1.77,5.38a7.91,7.91,0,0,0,7.84,1.23.88.88,0,0,0,.41-.29c.24-.38-.22-.76-.62-.95a34.69,34.69,0,0,1-5-3c-1.27-.91-2.58-2.6-4.14-3A3.1,3.1,0,0,0,21.08,115.89Z"/><path class="cls-1" d="M19.9,84.74c-.19,1.67,1.41,3.69,2.74,4.53a6.9,6.9,0,0,0,7,0,.66.66,0,0,0,.28-.32c.13-.37-.36-.64-.74-.76a33.23,33.23,0,0,1-4.94-1.92c-1.3-.63-2.8-2-4.23-2.08A2.1,2.1,0,0,0,19.9,84.74Z"/><path class="cls-7" d="M48.28,119.55c-.15-1.39-1.31-6.54-.16-8.91a1.58,1.58,0,0,1,2-.76c2.86,1.52-1.66,9.52-2.07,10a36.43,36.43,0,0,0-2.47,3c-3.82,5.68,3.59,8.66,3.71,2a10.26,10.26,0,0,0-1.1-4.7"/><line class="cls-7" x1="68.12" y1="113.46" x2="66.35" y2="113.36"/><path class="cls-6" d="M54.66,125.42a92.86,92.86,0,0,1,1.88-10.85"/><path class="cls-6" d="M59.78,126.26a95.74,95.74,0,0,1,1.71-10.88"/><path class="cls-6" d="M65,127.06A89.29,89.29,0,0,1,66.5,116.4"/><line class="cls-7" x1="65.78" y1="130.65" x2="64.02" y2="130.55"/><line class="cls-7" x1="60.48" y1="129.84" x2="58.71" y2="129.74"/><line class="cls-7" x1="62.83" y1="112.22" x2="61.06" y2="112.13"/><line class="cls-7" x1="57.42" y1="111.52" x2="55.66" y2="111.42"/><line class="cls-7" x1="55.52" y1="128.93" x2="53.75" y2="128.83"/><path class="cls-6" d="M58,81.6a70.12,70.12,0,0,0-.44,9.5"/><path class="cls-6" d="M63.16,81.63a70.5,70.5,0,0,0-.6,9.51"/><path class="cls-6" d="M68.45,81.73A67.27,67.27,0,0,0,67.68,91"/><line class="cls-7" x1="69.96" y1="78.79" x2="68.2" y2="78.61"/><line class="cls-7" x1="68.65" y1="93.75" x2="66.9" y2="93.57"/><line class="cls-7" x1="64.59" y1="78.69" x2="62.84" y2="78.51"/><line class="cls-7" x1="63.21" y1="94.02" x2="61.46" y2="93.84"/><line class="cls-7" x1="57.77" y1="93.82" x2="56.01" y2="93.64"/><line class="cls-7" x1="59.54" y1="78.74" x2="57.79" y2="78.56"/><path class="cls-7" d="M50.27,85.27c.16,1.18,1.19,5,.1,7a1.64,1.64,0,0,1-1.95.65c-2.83-1.28,1.48-8,1.88-8.45a30.44,30.44,0,0,0,2.38-2.56c3.66-4.8-3.64-7.29-3.67-1.71,0,3.68,2.87,5.92,5.22,10.67"/><path class="cls-7" d="M144.43,118.37c-.37-1.35-2.31-6.24-1.62-8.77a1.48,1.48,0,0,1,1.76-1.07c2.94,1,0,9.65-.29,10.2-.69,1.2-4.38,10.88-.79,11,3.91.17,1.87-9.34,1-10.7"/><path class="cls-8" d="M118.78,79.8c-2.28.19-4.67,1.55-6.63,2.93-3.15,2.23-6.49,7.89-3.47,11.56,2.64,3.2,7.31,3.64,10.81,4l6.08-5.75-.09-9.95Z"/><path class="cls-8" d="M117,130.23c-2.54,0-9.22-.49-12.48-10-1.31-3.83,3.15-6.72,4.74-7.42a25.65,25.65,0,0,1,7.17-1.53l6.69,3.36.67,11.27Z"/></g></svg>