<svg xmlns="http://www.w3.org/2000/svg" viewBox="0 0 195 155"><defs><style>.cls-1{fill:#d3c5e0;}.cls-2{fill:#7f57a6;}.cls-3,.cls-4{fill:#6c3f99;}.cls-3{stroke:#6c3f99;stroke-miterlimit:10;}.cls-5{fill:#916fb2;}</style></defs><title>death penalty</title><g id="Layer_10" data-name="Layer 10"><circle class="cls-1" cx="94.19" cy="77.06" r="45.85"/><path class="cls-2" d="M118.54,46s0,0,0,0S118.54,46,118.54,46Z"/><path class="cls-2" d="M117.6,45.08h0Z"/><path class="cls-2" d="M119.12,46.55h0s0,0,0,0Z"/><path class="cls-2" d="M115.47,43.25h0Z"/><path class="cls-2" d="M116.72,44.35h0S116.71,44.37,116.72,44.35Z"/><path class="cls-2" d="M119.06,47.34v-.05S119.05,47.33,119.06,47.34Z"/><path class="cls-2" d="M119.81,47.66h0Z"/><path class="cls-2" d="M119.67,47.33h0S119.65,47.35,119.67,47.33Z"/><path class="cls-2" d="M119.62,47.34h0Z"/><path class="cls-2" d="M107.13,37.46s0,0-.09,0Z"/><path class="cls-2" d="M113.44,41.74h0S113.44,41.73,113.44,41.74Z"/><path class="cls-2" d="M106.87,37.76h0Z"/><path class="cls-2" d="M118.64,47.2s0-.05-.07,0S118.6,47.24,118.64,47.2Z"/><path class="cls-2" d="M112,42.8h0Z"/><path class="cls-2" d="M106.87,37.76v0Z"/><polygon class="cls-2" points="111.32 40.17 111.32 40.17 111.33 40.17 111.32 40.17"/><path class="cls-2" d="M111.25,40h0S111.26,40,111.25,40Z"/><path class="cls-2" d="M107,37.47h0Z"/><path class="cls-2" d="M110,39.2h0S110,39.19,110,39.2Z"/><path class="cls-2" d="M116.79,44.43v0S116.81,44.43,116.79,44.43Z"/><polygon class="cls-2" points="115.24 44.79 115.24 44.79 115.24 44.79 115.24 44.79"/><path class="cls-2" d="M115.32,44.78s0,0-.08,0S115.28,44.8,115.32,44.78Z"/><path class="cls-2" d="M115.16,44.7h0Z"/><polygon class="cls-2" points="116.01 45.43 116.02 45.43 116.01 45.43 116.01 45.43"/><path class="cls-2" d="M115.83,45.31v0Z"/><polygon class="cls-2" points="114.64 44.48 114.64 44.48 114.64 44.48 114.64 44.48"/><path class="cls-2" d="M112.76,43.52a3.6,3.6,0,0,1,.61.33c.09-.05.14,0,.21,0l-.07.1h.07s0,0,0,.06l.06-.05s.1.11,0,.12l.17.13s.09-.07.11,0,0,0,0,0,.29-.09.37,0h0s.08,0,.09,0-.06,0-.06,0,.08,0,.13-.08,0,0,.08,0,.09.08.07.17.13-.08.17,0,0,.06,0,.12l.05-.05s0,.05,0,.07.08,0,.11,0l-.07,0s.06,0,.11.06,0,0-.05,0,.07,0,.07,0,0-.05,0-.09.1,0,.08,0l-.07,0c.08,0,.08,0,.12,0l0,0c.08,0,.08.06.13.1h0s.08,0,.09,0,0-.06,0-.11c0,.11.13-.05.16,0s-.06,0-.06,0-.13.13-.2.14.08,0,0,0l.07-.07,0,0c.05,0,0-.1.09-.11s0,.1,0,.06.09-.06.12,0h0c0,.06.1,0,0,.15s0,0,0,0h0c-.09,0,0,0,0,.08s.08,0,.1,0l0-.06c.2-.11-.09.11,0,.14s0,0,0,0,0,.09.07.1a.27.27,0,0,1,0,.15s.07.09.13,0-.1,0-.1-.09l.06,0s.12,0,.13.08l0,0c.08,0,.14,0,.19,0s-.06,0-.09,0,0,0,.08.09,0,0-.08,0l.07,0h0c.07-.08,0,0,.1,0s.18,0,.28-.06a.08.08,0,0,1,0,.07s0,0,0,0,0,.13,0,.15,0-.06.06-.06l.06,0s0-.07.07-.08,0,0,.08.06,0,.07-.06,0,0,.05.07,0,.1,0,.12-.08v.07s0,0,0,0,0,0,.07,0,0,0,0,.08,0,0,0,.07,0,0,.06-.06l.06,0s-.09.15-.11.15.09-.1.12-.07,0,.1-.08.15a.11.11,0,0,0,.1.12c.06,0,0-.06,0-.11s.23-.1.28,0v0a.17.17,0,0,0,.12,0c-.06.06-.09.23,0,.27s0-.1.06-.15l0,0,0,0c.06,0,0,.15.08.08l0,.13,0-.06s.08,0,.1,0,.08,0,.07.11,0-.12.09-.1,0,.1,0,.16,0,.07,0,0l0,.07c.07-.1.13,0,.18,0s.06,0,0,.16c.08-.08.11,0,.17-.05s0,.11,0,.14l0,0c0,.06,0,.11.06.17l.09-.06v0s.06,0,.06,0l0,0c.06-.09,0,0,.11,0a.07.07,0,0,1,0,0s0,.05,0,.09.18-.11.16-.19.07,0,.08,0l0,.09.09-.07s0,.07,0,.1-.17.11-.1.15-.09,0-.12,0,0,0,0,.05,0,0,.1,0,0,.1,0,.15V47.2s0,0,0,0,0,0,0-.06.12,0,.1,0c0-.15.15,0,.16-.11s.06,0,0,0,0,.1-.07.14,0-.07,0-.08,0,.07,0,.1h0l0,.06s0-.08,0-.08,0,0,0,.06-.09.11-.13.1.11.06.13,0l0,0s0-.14.06-.11l0,0,.08,0v0s0,0,0,0,0,0,0,.07.07,0,.09,0,0,0,0,.07.09.06.09.12,0,0,.06,0c0,.15.11.15.19.19.06-.12,0,0,.12-.09s0,.14-.08.12l0,0c0,.08-.1,0-.12.11s.16-.07.19,0,0,0,0,.07,0,0-.06,0v0c.08.09.09-.07.18-.08s0,.09,0,.13,0,0,.07,0,0-.1,0-.13.08.07.12,0-.06,0-.06-.21c0,0-.09.1-.11,0s0,0,0-.07,0,0-.07,0,.1-.09.06-.14l-.08.1s.06-.07,0-.08,0-.09.12-.06c0-.14-.14,0-.21,0l0,0s0,0-.07,0,.06,0,.07-.06l0,0h0s0,0,0,0l.1-.07-.11,0s0-.09.06-.09l-.09,0,0-.08s0,0,0,0-.22,0-.1-.1c-.11,0-.11,0-.22,0,.11,0,0-.13.08-.12s-.08,0-.12,0a.14.14,0,0,1,.11-.12h-.06v0l-.06,0c0-.06.05-.07,0-.11l0,.06v0s0,0-.07,0v0h0s0,0,0-.07l-.08,0,0,.05c-.08,0,0-.07,0-.1l0,0c0-.14-.15,0-.16-.13s.07-.06.06,0-.12-.08-.21-.05,0-.11,0-.18,0,0-.08,0-.11-.06-.07-.11,0,0-.07,0v0l0,0c0-.16-.15,0-.13-.15h0l0-.06-.11-.09v.06s-.08,0-.09,0,0,0,0-.1h0s0,0-.07,0,0-.11,0-.09l0,0s-.07.06-.09,0,0,0,0,0-.08-.07-.11-.06a0,0,0,0,1,0-.06c-.11,0,0,0-.13,0l0,0-.05,0v-.09l0,0s0,0-.07,0l0,0c-.08,0,0-.12-.13-.11l0,0c-.11,0,0-.11-.11-.07l0-.05h0l0-.06-.08.07,0-.07,0,0c0-.13-.06-.08,0-.19l0,.08c-.21.07-.17-.26-.35-.28l0,0-.1,0c0-.07,0,0,.06-.08s-.08.07-.16,0,0,0,.07,0-.19-.05-.2-.11l0,0c-.06,0-.09-.07-.14-.1a.06.06,0,0,1,0,0s0,0,0,0l0,0s-.12,0-.09-.1,0,.06-.07,0-.11,0-.12-.1.06,0,0,0-.06,0-.1,0l0,0-.14,0c0-.1-.11-.06-.06-.12s0,.06,0,0,0,0,0-.07h0l0,0,.06,0a.19.19,0,0,0-.13.08c0-.06-.06-.06,0-.12h0c-.09,0,0-.25-.15-.2s0,0,0,0l0,0,0,0h-.12l0,0a1.1,1.1,0,0,0-.21-.14h0c-.11,0-.06-.08-.13-.09h0l0,0,0,0c-.08,0,0-.16-.06-.09a.29.29,0,0,0-.13,0c-.05,0,0,0,0-.09s-.08,0-.11,0l0,0-.09,0h0c-.1,0,0-.14-.15,0s-.06-.06,0-.11l-.24-.07c0-.1,0,0,0-.08l0,.05c-.1-.07-.12-.27-.24-.33l0-.05-.06,0a2.16,2.16,0,0,0-.32-.3c-.05,0-.14,0-.17,0h0a.46.46,0,0,1-.28-.17s0,0,0,0,0,0-.07,0v0c-.06,0-.06,0,0-.09l-.08,0s0,0,0,0l0,0,0-.08a.19.19,0,0,0-.15,0s0-.07,0-.06l-.14-.12v0s-.1,0-.11,0,.06-.07.07-.12,0,.06-.05.08-.11,0-.11,0h0s0-.11,0-.13,0,0-.11.06,0-.07,0-.09-.09,0-.07-.1c-.12.11-.09-.13-.17,0v-.08s-.08.08-.12.07,0-.09,0-.13l-.09.09c-.08-.23-.34-.3-.45-.52a.87.87,0,0,1-.31-.14h0l-.07-.09,0,.09s-.06,0-.08,0a.56.56,0,0,0-.32-.3c-.16.07,0-.14-.11-.11l0,0a1,1,0,0,0-.3,0c.09-.11-.06,0,0-.09l0,0s0-.08,0-.11l-.08,0,0-.05s-.18-.07-.13-.19a.91.91,0,0,1-.48-.3.12.12,0,0,1-.13,0v-.08s-.14,0-.14,0h0s0-.07-.12,0a.09.09,0,0,1,0-.14c-.08.1-.07-.07-.07-.07s-1.8-1.68-2.67-1.49c0,0-.12,0-.14.1s0-.1,0-.06-.1.12-.1.21h0s.07,0,0,0l.07-.09a.17.17,0,0,1,0,.1s.15-.13.17,0h0s0,.07,0,.1h0v.07c0-.05-.1,0-.07,0s0,0,0,0,0,.05,0,.08l0,0s0,0,0,0H107c-.07.11.1,0,0,.11s0,0,0,.07l.1.06s0,0,0,0,0,0,0,0,.08,0,0,.12.1-.07.13,0-.06,0-.06,0l.07,0s-.06.06-.08,0c.13.19.06.48.26.54,0,.06,0,0-.08,0,.16,0,.07.23.17.29l0,0c0,.23.26.27.37.44v0s.09,0,.13,0-.09.08,0,.09a.1.1,0,0,1,0-.07c0,.21.34.38.52.59s.57.49.87.68c-.05,0,0-.12.06-.08,0,.25.18.09.19.27.2.07.24.33.49.31l0,0s0,0,.07,0l0,0c0,.06.15.06.17.1l0-.05s0,.06,0,.05l0,0,.07,0c-.07.1.09.08.09.14s.17,0,.22.11.06.11.09.18a1.76,1.76,0,0,1,.39.26l0-.06,0,0,0,0c0,.1.09,0,.09.1s0,0,0,0,.07-.09.08,0h0c0,.05,0,.09-.06.14s.26,0,.36.14c-.06.05.09.05,0,.13.09,0,0-.09.12-.13s.06,0,0,0,0,.07,0,.07l0,0,0,0c.13,0,.12.19.24.19s0,0,0-.06,0,.12.14.12l0,0s.09-.05.11,0-.07,0-.11,0,.11.06.12,0,0,.06,0,.09,0-.06,0-.07.1.12.15.16l0,0C112.78,43.36,112.68,43.49,112.76,43.52Z"/><path class="cls-2" d="M116,45.46l0,0s0,0,0,0Z"/><path class="cls-2" d="M115,44.62h0Z"/><path class="cls-2" d="M114.62,44.53s0,0,0-.05A.06.06,0,0,0,114.62,44.53Z"/><path class="cls-2" d="M116.76,45.76l0,0S116.76,45.77,116.76,45.76Z"/><path class="cls-2" d="M118.45,47.06v0Z"/><path class="cls-2" d="M118.42,46.9h0Z"/><path class="cls-2" d="M116.33,45.48h0S116.32,45.48,116.33,45.48Z"/><path class="cls-2" d="M118.37,46.89l0,0h0Z"/><path class="cls-2" d="M118.48,47.08l0,0S118.46,47.09,118.48,47.08Z"/><path class="cls-2" d="M117.45,46.15h0Z"/><polygon class="cls-2" points="118.19 46.91 118.19 46.91 118.17 46.92 118.19 46.91"/><path class="cls-2" d="M118.57,47.18h0v0Z"/><path class="cls-2" d="M117.74,46.5l.05,0S117.77,46.46,117.74,46.5Z"/><path class="cls-2" d="M140.35,30.2v0A0,0,0,0,0,140.35,30.2Z"/><path class="cls-2" d="M137.48,30l0,0S137.48,30,137.48,30Z"/><path class="cls-2" d="M142.07,30.29h0Z"/><path class="cls-2" d="M131.35,29.74h0Z"/><path class="cls-2" d="M135,29.9l0,0A0,0,0,0,0,135,29.9Z"/><path class="cls-2" d="M143,31l0,0A0,0,0,0,0,143,31Z"/><path class="cls-2" d="M144.73,30.79h0Z"/><path class="cls-2" d="M144,30.61l0,0S144,30.63,144,30.61Z"/><path class="cls-2" d="M144,30.64h0S144,30.63,144,30.64Z"/><path class="cls-2" d="M109.08,29.89A.22.22,0,0,0,109,30Z"/><path class="cls-2" d="M125.8,29.69v0A0,0,0,0,0,125.8,29.69Z"/><path class="cls-2" d="M109,30.29h0Z"/><path class="cls-2" d="M142.05,31.09c-.05.05-.15,0-.15,0S142,31.15,142.05,31.09Z"/><path class="cls-2" d="M124.62,31.39h0Z"/><path class="cls-2" d="M109,30.29h0s0,0,0,0Z"/><path class="cls-2" d="M120,29.65Z"/><path class="cls-2" d="M119.71,29.58l.07,0A.12.12,0,0,0,119.71,29.58Z"/><path class="cls-2" d="M109,30l-.08,0Z"/><path class="cls-2" d="M116.41,29.63h0Z"/><path class="cls-2" d="M135.21,29.93h0S135.24,29.92,135.21,29.93Z"/><polygon class="cls-2" points="132.93 31.12 132.93 31.12 132.93 31.12 132.93 31.12"/><path class="cls-2" d="M133.05,31.06a.14.14,0,0,0-.12.06A.17.17,0,0,0,133.05,31.06Z"/><path class="cls-2" d="M132.66,31.1h0Z"/><polygon class="cls-2" points="135.12 31.19 135.12 31.19 135.12 31.19 135.12 31.19"/><path class="cls-2" d="M134.63,31.2l0,0Z"/><polygon class="cls-2" points="131.45 31.22 131.46 31.22 131.45 31.22 131.45 31.22"/><path class="cls-2" d="M126.87,31.54a12.91,12.91,0,0,1,1.52-.09.69.69,0,0,1,.38-.12l0,.13.12,0c.05,0-.09,0,0,.07l0-.08c0,.05.31,0,.11.12h.47c.1,0,.06-.1.18-.07s-.05,0,0,.07c.35.09.4-.24.72-.18h0s.16,0,.16,0-.06.07-.16,0,.12,0,.12-.13.12,0,.18,0,.28,0,.36.1.12-.13.24-.14,0,.08.09.11l0-.06c.09,0,.08,0,.07.06s.09-.09.22,0l-.08.06a.81.81,0,0,1,.27,0s-.06,0-.1,0,.12,0,.16,0-.1,0,0-.1.13-.08.18,0l-.07.06c.13-.05.07-.08.23-.05,0,0,0,0,0,0s.22,0,.37,0l0,0c.06,0,.09-.08.12-.07s-.06-.06-.06-.12c.11.1.16-.11.34-.05a.05.05,0,0,1-.09,0c-.06.1-.07.19-.18.24.07,0,.15,0,.13,0l0-.09a.33.33,0,0,1,.1,0c0-.06-.08-.1,0-.14s.05.1.07.06.06-.11.2-.07c0,0,0,0-.05,0s.25,0,.28.1,0,.06-.06.05v0c-.11.09.1,0,.06.08,0-.06.14,0,.2,0l0-.07c.22-.21,0,.14.2.11s0,0,0-.07.13.08.26.05.11.06.12.14.24,0,.29,0c-.14-.06-.14.08-.3,0l.05-.08a1.81,1.81,0,0,1,.33,0,.06.06,0,0,1,0-.05c.16,0,.21-.11.36-.08s-.07.05-.13.06c.1.06.1,0,.26,0s-.11,0-.12.05h.17c0-.1.13,0,.23,0,.25,0,.29-.14.43-.22s0,.05,0,.08-.05,0-.07,0,.18.1.13.14c.14,0,0-.06,0-.09h.18c0-.05-.09-.06,0-.1a.54.54,0,0,1,.22,0s0,.08,0,.07.12,0,.15,0,.19,0,.11-.12l.11.05s0,0-.07,0,.1,0,.14,0,.14,0,.15.05a.12.12,0,0,1,.14,0c.05,0,0,0,0-.08h.18s0,.17,0,.18,0-.13.13-.12c-.06.08.13.06,0,.17a.43.43,0,0,0,.32,0c.06-.07-.1,0-.09-.11.26,0,.28-.22.47-.18L138,31c.12,0,.11,0,.18-.09s.13.23.33.21c0,0-.11-.08-.08-.15h.13s0,0,0,0,.22.11.26,0l.12.13-.05,0c0-.05.15-.06.17-.08a.23.23,0,0,1,.26.05s-.08-.12,0-.13.22.05.22.12.11.05.12,0v.09c0-.13.17-.12.29-.14,0,.16.13,0,.18.14,0-.11.22-.05.24-.14s.08.1.1.13l.05,0c0,.06.22.06.32.1L141,31l0,.05s.09,0,.05-.08h.05c0-.11.07,0,.17-.08a0,0,0,0,1,0,.06c.05,0,0,.06.06.09s.18-.19,0-.24.08-.08.13-.06l0,.1.06-.1c.08,0,.11.05.18.06s-.15.18,0,.18a.59.59,0,0,0-.18.09s0,0,0,0c.13,0,0-.06.17-.07s0,.12.15.15l-.09-.07s0,0,0,0,0,0-.05-.06.15-.1.17,0c-.13-.14.23-.1.15-.19s.11,0,.12,0,.08.1.06.16-.09-.07,0-.1.11,0,.15.08h0l.1,0s-.09-.07,0-.1.12,0,.11,0,0,.13-.09.15c.07,0,.28,0,.19-.1h.08c-.05,0-.18-.11,0-.12v0l.11-.07.05.05s0,0,.06,0,0,0,0,.07.11-.05.13-.08.09,0,.06.07a.78.78,0,0,1,.31.05c.12,0,0,0,0-.08.11.15.4.06.6,0,0-.13.05,0,.09-.13,0,0,.19.1,0,.14l.11,0c.07.08-.18.06-.07.16s.2-.15.34-.1c-.05.09.11,0,.07.07s-.07,0-.11,0l0,0c.26,0,.07-.11.21-.18s.12.08.13.12a.17.17,0,0,0,.15,0,.09.09,0,0,1-.13-.12c.06.11.23,0,.27,0-.22-.11-.15,0-.36-.13,0,0,0,.13-.16.09.08,0,0-.05,0-.07s-.09,0-.13.05.08-.13,0-.15l0,.13c-.05,0,0-.1-.08-.07.05-.06,0-.1.12-.12-.17-.11-.26.06-.4.1,0,0,0,0,0,0s-.08,0-.12,0,.07-.06.05-.1H144s-.07,0-.09,0,.06-.08.09-.11l-.15.09c0-.05-.12-.08,0-.11l-.22,0,0-.09c-.05,0-.05,0,0,0s-.34.16-.3,0a2.55,2.55,0,0,1-.45.09c.16-.08-.19-.11,0-.14-.1,0-.13.05-.21.07s0-.13,0-.16l-.09,0v0l-.08.05c-.09,0,0-.08-.11-.1l0,.08-.06,0s0,.05-.1.05v0l-.08,0c.08-.05-.07,0,0-.07a.48.48,0,0,0-.2,0l0,.05c-.17.05,0-.08-.14-.08v.06c-.19-.11-.32.05-.46,0,.08,0,.06-.09.06-.07a1.14,1.14,0,0,0-.44.08.25.25,0,0,0-.18-.16c-.1,0-.11,0-.14.07s-.26,0-.26-.05-.08,0-.13,0v0c-.16-.14-.27.07-.43-.05l0,0-.07,0s0,0,0-.08h-.31l.06,0c-.07,0-.11.07-.19,0,.13-.09-.1,0-.12-.07l.07,0c-.1,0-.1,0-.09.07s-.08-.12-.19-.05h.08s0,.09-.09.08-.05,0,0,0-.23,0-.27,0,0-.07,0-.08c-.2.05-.09,0-.29,0v0l-.07,0-.09-.07,0,0a.36.36,0,0,1-.18,0l0-.05c-.19,0-.22-.08-.39,0s0,0,0,0c-.17.08-.13-.09-.29,0,0,0,0,0,0-.05l-.08,0V30l-.06.1,0-.07,0,0c-.08-.13-.19,0-.3-.13l0,.09c-.28.18-.63-.11-1,0v-.07l-.14.09c-.07-.06,0-.06,0-.1s-.06.1-.23.12,0-.05.07-.07a1.3,1.3,0,0,1-.51,0s0,0,0,0a2.26,2.26,0,0,1-.37,0s0,0,.06,0-.1,0-.14,0l.05-.06c-.09,0-.27,0-.29,0s0,.08-.07.08-.21,0-.34,0c0,0,.11,0,.08,0s-.11,0-.17.05l0,0-.3.06c0-.11-.27,0-.25-.06s.09,0-.05.06-.12,0-.11-.05h-.08l.06-.06a.16.16,0,0,0-.14.13c-.08,0-.18,0-.22-.07l0,0c-.21,0-.35-.19-.52-.07,0,0,0,0,0,0h-.13l0-.05-.22.08v0a5.18,5.18,0,0,0-.55,0h0c-.2.05-.19,0-.34,0h-.11l0,0c-.1.08-.28-.1-.22,0s-.15.07-.17.11,0,0-.13-.07-.12.06-.26,0v0c-.06,0-.1,0-.19,0h0c-.15.07-.18-.11-.3.05-.07,0-.18,0-.18-.08l-.52.09c0-.11,0,0-.15-.06v.06c-.26,0-.56-.14-.85-.12V29.6l-.06.07c-.31,0-.71-.06-1-.06a.59.59,0,0,1-.34.08h0a2.39,2.39,0,0,1-.71,0s0-.05,0-.06-.14,0-.2,0l.06,0a.14.14,0,0,1-.2,0l-.11.07,0,0,0,0-.06-.08s-.17,0-.22.12-.11-.05,0-.07l-.41,0,.07,0c0,.06-.12.1-.18.07s0-.09,0-.13,0,.05,0,.08a.3.3,0,0,1-.25,0l0,0c-.09,0-.13-.08-.23-.08s-.14,0-.12.11,0-.07-.09-.08-.22,0-.24,0c-.07.16-.32-.05-.35.08l-.1-.08a.12.12,0,0,1-.1.13c-.08,0-.06-.1-.08-.13l0,.12c-.43-.14-1,0-1.48-.16a4,4,0,0,1-.72.07l0,0-.25,0,.18.06a.42.42,0,0,1-.15,0,2.73,2.73,0,0,0-1-.06c-.21.15-.14-.13-.35,0l0-.05a3,3,0,0,0-.56.16c0-.15-.15,0-.13-.08v.07c-.05,0-.17-.06-.15-.1l-.1.08v-.07c-.13,0-.41.05-.48-.08a3.81,3.81,0,0,1-1.23,0c-.05,0-.17,0-.26.06l-.1-.07c-.1,0-.2.11-.28.06v0c-.1,0-.19,0-.28.05s-.2-.05-.17-.11c0,.12-.22,0-.22,0s-5.35-.32-6.66.34c0,.06-.16.1-.12.17s-.13-.08-.15,0,0,.15.08.23h-.08s.11-.05.09,0l0-.11a.18.18,0,0,1,.12.08c.06-.05.1-.2.24-.13h0c.12,0,.08.07.1.09h0l.09.05c-.07,0-.2.06-.13.05s0,0,.07,0,0,.05,0,.09h.12c0,.06-.08,0,0,.05l.15-.05c0,.13.16-.06.23.06-.11,0,0,.05,0,.09h.26s-.07,0,0,0,.09,0,.11,0,.2,0,.19.08c.18.06.08-.11.24-.06s-.13,0-.06.07l.17,0s0,.09-.09.07c.46.08.71.36,1.14.29,0,.06-.05,0-.09.08.31-.08.43.14.69.14v-.06a4.72,4.72,0,0,0,1.21.14l0,0c.05-.05.14-.05.21-.07s0,.11.07.09-.07,0-.06-.07a10.17,10.17,0,0,0,1.69.18c.78,0,1.64.06,2.41,0-.12,0-.07-.12,0-.09.25.22.43,0,.67.11.45-.06.86.13,1.28,0v.06c.07,0,.08,0,.15,0v0c.15,0,.34,0,.43,0v-.07c.09,0,0,0,.14,0v0l.12-.07c0,.13.26,0,.33.07a2.07,2.07,0,0,1,.53,0c0,.07.25.07.39.1a6.83,6.83,0,0,1,1,0v-.08h.09s0,0,0,0,.21,0,.28,0-.06,0-.11,0,0-.11.09-.07v0l.07,0c0,.06.07.09.08.15a4.48,4.48,0,0,1,.82-.09c0,.07.22,0,.16.1.19,0,0-.1,0-.18s.11,0,.12,0,0,.08,0,.09h.12s0,0,0,0c.25-.07.45.08.67,0,0,0-.09,0-.07-.05.23-.09.2.08.42,0l0,.06c.07,0,.1-.09.22,0s-.1.06-.16.09.28,0,.22-.08c.09,0,.13,0,.18.06s-.09,0,0-.08a2.28,2.28,0,0,0,.48.05s0,0,0,0S126.7,31.56,126.87,31.54Z"/><path class="cls-2" d="M135.18,31.2h-.06a.05.05,0,0,1,0,0Z"/><path class="cls-2" d="M132.2,31.15s0,0,0,0A0,0,0,0,0,132.2,31.15Z"/><path class="cls-2" d="M131.47,31.27c.06,0,0,0,0-.05A.06.06,0,0,0,131.47,31.27Z"/><path class="cls-2" d="M136.87,31s0,0,0,0S136.87,31,136.87,31Z"/><path class="cls-2" d="M141.54,31.09h0Z"/><path class="cls-2" d="M141.28,31h0Z"/><path class="cls-2" d="M135.74,31.05s0,0-.05,0A.06.06,0,0,0,135.74,31.05Z"/><path class="cls-2" d="M141.17,31h0Z"/><path class="cls-2" d="M141.62,31.1h-.08A.08.08,0,0,0,141.62,31.1Z"/><path class="cls-2" d="M138.58,30.94h0C138.52,31,138.56,31,138.58,30.94Z"/><polygon class="cls-2" points="140.89 31.12 140.88 31.12 140.86 31.14 140.89 31.12"/><path class="cls-2" d="M141.9,31.13h0Z"/><path class="cls-2" d="M139.56,31.05s0,0,0-.06S139.55,31,139.56,31.05Z"/><path class="cls-2" d="M118.86,14.41s0,0,0,0A0,0,0,0,0,118.86,14.41Z"/><path class="cls-2" d="M117.61,15.2v0S117.6,15.19,117.61,15.2Z"/><path class="cls-2" d="M119.58,13.91h0l.06,0Z"/><path class="cls-2" d="M115.07,17l0,0Z"/><path class="cls-2" d="M116.59,16a0,0,0,0,1,0,0S116.6,16,116.59,16Z"/><path class="cls-2" d="M120.37,14.14l0,0Z"/><path class="cls-2" d="M120.93,13.42h0Z"/><path class="cls-2" d="M120.55,13.5a0,0,0,0,1,0,0S120.56,13.52,120.55,13.5Z"/><path class="cls-2" d="M120.54,13.55v0Z"/><path class="cls-2" d="M106.55,24.51s0,.06,0,.09Z"/><path class="cls-2" d="M112.9,18.84v0Z"/><path class="cls-2" d="M106.79,24.84h0Z"/><path class="cls-2" d="M120.09,14.53c0,.05-.06.05,0,.08S120.12,14.59,120.09,14.53Z"/><path class="cls-2" d="M113.53,20.52h0A0,0,0,0,0,113.53,20.52Z"/><path class="cls-2" d="M106.79,24.84h0Z"/><path class="cls-2" d="M110.63,20.72Z"/><path class="cls-2" d="M110.47,20.76v0S110.46,20.75,110.47,20.76Z"/><path class="cls-2" d="M106.54,24.6v.06A.13.13,0,0,0,106.54,24.6Z"/><path class="cls-2" d="M109.22,21.9v0S109.22,21.89,109.22,21.9Z"/><path class="cls-2" d="M116.69,15.9h0Z"/><polygon class="cls-2" points="116.58 17.57 116.58 17.57 116.58 17.57 116.58 17.57"/><path class="cls-2" d="M116.59,17.49s0,0,0,.08S116.6,17.54,116.59,17.49Z"/><path class="cls-2" d="M116.46,17.64h0Z"/><polygon class="cls-2" points="117.47 16.9 117.47 16.9 117.47 16.9 117.47 16.9"/><path class="cls-2" d="M117.29,17.07h0Z"/><polygon class="cls-2" points="116.07 18.13 116.07 18.13 116.07 18.13 116.07 18.13"/><path class="cls-2" d="M114.5,19.89a4.83,4.83,0,0,1,.53-.57c0-.1,0-.15.08-.21l.08.09,0-.07s0,0,0,.05l0-.07s.14-.08.11.05l.19-.15s0-.1,0-.12,0,0,0,.07c.2-.05,0-.32.16-.38v0s.05-.07,0-.08,0,.07-.07,0,0-.08,0-.14,0-.06,0-.08.12-.08.21,0,0-.14,0-.19,0,.07.11.06l0-.06s0,0,.07,0,0-.09.05-.1v.07a.32.32,0,0,1,.1-.1s0,.05,0,.05,0-.07,0-.07-.06,0-.08-.06,0-.11.06-.07v.07c0-.08,0-.08.06-.11v0c0-.09.09-.08.15-.12v0s0-.08,0-.09-.06,0-.1-.06c.11,0,0-.15.1-.16s0,.07,0,.06.09.17.08.24,0-.08.06,0l-.06-.08,0,0c0-.05-.1-.05-.09-.11s.09.06.07,0,0-.1,0-.12,0,0,0,0,.08-.1.17,0,0,.05,0,.06v0c0,.1,0,0,.07.05s0-.08.06-.1l0,0c-.06-.24.08.11.15,0s0,0,0-.07.1,0,.13-.05a.3.3,0,0,1,.14.07c0-.05.12-.05.09-.12s0,.11-.13.08l0-.07s.07-.11.12-.12l0,0c0-.08,0-.15.09-.18s0,.06,0,.09,0,0,.12-.06,0,0,0,.08l0-.07h0c-.06-.09.06,0,.08-.1s0-.19,0-.3.05,0,.06.05,0,0,0,0,.13,0,.14.07-.05,0,0-.08l.08-.05s-.08,0-.07-.09,0,0,.09-.07.06.05,0,.07.06,0,0-.07,0-.1,0-.13h.08s0,0,0,0,0-.05,0-.07.07,0,.09,0,0,0,.08,0,0-.05,0-.07l.07-.06s.12.12.12.15-.07-.11,0-.14.1,0,.13.11.13,0,.15-.08-.07,0-.11-.05,0-.26.07-.29h0a.15.15,0,0,0,0-.13c0,.08.2.13.26.05s-.09,0-.12-.09l0-.05s0,0,0,0,.16,0,.11-.07l.13.06-.06,0s0-.09,0-.11.07-.07.13-.05-.1-.07-.07-.11.12,0,.16,0,.08,0,0,0l.06.07c-.08-.1,0-.14,0-.2.09.14,0-.05.16.05-.06-.1.05-.11,0-.19s.1.05.13.07v0s.12,0,.19,0l0-.1,0,0s0-.06,0-.08h0c-.07-.08,0,0,0-.11a0,0,0,0,1,0,0s0,0,.08.05,0-.21-.14-.2,0-.08,0-.08l.07.06,0-.09s.07,0,.1,0,.07.19.13.14,0,.09,0,.12,0,0,0,0,0-.06,0-.11.08.08.15.06l-.08,0v0s0,0,0,0,0-.13,0-.1c-.14-.06,0-.15-.06-.19s0-.06,0,0,.1,0,.13.1-.08,0-.08-.07.08,0,.11,0v0h.06s-.08,0-.06-.07,0,0,.07,0,.08.11.06.15.1-.1,0-.14l0,0s-.14,0-.08-.08h0V14.1l0,0s0,0,0,0a.17.17,0,0,1,.07,0,.07.07,0,0,0,0-.1s0,0,.06,0,.1-.08.15-.07,0,0,0-.07c.14.08.19-.09.26-.17-.11-.08,0,0,0-.13,0,.05.13,0,.09.1l0,0c.08,0,0,.1.08.14s0-.18.06-.19,0-.06.08,0,0,0,0,.06h0c.12-.07,0-.11,0-.21s.09,0,.13.05,0,0,0-.06-.11,0-.13-.05.1-.07.09-.12-.07,0-.23,0c0,0,.08.1,0,.11s0,0-.06,0,0,.05,0,.08,0-.13-.11-.1l.07.11s-.05-.08-.07,0-.08-.08,0-.14c-.14,0-.07.13-.09.21v0s0,.05,0,.07,0-.07-.05-.09l0,.05h0s0,0,0,0a.73.73,0,0,0-.05-.12v.12s-.09,0-.07-.08l-.08.09-.06-.06s0,0,0,0,0,.23-.13.08c0,.11-.06.11-.12.22,0-.12-.14,0-.09-.11s0,.09,0,.12-.09-.08-.08-.13v.06h0v.06c-.07,0-.07-.06-.11,0l0,.07,0,0s0,.05,0,.08h0l0,0c0-.06,0,0-.07,0l-.06.07,0,0c0,.08,0-.06-.11,0l0,0c-.13,0-.08.15-.18.14s0-.08,0-.07-.12.11-.12.21a.18.18,0,0,0-.17-.06s0,0,0,.09-.09.1-.13.05,0,0,0,.07l0,0,0,0c-.15-.06-.06.14-.2.11v0s0,0,0-.06l-.13.09.06,0s0,.08-.06.08,0,0-.1,0l0,0s0,0,0,.08-.11-.06-.11,0l0,0s0,.08,0,.09,0,0,0,0-.1.07-.1.11,0,0,0-.06,0,0-.09.12l0,0v0L118,15l.05,0s0,.06-.07.07l0,0c0,.08-.14,0-.16.12a.06.06,0,0,1,0,0c0,.12-.11,0-.11.1,0,0,0,0,0,0v.05l0-.06,0,.1-.07,0v0c-.11-.08-.09,0-.2,0l.06.06c0,.23-.31.13-.38.3l0-.06v.11c-.06,0,0-.06,0-.08s0,.1,0,.17,0,0,0-.08-.11.19-.18.19l0,0c0,.06-.1.09-.15.13a.06.06,0,0,1,0-.06s-.06,0,0,0l0-.06s-.08.12-.13.07.05.06,0,.09-.05.1-.14.1,0-.06,0,0,0,0,0,.1l0,0-.08.14c-.08-.07-.09.1-.14,0s.07,0,0,.06,0,.06-.07,0v0l0,0,0-.07s0,.11,0,.15-.08.05-.13,0v0c-.07.09-.26,0-.25.12,0,0,0,0,0,0l-.05,0,0-.05,0,.13,0,0a.88.88,0,0,0-.2.19v0c0,.1-.1,0-.13.11h0l0,0v0c0,.09-.17,0-.11.05s0,.11,0,.14,0,0-.09,0,0,.08-.09.1l0,0s0,.05,0,.09v0c0,.1-.14,0-.09.13s-.08.06-.12,0a2,2,0,0,1-.14.25c-.09-.08,0,0-.1,0l.05.05c-.1.09-.32.07-.41.18l0,0,0,.07a2.91,2.91,0,0,0-.41.27c0,.06,0,.15-.08.18h0a.57.57,0,0,1-.26.25s0,0,0-.05,0,.05-.08.06l.06,0c0,.06-.07.05-.11,0v.09h0v0l-.08-.05s0,.09,0,.16-.07,0,0,0l-.17.11h0c0,.05,0,.12,0,.11s-.06-.06-.1-.09,0,0,.06.06,0,.12-.07.11v0c0,.05-.11,0-.14,0s-.05.05,0,.13-.06,0-.09,0-.07.09-.11.06c.07.14-.16.06-.09.17l-.09,0s.07.1,0,.14-.09-.06-.12-.08l.06.11c-.26,0-.42.3-.68.37a1.05,1.05,0,0,1-.23.29v0l-.12.06.11,0s0,.07,0,.08a.71.71,0,0,0-.41.28c0,.18-.14-.06-.15.09a.43.43,0,0,1,0,0,1,1,0,0,0-.12.31c-.08-.12,0,.05-.09,0l0,.06c-.05,0-.1,0-.12,0v.09l0,0c-.06,0-.13.17-.24.09a1.12,1.12,0,0,1-.45.44c0,.06,0,.1-.07.13l-.08,0c0,.05,0,.15-.07.14h0s-.08,0-.08.12a.08.08,0,0,1-.13,0c.07.1-.1.06-.1.06s-2.28,1.53-2.36,2.46c0,.06,0,.13.07.17s-.11,0-.08,0,.09.14.18.15l0,0s0-.07,0,0l-.06-.09a.12.12,0,0,1,.1,0c0-.05-.09-.18,0-.18v0s.07,0,.1,0H107s0,.11,0,.08,0,0,0-.05,0,0,.07.05l0,0s0,0,0,.05l0-.09c.1.09,0-.1.13,0s0,0,0,.07l.1-.09s0,.05,0,0,0-.05,0-.05.08-.07.13,0,0-.11,0-.13,0,.06,0,.07l0-.07s0,.08,0,.09c.23-.1.5,0,.62-.16.07,0,0,0,0,.09.06-.16.25,0,.35-.12l0,0c.25,0,.35-.22.56-.3h0c0-.06,0-.09,0-.13s0,.1.08,0,0,0-.06,0c.23,0,.49-.28.76-.42s.68-.49,1-.77c0,0-.1-.07-.05-.08.24.09.14-.17.33-.13.13-.21.41-.19.47-.46l0,.05s0,0,0-.07v0c.08,0,.11-.15.17-.15l0-.06s.06,0,.07,0l0,0v-.08c.07.09.11-.08.17-.06s.09-.17.18-.21.14,0,.21-.06a2.24,2.24,0,0,1,.39-.35l-.05-.06,0,0,0,0c.08,0,.06-.09.13-.07s0,0-.06,0-.07-.08,0-.09l0,0v-.06c0,.05.08.05.12.09s.12-.25.26-.33.08-.09.13,0c0-.1-.07-.06-.09-.16s0-.05,0,0,.06,0,0,.06l0-.05a.06.06,0,0,1,0,0c0-.14.22-.09.27-.22s0,0-.07,0,.13,0,.17-.12l0,.06c0-.06,0-.1.05-.11s0,.08,0,.12.1-.1,0-.13.08,0,.11,0-.06,0-.06,0a.63.63,0,0,0,.21-.12l0,0C114.35,19.84,114.45,20,114.5,19.89Z"/><path class="cls-2" d="M117.5,16.89h0a.08.08,0,0,1,0,.05Z"/><path class="cls-2" d="M116.31,17.83a0,0,0,0,1,0,0A0,0,0,0,0,116.31,17.83Z"/><path class="cls-2" d="M116.11,18.17s0,0,0,0Z"/><path class="cls-2" d="M118,16.19l0,0Z"/><path class="cls-2" d="M119.89,14.7h0Z"/><path class="cls-2" d="M119.72,14.7s0,0,0,0A0,0,0,0,0,119.72,14.7Z"/><path class="cls-2" d="M117.62,16.58s0,0,0,0S117.62,16.6,117.62,16.58Z"/><path class="cls-2" d="M119.7,14.76h0Z"/><path class="cls-2" d="M119.93,14.68l0,0S119.93,14.7,119.93,14.68Z"/><path class="cls-2" d="M118.65,15.56h0Z"/><polygon class="cls-2" points="119.66 14.94 119.66 14.94 119.66 14.96 119.66 14.94"/><path class="cls-2" d="M120.06,14.61s0,0,0,0h0Z"/><path class="cls-2" d="M119.1,15.33a.16.16,0,0,0,0-.06S119.07,15.29,119.1,15.33Z"/><path class="cls-3" d="M89,74.14h10.2a2.71,2.71,0,1,0,0-5.41H89a2.71,2.71,0,1,0,0,5.41Z"/><path class="cls-3" d="M89,65.77h10.2a2.71,2.71,0,1,0,0-5.41H89a2.71,2.71,0,1,0,0,5.41Z"/><path class="cls-3" d="M89,57.4h10.2a2.71,2.71,0,1,0,0-5.41H89a2.71,2.71,0,1,0,0,5.41Z"/><path class="cls-4" d="M107.88,92.73h0C102.21,84.63,96.63,78.15,96,77.44a3.31,3.31,0,0,0-2.52-1.12A3.34,3.34,0,0,0,91,77.44c-.62.71-6.19,7.19-11.87,15.29-8.13,11.61-12.26,20.56-12.26,26.6a26.66,26.66,0,0,0,53.32,0C120.15,113.29,116,104.34,107.88,92.73ZM93.49,139.29a20,20,0,0,1-20-20c0-7.56,10.58-23.09,20-34.51,9.38,11.42,20,27,20,34.51A20,20,0,0,1,93.49,139.29Z"/><path class="cls-4" d="M94.09,50.2A3.17,3.17,0,0,0,97.25,47V33.29a3.17,3.17,0,1,0-6.33,0V47A3.17,3.17,0,0,0,94.09,50.2Z"/><path class="cls-4" d="M94.09,23.59a3.17,3.17,0,0,0,3.16-3.17V11.76a3.17,3.17,0,1,0-6.33,0v8.66A3.17,3.17,0,0,0,94.09,23.59Z"/><path class="cls-5" d="M99.5,41.06c-.43-.1-1,.21-1.36,0s-.31-.51-.54-.71c-.46-.4-1.38,0-2-.19s-.8-1.08-1.52-1.26-1.26.25-1.85.15c-.79-.14-1.09-1.08-1.91-1-.37,0-.73.23-1.09.2-.75-.07-.83-1.07-1.57-1.15a3.18,3.18,0,0,0-.74.09c-1.3.19-1.66-1.15-2.8-1.41-.87-.2-2.22.49-2.94,0-.36-.25-.37-.81-.85-.89s-.76.26-1.15.23c-.58,0-.69-.76-1.25-.85s-1,.36-1.46.28-.57-.69-1-1-1.08-.23-1.65-.28-1.2-.49-.87-.9c-.34-.09-.69-.21-1-.32.28-.17.56-.34.82-.53a2.23,2.23,0,0,0,1.92.05c.62-.31,1.07-1,1.81-.85.22,0,.42.11.63.14,1.14.15,1.4-1.36,2.49-1.57a5.53,5.53,0,0,1,.91,0A2.52,2.52,0,0,0,83,27.79a4,4,0,0,0,2.36-.1c.33-.18.56-.46.89-.65.7-.4,1.67-.22,2.4-.5.51-.19.94-.75,1.46-.89a6.57,6.57,0,0,1,.77,0c.71-.08.87-1,1.59-1,.37,0,.72.2,1.08.19.74,0,1-.87,1.69-1,.41-.07.92.12,1.25-.08s.21-.72.57-.92.81,0,1.23.1A1.23,1.23,0,0,0,99.74,22l.76.32c.42,0,.34-.55.66-.75s1,.29,1.48.16c.18-.78.92-.95,1.76-.95-.58,0-2.33-1.18-3-1.41a24.32,24.32,0,0,0-4-.91,15.51,15.51,0,0,0-6.65.33c-8.69,2-17.42,4-25.51,7.06-1.95.75-3.93,1.27-5.19,2.52l-.85-.17a41.13,41.13,0,0,1-6.38-1.64c-3.3-1.25,0-2.28,1.17-4.19,1.73-2.8,1.89-5.92-1-8-2.24-1.62-5.4-2.19-8.49-2.42a6.32,6.32,0,0,0-2.08.08,6.5,6.5,0,0,0-2.09,1.13,12.32,12.32,0,0,0-3.66,4.52,8,8,0,0,0-1,2.42,5,5,0,0,0,2.44,4.79c2.79,2,7.2,2.65,10.6,3.84l5.15,1.81c1.12.39,3.2,1.86,4.51,1.6h0L58,33.42,42.79,38.83c-5.34,1.81-13.41,9.84-6.08,14.6a10.33,10.33,0,0,0,6.71,1.16c2.81-.27,6.08-.29,8.75-1.25,4.45-1.57,9.61-8.78,7.36-12.54-.75-1.25-2.31-1.86-3.67-2.57.5.26,4.81-1.72,5.32-1.9l.31-.11c4.86,1.83,22.26,7.44,25.84,8.48l2.22.64a18.22,18.22,0,0,0,3.49.77,10.68,10.68,0,0,0,6-1.36c1.57-.82,3.28-1.4,4.8-2.29-1-.33-3-.51-3.78-1.08A1.57,1.57,0,0,0,99.5,41.06ZM50.71,21.19c-1.24,1.91-4.72,3.08-7.4,2.53a4,4,0,0,1-2.94-2.08,3.7,3.7,0,0,1,1.16-4.2,7.27,7.27,0,0,1,6.84-1.6C50.88,16.69,52,19.16,50.71,21.19Zm-.8,28.33c-2.5,1.28-8.23,2.7-10.38.13A3.85,3.85,0,0,1,39.1,49c-1.72-3.17,3.6-6.09,6.12-7s8.67-2.86,10.08-.68S54.76,47,49.91,49.52Z"/></g></svg>