<svg xmlns="http://www.w3.org/2000/svg" viewBox="0 0 195 155"><defs><style>.cls-1{fill:#d3c5e0;}.cls-2{fill:#916fb2;fill-rule:evenodd;}.cls-3{fill:#7f57a6;}.cls-4,.cls-7,.cls-8{fill:none;}.cls-4,.cls-8,.cls-9{stroke:#6c3f99;}.cls-4{stroke-miterlimit:10;stroke-width:10px;}.cls-5{fill:#6f439b;}.cls-6{fill:#fff;}.cls-7{stroke:#916fb2;}.cls-7,.cls-8,.cls-9{stroke-linecap:round;stroke-linejoin:round;stroke-width:1.5px;}</style></defs><title>death penalty</title><g id="Layer_1" data-name="Layer 1"><circle class="cls-1" cx="97.95" cy="77.06" r="45.85"/><path class="cls-2" d="M64.45,112.74c-2.41-.45-25.93-3.7-28.35-4-7.64-1.07-16.46-15.14-9-27.92C28.47,78.37,33.2,74,34.35,74c5.42.34,29.56,6.79,35.39,7.87"/><path class="cls-3" d="M69.62,34.59h0Z"/><path class="cls-3" d="M69.49,36h0S69.48,36,69.49,36Z"/><path class="cls-3" d="M69.67,33.77h0v0Z"/><path class="cls-3" d="M69.4,38.86v0Z"/><path class="cls-3" d="M69.47,37.14s0,0,0,0S69.49,37.14,69.47,37.14Z"/><path class="cls-3" d="M70.35,33.3l0,0S70.35,33.32,70.35,33.3Z"/><path class="cls-3" d="M70.12,32.49h0Z"/><path class="cls-3" d="M69.94,32.82l0,0S70,32.82,69.94,32.82Z"/><path class="cls-3" d="M70,32.85h0Z"/><path class="cls-3" d="M70.2,49.36s0,0,.07.06Z"/><path class="cls-3" d="M69.52,41.48h0Z"/><path class="cls-3" d="M70.61,49.36v0Z"/><path class="cls-3" d="M70.5,33.73s0,.08,0,.07S70.57,33.74,70.5,33.73Z"/><path class="cls-3" d="M71.3,41.94v0Z"/><path class="cls-3" d="M70.61,49.36v0h0Z"/><polygon class="cls-3" points="69.64 44.21 69.64 44.21 69.63 44.2 69.64 44.21"/><path class="cls-3" d="M69.57,44.36v0S69.56,44.35,69.57,44.36Z"/><path class="cls-3" d="M70.27,49.42l0,0S70.28,49.43,70.27,49.42Z"/><path class="cls-3" d="M69.72,45.92v0Z"/><path class="cls-3" d="M69.49,37v0S69.48,37,69.49,37Z"/><polygon class="cls-3" points="70.79 38.04 70.79 38.04 70.79 38.04 70.79 38.04"/><path class="cls-3" d="M70.73,38s0,.05.06.06S70.78,38,70.73,38Z"/><path class="cls-3" d="M70.77,38.16h0Z"/><polygon class="cls-3" points="70.8 37 70.8 37 70.8 37 70.8 37"/><path class="cls-3" d="M70.82,37.23l0,0S70.82,37.24,70.82,37.23Z"/><polygon class="cls-3" points="70.94 38.73 70.93 38.73 70.93 38.73 70.94 38.73"/><path class="cls-3" d="M71.39,40.87a4.42,4.42,0,0,1-.13-.71c-.1,0-.1-.11-.13-.18h.13l-.05,0s0,0,.08,0h-.08s0-.15.12-.06l0-.22s-.1,0-.08-.08,0,0,.08,0c.08-.17-.26-.18-.21-.33h0s0-.07-.05-.07.07,0,0,.07-.06,0-.14,0,0,0,0-.08,0-.13.09-.18-.14,0-.15-.1.08,0,.11,0h-.06c0-.05,0,0,.05,0s-.09,0-.05-.1l.06,0s0-.06,0-.12,0,0,0,0,0-.06,0-.07,0,.05-.1,0-.09-.06,0-.09l.06,0c-.05-.06-.08,0-.06-.1h0c-.08,0,0-.11,0-.18l0,0s-.08,0-.08-.06,0,0-.11,0c.1-.06-.12-.07-.07-.16s.08,0,0,0a1.09,1.09,0,0,1,.25.07s0-.06,0-.06h-.1V38c-.06,0-.1,0-.14,0s.1,0,0,0-.11,0-.08-.09,0,0,0,0,0-.12.1-.14.06,0,.05,0h0c.09,0,0,0,.08,0-.06,0,0-.06,0-.09h-.07c-.23-.09.14,0,.11-.1s0,0-.07,0,.07-.06,0-.12a.22.22,0,0,1,.14-.07s0-.12,0-.13.09.06,0,.14l-.08,0s0-.12,0-.15h0c0-.07-.11-.09-.09-.16s.06,0,.07.06,0,0,0-.12,0,0,.06,0l0-.08h0c-.11,0,0-.06,0-.11s-.15-.13-.24-.19a.13.13,0,0,1,.08,0s0,0,0,0,.1-.1.15-.08-.06,0-.09,0v-.08s-.06,0-.11,0a.4.4,0,0,1,0-.11s.08,0,.08,0,0-.06,0-.07-.05-.09-.13,0l.05-.05s0,0,0,0,0,0,0-.06,0-.07,0-.08,0-.06,0-.07,0,0-.08,0V36a1.49,1.49,0,0,1,.19,0s-.13,0-.13,0,.07-.07.17,0,.06-.11,0-.16,0,0-.11,0-.24-.12-.21-.21l0,0c0-.05,0,0-.09-.07s.23-.08.21-.17-.08,0-.15,0l0-.06h0c0-.06.11-.11,0-.12l.13-.06-.06,0s-.06-.07-.08-.08,0-.08,0-.12-.12,0-.13,0c.14,0,.05-.1.12-.11s0-.06,0-.06h.09c-.12,0-.12-.07-.15-.12.17,0,0-.07.14-.1-.12,0,0-.1-.15-.1s.1-.05.14-.06l0,0c.06,0,.06-.1.1-.15l-.11,0,.05,0s-.05,0-.08,0v0c-.11,0,0,0-.08-.07s0,0,.06,0,.06,0,.09,0-.2-.07-.25,0-.08,0-.06-.05l.1,0-.11,0s0-.06.06-.09.19.06.19,0,.07.06.09.08,0,0,.06,0-.06,0-.08-.08.12,0,.15-.08l-.07,0h0a.08.08,0,0,1-.06,0s-.12-.06-.06-.08c-.14.07-.12-.1-.2,0s0-.05,0-.06.1,0,.17,0-.07,0-.1,0,0-.06.07-.07h0l0,0s-.08,0-.1,0,0-.06,0-.06.15,0,.17,0,0-.13-.11-.08v0s-.1.1-.12,0h0l-.07,0,0,0s0,0,0,0l.08,0c0-.06-.06-.05-.08-.06s0,0,.06,0,0-.11,0-.15,0,0-.08,0c.15-.06,0-.2,0-.29s0,0-.15,0c0,0,.1-.1.15,0l0,0c.07,0,.06.08.16,0s-.16-.09-.11-.16,0,0,.07,0,0,0,0,.05h0c0-.12-.12,0-.19-.09s.07-.06.12-.07,0-.05,0-.07-.05.09-.12.07c.11,0,0-.11,0-.13s0,.08-.12.19c0,0,.14,0,.1.06s-.06,0-.07,0,0,0,0,.06-.14,0-.16,0h.14s-.1,0-.07.05-.11,0-.13-.06c-.11.09.07.13.12.19h0s0,0,0,0-.06,0-.1,0v.07h0s0,0,0,0l-.13,0,.1.07s-.08.06-.11,0l0,.1-.09,0s0,0,0,0,.17.15,0,.14c.08.08.06.11.11.21-.09-.07-.11.1-.15,0s.06,0,.08.09a.13.13,0,0,1-.16,0l0,0h0l.06,0c-.05,0-.09,0-.1.05h.08l0,0s.06,0,.06,0h0v0s0,0-.07,0a.39.39,0,0,0,0,.09h.06c0,.07-.08,0-.08.07h.06c-.1.1.07.15,0,.22s-.09,0-.07,0,0,.15.09.21c-.09,0-.11,0-.15.09s0,.05.07.06,0,.12,0,.13,0,0,0,.06h0c-.14.08.08.12,0,.2h0l0,0s0,0-.08,0V35l0,0s.08.05,0,.09,0,0-.08.06l0,0s0,0,.07,0-.12,0,0,.1v0s.09,0,.09,0,0,0,0,0,0,.11,0,.13-.06,0-.08,0,0,0,0,.14h0l0,0-.08.05,0,0s0,0,0,.08h-.05c0,.09-.08.11,0,.19h0c.09.07-.09.06,0,.13h-.05l0,0h-.07l.11,0-.07,0h0c-.14.05,0,.09-.13.15h.09c.2.12-.09.3,0,.45h-.08l.09.06s-.06,0-.1,0,.11,0,.14.1-.06,0-.09,0,.09.19,0,.24,0,0,0,0,0,.12,0,.18,0,0,0,0,0,.05,0,.06h-.07s0,.12,0,.13.08,0,.08,0,0,.1,0,.16,0-.05,0,0,0,0,.06.08h0l.06.13c-.1,0,0,.13-.05.13s0,0,.06,0,0,0,0,0h0v0l-.07,0a.2.2,0,0,0,.14.06s0,.08-.06.1h0c0,.1-.19.18-.06.25h0v.06h-.06l.09.1h0a.8.8,0,0,0,0,.26h0c.06.09,0,.09,0,.16h0v.06h0c.08,0-.09.14,0,.11a.54.54,0,0,0,.13.07c0,.07,0,0-.08.06s.06.06,0,.12h0s0,0,0,.09l0,0c.08.07-.1.1.06.15,0,0,0,.08-.07.08a1.66,1.66,0,0,1,.11.24c-.12,0,0,0-.06.08h.07c0,.12-.14.27-.11.41h-.06l.07,0a2.53,2.53,0,0,0,0,.46s.11.09.1.15h0a.57.57,0,0,1,0,.34h-.06c.07,0,0,.07,0,.09l.05,0c.06,0,0,.08,0,.1l.07,0h0l-.08,0s0,.08.12.1,0,.05-.06,0l0,.19,0,0c.06,0,.11.05.08.08s-.09,0-.14,0,.06,0,.09,0,.07.1.05.12l0,0c0,.05-.08.07-.08.11s0,.07.12.06-.07,0-.08,0,0,.11,0,.12c.16,0,0,.16.08.16l-.07.05s.12,0,.13,0-.1,0-.13,0h.13c-.13.22,0,.48-.13.71a.78.78,0,0,1,.09.34h0l0,.11.06-.08s0,0,0,.06a.61.61,0,0,0,0,.46c.16.09-.13.07,0,.17l-.06,0a1.07,1.07,0,0,0,.19.26c-.16,0,0,.06-.08.06h.06s0,.09-.09.08l.08,0h-.06c0,.06.06.19-.07.23a.94.94,0,0,1,.07.58c.06,0,.06.08.07.12l-.07,0s.12.09.07.13h0s0,.08.06.12a.09.09,0,0,1-.11.09c.12,0,0,.11,0,.11s-.17,2.54.55,3.12c.06,0,.11.07.18,0s-.09.07,0,.08.16,0,.23-.06l0,0s0-.05,0,0h-.12a.12.12,0,0,1,.08-.06s-.21,0-.14-.11v0s.07,0,.09,0h0l.06,0s.06.09,0,.06,0,0,0,0,.06,0,.09,0v-.06c.05,0,0,0,.05,0l-.06-.06c.14,0-.07-.08.06-.12s0,0,.09,0l0-.12s0,0,0,0,0,0,0-.05,0-.09.09-.09-.12,0-.07-.11,0,.06.07,0l0-.08s.09,0,.08,0c.06-.22.34-.35.26-.55.06,0,0,0,.09,0-.1-.14.13-.21.11-.34h0c.16-.18,0-.38.11-.58l0,0s-.06-.07-.09-.1.12,0,.1,0,0,0-.07,0c.13-.17.08-.52.13-.8s0-.78,0-1.14c0,.05-.12,0-.1,0,.23-.13,0-.2.1-.32-.08-.21.11-.41-.08-.6h.07s0,0,0-.06h0c0-.08,0-.16,0-.21h-.07s0,0,0-.06h0l-.07,0c.13,0,0-.13.06-.17a.43.43,0,0,1-.06-.24c.06,0,0-.13.08-.19a2.39,2.39,0,0,1,0-.48h-.08v0h0c.09,0,0-.1,0-.14s0,0,0,.06-.12,0-.08,0h0l0,0c.07,0,.1,0,.16-.05s-.14-.23-.12-.38c.08,0,0-.11.11-.08-.06-.09-.1,0-.19,0s0,0,0,0,.07,0,.08,0v-.06l0,0c-.08-.12.07-.22,0-.33s0,0-.06,0,.08-.1,0-.2l.06,0s-.1,0,0-.1.06.05.1.07,0-.13-.09-.1,0-.06.06-.08,0,0-.08,0a.61.61,0,0,0,0-.23h0C71.26,41,71.42,41,71.39,40.87Z"/><path class="cls-3" d="M70.81,37v0h.06Z"/><path class="cls-3" d="M70.84,38.38h0Z"/><path class="cls-3" d="M71,38.71s0,0,0,0Z"/><path class="cls-3" d="M70.58,36.18h0Z"/><path class="cls-3" d="M70.51,34h0Z"/><path class="cls-3" d="M70.41,34.1a0,0,0,0,0,0,0A0,0,0,0,0,70.41,34.1Z"/><path class="cls-3" d="M70.63,36.72l0,0S70.65,36.72,70.63,36.72Z"/><path class="cls-3" d="M70.44,34.15v0h0Z"/><path class="cls-3" d="M70.52,33.94a.06.06,0,0,1,0,0S70.53,34,70.52,33.94Z"/><path class="cls-3" d="M70.44,35.38h0S70.46,35.39,70.44,35.38Z"/><polygon class="cls-3" points="70.57 34.28 70.56 34.29 70.59 34.29 70.57 34.28"/><path class="cls-3" d="M70.54,33.8s0,0,0,0v0Z"/><path class="cls-3" d="M70.53,34.91h-.06S70.49,34.92,70.53,34.91Z"/><path class="cls-3" d="M42.65,27.39l0,0Z"/><path class="cls-3" d="M44.35,29.84l0,0S44.34,29.84,44.35,29.84Z"/><path class="cls-3" d="M41.59,26h0a.9.9,0,0,0-.07-.11Z"/><path class="cls-3" d="M48.16,34.93l0,0Z"/><path class="cls-3" d="M45.92,31.9s0,0,0,0S45.94,31.89,45.92,31.9Z"/><path class="cls-3" d="M41.55,24.77v.07A.06.06,0,0,0,41.55,24.77Z"/><path class="cls-3" d="M40.26,23.48h0Z"/><path class="cls-3" d="M40.56,24.15l0,0S40.58,24.14,40.56,24.15Z"/><path class="cls-3" d="M40.63,24.19h0Z"/><path class="cls-3" d="M62.84,52.73s.08.05.14.07Z"/><path class="cls-3" d="M51.75,39.42h0Z"/><path class="cls-3" d="M63.2,52.52l0,0S63.21,52.53,63.2,52.52Z"/><path class="cls-3" d="M42.25,25.44c.07,0,.1.13.13.1S42.32,25.41,42.25,25.44Z"/><path class="cls-3" d="M53.89,39.26l0,0S53.89,39.27,53.89,39.26Z"/><path class="cls-3" d="M63.2,52.52l0,0a0,0,0,0,1,0,0Z"/><path class="cls-3" d="M55.5,44.09Z"/><path class="cls-3" d="M55.64,44.39l-.06,0A.07.07,0,0,0,55.64,44.39Z"/><path class="cls-3" d="M63,52.8l.08,0Z"/><path class="cls-3" d="M57.84,47l0,0Z"/><path class="cls-3" d="M45.79,31.7v0S45.76,31.68,45.79,31.7Z"/><polygon class="cls-3" points="48.24 32.76 48.24 32.76 48.24 32.76 48.24 32.76"/><path class="cls-3" d="M48.12,32.7a.14.14,0,0,0,.12.06A.14.14,0,0,0,48.12,32.7Z"/><path class="cls-3" d="M48.39,33h0Z"/><polygon class="cls-3" points="46.87 30.95 46.86 30.95 46.87 30.95 46.87 30.95"/><path class="cls-3" d="M47.19,31.33v0S47.2,31.35,47.19,31.33Z"/><polygon class="cls-3" points="49.28 33.88 49.28 33.88 49.28 33.88 49.28 33.88"/><path class="cls-3" d="M52.53,37.35a14.58,14.58,0,0,1-1.06-1.16c-.14,0-.23-.13-.34-.24l.09-.09-.11-.07c0-.06.07.06.06,0h-.1s-.18-.27,0-.16l-.31-.38c-.06-.09-.12,0-.17-.1s.05,0,.08,0c-.16-.34-.46-.17-.62-.47h0c-.06,0-.13-.11-.14-.1s.09,0,.1.13-.13-.06-.19,0-.1-.08-.14-.13-.17-.23-.15-.36-.19,0-.27-.09.08,0,0-.15l-.06,0c-.06-.08,0-.08,0-.09s-.12,0-.17-.14h.09a.72.72,0,0,1-.18-.2s.07,0,.08.06c0-.12-.11-.07-.12-.11s0,.11,0,.11-.15-.06-.12-.14l.09,0c-.13-.08-.11,0-.19-.15l0,0c-.13,0-.15-.18-.24-.3l0,0c-.06,0-.12,0-.14-.06s0,.09,0,.13c0-.15-.21-.06-.27-.24a.06.06,0,0,1,.09.05c.12,0,.2-.07.31,0-.07,0-.13-.1-.08-.11l-.09,0-.07-.08c-.06,0,0,.13-.12.08s0-.11,0-.1-.12,0-.19-.11,0,0,0,0-.18-.19-.11-.29.06,0,.08,0h0c.14,0-.08-.06,0-.1s-.12-.07-.16-.13l0,.06c-.31,0,.12-.08,0-.24s0,.06-.08,0,0-.15-.13-.23,0-.14,0-.19-.13-.22-.22-.21.16.06.18.25l-.09,0c-.07-.1-.2-.19-.23-.27s0,.05,0,.05-.22-.1-.3-.24.09,0,.14.07c0-.12-.06-.09-.14-.23s.06.09.12.06L46.85,31h0c-.1.05-.07-.11-.17-.18s-.29-.14-.45-.19c0,0,0-.08,0-.08s0,.05.06,0,0-.21,0-.2c-.11-.09,0,.08-.09,0l-.12-.15c0,.05,0,.11-.09.06a.7.7,0,0,1-.14-.18s0-.08.09,0S46,30,45.89,30s-.15-.12-.16,0l0-.12s.05,0,.06,0-.08-.06-.11-.08-.07-.13,0-.16a.13.13,0,0,1-.07-.14s0,0-.07,0l-.12-.15s.12-.13.15-.12-.12.06-.18,0c.11,0,0-.16.1-.15s-.1-.23-.18-.29,0,.11,0,.15c-.2-.2-.36-.09-.46-.26l0,.05a.4.4,0,0,0-.19-.09c.09,0,.1-.26,0-.4,0,0,0,.14-.07.16l-.09-.1h0c-.1-.08,0-.25-.16-.22l0-.17,0,.07s-.14-.08-.17-.1a.21.21,0,0,1-.13-.23s0,.14-.12.06c.11-.09-.1-.21,0-.26s0-.12-.1-.09l.08-.05c-.11.07-.2-.06-.3-.14.15-.08-.1-.1,0-.24-.1.06-.17-.14-.26-.09s0-.14,0-.18h-.07c0-.08-.09-.22-.13-.33H42.9v-.06s-.09-.05-.09,0l0,0c-.09.07-.07,0-.17-.09s0-.05.05,0,0-.06,0-.1-.27,0-.22.12-.11,0-.13-.07l.06-.08h-.12c-.06-.05,0-.12-.07-.18s.25,0,.13-.14a.4.4,0,0,0,.19.09s0-.05.05,0c-.11-.09-.08,0-.18-.1.08,0,.08-.1,0-.21v.11h0s0,.05,0,.08-.19-.05-.16-.1c0,.19-.23-.12-.25,0s-.09-.07-.06-.1,0-.13.09-.16,0,.11-.06.09a.22.22,0,0,1,0-.17h0l0-.11c-.05,0,0,.13-.08.07s-.08-.09-.05-.11.12-.08.19,0-.2-.21-.21-.09l-.05-.07c0,.07,0,.22-.07.1h0l-.13,0v-.07a.05.05,0,0,1-.07,0s0-.06,0-.08-.11-.06-.14-.06,0-.08,0-.08-.17-.21-.17-.29,0,0-.09,0c.05-.19-.21-.36-.36-.51-.07.13,0,0-.17,0,.07,0,0-.22.11-.11l-.08-.07c0-.11.16.1.17-.05s-.25-.06-.3-.21-.1-.06,0-.1.06,0,.09.06v0c-.15-.22-.14,0-.28,0s0-.15,0-.19-.06-.08-.11-.1a.09.09,0,0,1,0,.18c0-.12-.14-.19-.21-.2.06.26.1.13.14.38,0,0,.12-.06.17.07-.09,0,0,0,0,.06s.08.06.12.08-.15,0-.08.14l.12-.07c0,.05-.09.05,0,.11-.09,0-.07.08-.18,0,0,.21.22.18.34.25s0,0,0,0,.08.05.11.07-.1,0-.11,0l.1.11h0s.07,0,.06.07h-.16l.17.06s0,.15-.07.08l.16.17-.06.08c.05,0,.06,0,0,0s.35.17.18.25a2.48,2.48,0,0,1,.36.31c-.17-.08,0,.22-.1.1,0,.11.13.07.19.12s-.07.11-.15.07l.09.05h0l.09,0c0,.1-.06.07,0,.15l.08,0v.08s.06,0,.11,0h0l.07.06c-.09,0,0,.07,0,.08a1.74,1.74,0,0,0,.14.14l0-.05c.14.1-.06.06,0,.17l0-.05c0,.22.26.22.29.37-.06-.05-.1,0-.09,0s.21.25.35.3a.24.24,0,0,0,0,.25c.07.07.08.08.14.07s.19.2.14.24,0,.07.11.08l0,0,0-.05c0,.22.23.17.24.38l0,0,.06,0s0,0-.07,0l.19.26v-.08c0,.05.12,0,.14.13-.15,0,.07.09,0,.15l-.06,0c.06.07.06.07.11,0s0,.15.08.19l0-.06c0-.05.09,0,.13,0s0,.06,0,0,.14.19.19.21,0,.07-.06.06c.17.12.05.08.22.2l0,0,.08,0v.07a.58.58,0,0,1,.13.14H44c.14.13.07.23.24.33,0,0,0,0,0,0,.17.07,0,.15.2.22,0,0,0,0,0,0l.08,0-.06,0,.12,0,0,.09h0c-.06.15.1.17.09.33l.06-.07c.32.1.33.57.61.79l-.06,0,.16.05c0,.1-.08,0-.09.05s.12,0,.25.11-.07,0-.11,0a1.29,1.29,0,0,1,.36.39h0c.1.06.16.2.24.29s0,0-.07,0,0,.1.09.1H46c.05.08.21.18.17.24s.06-.05.1,0,.18.15.21.28-.09-.06-.07,0,.09.08.15.11h0l.24.2c-.06.1.19.21.11.24s0-.1.08,0,.1.08,0,.12h0l.06.07h-.09a.19.19,0,0,0,.2,0c0,.09.12.15.09.22h0c.16.15.07.41.27.46,0,0,0,0,0,0l.08.11h-.06l.21.12,0,0a4.3,4.3,0,0,0,.37.43h0c.17.13.1.18.22.27h0l.09.11h0c.12,0,.1.29.12.2s.15.08.2.06,0,.06,0,.15.12.06.19.2l0,0c0,.05.09.06.16.13h0c.15.08,0,.22.24.22,0,.07.11.15,0,.19a4.71,4.71,0,0,1,.41.35c-.07.1,0,0,0,.17l.05-.05c.18.2.25.55.46.76l-.05,0h.1c.17.27.42.61.58.81.08,0,.22.1.28.22h0a2.62,2.62,0,0,1,.48.56s0,0-.06,0,.09.12.13.16v-.08a.15.15,0,0,1,.1.19l.13,0a0,0,0,0,1,0,0h0l0,.1s.15.11.24.1,0,.12,0,.07l.24.34,0-.07c.05-.05.16,0,.18.09s-.08.05-.09.11,0-.07.06-.07.19.13.19.18l-.05,0c.08.06,0,.17.09.24s.09.11.17,0c.09.08,0,.08,0,.12s.16.17.13.22c.17,0,.16.3.28.23v.13a.13.13,0,0,1,.17,0c0,.08,0,.11-.06.15l.14,0c.17.44.61.84.83,1.29a3.89,3.89,0,0,1,.53.54h0l.13.22-.07-.18a.6.6,0,0,1,.13.09,2.54,2.54,0,0,0,.58.81c.26.08,0,.2.2.3h-.06a4,4,0,0,0,.5.35c-.14.07.09.11,0,.15l.06,0c0,.06.07.17,0,.18l.12,0,0,0c.08.11.3.3.25.43a4.49,4.49,0,0,1,.83,1c.08,0,.16.11.22.18v.12c.08.06.22.08.24.19h0c.08.07.11.16.22.19s.1.2,0,.21c.11-.07.13.19.13.19s3.24,4.51,4.63,5.13c.07,0,.18.07.21,0s0,.16.08.14.16-.07.13-.22l.07,0s-.11,0,0-.09l-.1.06a.21.21,0,0,1,0-.15c-.07,0-.22,0-.26-.12l0,0c-.08-.09,0-.1,0-.14l0,0,0-.11c0,.08.17.12.12.08s0,0-.08,0,0-.08,0-.1L63,52.05s0,.07.06,0L62.88,52c.08-.11-.16-.09-.1-.23.09.07,0,0,.07,0l-.18-.2s.08,0,0,0-.08,0-.09-.07-.13-.16-.06-.21-.14,0-.2-.15.09.1.09,0l-.13-.12a.1.1,0,0,1,.13,0c-.25-.42-.19-.81-.52-1.11,0-.08.06,0,.12,0-.27-.19-.17-.44-.34-.65l0,0c-.11-.4-.47-.69-.68-1.06v.06c-.08,0-.14-.08-.21-.12s.13,0,0-.12,0,.09,0,.09a11.92,11.92,0,0,0-1-1.47c-.55-.61-1-1.36-1.55-2,.08.09-.06.13-.09,0,0-.34-.31-.32-.35-.61-.35-.32-.46-.77-.86-1l0,0C57,43,57,43,56.92,43h0c-.08-.14-.25-.25-.29-.34l-.06,0c-.06-.07,0-.07-.08-.12l0,0-.12,0c.1-.07-.16-.22-.17-.31a2,2,0,0,1-.38-.39c0-.07-.12-.25-.18-.38a8.71,8.71,0,0,1-.68-.82l-.06.06-.06-.07s0,0,0,0-.16-.16-.17-.25c0,.08,0,.06.07.1s-.09.08-.12,0h0l-.08,0c.05,0,0-.11.07-.16-.2-.23-.42-.33-.6-.6.07,0-.16-.17,0-.2-.15-.12-.05.09-.18.08s-.09-.07-.06-.1,0-.09.07-.06l-.09-.09s0,0,0,0c-.22-.16-.23-.42-.43-.56,0,0,.05.09,0,.1-.22-.13-.07-.21-.26-.35h.08c-.08,0-.14,0-.18-.14s.11,0,.18.06-.2-.21-.21-.12S53,38,53,38s0,.1,0,.08a2,2,0,0,0-.28-.42s0,0,0,0C52.52,37.57,52.66,37.48,52.53,37.35Z"/><path class="cls-3" d="M46.83,30.89l0,.06a.06.06,0,0,1,.06,0Z"/><path class="cls-3" d="M48.74,33.32h0Z"/><path class="cls-3" d="M49.31,33.83c-.05,0,0,0,0,.05A.06.06,0,0,0,49.31,33.83Z"/><path class="cls-3" d="M45.59,29.65h0Z"/><path class="cls-3" d="M42.59,25.85v0Z"/><path class="cls-3" d="M42.67,26.13s0,0,0,0S42.68,26.14,42.67,26.13Z"/><path class="cls-3" d="M46.34,30.54s0,0,0,0Z"/><path class="cls-3" d="M42.76,26.2l0,.06h0Z"/><path class="cls-3" d="M42.54,25.78l.05.07S42.57,25.79,42.54,25.78Z"/><path class="cls-3" d="M44.4,28.33h0C44.46,28.35,44.43,28.33,44.4,28.33Z"/><polygon class="cls-3" points="43.04 26.35 43.04 26.36 43.07 26.36 43.04 26.35"/><path class="cls-3" d="M42.38,25.54h0l0,0S42.38,25.53,42.38,25.54Z"/><path class="cls-3" d="M43.85,27.47h-.06S43.82,27.5,43.85,27.47Z"/><path class="cls-3" d="M44,55a0,0,0,0,1,0,0A0,0,0,0,0,44,55Z"/><path class="cls-3" d="M45.45,55.48h0S45.45,55.49,45.45,55.48Z"/><path class="cls-3" d="M43.13,54.73h0l-.06,0Z"/><path class="cls-3" d="M48.59,56.32h0Z"/><path class="cls-3" d="M46.73,55.81s0,0,0,0S46.74,55.78,46.73,55.81Z"/><path class="cls-3" d="M42.79,54l0,0A.08.08,0,0,0,42.79,54Z"/><path class="cls-3" d="M41.85,54h0Z"/><path class="cls-3" d="M42.17,54.22h0Z"/><path class="cls-3" d="M42.21,54.2h0Z"/><path class="cls-3" d="M60.17,58.28s0,0,.08-.05Z"/><path class="cls-3" d="M51.46,56.89v0Z"/><path class="cls-3" d="M60.28,57.88v0Z"/><path class="cls-3" d="M43.29,53.92s.08,0,.09,0S43.32,53.86,43.29,53.92Z"/><path class="cls-3" d="M52.39,55.28h0Z"/><path class="cls-3" d="M60.28,57.88h0v0Z"/><polygon class="cls-3" points="54.45 57.48 54.45 57.48 54.44 57.49 54.45 57.48"/><path class="cls-3" d="M54.59,57.59h0Z"/><path class="cls-3" d="M60.25,58.23l0,0Z"/><path class="cls-3" d="M56.32,57.85h0Z"/><path class="cls-3" d="M46.62,55.76v0S46.6,55.76,46.62,55.76Z"/><polygon class="cls-3" points="48.03 54.76 48.03 54.76 48.03 54.76 48.03 54.76"/><path class="cls-3" d="M48,54.81s0,0,.07-.05S48,54.76,48,54.81Z"/><path class="cls-3" d="M48.16,54.81h0Z"/><polygon class="cls-3" points="46.91 54.48 46.91 54.48 46.91 54.48 46.91 54.48"/><path class="cls-3" d="M47.16,54.52l0,0Z"/><polygon class="cls-3" points="48.82 54.8 48.81 54.8 48.82 54.8 48.82 54.8"/><path class="cls-3" d="M51.25,54.91a4.25,4.25,0,0,1-.8,0c-.07.08-.14.07-.22.08v-.13l-.07,0s.06,0,0-.07l0,.07s-.15-.06,0-.13l-.25-.05s0,.1-.1.06,0,0,0-.07c-.16-.12-.25.21-.41.12l0,0s-.09,0-.09,0,0-.07.08,0-.08,0-.09.12-.07,0-.1,0-.14,0-.17-.13-.08.12-.15.11,0-.07,0-.12l0,.06s0,0,0-.06-.06.08-.12,0l0-.06c-.06,0-.08,0-.14,0s0,0,0,0-.07,0-.09,0,0,0,0,.11-.08.07-.09,0l0-.05c-.08,0-.05.07-.12,0a0,0,0,0,1,0,0c-.07.07-.12,0-.2,0h0s-.06.07-.08.06,0,.06,0,.12c0-.11-.11.1-.19,0s0-.07.06,0,.07-.18.13-.22-.08,0-.06,0l0,.09H48c0,.06,0,.11,0,.14s0-.11,0-.06,0,.1-.12,0,0,0,0,0-.14,0-.13-.13,0-.06,0,0h0c.08-.07,0,0,0-.08,0,.06-.08,0-.11,0v.08c-.16.19,0-.14-.09-.14s0,0,0,.07,0-.09-.12-.07a.23.23,0,0,1,0-.16s-.12-.06-.16,0,.08-.07.15.05l0,.08c-.06,0-.14,0-.17,0a.07.07,0,0,1,0,.05c-.08,0-.12.09-.2,0s.05,0,.08,0,0,0-.12-.05,0,0,.07,0h-.09c0,.1-.07,0-.13,0s-.17.11-.26.18a.11.11,0,0,1,0-.08c0,.05,0,0,0,0s-.08-.12,0-.16,0,.06,0,.08l-.09,0c0,.05,0,.07,0,.1s-.06,0-.11,0,0-.08,0-.07-.06,0-.09,0-.11,0-.08.12l0-.06s0,0,0,0,0,0-.07,0-.07,0-.07-.07-.07,0-.07,0,0,0,0,.08l-.1,0s0-.17,0-.18,0,.13-.09.11-.06-.08,0-.17a.13.13,0,0,0-.16-.07c0,.06,0,0,0,.12s-.18.19-.28.14l0,0a.21.21,0,0,0-.11.07c0-.08,0-.25-.13-.25s0,.1,0,.17h-.07s0,0,0,0-.09-.13-.13,0l0-.14v.06s-.09,0-.1.05-.1,0-.13-.07,0,.13,0,.13-.1-.07-.09-.15,0,0-.06,0l0-.09c0,.12-.11.1-.18.11.05-.16-.07,0-.07-.16,0,.11-.12,0-.14.12s0-.11,0-.15l0,0c0-.06-.11-.08-.15-.13l-.07.09V54s-.06,0,0,.08h0c0,.11,0,0-.1.06a.06.06,0,0,1,0-.06s0-.06,0-.1-.13.18-.07.24a.05.05,0,0,1-.08,0v-.11l-.05.1s0-.06-.08-.08.11-.17,0-.19.08-.05.11-.07,0,0,0-.05,0,.05-.1.05a.13.13,0,0,0,0-.16l0,.08s0,0,0,0a.06.06,0,0,1,0,.06s-.1.09-.1,0c0,.15-.14.08-.11.17s-.06,0-.06,0,0-.11,0-.17,0,.07,0,.1,0-.06-.07-.09h0l0,0s0,.08,0,.1S43,54,43,54s0-.14.07-.14-.14,0-.12.08h0s.08.12,0,.12v0l-.07,0v0s0,0,0,0,0,0,0-.08-.07,0-.08.06,0,0,0-.07-.13,0-.15-.07,0,0,0,.07c0-.17-.19-.1-.3-.1s0,0-.07.13c0,0-.08-.12,0-.14h-.06c0-.08.1,0,.06-.15s-.13.13-.19.07-.06,0,0-.08,0,0,.06,0v0c-.13-.05-.06.11-.15.16s-.05-.09,0-.13-.05,0-.08,0,.08.07.05.13c0-.12-.12,0-.16,0s.08,0,.17.16c0,0,0-.13.1-.07s0,.05,0,.07,0,0,.07,0-.06.13,0,.16L42,54s0,.1,0,.08,0,.11-.09.11.15,0,.23-.07,0,0,0,0,0,0,.07,0,0,0,0,.09h.08s0,0,0,0,0,.08-.06.11l.09-.07s0,.08,0,.11h.12v.09s0,0,0-.05.2-.12.15.05c.1-.05.13,0,.25,0-.1.07.07.12,0,.14s.07,0,.12,0a.14.14,0,0,1,0,.16l0,0h0l0,0c0,.06,0,.09,0,.11l0-.07,0,0s0,0,.06,0v0h.05c-.05,0,0,0,0,.08h.1v-.06c.1,0,0,.08.06.1v-.07c.07.13.17,0,.23.06s-.05.08,0,.06.16,0,.24,0c0,.1,0,.13.06.18s.06,0,.09,0,.13,0,.12.07,0,0,.08,0v0c0,.15.15-.06.21.08l0,0,0,0s0,0,0,.08l.16,0,0,0s.07-.06.1,0,.06,0,0,.08l0,0s0,0,.05-.06,0,.13.09.07h0a.09.09,0,0,1,.06-.08s0,0,0,0,.12,0,.14,0a.05.05,0,0,1,0,.08c.12,0,0,0,.16,0v0l0,0,0,.08v-.05s.07,0,.1,0l0,0c.11,0,.1.11.2,0s0,0,0,0,0,.1.15,0,0,0,0,0l0,0,0,.07.05-.1v.08l0,0c0,.15.09.06.13.17v-.09c.18-.16.31.16.5.11l0,.07.09-.07c0,.07,0,.06,0,.1s0-.1.15-.1,0,.05-.06.07.22,0,.28,0,0,0,0,0,.13,0,.19,0,0,0,0,0,.05,0,.08,0l0,.06c.05,0,.15,0,.14.06s0-.08.05-.07.12,0,.18,0-.06,0-.05,0,.07,0,.1,0l0,0,.17,0c0,.11.14,0,.12.09s0-.06,0-.06.07,0,0,.06h0l0,.07a.18.18,0,0,0,.1-.12s.09,0,.1.09h0c.11,0,.14.23.25.13s0,0,0,0l.07,0,0,0,.13-.06v0a.85.85,0,0,0,.29,0l0,0c.11,0,.09,0,.18,0h.06l0,0c.07-.06.13.13.11.06a.36.36,0,0,0,.11-.1c.07,0,0,0,0,.09s.07,0,.14,0v0l.11,0v0c.09-.06.07.12.16,0,0,0,.1,0,.08.09l.29,0c0,.12,0,0,.06.07v-.06c.14,0,.27.2.42.2v.07l0-.07a2.17,2.17,0,0,0,.48.15s.13-.08.19,0h0a.7.7,0,0,1,.38,0s0,.05,0,.06.08,0,.11,0l0,0s.09,0,.1.06l.07-.05v0l0,.09s.1,0,.13-.09.05.06,0,.06l.2.07,0,0c0-.06.07-.09.1-.05s0,.08,0,.13,0-.06,0-.09.12,0,.13,0l0,0s0,.1.1.11.08,0,.09-.1,0,.07,0,.09.12,0,.12.06c.06-.15.15.09.19,0l0,.08s0-.11.08-.12,0,.11,0,.15l0-.13c.2.18.51.15.74.31a1,1,0,0,1,.38,0h0l.12.07-.08-.08s0,0,.08,0a.69.69,0,0,0,.49.15c.14-.13,0,.15.17.06l0,.05a1.6,1.6,0,0,0,.33-.11c-.05.15.07,0,0,.09l0-.06s.07.06.06.11l.06-.07v.06c.07,0,.23,0,.24.13a1.21,1.21,0,0,1,.64.08s.1,0,.15,0l0,.09s.12-.1.16,0,0,0,0,0,.09,0,.15,0a.09.09,0,0,1,.07.13c0-.12.11,0,.11,0s2.71.83,3.52.28c0-.05.1-.08.09-.16s.06.1.08,0,0-.15,0-.24h0s-.06,0,0,0l0,.11a.11.11,0,0,1-.05-.09s-.09.19-.15.11h0c-.06,0,0-.08,0-.11h0l0-.07c0,.05.11,0,.08,0s0,0,0,0,0-.06,0-.09H60s0,0,0,0l-.08,0c0-.14-.1.05-.11-.08s0,0,0-.09l-.14,0s0,0,0,0,0,0-.06,0-.1,0-.08-.11-.06.11-.14,0,.07,0,0-.06h-.1s0-.08.07-.07c-.23-.11-.3-.42-.54-.39,0-.07,0,0,.06-.08-.17.06-.19-.18-.33-.2v.05c-.16-.2-.41-.15-.61-.25l0,0s-.09,0-.13.06.05-.11,0-.1,0,0,0,.07c-.15-.17-.55-.21-.84-.34s-.84-.22-1.24-.27c.06,0,0,.14,0,.1-.09-.25-.23,0-.33-.18-.25,0-.42-.21-.67-.08v-.06s0,0-.08,0h0c-.08,0-.19,0-.23,0l0,.07s0-.06-.07,0v0l-.07.06c0-.13-.13,0-.16-.1a.53.53,0,0,1-.28,0c0-.07-.12-.09-.19-.14a2.18,2.18,0,0,1-.53-.09v.09h0s0,0,0,0-.12,0-.15-.06,0,0,.06,0,0,.12-.06.07v0l0,0c0-.06,0-.1,0-.16s-.28.07-.44,0c0-.07-.12,0-.06-.12-.11,0,0,.1-.06.18s-.07,0-.06,0,0-.07,0-.08h-.06s0,0,0,0c-.15,0-.22-.12-.35-.07s0,0,0,.06-.09-.1-.22,0l0-.06c-.05,0-.07.08-.12,0s.06,0,.1-.07-.15,0-.13.06-.06-.06-.08-.08,0,.05,0,.08a.63.63,0,0,0-.24-.09s0,0,0,0S51.35,54.91,51.25,54.91Z"/><path class="cls-3" d="M46.88,54.46l0,0a.05.05,0,0,1,0,0Z"/><path class="cls-3" d="M48.42,54.8v0S48.42,54.79,48.42,54.8Z"/><path class="cls-3" d="M48.82,54.74s0,0,0,.06Z"/><path class="cls-3" d="M46,54.48s0,0,0,0A0,0,0,0,0,46,54.48Z"/><path class="cls-3" d="M43.56,54h0Z"/><path class="cls-3" d="M43.67,54.11h0Z"/><path class="cls-3" d="M46.56,54.57l0,0Z"/><path class="cls-3" d="M43.73,54.09l0,0v0Z"/><path class="cls-3" d="M43.52,54l0,0S43.53,53.94,43.52,54Z"/><path class="cls-3" d="M45.06,54.4h0S45.08,54.39,45.06,54.4Z"/><polygon class="cls-3" points="43.9 54 43.91 54 43.92 53.98 43.9 54"/><path class="cls-3" d="M43.38,53.9h0Z"/><path class="cls-3" d="M44.58,54.2s0,0,0,0S44.57,54.24,44.58,54.2Z"/><circle class="cls-4" cx="90.53" cy="99.89" r="25.07"/><path class="cls-2" d="M155.43,99.69l-.92-.07a90.3,90.3,0,0,1-10.26-1.8c-2.7-.51-5.4-1-8.12-1.49-.89-.14-3.07-.87-3.94-.32-2.79,1.75,14.47,6.5,25.3,7.44,3.07.26,6.16.45,9.21,1,2.57.43,5.65.74,6.39,3.89a4.8,4.8,0,0,1-.77,3.88,2.55,2.55,0,0,1-1.06.9,3.07,3.07,0,0,1-1.08.19c-3.22.17-6.55-.08-9.77-.2-3.44-.12-6.88-.41-10.3-.84-9.09-1.14-18.67-5-18.9-3.35-.3,2.25,3.67,2.7,7.35,3.87,7,2.85,11.74,2.62,19.11,3.29a23.72,23.72,0,0,1,7.46,1.67,3.81,3.81,0,0,1,2.08,1.72,4,4,0,0,1,.33,1.41,5,5,0,0,1-.7,3.35,4.65,4.65,0,0,1-3,1.62c-3.52.66-7.42-.09-10.94-.45-3.92-.39-7.84-.87-11.73-1.51-5.71-.95-15.68-5.68-15.52-3.14.08,1.25,12,4.72,14.79,5.24,2.17.4,4.33.8,6.5,1.15,1.88.3,3.74.22,5.64.47A4.16,4.16,0,0,1,154,128a2.8,2.8,0,0,1,1,3.37,4.13,4.13,0,0,1-2.77,2.32,9.63,9.63,0,0,1-3.63.15,159.81,159.81,0,0,1-16.71-2.59c-5.23-1.1-10.22-2.7-15.57-2.88-5.19-.17-10.24-1.84-15.06-3.86-1.46-.62-2.9-1.27-4.35-1.92C93.59,121,90,119,86.46,118.29c-2.42-.45-2.46-.44-4.89-.78-7.64-1.07-16.46-15.14-9-27.92,1.4-2.41,6.14-6.8,7.29-6.73,5.41.34,7.09,1.43,11.67-2.32.51-.42,4.54-3.09,4.58-3.39a56.82,56.82,0,0,1,9.71-6.48c8.61-4.14,18.08-1.81,27.05-3.75a11,11,0,0,1,3.76-.43,3.3,3.3,0,0,1,2.86,2.22A4.22,4.22,0,0,1,138,72.55a12.84,12.84,0,0,1-5.93,3c-5.46,1.43-11.92,0-17,3a2.37,2.37,0,0,0-1.25,2c.2,3.32,10.63,4,17.49,4.92,6.18.8,12.27,2.66,18.33,4.11,7,1.67,13.75,2.19,20.67,4.35a4.74,4.74,0,0,1,3,1.85,5,5,0,0,1,.44,2.63,2.62,2.62,0,0,1-2.14,2.52c-2.51.83-5,.23-7.54,0C161.16,100.74,158.32,100,155.43,99.69Z"/><path class="cls-5" d="M104.39,89.54c-1.07,1.42-1.3,3.5-1.42,5.37-.29,4.23-.48,8.84,1.83,12.29,2.06,3.1,4.19.11,5.28-2.26a19.34,19.34,0,0,0,1.47-6.38,15.82,15.82,0,0,0,0-3.44,2.45,2.45,0,0,1,.26-1.81c.36-.41,1.08-.43,1.57-.68a5.32,5.32,0,0,0,2.26-2.22c.86-1.58.33-3.92.67-5.67.19-.92,1-1.08-.06-1.72s-2.25.64-2.81,1.35a12.35,12.35,0,0,1-1.65,2c-1.86,1.54-4.72.91-6.62,2.39A4.56,4.56,0,0,0,104.39,89.54Z"/><polygon class="cls-6" points="95.61 56.51 86.79 50.71 89.43 39.83 111.97 31.7 117.33 48.67 95.61 56.51"/><line class="cls-7" x1="72.31" y1="55.94" x2="86.79" y2="50.71"/><line class="cls-7" x1="59.69" y1="73.19" x2="67.28" y2="59.69"/><polyline class="cls-8" points="137.72 22.41 89.43 39.83 86.31 51.15"/><polyline class="cls-8" points="144.06 39.98 95.76 57.4 86.14 50.67"/><line class="cls-9" x1="136.47" y1="16.99" x2="146.85" y2="45.77"/><line class="cls-9" x1="158.6" y1="24.81" x2="115.14" y2="40.49"/><line class="cls-9" x1="111.97" y1="31.7" x2="118.3" y2="49.27"/><line class="cls-9" x1="155.43" y1="16.03" x2="161.76" y2="33.59"/></g></svg>