<svg xmlns="http://www.w3.org/2000/svg" viewBox="0 0 195 155"><defs><style>.cls-1{fill:#e9e2f0;}.cls-2{fill:#d3c5e0;}.cls-3{fill:#916fb2;}.cls-4{fill:#fff;}.cls-5,.cls-7,.cls-8{fill:none;stroke-linecap:round;stroke-linejoin:round;stroke-width:1.5px;}.cls-5{stroke:#d3c5e0;}.cls-6{fill:#6f439b;}.cls-7,.cls-8{stroke:#fff;}.cls-7{opacity:0.51;}.cls-9{fill:#6c3f99;}.cls-10{fill:#7f57a6;}</style></defs><title>disappearance</title><g id="Layer_1" data-name="Layer 1"><rect class="cls-1" x="39.34" y="11.35" width="116.33" height="132.31"/><path class="cls-2" d="M76.52,73.58h42c9.72,0,18.49,2.22,24.58,8.92a45.84,45.84,0,1,0-91.14,0C58,75.81,66.8,73.58,76.52,73.58Z"/><path class="cls-3" d="M84.68,121.52a45.81,45.81,0,0,0,58.39-39c-6.09-6.7-14.86-8.92-24.58-8.92h-42c-9.72,0-18.5,2.23-24.59,8.93A45.86,45.86,0,0,0,84.68,121.52Z"/><circle class="cls-4" cx="97.85" cy="44.05" r="24.97"/><path class="cls-5" d="M74.71,34.93a10.7,10.7,0,0,1,9.61-7.22,10.86,10.86,0,0,1,11,10.76V51.55H99"/><circle class="cls-6" cx="85.55" cy="40.45" r="2.32"/><circle class="cls-6" cx="109.18" cy="40.45" r="2.32"/><line class="cls-7" x1="82.4" y1="44.02" x2="88.7" y2="44.02"/><line class="cls-7" x1="106.46" y1="44.02" x2="112.75" y2="44.02"/><path class="cls-3" d="M105.41,19.08a21.89,21.89,0,0,0-13.58.42A22,22,0,0,0,117,27.25,21.86,21.86,0,0,0,105.41,19.08Z"/><path class="cls-8" d="M120.44,112.41a20.75,20.75,0,0,1,.17-8.45,26.75,26.75,0,0,0-1.08-14.9,24,24,0,0,0-9.06-11.39,22.16,22.16,0,0,0-15-3.61,24.44,24.44,0,0,0-17.09,10,23,23,0,0,0-3.81,8.45,30.08,30.08,0,0,1-4.32,9.29"/><path class="cls-8" d="M115.58,119.76a29,29,0,0,1,0-17.51s0-.07,0-.1a18.08,18.08,0,0,0-4.47-16,18.81,18.81,0,0,0-14.77-6c-7.39.38-12.5,4.2-15.61,11.68a1.15,1.15,0,0,0-.06.17C79,99.59,75.77,105.19,70.4,109.57"/><path class="cls-8" d="M112.45,125.85a33.18,33.18,0,0,1-2.93-7.32c-.74-3.35-1.26-11.69-.06-16.51a12.79,12.79,0,0,0-1.66-10.36l-.2-.29a12.47,12.47,0,0,0-14.13-4.54c-4.39,1.57-7.55,5.39-9.41,11.44-1.51,6.91-5.6,12.88-12.15,17.74"/><path class="cls-8" d="M82.08,131.68c9.68-4.67,18.07-16.42,22.43-31.44a7,7,0,1,0-13.44-3.78c-2.35,8.63-8.32,19.29-16.35,23.64"/><path class="cls-8" d="M95.5,99.51c-2.45,12.7-8.66,21.41-19,26.64"/><path class="cls-8" d="M108.65,130c-3.45-2.75-4.47-7.75-5-12.28a1,1,0,0,0-.88-.86,1,1,0,0,0-1,.69c-2.11,6.67-7.17,12.17-15.5,16.8"/><path class="cls-8" d="M105.26,135.08c-2.79-.53-3.34-2-4-3.69a1,1,0,0,0-1.88.15c-.46,2.31-2.37,4.13-6.18,5.9"/><path class="cls-9" d="M42.56,74.87c.45,2.66,1.91,6.06,2.5,8.43.82,3.29,1.6,6.58,2.4,9.87q2,8.34,4.06,16.66l.75,3.09a25,25,0,0,0,1.47,4.67,14.61,14.61,0,0,0,5.7,6.18c2.05,1.3,3.9,3,6,4.16-1.2-5.68-9.72-43.82-10.71-48.25,5,1.9,9.88,3.8,14.82,6,10.16,4.47,20.65,8.57,30.6,13.4-.82-1.29-1-2.84-1.71-4.18a35.55,35.55,0,0,0-3.15-4.59,21.46,21.46,0,0,0-7-5.84C77.64,78.38,67,72.29,55.92,67.91c-1-.38-1.87-.79-2.78-1.15Z"/><path class="cls-10" d="M27,58.06l0,0Z"/><path class="cls-10" d="M28,59h0Z"/><path class="cls-10" d="M26.31,57.55h0l0,0Z"/><path class="cls-10" d="M30.33,60.68h0Z"/><path class="cls-10" d="M29,59.64h0S29,59.62,29,59.64Z"/><path class="cls-10" d="M26.31,56.72v.06A.06.06,0,0,0,26.31,56.72Z"/><path class="cls-10" d="M25.51,56.45h0Z"/><path class="cls-10" d="M25.68,56.79h0S25.7,56.77,25.68,56.79Z"/><path class="cls-10" d="M25.73,56.78h0Z"/><path class="cls-10" d="M39.39,66s.06,0,.09,0Z"/><path class="cls-10" d="M32.54,62.09v0Z"/><path class="cls-10" d="M39.64,65.7v0Z"/><path class="cls-10" d="M26.75,56.85c.05,0,.06,0,.08,0S26.8,56.8,26.75,56.85Z"/><path class="cls-10" d="M33.94,60.89h0Z"/><path class="cls-10" d="M39.64,65.7l0,0v0Z"/><polygon class="cls-10" points="34.85 63.55 34.85 63.55 34.84 63.55 34.85 63.55"/><path class="cls-10" d="M34.94,63.69h0S34.92,63.7,34.94,63.69Z"/><path class="cls-10" d="M39.48,66h.05S39.5,66,39.48,66Z"/><path class="cls-10" d="M36.3,64.46h0Z"/><path class="cls-10" d="M28.88,59.56h0S28.86,59.56,28.88,59.56Z"/><polygon class="cls-10" points="30.45 59.08 30.45 59.08 30.45 59.08 30.45 59.08"/><path class="cls-10" d="M30.37,59.09s.05,0,.08,0S30.41,59.07,30.37,59.09Z"/><path class="cls-10" d="M30.54,59.16h0Z"/><polygon class="cls-10" points="29.61 58.47 29.6 58.48 29.61 58.47 29.61 58.47"/><path class="cls-10" d="M29.8,58.58a0,0,0,0,0,0,0A0,0,0,0,0,29.8,58.58Z"/><polygon class="cls-10" points="31.09 59.35 31.09 59.35 31.09 59.35 31.09 59.35"/><path class="cls-10" d="M33.12,60.2a3,3,0,0,1-.66-.3.22.22,0,0,1-.22,0l.06-.11h-.07s.05,0,0-.06l-.06.06s-.11-.11,0-.13L32,59.55s-.08.07-.11,0,0,0,.05,0-.29.11-.39,0h0s-.08,0-.09,0,.06,0,.06,0-.08,0-.12.09-.06,0-.09,0-.1-.08-.09-.17-.12.09-.17.06.05-.06,0-.12l-.05.05s0,0,0-.07-.08,0-.1,0l.06,0c-.05,0-.06,0-.11,0s0,0,0,0-.07,0-.08,0,0,0,0,.1-.1,0-.08,0l.06,0c-.08,0-.07,0-.12,0l0,0c-.08,0-.1,0-.15-.09h0s-.08,0-.09,0,0,.06,0,.12c0-.12-.13.06-.17,0s.06-.06.06,0,.13-.15.2-.17-.08,0-.05,0l-.06.07,0,0s0,.1-.08.11,0-.1,0-.06-.08.07-.12,0h0c0-.06-.11,0-.06-.16s0,0,.05,0v0c.09,0-.05,0,0-.09s-.08,0-.1,0l0,.07c-.2.13.08-.12,0-.15s0,0-.05.06,0-.1-.08-.11a.24.24,0,0,1,0-.15c-.05,0-.08-.1-.14,0s.1,0,.11.09l-.06.06s-.12,0-.13-.08,0,0,0,0-.14,0-.19,0,.06,0,.09,0,0,0-.09-.09,0,0,.08,0l-.08,0v0c-.06.09-.05,0-.1,0s-.19,0-.3.09a.2.2,0,0,1,0-.08c0,.06,0,0,0,0s0-.14,0-.16,0,.06-.06.06l-.07-.05c0,.06,0,.08-.06.09s-.05,0-.09,0,0-.08.06-.06,0-.05-.08,0-.1,0-.11.08l0-.07s0,0,0,0-.05,0-.07,0-.05-.05,0-.08-.06,0,0-.07,0,.05-.05.06l-.07,0a.74.74,0,0,1,.1-.16c-.05,0-.08.11-.12.08s0-.09.07-.16-.06-.11-.11-.11,0,0,0,.11-.23.13-.29,0v0a.17.17,0,0,0-.12,0c.06-.07.07-.24,0-.27s0,.1,0,.15l-.06,0,0,0c-.07,0,0-.16-.1-.07l0-.15v.06s-.09,0-.11,0-.08,0-.08-.1,0,.12-.08.11-.06-.1,0-.17,0-.06-.05,0l.05-.08c-.07.11-.13.06-.19,0,.1-.14-.06,0,0-.17-.07.1-.11,0-.17.07s0-.11,0-.15l0,0c0-.06-.06-.11-.08-.17l-.09.07v0s-.06,0-.06,0h0c-.06.09,0,0-.11,0a.09.09,0,0,1,0,0s0-.06,0-.1-.18.13-.15.21-.07,0-.08,0l0-.09-.08.08s0-.07,0-.1.16-.13.09-.17.09,0,.12,0,0,0,0-.05-.05,0-.11,0,0-.11,0-.16v.08h0s0,0,0,.06-.12.06-.1,0c0,.15-.15,0-.16.13s-.06,0,0,0,0-.11.06-.16,0,.08,0,.09,0-.07,0-.1h0l0-.06s0,.09-.05.09,0,0,0-.06.08-.12.12-.11-.11-.06-.13,0l0,0s0,.14-.05.11h0l-.08,0v0a0,0,0,0,1,0,0s0,0,0-.08-.07,0-.09,0,0,0,0-.07-.1-.06-.1-.12,0,0-.06.06c0-.16-.13-.16-.22-.19,0,.13,0,0-.11.1s0-.14.07-.13h-.05c0-.08.1,0,.11-.12s-.16.08-.19,0-.06,0,0-.08,0,0,.06,0v0c-.09-.09-.09.08-.18.1s0-.1,0-.14,0,0-.07,0,0,.1,0,.14-.09-.06-.13,0,.06.05.08.21c0,0,.08-.11.11,0s0,0,0,.07,0,0,.08,0-.1.1-.06.15l.08-.11s-.06.08,0,.08-.05.1-.12.08c0,.14.14,0,.22,0l0,0s.05,0,.07,0-.06,0-.08.07l.06,0h0s.05,0,0,0l-.1.08.11,0s0,.1-.05.1l.1,0,0,.08s0,0,0,0,.22-.05.11.09c.11,0,.12,0,.23,0-.11,0,0,.13-.07.12s.08,0,.12,0a.14.14,0,0,1-.1.13h.05l.06,0c0,.06,0,.08,0,.12l0-.07v.06s0,0,.07,0v0h0c-.06,0,0,0,0,.08s0,0,.09,0l0,0c.09,0,0,.07,0,.11l0-.06c0,.14.16,0,.17.13s-.07.06-.06,0,.13.07.22,0,0,.12,0,.18,0,0,.09,0,.11,0,.08.11,0,0,.07,0v0L27,58c0,.16.15,0,.15.14h0l-.05.06.12.09v-.06s.08,0,.09,0,0,0,0,.09h0s0,0,.07,0,0,.12.05.09l0,0s.06-.07.08,0,0,0,0,0,.09.06.12,0a.06.06,0,0,1,0,.07c.11,0,0,0,.14,0l0,0,0,0v.09l0,0s.05,0,.07,0l0,0c.09,0,0,.13.15.11l0,0c.11,0,0,.11.12.06L28,59H28L28,59l.08-.07,0,.07,0,0c0,.14.06.08.05.19l0-.08c.21-.09.2.25.38.26l0,.06.1,0c0,.07-.05,0-.06.08s.08-.08.16-.05,0,0-.07.05.2,0,.22.1l0,0c.06,0,.1.07.14.09s0,0,0,0,0,0,.05,0l-.05.05s.13,0,.1.09,0-.07.07,0,.11,0,.13.1-.06,0-.05,0,.06,0,.1,0l0,0,.15,0c0,.1.12.05.07.11s0-.06,0,0,.06,0,0,.07h0l0,0-.06,0s.1,0,.13-.08.07.05.05.11h0c.1,0,0,.25.17.19s0,0,0,0l.05,0,0,0,.13,0,0,0a1.16,1.16,0,0,0,.22.13h0c.11,0,.06.08.14.08h0l.05,0,0,0c.08,0,.06.15.07.08a.22.22,0,0,0,.13-.06c.06,0,0,.05,0,.1s.08,0,.12,0l0,0s.06,0,.1,0h0c.1,0,0,.13.15,0s.07,0,0,.11l.26,0c-.05.11,0,0,0,.09l0-.06c.11.06.15.27.27.32l0,0,.06,0a4.16,4.16,0,0,0,.36.29c.05,0,.14,0,.18,0h0a.57.57,0,0,1,.3.15s0,0,0,0,.06,0,.08.05V62c.06,0,.07,0,.06.08l.08,0a0,0,0,0,1,0,0l0,0,0,.08a.21.21,0,0,0,.15,0s0,.07,0,.06l.15.12v0s.1-.06.11,0,0,.08-.06.13,0-.06,0-.09.12,0,.12,0h0s0,.11,0,.12.06,0,.12-.06,0,.07,0,.09.1,0,.08.1c.11-.12.1.12.18,0v.09s.07-.1.11-.09,0,.1,0,.14l.09-.1c.1.23.38.29.51.51a.7.7,0,0,1,.33.12h0l.07.1,0-.1h.08a.54.54,0,0,0,.35.29c.17-.08,0,.15.13.11,0,0,0,0,0,0a1.07,1.07,0,0,0,.31,0c-.09.12.06,0,0,.1l0,0s0,.08,0,.12l.08,0,0,.06s.19.06.15.19a.91.91,0,0,1,.51.27s.1,0,.14,0v.09c.05,0,.14-.05.15,0a0,0,0,0,1,0,0s.06.06.13,0a.09.09,0,0,1,0,.14c.07-.11.08.07.08.07s2,1.6,2.87,1.34c0,0,.12-.05.14-.12s0,.11,0,.06.1-.13.09-.23h0s-.07,0,0-.05l-.07.1a.17.17,0,0,1,0-.1s-.15.14-.17.05h0s0-.08,0-.1h0v-.08s.11,0,.08,0,0,0-.05,0,0-.06,0-.09l0,0s0,0,0,0h-.09c.06-.12-.1,0-.06-.11s0,0,0-.08l-.11,0s0,0,0,0-.05,0-.06,0-.08,0,0-.12-.09.08-.13,0,.06,0,.06,0l-.08,0s.07-.06.09,0c-.15-.18-.1-.48-.31-.53,0-.07,0,0,.08,0-.17,0-.1-.23-.21-.29l0,0c0-.24-.28-.26-.41-.43v0s-.09,0-.13,0,.08-.08,0-.09,0,0,0,.07c-.07-.21-.39-.37-.59-.57s-.62-.46-1-.63c.05,0,0,.13-.06.08,0-.25-.19-.07-.21-.27-.22-.05-.27-.32-.53-.27l0-.06s0,0-.07,0h0c0-.06-.16-.05-.18-.1l0,.06s0-.06,0-.05l0,0-.08,0c.07-.1-.1-.07-.1-.14a.4.4,0,0,1-.24-.09c0-.06-.07-.11-.11-.18a1.66,1.66,0,0,1-.42-.24l0,.07,0,0,0,0c0-.09-.1,0-.09-.09s0,0,0,0-.06.1-.08,0v0l0,0s0-.09.06-.15c-.13-.06-.27,0-.38-.12,0-.06-.1,0,0-.13-.1,0,0,.09-.12.14s-.06,0,0,0,0-.07,0-.07l0,0,0,0c-.14,0-.14-.18-.27-.17s0,0,0,.06,0-.12-.16-.12l0,0s-.09.06-.11,0,.07,0,.11,0-.12-.06-.13,0,0-.06,0-.09,0,.06,0,.08a.44.44,0,0,0-.17-.16l0,0C33.1,60.36,33.2,60.23,33.12,60.2Z"/><path class="cls-10" d="M29.59,58.45v0a.11.11,0,0,1,0,0Z"/><path class="cls-10" d="M30.76,59.23h0Z"/><path class="cls-10" d="M31.12,59.3s0,0,0,.05Z"/><path class="cls-10" d="M28.81,58.19l0,0Z"/><path class="cls-10" d="M27,57h0Z"/><path class="cls-10" d="M27,57.14h0Z"/><path class="cls-10" d="M29.27,58.45h0S29.28,58.44,29.27,58.45Z"/><path class="cls-10" d="M27.06,57.14l0,0v0Z"/><path class="cls-10" d="M26.93,57l0,0S27,57,26.93,57Z"/><path class="cls-10" d="M28.07,57.84Z"/><polygon class="cls-10" points="27.24 57.11 27.24 57.11 27.26 57.1 27.24 57.11"/><path class="cls-10" d="M26.83,56.86h0Z"/><path class="cls-10" d="M27.74,57.5l0,0S27.72,57.54,27.74,57.5Z"/><path class="cls-10" d="M18.44,73.34s0,0,0,0A0,0,0,0,0,18.44,73.34Z"/><path class="cls-10" d="M20.14,73.65h0Z"/><path class="cls-10" d="M17.42,73.19h-.07Z"/><path class="cls-10" d="M23.78,74.09h0Z"/><path class="cls-10" d="M21.62,73.81l0,0S21.63,73.79,21.62,73.81Z"/><path class="cls-10" d="M16.92,72.46l0,.05S16.93,72.46,16.92,72.46Z"/><path class="cls-10" d="M15.86,72.59h0Z"/><path class="cls-10" d="M16.26,72.8l0,0S16.26,72.78,16.26,72.8Z"/><path class="cls-10" d="M16.3,72.77h0S16.3,72.78,16.3,72.77Z"/><path class="cls-10" d="M37.06,74.61s.06,0,.09,0Z"/><path class="cls-10" d="M27.09,74.31v0Z"/><path class="cls-10" d="M37.13,74.2h0Z"/><path class="cls-10" d="M17.47,72.36s.09,0,.1,0S17.49,72.3,17.47,72.36Z"/><path class="cls-10" d="M27.89,72.59h0Z"/><path class="cls-10" d="M37.13,74.2h0v0Z"/><polygon class="cls-10" points="30.53 74.53 30.53 74.53 30.52 74.53 30.53 74.53"/><path class="cls-10" d="M30.71,74.61h0S30.7,74.62,30.71,74.61Z"/><path class="cls-10" d="M37.15,74.56l.05,0Z"/><path class="cls-10" d="M32.68,74.66h0Z"/><path class="cls-10" d="M21.49,73.78l0,0S21.47,73.78,21.49,73.78Z"/><polygon class="cls-10" points="22.92 72.61 22.92 72.61 22.92 72.61 22.92 72.61"/><path class="cls-10" d="M22.84,72.67s.06,0,.08-.06S22.87,72.62,22.84,72.67Z"/><path class="cls-10" d="M23.07,72.65h0Z"/><polygon class="cls-10" points="21.62 72.47 21.62 72.47 21.62 72.47 21.62 72.47"/><path class="cls-10" d="M21.91,72.48v0A0,0,0,0,0,21.91,72.48Z"/><polygon class="cls-10" points="23.8 72.56 23.8 72.56 23.8 72.56 23.8 72.56"/><path class="cls-10" d="M26.55,72.37a5.59,5.59,0,0,1-.91,0c-.06.09-.15.09-.23.11v-.13l-.07,0s.06,0,0-.08l0,.08s-.18,0-.05-.12l-.28,0c-.06,0,0,.1-.11.07s0,0,0-.07c-.2-.11-.25.23-.44.16h0s-.1,0-.1,0,0-.07.09,0-.07.06-.08.14-.07,0-.11,0-.16,0-.2-.12-.08.14-.15.14,0-.08-.05-.12l0,.07c-.05,0,0,0,0-.06s-.05.08-.13,0l0-.06a.29.29,0,0,1-.16,0s0,0,.06,0-.08,0-.1,0,.06,0,0,.1-.09.08-.11,0l0-.06c-.09,0,0,.08-.14,0v0c-.06.08-.13,0-.22,0h0s-.06.07-.08.07,0,0,0,.11c-.06-.1-.11.12-.21,0s0-.08.06,0,.05-.19.12-.24-.09,0-.08,0l0,.1h-.06c0,.06,0,.11,0,.15s0-.11,0-.06,0,.1-.12.06,0,0,0,0-.15,0-.16-.11,0-.06,0,0v0c.08-.09-.05,0,0-.09,0,.06-.08,0-.12,0v.07c-.14.21,0-.14-.11-.12s0,0,0,.07-.07-.08-.15,0a.27.27,0,0,1-.07-.16s-.14,0-.17,0,.08-.08.17,0l0,.07c-.06,0-.15,0-.2,0s0,0,0,0-.13.11-.22.08.05-.06.08-.06-.06,0-.15,0,.06,0,.08-.06l-.11,0v0c0,.11-.08,0-.15,0s-.18.13-.26.21a.09.09,0,0,1,0-.08s0,0,0,0-.11-.11-.08-.15,0,.06,0,.09H21s0,.07,0,.1-.07,0-.13,0,0-.09,0-.08-.08,0-.1,0-.11,0-.07.13l-.06,0s0,0,0,0-.06,0-.08,0-.09,0-.09-.06-.07,0-.08,0,0,0,0,.08h-.1c0-.05,0-.18,0-.19s0,.13-.09.12-.08-.07,0-.17-.13-.07-.19,0,.06,0,.05.11c-.16,0-.18.22-.29.17l0,0c-.08,0-.07,0-.11.08s-.07-.24-.19-.23.06.09,0,.16h-.08s0,0,0,0-.12-.13-.15,0l-.06-.14,0,.06s-.1,0-.11.07-.11,0-.16-.06.05.12,0,.13c0-.14-.13-.06-.12-.13s-.07-.05-.08,0v-.09c0,.13-.1.11-.17.13,0-.17-.08,0-.11-.15,0,.12-.13,0-.14.14s-.05-.1-.06-.14l0,0c0-.06-.12-.07-.18-.11l-.07.1,0,0s-.05,0,0,.08h0c0,.11,0,0-.11.07a.07.07,0,0,1,0-.06s0-.06,0-.1-.12.2,0,.25-.05.08-.08.06v-.1l0,.1c-.05,0-.07,0-.11-.07s.1-.19,0-.19c.06,0,.08-.06.11-.08s0,0,0-.06,0,.06-.11.07a.13.13,0,0,0-.08-.16l.05.07v0s0,0,0,.06-.09.1-.1.05c.07.14-.15.1-.1.19s-.07,0-.07,0,0-.11,0-.17.05.07,0,.1-.06,0-.08-.08v0l-.05,0s.05.08,0,.1-.07,0-.06,0,0-.14.06-.15-.16,0-.12.09H17s.11.11,0,.12v0l-.07.06,0,0s0,0,0,0,0,0,0-.08-.07,0-.08.07-.05,0,0-.07-.15,0-.18,0,0,0,0,.07c-.06-.16-.24-.07-.36-.06,0,.14,0,0-.06.14,0,0-.1-.11,0-.15l-.06,0c0-.08.11-.06.05-.16s-.13.15-.21.09-.06,0,0-.08,0,0,.07,0l0,0c-.15,0,0,.12-.13.18s-.07-.08-.07-.13a.07.07,0,0,0-.09,0c.06-.06.1.07.07.13,0-.12-.14,0-.17,0,.13.13.1,0,.21.14,0,0,0-.13.1-.08s0,0,0,.07.06,0,.08,0,0,.13,0,.15l0-.13s0,.1,0,.07,0,.11-.08.13c.1.12.16-.06.24-.1s0,0,0,0,.05,0,.07,0-.05,0,0,.09h.08s.05,0,.06,0a.45.45,0,0,0-.06.12l.09-.09s.07.08,0,.11h.13V73s0,0,0,0,.21-.15.18,0c.11-.07.15,0,.27-.08-.1.08.11.11,0,.15.06,0,.08-.06.13-.07a.11.11,0,0,1,0,.16l.06,0v0l.06,0s0,.09,0,.11l0-.08,0,0s0,0,.06-.06v0h0s.05,0,0,.07h.12v-.06c.09,0,0,.09.07.09v-.06c.11.11.19-.05.27,0s0,.08,0,.06.19,0,.27-.06c0,.09,0,.12.1.16s.06,0,.09-.06.15,0,.15.06,0,0,.08,0v0c.09.15.17-.07.25.06v0l0,0a.45.45,0,0,1,0,.08l.19,0,0-.05s.07-.07.12,0,.06,0,.07.08l-.05,0c.06,0,.06,0,.06-.07s0,.13.11.06h0a.08.08,0,0,1,.06-.09s0,0,0,0,.14,0,.17,0,0,.07,0,.08,0,0,.17,0v0l0,0,.06.08,0,0s.06,0,.11,0l0,.06c.11,0,.12.09.23,0s0,0,0,0,.07.1.17,0,0,0,0,.06l.05,0v.07l0-.11,0,.08,0,0c0,.14.12,0,.18.14v-.09c.18-.18.37.13.57,0v.08l.08-.08c0,.06,0,.06,0,.09s0-.1.14-.11,0,.05-.05.07a.49.49,0,0,1,.31,0s0,0,0,0,.15,0,.22,0,0,0,0,0,.06,0,.09,0l0,.06c.05,0,.16,0,.16,0s0-.08.05-.08.13,0,.2,0-.06,0-.05,0,.07,0,.11-.05v0l.17,0c0,.11.17,0,.15.07s0,0,0-.06.08,0,.07.05h.05l0,.07s.08-.08.09-.14.11,0,.12.08v0c.12,0,.19.21.3.09s0,0,0,0h.08l0,0,.13-.08v0a1.14,1.14,0,0,0,.32,0v0c.12,0,.11,0,.2,0a0,0,0,0,1,0,0h.08l0,0c.06-.08.16.11.13,0s.09-.07.1-.11,0,0,.07.08.08,0,.16,0v0a.35.35,0,0,1,.12,0h0c.1-.07.11.12.19,0,0,0,.11,0,.1.09a1.77,1.77,0,0,1,.31-.08c0,.12,0,0,.09.06v-.06c.15,0,.32.17.5.15v.07l0-.07a4.44,4.44,0,0,0,.57.09c.05,0,.13-.11.2-.08h0a.79.79,0,0,1,.43,0s0,0,0,.06.09,0,.12,0l0,0c0-.05.1,0,.12.06l.07-.07s0,0,0,0v0l0,.08s.11,0,.14-.11.06,0,0,.07l.24,0,0,0c0-.06.07-.1.11-.07s0,.09,0,.14,0-.06,0-.09.13-.06.15,0l0,0c.05,0,.07.09.13.09s.08,0,.08-.11,0,.07,0,.09.14,0,.15,0c.05-.16.19.07.21-.06l.05.08s0-.12.07-.13,0,.1,0,.14l0-.13c.25.16.59.08.87.21a1.27,1.27,0,0,1,.44,0h0l.14.05-.1-.07s.06,0,.09,0a.91.91,0,0,0,.57.08c.14-.14.08.15.21,0s0,0,0,0a1.26,1.26,0,0,0,.34-.15c0,.15.09,0,.07.08l0-.06s.09.06.08.1l.06-.07v.06c.07,0,.24,0,.28.1a1.5,1.5,0,0,1,.73,0,.19.19,0,0,1,.16,0l.06.08c.06,0,.12-.12.17-.06a0,0,0,0,1,0,0c.06,0,.11,0,.17,0s.12,0,.1.12c0-.13.13,0,.13,0s3.17.49,4-.16c0-.06.11-.09.09-.17s.07.09.09,0,0-.16,0-.24h0s-.07,0,0,0l0,.12a.13.13,0,0,1-.07-.09c0,.05-.07.2-.16.13h0c-.07,0,0-.07,0-.09h0l0-.06s.12-.05.08-.05,0,0,0,0,0,0,0-.09h-.07s.05,0,0,0l-.09,0c0-.14-.1.06-.13-.07s0-.05,0-.09h-.16s.05,0,0,0,0,0-.06,0-.12,0-.11-.09,0,.11-.15.05.08,0,0-.07l-.1,0s0-.09.06-.08c-.27-.08-.41-.38-.66-.32,0-.07,0,0,0-.09-.19.08-.25-.16-.4-.16v.06c-.21-.18-.48-.1-.72-.18l0,0s-.09,0-.13.07,0-.11,0-.09,0,0,0,.06a3.81,3.81,0,0,0-1-.23c-.48,0-1-.12-1.44-.11.07,0,0,.13,0,.1-.13-.24-.25,0-.39-.14-.28,0-.5-.16-.76,0v-.06s-.05,0-.09,0v0c-.09,0-.21,0-.26,0v.08c-.05,0,0-.06-.08,0v0l-.07.06c0-.12-.15,0-.19-.07a.79.79,0,0,1-.32,0c0-.07-.15-.07-.23-.11a3.21,3.21,0,0,1-.61,0v.08h-.06s0,0,0,0-.13,0-.17,0,0,0,.07,0,0,.11-.06.07v0l-.05,0c0-.06,0-.09,0-.16-.18,0-.31.11-.5.07,0-.07-.13,0-.09-.11-.11,0,0,.1,0,.18s-.07,0-.07,0,0-.08,0-.09h-.08s0,0,0,0c-.15.06-.26-.1-.4,0s.05,0,0,.06-.12-.09-.25,0l0-.06s-.07.09-.13,0,.06-.06.1-.09-.17,0-.14.07-.07,0-.1-.06.05.05,0,.08a.64.64,0,0,0-.28-.06s0,0,0-.06S26.65,72.35,26.55,72.37Z"/><path class="cls-10" d="M21.58,72.46h0a.06.06,0,0,1,0,0Z"/><path class="cls-10" d="M23.35,72.6h0Z"/><path class="cls-10" d="M23.79,72.5s0,0,0,.06A.13.13,0,0,0,23.79,72.5Z"/><path class="cls-10" d="M20.56,72.59s0,0,0,0A0,0,0,0,0,20.56,72.59Z"/><path class="cls-10" d="M17.78,72.38h0A0,0,0,0,0,17.78,72.38Z"/><path class="cls-10" d="M17.93,72.5h0Z"/><path class="cls-10" d="M21.24,72.6s0,0,0,0S21.24,72.59,21.24,72.6Z"/><path class="cls-10" d="M18,72.48h0Z"/><path class="cls-10" d="M17.73,72.37h.05S17.75,72.36,17.73,72.37Z"/><path class="cls-10" d="M19.53,72.63h0Z"/><polygon class="cls-10" points="18.17 72.36 18.18 72.37 18.19 72.35 18.17 72.36"/><path class="cls-10" d="M17.57,72.33h0Z"/><path class="cls-10" d="M19,72.48s0,0,0,.06S19,72.53,19,72.48Z"/><path class="cls-10" d="M26.16,92.37a0,0,0,0,1,0,0A0,0,0,0,0,26.16,92.37Z"/><path class="cls-10" d="M27.35,91.73v0Z"/><path class="cls-10" d="M25.46,92.78h0l-.05,0Z"/><path class="cls-10" d="M29.77,90.2h0Z"/><path class="cls-10" d="M28.32,91.09a0,0,0,0,1,0,0S28.31,91.07,28.32,91.09Z"/><path class="cls-10" d="M24.7,92.47l.05,0S24.71,92.46,24.7,92.47Z"/><path class="cls-10" d="M24.17,93.11h0Z"/><path class="cls-10" d="M24.54,93.07v0A0,0,0,0,0,24.54,93.07Z"/><path class="cls-10" d="M24.54,93h0S24.55,93,24.54,93Z"/><path class="cls-10" d="M37.89,83.77s0,0,0-.09Z"/><path class="cls-10" d="M31.85,88.67v0Z"/><path class="cls-10" d="M37.67,83.43h0S37.67,83.42,37.67,83.43Z"/><path class="cls-10" d="M25,92.11s.06,0,0-.07S24.94,92.05,25,92.11Z"/><path class="cls-10" d="M31.22,86.93h0A0,0,0,0,0,31.22,86.93Z"/><path class="cls-10" d="M37.67,83.43h0Z"/><path class="cls-10" d="M34,87.06Z"/><path class="cls-10" d="M34.16,87v0S34.17,87.05,34.16,87Z"/><path class="cls-10" d="M37.91,83.68v-.05S37.9,83.66,37.91,83.68Z"/><path class="cls-10" d="M35.35,86.06h0Z"/><path class="cls-10" d="M28.22,91.13h0S28.22,91.15,28.22,91.13Z"/><polygon class="cls-10" points="28.32 89.5 28.32 89.5 28.32 89.5 28.32 89.5"/><path class="cls-10" d="M28.31,89.58s0,0,0-.08S28.3,89.53,28.31,89.58Z"/><path class="cls-10" d="M28.43,89.45h0Z"/><polygon class="cls-10" points="27.47 90.06 27.47 90.07 27.47 90.06 27.47 90.06"/><path class="cls-10" d="M27.64,89.92h0Z"/><polygon class="cls-10" points="28.8 89 28.8 89.01 28.8 89.01 28.8 89"/><path class="cls-10" d="M30.29,87.45a3,3,0,0,1-.5.5c0,.1,0,.14-.07.2l-.08-.1,0,.07c-.05,0,0,0-.05-.06l0,.08s-.14.06-.12-.07l-.17.13s0,.1,0,.11,0,0,0-.06c-.19,0,0,.3-.16.35v0s0,.07,0,.08,0-.07.06,0,0,.08,0,.15,0,0-.05.07-.11.06-.19,0,0,.14,0,.18,0-.07-.11-.06l0,0c-.05,0-.05,0-.07,0s0,.09-.05.09V89s0,0-.09.08,0,0,0,0,0,.07,0,.07.06,0,.08.06,0,.11-.06.06V89.2c0,.07,0,.08-.05.1l0,0c0,.09-.08.07-.14.11v0s0,.08,0,.09.06,0,.1.07c-.11,0,0,.15-.1.15s0-.08,0-.06-.09-.18-.08-.25,0,.07-.05,0l.05.09,0,0c0,.06.09.06.08.12s-.08-.06-.06,0,0,.1,0,.11,0,0,0,0-.08.09-.16,0,0-.05,0-.06v0c0-.1,0,0-.08,0s0,.08,0,.08l0,.06c.06.23-.08-.12-.14,0s0,0,0,.07-.09,0-.12,0a.23.23,0,0,1-.14-.09s-.11,0-.08.12,0-.11.12-.07l0,.08c-.05,0-.08.1-.12.1s0,0,0,0,0,.14-.08.17,0-.07,0-.1,0,0-.11,0,0,0,0-.08l-.05.07h0c.05.09-.06,0-.08.08s0,.19,0,.3a.09.09,0,0,1-.06-.06c.05,0,0,0,0,0s-.13,0-.14-.08,0,0,0,.08l-.07,0s.07,0,.06.09,0,0-.08.06-.06-.06,0-.08-.07,0,0,.07-.05.09,0,.13H27s0,0,0,0,0,0,0,.06-.06,0-.09,0,0,0-.07,0,0,0,0,.07l-.07,0a.63.63,0,0,1-.11-.15s.07.12,0,.14-.1,0-.13-.12a.1.1,0,0,0-.14,0c0,.08.06,0,.1.07s0,.26-.06.28h0a.2.2,0,0,0,0,.13c0-.08-.19-.16-.26-.09s.1,0,.13.11l0,.05a.05.05,0,0,1,0,0c0,.06-.15,0-.1.06l-.12-.07.05,0s0,.09,0,.11-.06.06-.12,0,.1.07.07.11c-.09-.11-.12,0-.16,0s-.07,0,0,.05l0-.08c.07.11,0,.15,0,.2-.09-.15,0,0-.15-.06.06.1-.05.09,0,.18s-.1-.06-.13-.08v0s-.12,0-.18,0l0,.11,0,0s0,.06,0,.08h0c.06.09,0,0,0,.11a.07.07,0,0,1,0,0s0,0-.08-.06.06.21.14.22,0,.08,0,.08l-.07-.07,0,.1s-.07,0-.1,0-.07-.2-.13-.15,0-.09,0-.12,0,0,0,0,0,.07,0,.11S25,92,24.93,92L25,92s0,0,0,0,0,0,0,0,0,.13,0,.09c.13.08,0,.16.06.2s0,0-.05,0-.09-.06-.12-.11.07,0,.07.07-.07,0-.1,0v0h-.07s.09,0,.07.08-.05,0-.07,0-.08-.12-.06-.15-.09.09,0,.13l0,0s.13,0,.08.09v.07l0,0s0,0,0,.05,0,0-.06,0,0,.07,0,.09,0,0-.06,0-.09.07-.15,0,0,0,0,.08c-.13-.1-.18.06-.24.14.1.09,0,0,.05.13,0,0-.13,0-.09-.11l0,0c-.08,0,0-.09-.08-.14s0,.17-.06.17,0,.06-.07,0,0,0,0-.05h0c-.11,0,0,.11,0,.2s-.09,0-.12-.06,0,0,0,.06.1,0,.12.06-.09.06-.08.11.06,0,.21,0c0,0-.07-.12,0-.12s0,0,.06,0,0,0,0-.07,0,.13.11.11L24.23,93s.05.09.07,0,.07.08,0,.14c.13,0,.06-.12.08-.2s0,0,0,0,0-.05,0-.07,0,.07,0,.09l.06,0h0s0,0,0,0,0,.09,0,.13V93s.09,0,.07.08l.07-.07.06.06s0,0,0,0,0-.22.13-.07c0-.11.06-.1.11-.2,0,.12.13,0,.09.12s0-.09,0-.12a.13.13,0,0,1,.09.14v-.11c.06,0,.06.07.1,0l0-.07.05,0s0,0,0-.07h0l0,0c0,.06,0,0,.06,0a.17.17,0,0,0,.06-.06l0,0c0-.08.06.06.11,0l0,0c.13,0,.08-.14.17-.12s0,.09,0,.07.11-.09.11-.19c.08.06.1.08.17.08s0,0,0-.09.08-.09.13,0,0,0,0-.07l0,0,0,0c.15.07.05-.14.19-.08v0s0,0,0,.07l.12-.08-.05,0s0-.08.05-.07,0,0,.1,0v0s0,0,0-.08.11.08.11,0l0,0s0-.08,0-.09,0,0,0,0,.09-.06.09-.09.05,0,.05.06,0,0,.08-.11l0,0v-.06l.09,0,0,0s0,0,.06-.06l0,0c.05-.07.13,0,.15-.1a.06.06,0,0,1,0,0c0-.11.11,0,.11-.09s0,0,0,0v0l0,.06,0-.1.06,0v0c.11.09.09,0,.19,0l-.06-.06c0-.23.3-.1.37-.26l0,.06V91.3c.07,0,0,.07.06.09s-.05-.1,0-.17,0,0,0,.09.1-.18.17-.18,0,0,0,0,.09-.07.13-.1,0,0,0,0,.05,0,.05,0l0,.06s.07-.11.12-.06-.05-.06,0-.08.05-.1.13-.09,0,.06,0,.05,0-.05,0-.09l0,0,.08-.13c.08.08.09-.09.13,0s-.06,0,0-.06,0,0,.07,0v0l0,0,0,.07a.17.17,0,0,0,0-.15c.05,0,.07,0,.12,0v0c.07-.08.25.06.24-.08a0,0,0,0,1,0,0l.05,0,0,0,0-.12,0,0a1,1,0,0,0,.19-.17v0c0-.1.09,0,.12-.1a0,0,0,0,1,0,0l.05,0v0c0-.09.16,0,.1,0a.37.37,0,0,0,0-.15s0,0,.09,0,0-.08.08-.1l0,0s0,0,.06-.08v0c0-.1.13,0,.08-.13,0,0,.07,0,.11,0a1.71,1.71,0,0,1,.13-.23c.09.09,0,0,.1,0l0,0c.09-.08.3,0,.39-.14l0,0,0-.07a3.36,3.36,0,0,0,.39-.23c0-.05,0-.14.07-.16h0a.49.49,0,0,1,.25-.22s0,0,0,.06.05,0,.07-.06l-.05,0c0-.07.06-.05.1,0v-.09l0,0,0,0,.07.06s.05-.08,0-.16.08,0,.06,0l.16-.09h0s0-.11,0-.11,0,.08.09.11-.05,0-.06-.07,0-.11.07-.1v0s.11,0,.14,0,0,0,0-.12.06,0,.08,0,.07-.08.11,0c-.07-.15.16,0,.08-.16l.09,0s-.07-.1,0-.14.08.07.11.09l-.06-.12c.24,0,.4-.24.64-.28.07-.08.13-.21.23-.26v0l.11,0h-.1s0-.06,0-.07a.54.54,0,0,0,.39-.23c0-.18.14.07.15-.07a.43.43,0,0,1,0,.05,1.1,1.1,0,0,0,.11-.29c.08.12,0,0,.09,0l0,0s.09,0,.12,0v-.09l0,0c.05,0,.12-.15.22-.07.06-.16.27-.28.43-.38,0-.05,0-.09.07-.12l.08,0s0-.15.06-.13,0,0,0,0,.08,0,.07-.12a.1.1,0,0,1,.14,0c-.08-.11.09,0,.09,0s2.17-1.25,2.24-2.17c0-.06,0-.12-.06-.17s.1,0,.07,0-.08-.14-.17-.17l0,0s0,.07,0,0l.06.1s-.06,0-.1,0,.09.19,0,.18v0s-.07,0-.09,0h0l-.07,0c.05,0,0-.1,0-.08s0,0,0,.06-.05,0-.07-.07l0,0s0,0,0,0l0,.09c-.09-.1,0,.1-.12,0s0,0,0-.07l-.09.08s0-.06,0,0,0,0,0,.06-.08,0-.13,0,0,.11-.05.12,0,0,0-.08l-.05.07s0-.08,0-.09c-.22.07-.49-.09-.6.09-.06,0,0-.05,0-.1-.06.16-.25,0-.34.09l0,0c-.24,0-.34.18-.53.24h0c0,.06,0,.09,0,.13s-.06-.11-.09-.06.06,0,.07,0c-.22,0-.48.22-.73.33s-.65.41-.92.65c0,0,.1.09,0,.09-.23-.12-.13.15-.32.09-.12.19-.39.14-.44.4l0,0s0,0,0,.06v0c-.08,0-.11.13-.16.13l0,.06s-.05,0-.06,0l0,0v.09c-.07-.11-.1.06-.16,0s-.08.15-.17.18-.13,0-.2,0a2.3,2.3,0,0,1-.37.3l.05.06,0,0s0,0,0,0-.06.08-.13.06,0,0,0,0,.08.1,0,.09h0v.05c0-.05-.08-.05-.12-.1-.1.1-.11.24-.25.3s-.07.08-.12,0c0,.09.07.08.09.17s0,.06-.05,0-.06,0-.05-.07l0,0s0,0,0,0-.22.06-.26.18,0,0,.06,0-.12,0-.16.1l0-.06s0,.1-.05.1,0-.08,0-.12-.1.09,0,.12-.08,0-.11,0,.06,0,.06,0a.54.54,0,0,0-.2.1s0,0,0,0S30.35,87.38,30.29,87.45Z"/><path class="cls-10" d="M27.44,90.07h0a.08.08,0,0,1,0,0Z"/><path class="cls-10" d="M28.57,89.27v0A0,0,0,0,0,28.57,89.27Z"/><path class="cls-10" d="M28.76,89s0,0,0,0A.08.08,0,0,0,28.76,89Z"/><path class="cls-10" d="M26.92,90.7a0,0,0,0,0,0,0S26.92,90.69,26.92,90.7Z"/><path class="cls-10" d="M25.16,92h0A0,0,0,0,0,25.16,92Z"/><path class="cls-10" d="M25.32,92s0,0,0,0A0,0,0,0,0,25.32,92Z"/><path class="cls-10" d="M27.33,90.36s0,0,0,0S27.33,90.35,27.33,90.36Z"/><path class="cls-10" d="M25.35,91.93h0Z"/><path class="cls-10" d="M25.12,92l0,0S25.13,92,25.12,92Z"/><path class="cls-10" d="M26.34,91.25h0S26.34,91.23,26.34,91.25Z"/><polygon class="cls-10" points="25.38 91.75 25.38 91.75 25.38 91.73 25.38 91.75"/><path class="cls-10" d="M25,92s0,0,0,0h0Z"/><path class="cls-10" d="M25.91,91.44l0,0S25.94,91.47,25.91,91.44Z"/><path class="cls-9" d="M62.32,47.62c-.74-.7-1.45-1.43-2.16-2.1,0-.68.05-1.36.07-2a55.73,55.73,0,0,1,.75-9c.94-4.74,3.1-.46,5.94.64,4.18,1.69,8.44,1.19,10.62-3.24,2.7-5.49,1.78-13.62-2.47-18.13S63,7.62,59.89,14.11c-2,4.22-1.94,10.35-2.77,15.22-.39,2.28-.84,4.71-1.37,7-.31,1.36-.79,5.88-2.29,6.06L48.6,43,32.9,27.48C27.48,22,12.74,16.74,11.21,28.64c-.4,3.15.91,6.27,2.56,9,2,3.31,4,7.35,6.75,10.08,4.59,4.57,16.58,6.67,19.89,1.65,1.1-1.67.92-4,1-6.07,0,.77,5,4.93,5.52,5.45l.41.4c-.57,2.63-.47,6.33-.81,8.75m16.13-37a5.52,5.52,0,0,1,2.14-4.46c1.74-1.26,4.28-.74,5.95.61a10,10,0,0,1,3.73,8.89c-.57,3.59-3.66,5.69-6.7,4.39C64.89,29.07,62.52,24.61,62.65,20.87ZM23.9,42.64c-3.07-2.33-8.23-8.58-6.33-12.76a4.42,4.42,0,0,1,.51-.89c2.9-4,9.68.82,12.34,3.38s8.69,9,6.83,12.07S29.86,47.16,23.9,42.64Z"/></g></svg>