<svg xmlns="http://www.w3.org/2000/svg" viewBox="0 0 195 155"><defs><style>.cls-1{fill:#bee5f6;}.cls-2{fill:#27aae1;stroke-miterlimit:10;}.cls-2,.cls-3,.cls-5{stroke:#27aae1;}.cls-3,.cls-5{fill:none;stroke-linecap:round;stroke-linejoin:round;}.cls-3{stroke-width:5px;}.cls-4{fill:#73c8eb;}.cls-5{stroke-width:1.5px;}</style></defs><title>education</title><g id="Layer_1" data-name="Layer 1"><circle class="cls-1" cx="98.02" cy="77.46" r="45.85"/><path class="cls-2" d="M144.08,98c-6.7-7.63-9.37-10.55-16.43-17.85Q106.47,58.3,83.22,38.55q-16-13.62-33-26.14a4,4,0,0,0-5.48,5.64,627.32,627.32,0,0,0,83.6,86.75c4.72,4,8.85,8.67,14,12.25,2,1.4,8.05,3.39,10.68,3.07,1.41-.17,1.58-5.32-.27-9.67C150.39,104.85,145.48,99.62,144.08,98Z"/><polyline class="cls-3" points="79.18 67.91 53.42 40.31 65.42 27.83"/><polygon class="cls-4" points="70.2 26.9 60.25 37.8 68.64 47.29 80.21 35.21 70.2 26.9"/><line class="cls-5" x1="153.16" y1="119.72" x2="155.08" y2="121.65"/><line class="cls-5" x1="49.34" y1="124.09" x2="152.88" y2="124.09"/></g></svg>