<svg xmlns="http://www.w3.org/2000/svg" viewBox="0 0 195 155"><defs><style>.cls-1{fill:#bebdd0;}.cls-2{fill:#5c5989;}.cls-3{fill:#262262;}.cls-4{fill:none;stroke:#bebdd0;stroke-linecap:round;stroke-linejoin:round;stroke-width:1.5px;fill-rule:evenodd;}</style></defs><title>expression</title><g id="Layer_1" data-name="Layer 1"><path class="cls-1" d="M93.47,77.79A36,36,0,0,1,113,55.14,45.85,45.85,0,1,0,36.19,97.79c4.83,7,23.67,34.51,23.86,33.57s6.08-14.83,8.52-20.58A45.92,45.92,0,0,0,95,102.13,36,36,0,0,1,93.47,77.79Z"/><polygon class="cls-2" points="94.95 102.13 94.95 102.13 94.95 102.13 94.95 102.13"/><path class="cls-3" d="M128.13,51.77a36.13,36.13,0,0,0-28.44,58.44l-.06,0s19.5,28.58,19.67,27.72c.12-.58,3.58-8.82,5.77-14,1,.09,2,.14,3.06.14a36.15,36.15,0,1,0,0-72.29Z"/><path class="cls-4" d="M124.43,80.87A5,5,0,0,1,129.11,84a5.15,5.15,0,0,1,4.72-3.13,5,5,0,0,1,5,5c0,3.76-7.26,9.44-9.75,11.66-2.45-2.22-9.71-7.9-9.71-11.66A5.06,5.06,0,0,1,124.43,80.87Z"/><path class="cls-3" d="M74.7,66.25,80,61.92a1.06,1.06,0,0,0-.62-1.87l-6.76-.41a1,1,0,0,1-.92-.66l-2.49-6.35a1.06,1.06,0,0,0-2,0L64.71,59a1.06,1.06,0,0,1-.92.67L57,60a1.05,1.05,0,0,0-.61,1.87l5.25,4.3A1.08,1.08,0,0,1,62,67.28l-1.71,6.58A1.06,1.06,0,0,0,61.87,75l5.71-3.66a1,1,0,0,1,1.12,0L74.44,75A1.06,1.06,0,0,0,76,73.86L74.31,67.3A1.06,1.06,0,0,1,74.7,66.25Z"/><path class="cls-2" d="M145.69,69.38c-5.77-6.08-6.49-15.85-6.49-15.85,10.24,3.64,13,6.65,17.73,12.47,1.8,2.22,5,7.82,5.75,11.49C162.68,77.49,152.37,76.43,145.69,69.38Z"/><path class="cls-2" d="M112.18,77.76A45.58,45.58,0,0,0,113,55.14a36.1,36.1,0,0,0-18,47A45.66,45.66,0,0,0,112.18,77.76Z"/></g></svg>