<svg xmlns="http://www.w3.org/2000/svg" viewBox="0 0 195 155"><defs><style>.cls-1{fill:#d3c5e0;}.cls-2{fill:#6c3f99;}.cls-3{fill:#9575b6;}.cls-4{fill:#916fb3;}.cls-5{fill:#916fb2;}.cls-6{fill:none;stroke:#fff;stroke-linecap:round;stroke-linejoin:round;stroke-width:1.5px;}</style></defs><title>ejudicial killing</title><g id="Layer_1" data-name="Layer 1"><circle class="cls-1" cx="97.5" cy="77.5" r="45.85"/><path class="cls-2" d="M57.18,83.83c-.47-.58-1.23-.15-2.15.86A37.28,37.28,0,0,0,51,90.06a18,18,0,0,1-3.7,4.39,9.48,9.48,0,0,0-2,2.63,1.94,1.94,0,0,0,.65,2.66l.12.07c.31.7,3.31,7.75-1.66,13.26-5.22,5.8-28.43,13.29-19,19l15.13,9.18s13.59-12.08,22.87-19.43l5.45-15.47-9.06-4.43L67,96.23l-8.58-4.58c-.28-2.21-.51-4.43-.85-6.63A2.53,2.53,0,0,0,57.18,83.83Zm11.39,34.8"/><path class="cls-3" d="M169.75,43.09s-5.15.9-9,1.2-7.17.66-9.73-.45-15.73-9.39-18.53-9.54-9.2,2.37-10.8,3.26-8.74,5.5-9.13,7a24.26,24.26,0,0,0-.26,7.07,12.35,12.35,0,0,0,.43,3.25A40,40,0,0,0,114.39,60,3.15,3.15,0,0,0,116,61.74a2.15,2.15,0,0,0,1.78-.21A5.79,5.79,0,0,0,120,56.78c-.09-1.32-1.11-4.08.41-5l4.66-2.69,2.75-1.59c1.18-.68,1.75-1.28,2.26.18a12.7,12.7,0,0,0,2.1,4.25,19,19,0,0,0,5.32,4.2,15.46,15.46,0,0,0,3.24,1.46c.54.16,1.35.45,1.58,1s-.09,1.26-.08,1.86a5.61,5.61,0,0,0,1,3.19c.85,1.19,2.6,1.59,3.86,2.26A3.36,3.36,0,0,1,148.51,67c.53.85.24,2,.43,2.94s1.12,1.7,1.85,2.5a5.56,5.56,0,0,0,2.73,2c1.86.42,4.14-1.74,5.59-2.66s3.34-2.42,5.13-2.66l10.14-1.36s2.83-2.25.54-13.59A29.28,29.28,0,0,0,169.75,43.09Z"/><path class="cls-4" d="M110.78,49.37s-8.62,3.09-9.39,5.28a5.33,5.33,0,0,0,.23,3.63,3.62,3.62,0,0,0,2.1,1.59c2.59.76,5.25-1.19,7.45-2.32a1,1,0,0,0,.59-.55.9.9,0,0,0,0-.46,19.1,19.1,0,0,1-.65-3C110.86,51.69,110.85,49.38,110.78,49.37Z"/><path class="cls-4" d="M112.59,59.93a2.08,2.08,0,0,0-1-.22,5.6,5.6,0,0,0-2.27.86,11.85,11.85,0,0,0-2.22,1.12,4.31,4.31,0,0,0-1.2,2.23,4.83,4.83,0,0,0-.22,1.41,3.78,3.78,0,0,0,1.75,2.91,5.06,5.06,0,0,0,4.81.57,52.06,52.06,0,0,0,4.69-2.58q5.14-2.74,10.24-5.56l3.51-1.92c.91-.5,3-1.37,2.84-2.72,0-.48-.45-.83-.82-1.14A14.81,14.81,0,0,1,129,50.26a.91.91,0,0,0-.44-.52,1,1,0,0,0-.53,0,22.88,22.88,0,0,0-4.58,2.31c-1.34.72-2.48,1.7-2.22,3.38a8,8,0,0,1-1.52,6.07,5.27,5.27,0,0,1-1.85,1.6c-1.05.51-3,.53-3.8-.46-.63-.77-.58-2.16-1.46-2.71Z"/><path class="cls-4" d="M135.35,58.44l-.24.11c-6.48,3.14-12.72,6.64-19.08,10-1.77.94-3.35,2-3.73,4.16a4.13,4.13,0,0,0,2.5,3.81c.67.17,2.72.21,5.47-1.29S129,70.32,129,70.32c1.72-.86,3.37-2,5-2.94,1.42-.83,2.89-1.59,4.29-2.46.7-.43,1.35-.9,2-1.38s.65-1,.54-1.8A4.31,4.31,0,0,0,139.83,59a4.41,4.41,0,0,0-1-.6A3.46,3.46,0,0,0,135.35,58.44Z"/><path class="cls-4" d="M141.34,65.61a5.72,5.72,0,0,0-2.73,1.16L130,72a9.09,9.09,0,0,0-3.14,2.62c-1.47,2.29,0,4.18,2.31,4.85a16,16,0,0,0,7.56.29,3.9,3.9,0,0,0,2-.93,6.18,6.18,0,0,0,1.05-2,7.26,7.26,0,0,1,2.9-3.32c1.66-1,4.73-3.14,4-5.59-.26-.83-1.54-1.09-2.23-1.38a8.76,8.76,0,0,0-3.07-.9Z"/><path class="cls-5" d="M103.15,50.88s-5.93-5.72-6.71-6.54l9.18-9.44c.94,1.09,6.31,6.59,6.65,6.89,0,0-.86,4.34-2.9,6.08A12.48,12.48,0,0,1,103.15,50.88Z"/><path class="cls-5" d="M148,72.1c.52.43,5,5.17,6.06,6.46,2.2,2.65,1.45,4.23.6,5.64-1.05,1.76-3.63,2.38-5.57,2-2.43-.43-5.31-3.85-6.29-4.95-.8-.9-2-2.41-2-2.41a5.77,5.77,0,0,1,1.73-3.68A9.66,9.66,0,0,1,148,72.1Z"/><path class="cls-5" d="M72.17,63.88,21.57,77.17c3.45-.47-1.59.24-2.36.14a6,6,0,0,1-.68-11.76L71,51.78l.3,3-2.66,5.78Z"/><path class="cls-5" d="M83.31,58.19l39.2-39.3A6,6,0,0,0,114,10.4L74.48,50,77,52.39l.08,5.87Z"/><path class="cls-2" d="M136.78,112.26,69.07,79.45a2,2,0,0,0-2.63.87l2.29,7.77,9.73,4.22-6.65,6.21,8.7,1.75-6.3,14.58,1.28,3.2h0a15.13,15.13,0,0,0,27.87-1.26,14.72,14.72,0,0,0,.44-1.43l3.26,1.57,21.8,11.64a2,2,0,0,0,2.64-.87l.81-1.67a2,2,0,0,0-.58-2.38,2,2,0,0,0,2.23-1l3.76-7.75A2,2,0,0,0,136.78,112.26Zm-37.17,3.15a11,11,0,0,1-5.74,6.23c-5.39,2.5-11.33-.1-14.46-6.19l10.36-6.87.18,0,1.83.89c-.69.88-3,4.28-.74,7.63,2.65,3.89,1.51-.77,1.31-2.07s.3-3.71,1.91-4.37l5.85,2.84A12.17,12.17,0,0,1,99.61,115.41Z"/><line class="cls-6" x1="37.69" y1="115.96" x2="47.48" y2="122.21"/><line class="cls-6" x1="34.58" y1="119.07" x2="44.38" y2="125.32"/><path class="cls-2" d="M149.19,53c-.84-1.67-2.68-2.8-4.39-3.73-3.84-2.11-8.08-4.28-12.39-3.49-3.86.71-2,4.11-.31,6.21a19,19,0,0,0,5.32,4.2,15.19,15.19,0,0,0,3.24,1.46c.55.16,1.35.46,1.59,1s-.1,1.25-.09,1.85a5.62,5.62,0,0,0,1,3.19c1.09,1.54,3.54,2,5,3.12.78.57.56,1.42,1.64.68s.44-2.51,0-3.37a13.09,13.09,0,0,1-1.12-2.51c-.59-2.49,1.31-5.06.8-7.58A4.39,4.39,0,0,0,149.19,53Z"/><path class="cls-2" d="M169.75,43.09s3.79,5.22,4.36,10.37a134.16,134.16,0,0,1,.27,14.32l6.41-1.29s1.87-7.9.32-14.91-4.87-10.12-4.87-10.12Z"/></g></svg>