<svg xmlns="http://www.w3.org/2000/svg" viewBox="0 0 195 155"><defs><style>.cls-1{fill:#bee5f6;}.cls-2{fill:#27aae1;stroke:#27aae1;stroke-miterlimit:10;}</style></defs><title>food</title><g id="Layer_1" data-name="Layer 1"><circle class="cls-1" cx="97.5" cy="77.56" r="45.85"/><path class="cls-2" d="M115.05,58.15a32.21,32.21,0,0,0-12,2.31l-.38.15a9.79,9.79,0,0,1-6.91,0l-.38-.15a32.22,32.22,0,0,0-12-2.31C65.78,58.15,51.57,72,51.57,89.1c0,25.64,21.32,46.43,47.61,46.43S146.8,114.74,146.8,89.1C146.8,72,132.59,58.15,115.05,58.15Z"/><path class="cls-2" d="M87.59,39.12A37,37,0,0,0,73.4,30.76,25.33,25.33,0,0,0,73.18,34a25.92,25.92,0,0,0,8.18,19h0a26.74,26.74,0,0,0,2.73,2.25,26,26,0,0,0,10.44,4.45,26.32,26.32,0,0,0,3.58.41l.69,0A37,37,0,0,0,87.59,39.12Z"/><path class="cls-2" d="M108.24,44.4a28.73,28.73,0,0,1,11-6.47,21.25,21.25,0,0,1,.16,2.54A20,20,0,0,1,117.5,49a20.49,20.49,0,0,1-2.73,4.34,19.59,19.59,0,0,1-1.71,1.82h0A20.51,20.51,0,0,1,111,56.88a19.92,19.92,0,0,1-8.08,3.44,19.24,19.24,0,0,1-2.77.32l-.53,0A28.64,28.64,0,0,1,108.24,44.4Z"/><path class="cls-2" d="M99.2,60.52S94.11,32.66,100.64,17c4-9.69,10.88-3.81,8.17.34C101.07,29.25,100.43,39.63,99.2,60.52Z"/></g></svg>