<svg xmlns="http://www.w3.org/2000/svg" viewBox="0 0 195 155"><defs><style>.cls-1{fill:#bee5f6;}.cls-2{fill:#6ac4ea;fill-rule:evenodd;}.cls-3{fill:#27aae1;}.cls-4{fill:#fff;}</style></defs><title>health</title><g id="Layer_7" data-name="Layer 7"><circle class="cls-1" cx="97.89" cy="77.14" r="45.85"/><path class="cls-2" d="M104.5,66.1a22.71,22.71,0,0,1,21.09,14.13A23.21,23.21,0,0,1,146.88,66.1,22.81,22.81,0,0,1,169.6,88.82c0,17-32.75,42.58-44,52.61-11-10-43.81-35.62-43.81-52.61A22.81,22.81,0,0,1,104.5,66.1Z"/><path class="cls-3" d="M117.12,123.81a50,50,0,0,1-20,4.13,50.5,50.5,0,0,1-42.94-24.17H65.77a6.88,6.88,0,0,0,6.85-6.54C76,94.42,88.79,82.89,90.57,70c1-7.36.76-16,.54-22.92C91,44.63,91,42.53,91,40.79A6.19,6.19,0,0,0,89.09,36a6.51,6.51,0,0,0-4.64-1.48H78.23v.59a4.83,4.83,0,0,0-4.4-2.89H69a4.8,4.8,0,1,0,0,9.6h4.81a4.79,4.79,0,0,0,4.75-4.3h6.09a3.64,3.64,0,0,1,2.41.72A3.34,3.34,0,0,1,88,40.79c0,1.79.07,3.9.14,6.36.21,6.82.48,15.31-.51,22.42C86.15,80.07,76.18,90,71.91,93.86A6.88,6.88,0,0,0,65.77,90H41.93a6.87,6.87,0,0,0-6.08,3.7C31.51,89.83,21.72,80,20.28,69.57c-1-7.11-.72-15.6-.51-22.42.08-2.46.15-4.57.15-6.36a3.18,3.18,0,0,1,.87-2.49,4.19,4.19,0,0,1,2.76-.82h5.68A4.8,4.8,0,0,0,34,41.79h4.81a4.8,4.8,0,0,0,0-9.6H34A4.8,4.8,0,0,0,29.66,35v-.46h-5.9a7,7,0,0,0-5,1.58,6.06,6.06,0,0,0-1.86,4.72c0,1.74-.07,3.84-.14,6.27-.22,6.93-.49,15.56.53,22.92,1.76,12.67,14.14,24,17.76,27.08a6.89,6.89,0,0,0,6.86,6.71h10.5c.07.12.14.26.22.38a52,52,0,0,0,44.47,25.29,51.31,51.31,0,0,0,20.59-4.26Z"/><path class="cls-4" d="M125.69,128.6a16,16,0,1,1,15.95-15.95A16,16,0,0,1,125.69,128.6Zm0-28.91a13,13,0,1,0,12.95,13A13,13,0,0,0,125.69,99.69Z"/><path class="cls-3" d="M125.69,122.2a9.56,9.56,0,1,1,9.56-9.55A9.56,9.56,0,0,1,125.69,122.2Zm0-16.11a6.56,6.56,0,1,0,6.56,6.56A6.57,6.57,0,0,0,125.69,106.09Z"/></g></svg>