<svg xmlns="http://www.w3.org/2000/svg" viewBox="0 0 195 155"><defs><style>.cls-1{fill:#d3c5e0;}.cls-2{fill:none;stroke:#fff;stroke-linecap:round;stroke-linejoin:round;stroke-width:1.5px;}.cls-3{fill:#6c3f99;}.cls-4{fill:#7f57a6;}</style></defs><title>Artboard 10 copy 12</title><g id="Layer_1" data-name="Layer 1"><circle class="cls-1" cx="97.5" cy="77.5" r="45.85"/><path class="cls-2" d="M124.21,85.27a22.71,22.71,0,0,1,.2-9.24,29.25,29.25,0,0,0-1.18-16.29,26.24,26.24,0,0,0-9.91-12.45,24.23,24.23,0,0,0-16.45-4c-7.51.87-13.8,4.57-18.7,11A25.22,25.22,0,0,0,74,63.56a32.78,32.78,0,0,1-4.73,10.15"/><path class="cls-2" d="M118.9,93.31a31.82,31.82,0,0,1,0-19.15.36.36,0,0,0,0-.1c1.18-6.79-.46-12.69-4.88-17.54a20.58,20.58,0,0,0-16.15-6.59c-8.09.42-13.68,4.6-17.08,12.78a.6.6,0,0,0-.06.19c-1.81,8.35-5.39,14.48-11.26,19.27"/><path class="cls-2" d="M115.48,100a36.23,36.23,0,0,1-3.21-8c-.81-3.67-1.38-12.79-.06-18a14,14,0,0,0-1.81-11.34l-.23-.32a13.64,13.64,0,0,0-15.45-5c-4.8,1.71-8.25,5.9-10.29,12.52-1.65,7.55-6.12,14.08-13.28,19.39"/><path class="cls-2" d="M82.26,106.34c10.59-5.09,19.76-18,24.53-34.38a7.55,7.55,0,0,0-1-6.28A7.63,7.63,0,0,0,92.1,67.83C89.53,77.27,83,88.92,74.22,93.69"/><path class="cls-2" d="M96.94,71.17c-2.67,13.88-9.47,23.41-20.78,29.13"/><path class="cls-2" d="M111.32,104.54c-3.76-3-4.89-8.47-5.49-13.42a1.06,1.06,0,0,0-1-.94,1.08,1.08,0,0,0-1.12.74c-2.3,7.3-7.84,13.31-16.94,18.38"/><path class="cls-2" d="M107.61,110.07c-3-.58-3.65-2.18-4.34-4a1.08,1.08,0,0,0-2.06.17c-.51,2.53-2.59,4.52-6.76,6.45"/><path class="cls-3" d="M52.64,84.92c.41,3,2,7,2.54,9.74.81,3.8,1.59,7.61,2.38,11.41q2,9.62,4,19.23l.75,3.57a28.71,28.71,0,0,0,1.51,5.41,16.85,16.85,0,0,0,6.29,7.3c2.3,1.57,4.36,3.52,6.72,5C75.66,140,67.36,96,66.4,90.89c5.59,2.36,11.18,4.72,16.75,7.4,11.46,5.5,23.32,10.61,34.54,16.52-.89-1.52-1-3.3-1.8-4.86a40,40,0,0,0-3.43-5.37,24.46,24.46,0,0,0-7.83-7C92.7,90.27,80.69,82.88,68.21,77.44c-1.07-.47-2.12-1-3.15-1.42Z"/><path class="cls-3" d="M78.83,54.71c-.85-.81-1.66-1.63-2.47-2.41,0-.77.06-1.55.08-2.33a65.08,65.08,0,0,1,.86-10.34c1.07-5.43,3.55-.53,6.8.73,4.8,1.93,9.68,1.37,12.19-3.72,3.09-6.29,2-15.61-2.84-20.78s-13.84-7-17.4.44c-2.32,4.84-2.23,11.87-3.18,17.45-.45,2.61-1,5.4-1.56,8-.36,1.55-.91,6.73-2.63,6.94l-5.58.71-18-17.83C38.9,25.28,22,19.31,20.25,33c-.46,3.61,1,7.2,2.93,10.31,2.31,3.8,4.56,8.42,7.75,11.55,5.26,5.24,19,7.65,22.79,1.9,1.26-1.92,1.06-4.55,1.14-7,0,.88,5.72,5.65,6.32,6.25l.47.45c-.65,3-.54,7.26-.92,10M79.22,24.05a6.32,6.32,0,0,1,2.44-5.12c2-1.44,4.92-.84,6.83.71a11.4,11.4,0,0,1,4.27,10.19c-.65,4.11-4.19,6.52-7.68,5C81.79,33.44,79.06,28.34,79.22,24.05ZM34.8,49c-3.52-2.67-9.44-9.83-7.26-14.63a6.18,6.18,0,0,1,.58-1c3.33-4.6,11.1.95,14.15,3.88,3.21,3.09,10,10.34,7.83,13.84S41.63,54.18,34.8,49Z"/><path class="cls-4" d="M30.77,67.41s0,0,0,0S30.77,67.42,30.77,67.41Z"/><path class="cls-4" d="M32.17,68.33h0A0,0,0,0,0,32.17,68.33Z"/><path class="cls-4" d="M29.92,66.9h0l-.06,0Z"/><path class="cls-4" d="M35.25,70.09h0Z"/><path class="cls-4" d="M33.43,69h0S33.45,69,33.43,69Z"/><path class="cls-4" d="M29.75,66v.06A0,0,0,0,0,29.75,66Z"/><path class="cls-4" d="M28.76,65.77h0Z"/><path class="cls-4" d="M29,66.11h0S29,66.09,29,66.11Z"/><path class="cls-4" d="M29.09,66.1h0S29.08,66.11,29.09,66.1Z"/><path class="cls-4" d="M46.91,75.5s.07,0,.1,0Z"/><path class="cls-4" d="M38.12,71.51v0Z"/><path class="cls-4" d="M47.13,75.14v0Z"/><path class="cls-4" d="M30.29,66.15c.05,0,.08,0,.1,0S30.33,66.1,30.29,66.15Z"/><path class="cls-4" d="M39.5,70.23h0Z"/><path class="cls-4" d="M47.13,75.14l0,0v0S47.12,75.14,47.13,75.14Z"/><polygon class="cls-4" points="41.11 72.99 41.11 72.99 41.1 73 41.11 72.99"/><path class="cls-4" d="M41.24,73.14h0A0,0,0,0,0,41.24,73.14Z"/><path class="cls-4" d="M47,75.48l.06,0Z"/><path class="cls-4" d="M43,73.91h0Z"/><path class="cls-4" d="M33.33,69v0S33.31,69,33.33,69Z"/><polygon class="cls-4" points="35.05 68.41 35.05 68.41 35.05 68.4 35.05 68.41"/><path class="cls-4" d="M35,68.43s.05,0,.08,0S35,68.4,35,68.43Z"/><path class="cls-4" d="M35.18,68.49h0Z"/><polygon class="cls-4" points="33.95 67.79 33.95 67.79 33.95 67.79 33.95 67.79"/><path class="cls-4" d="M34.2,67.91a0,0,0,0,0,0,0S34.21,67.91,34.2,67.91Z"/><polygon class="cls-4" points="35.87 68.68 35.86 68.68 35.87 68.68 35.87 68.68"/><path class="cls-4" d="M38.39,69.53a5.32,5.32,0,0,1-.82-.3.3.3,0,0,1-.26,0l0-.12h-.08s.06,0,0-.07l-.05.06s-.15-.1,0-.13L37,68.87s-.08.08-.13,0,0,0,0-.06-.31.13-.45,0h0s-.1,0-.11,0,.06,0,.08,0-.09,0-.12.1-.07,0-.11,0-.13-.09-.14-.19-.12.1-.18.08,0-.07,0-.13l0,0c-.05,0,0,0,0-.07s-.08.06-.13,0l.07,0c-.06,0-.08,0-.14-.06s0,0,.06,0-.08,0-.1,0,0,.06,0,.11-.11,0-.1,0l.06,0c-.09,0-.07.05-.14,0s0,0,0,0-.12,0-.2-.09h0s-.09,0-.1,0,0,.07,0,.12c0-.12-.13.07-.2,0s.06-.06.07,0,.12-.16.2-.18-.1,0-.07,0l0,.08s0,0-.06,0,0,.11-.06.12,0-.1,0-.07-.08.08-.13,0,0,0,0,0-.14,0-.1-.17,0,0,0,0v0c.1,0-.06,0,0-.09s-.09,0-.12,0l0,.07c-.21.14.07-.13,0-.15s0,0-.05,0,0-.1-.12-.1a.34.34,0,0,1,0-.17c-.06,0-.11-.09-.17,0s.11,0,.14.09l0,.06c-.06,0-.15,0-.18-.08s0,0,0,0S34,68,34,68s.06,0,.1,0,0,0-.12-.09,0,0,.09,0l-.1,0v0c-.06.09-.06,0-.13,0s-.21,0-.32.09a.11.11,0,0,1,0-.08c0,.06,0,0,.05,0s-.05-.14,0-.17,0,.07-.06.08l-.09-.06c0,.06,0,.09,0,.1s-.06,0-.11-.06,0-.08,0-.06,0,0-.09,0-.12,0-.11.09l0-.07s0,0,.05,0-.06,0-.09,0-.06-.06,0-.09-.07,0-.06-.07,0,0,0,.07l-.1-.05s.07-.17.09-.17-.07.11-.13.08,0-.1.05-.17-.09-.11-.15-.12,0,.07,0,.13-.24.13-.32.05v0c-.08,0-.07,0-.13,0a.19.19,0,0,0-.08-.28s0,.1,0,.16l-.08,0s0,0,0,0S32,67,31.9,67.09V67s-.11,0-.13,0-.1,0-.11-.1,0,.13-.07.11-.09-.1-.06-.17,0-.07-.07,0l0-.08c-.06.12-.14.07-.21.06.09-.15-.07,0,0-.17-.06.09-.13,0-.19.07s0-.12,0-.16l0,0c0-.06-.09-.11-.13-.17l-.09.07v0s-.07,0-.06.06l0,0c0,.1,0,0-.13,0a.05.05,0,0,1,0,0s0-.06,0-.1-.18.13-.13.22-.07.05-.09,0l0-.1-.08.08c-.05,0,0-.07-.07-.1s.17-.14.08-.18.1,0,.13,0,0,0,0-.05-.05,0-.12,0,0-.12,0-.17l0,.08,0,0s0,0,0,.06-.13.06-.12,0c0,.16-.17,0-.16.13s-.07,0-.05,0,0-.11,0-.16,0,.08,0,.1,0-.08-.05-.11h0l0-.06s0,.09,0,.09-.06,0,0-.06S30,66,30.06,66s-.15,0-.14,0l0,0s.05.14,0,.12v0l-.09,0v0a0,0,0,0,1-.05,0s0,0,0-.08-.08,0-.1,0,0,0,0-.07-.13-.07-.14-.12,0,0-.06.06c0-.17-.18-.16-.29-.19,0,.14,0,0-.11.1s-.05-.14.06-.13l-.06,0c0-.08.11,0,.1-.12s-.17.09-.22,0-.07,0,0-.09.05,0,.07,0v0c-.12-.09-.09.09-.19.11s0-.1,0-.14-.06,0-.09,0,.07.1,0,.15c0-.12-.12-.07-.16,0s.08,0,.13.21c0,0,.07-.12.12,0s0,.06,0,.08.06,0,.09,0-.1.11,0,.16l.07-.12s-.05.09,0,.08,0,.11-.13.09c0,.15.17,0,.26,0l0,0s.05,0,.08,0-.06,0-.07.08l.08,0h0s.05,0,0,0l-.1.09.12,0s0,.1,0,.1l.12,0,0,.09s.05,0,0-.05.25,0,.15.1c.12,0,.14,0,.27,0-.12,0,.05.14-.06.13,0,.06.09,0,.14,0a.11.11,0,0,1-.09.13h.07v0l.06,0c0,.07,0,.09,0,.12l0-.07v.06s0,0,.08,0v0h.05c-.07,0,0,0,0,.07l.11,0v-.05c.11,0,0,.07,0,.11l0-.06c0,.14.19,0,.23.12s-.07.07-.06,0,.17.08.26,0,0,.12,0,.19.06,0,.1,0,.14,0,.11.11,0,0,.08,0v0l0-.06c0,.17.18,0,.2.15h0s0,0-.05.07l.16.09v-.06s.09,0,.11,0,.05,0,0,.1h-.05c.05,0,.05,0,.08,0s0,.13.07.09l0,0s.06-.07.09-.05,0,0,0,0,.12.07.15,0,0,.07,0,.08,0,0,.17,0l0,0,.06,0v0s.07,0,.1,0l0,0c.11,0,.07.14.19.12s0,0,0,0,0,.12.16.07c0,0,0,0,0,0h.06l0,.06.08-.08v.08l0,0c0,.15.09.08.1.2l0-.08c.22-.1.28.25.49.26l0,.06.11,0c0,.07-.05,0-.06.08s.08-.08.18,0,0,0-.07,0,.23,0,.28.1a0,0,0,0,1,0,0c.07,0,.13.06.19.09s0,0-.05,0,0,0,.07,0l0,0s.16,0,.14.1,0-.07.07,0,.13,0,.17.1-.07,0-.06,0,.08,0,.12,0l0,0h.18c0,.11.15.06.1.13s0-.07,0,0,.08,0,0,.08h0l.05,0-.06,0a.15.15,0,0,0,.13-.09s.1,0,.09.12h0c.13,0,.1.26.24.19s0,0,0,0l.07,0,0,0,.14,0v0a1.32,1.32,0,0,0,.29.13h0c.13,0,.08.08.18.08h0l.07,0,0,0c.08,0,.1.17.1.09a.35.35,0,0,0,.14-.06c.07,0,0,0,0,.1s.09,0,.15,0l0,0a.6.6,0,0,1,.12,0h0c.11,0,.05.14.18,0s.09,0,.05.11l.32,0c0,.11,0,0,0,.09l0-.06c.14.06.23.28.39.33l0,.06.06,0a4.31,4.31,0,0,0,.47.29c.06,0,.16,0,.21,0h0a.76.76,0,0,1,.38.16s0,0,0,0,.07,0,.1,0v-.06c.06,0,.09,0,.08.09l.09,0v0l0,0v.09s.11,0,.16,0,0,.07,0,.07l.2.12,0,0c0-.06.11-.07.13,0s-.05.08-.05.13,0-.06,0-.08.14,0,.15,0h0s0,.11.08.13.07,0,.11-.07,0,.08,0,.1.12,0,.11.1c.11-.13.14.13.21,0l0,.1s.07-.1.11-.1a.24.24,0,0,1,0,.15l.09-.11c.16.24.5.3.69.53a1,1,0,0,1,.41.11h0l.11.1-.07-.1s.07,0,.1,0a.79.79,0,0,0,.47.29c.18-.08,0,.16.17.11l0,0a1.46,1.46,0,0,0,.36,0c-.08.13.08,0,0,.1l0,0s.07.09,0,.12l.08,0,0,.06c.06,0,.23.06.21.19a1.39,1.39,0,0,1,.66.27s.11,0,.16,0l0,.1c.06,0,.15-.06.18,0h0c.06,0,.09.07.17,0a.1.1,0,0,1,0,.15c.06-.11.1.07.1.07s2.65,1.63,3.62,1.34c.05,0,.13,0,.14-.13s0,.11.07.06.09-.13.06-.24h0s-.08,0,0,0l-.07.1a.12.12,0,0,1,0-.1s-.14.15-.19.06h0c-.06,0,0-.09,0-.11h0l0-.08s.13,0,.09,0,0,0,0,0S47,75,47,75l-.07,0s0,0,0,0h-.1c0-.13-.11,0-.09-.11s0,0,0-.08l-.14-.06s.06,0,0,0,0,0-.07,0-.1-.05-.06-.13-.09.08-.15,0,.08,0,.06,0l-.1,0s.06-.07.09,0c-.21-.18-.21-.51-.47-.55,0-.07,0,0,.09-.06-.2,0-.17-.24-.3-.3l0,.05c-.12-.24-.39-.26-.57-.43v0c-.06,0-.11,0-.15,0s.07-.1,0-.11a.12.12,0,0,1,0,.08c-.13-.22-.53-.37-.8-.58-.43-.16-.83-.48-1.24-.64.06,0,0,.13-.06.08,0-.26-.23-.07-.29-.27-.27,0-.39-.33-.69-.28l0-.06s0,0-.09,0h0c-.07-.06-.2,0-.23-.1l0,.06s0-.06-.07,0l0,0-.09,0c.06-.12-.13-.08-.14-.15a.58.58,0,0,1-.3-.09c0-.06-.11-.12-.16-.18a3.19,3.19,0,0,1-.54-.25l0,.08-.05,0s0,0,0,0-.12,0-.13-.1c0,.08,0,0,0,0s0,.11-.08,0h0l-.06,0c0-.06,0-.1,0-.16-.16-.06-.32,0-.47-.12.05-.06-.12,0,0-.14-.12,0,0,.1-.11.16s-.07,0-.06,0,0-.07,0-.07l-.07,0s0,0,0,0c-.16,0-.2-.19-.35-.18s0,0,0,.07-.07-.12-.21-.12l0,0c-.06,0-.1.06-.13,0s.07,0,.12,0-.15-.06-.15,0-.05-.07-.07-.1,0,.06,0,.08a.63.63,0,0,0-.23-.16s0,0,0,0S38.49,69.55,38.39,69.53Z"/><path class="cls-4" d="M33.92,67.76l0,0s0,0,0,0Z"/><path class="cls-4" d="M35.45,68.56h0S35.45,68.55,35.45,68.56Z"/><path class="cls-4" d="M35.88,68.63s0,0,0,.05A.43.43,0,0,0,35.88,68.63Z"/><path class="cls-4" d="M33,67.51s0,0,0,0A0,0,0,0,0,33,67.51Z"/><path class="cls-4" d="M30.56,66.28v0Z"/><path class="cls-4" d="M30.64,66.45h0Z"/><path class="cls-4" d="M33.56,67.77h0Z"/><path class="cls-4" d="M30.71,66.46l0,0h0Z"/><path class="cls-4" d="M30.52,66.26l0,0S30.54,66.25,30.52,66.26Z"/><path class="cls-4" d="M32,67.16Z"/><polygon class="cls-4" points="30.91 66.42 30.91 66.42 30.93 66.41 30.91 66.42"/><path class="cls-4" d="M30.39,66.16h0l0,0Z"/><path class="cls-4" d="M31.57,66.81l0,0S31.55,66.86,31.57,66.81Z"/><path class="cls-4" d="M22.32,87.05s0,0,0,0A.08.08,0,0,0,22.32,87.05Z"/><path class="cls-4" d="M24.42,87.16l0,0S24.42,87.17,24.42,87.16Z"/><path class="cls-4" d="M21.06,87Z"/><path class="cls-4" d="M28.9,87.19h0Z"/><path class="cls-4" d="M26.24,87.15a.05.05,0,0,1,0,0S26.25,87.13,26.24,87.15Z"/><path class="cls-4" d="M20.36,86.34l0,0S20.38,86.34,20.36,86.34Z"/><path class="cls-4" d="M19.1,86.59h0Z"/><path class="cls-4" d="M19.6,86.76l0,0S19.6,86.74,19.6,86.76Z"/><path class="cls-4" d="M19.66,86.72l0,0A0,0,0,0,0,19.66,86.72Z"/><path class="cls-4" d="M45.1,86.2s.07,0,.1-.07Z"/><path class="cls-4" d="M32.94,87v0A0,0,0,0,0,32.94,87Z"/><path class="cls-4" d="M45.13,85.78h0Z"/><path class="cls-4" d="M21,86.18c0-.05.11,0,.11,0S21,86.12,21,86.18Z"/><path class="cls-4" d="M33.71,85.23h0Z"/><path class="cls-4" d="M45.13,85.78h0v0S45.12,85.78,45.13,85.78Z"/><polygon class="cls-4" points="37.15 86.85 37.15 86.85 37.14 86.86 37.15 86.85"/><path class="cls-4" d="M37.38,86.92h-.05A0,0,0,0,0,37.38,86.92Z"/><path class="cls-4" d="M45.2,86.13l.06,0Z"/><path class="cls-4" d="M39.78,86.74h0Z"/><path class="cls-4" d="M26.07,87.13h0S26.05,87.14,26.07,87.13Z"/><polygon class="cls-4" points="27.68 85.81 27.68 85.81 27.68 85.81 27.68 85.81"/><path class="cls-4" d="M27.59,85.88s.07,0,.09-.07A.14.14,0,0,0,27.59,85.88Z"/><path class="cls-4" d="M27.87,85.83h0Z"/><polygon class="cls-4" points="26.08 85.82 26.08 85.83 26.08 85.82 26.08 85.82"/><path class="cls-4" d="M26.43,85.8l0,0Z"/><polygon class="cls-4" points="28.74 85.66 28.74 85.66 28.75 85.66 28.74 85.66"/><path class="cls-4" d="M32.06,85.16A6.78,6.78,0,0,1,31,85.3c-.07.1-.18.11-.28.14l0-.13-.08,0s.06,0,0-.08l0,.08s-.23,0-.09-.11h-.34c-.08,0,0,.11-.12.08s0,0,0-.07c-.26-.08-.28.26-.52.21h0s-.12,0-.12,0,0-.07.12,0-.09.06-.08.14-.09,0-.13,0-.2,0-.27-.09-.08.14-.16.15,0-.08-.08-.11v.06c-.07,0-.06,0-.06,0s0,.09-.15,0l.05-.06a.37.37,0,0,1-.19,0s0,0,.07,0-.09,0-.12,0,.08,0,.05.1-.1.09-.14,0l.05-.06c-.09,0-.05.08-.16.06s0,0,0,0-.17,0-.28,0l0,0s-.06.08-.08.08,0,0,.05.11c-.08-.1-.11.13-.25.07s0-.08.07,0,0-.2.12-.25-.11,0-.1,0v.1h-.07c0,.07.06.1,0,.15s-.05-.1-.06-.06,0,.11-.15.08,0,0,0,0-.18,0-.2-.1,0-.06,0-.05v0c.08-.09-.06,0,0-.08,0,.06-.1,0-.15,0l0,.07c-.14.23,0-.14-.15-.11s0,0,0,.08-.09-.08-.19,0a.24.24,0,0,1-.09-.15c-.06,0-.18,0-.21.06s.09-.09.22,0l0,.08c-.08,0-.19,0-.24,0a.07.07,0,0,1,0,.05c-.12,0-.15.11-.26.1s.05-.07.1-.08-.08,0-.19,0,.07,0,.08-.06l-.12,0v0c0,.11-.1,0-.17,0s-.21.15-.3.24,0-.06,0-.08,0,0,.05,0-.14-.1-.1-.15,0,.06,0,.09h-.14c0,.06.07.07,0,.11a.4.4,0,0,1-.16,0s0-.08,0-.08a.08.08,0,0,0-.12,0c.09,0-.13.06-.06.14L25,86.1s0,0,.05,0-.07,0-.1,0-.1,0-.11,0-.09,0-.1,0,0,0,0,.08h-.13a.65.65,0,0,1,0-.19s0,.13-.08.13-.11-.06,0-.17-.17,0-.24,0,.08,0,.08.11c-.19,0-.19.24-.34.21l0,0c-.09,0-.08,0-.12.09,0-.09-.11-.23-.26-.21s.09.09.07.16l-.1,0s0,0,0,0-.17-.11-.19,0l-.09-.13,0,.06s-.1.06-.12.08-.13,0-.19,0,.06.12,0,.13c0-.14-.17,0-.17-.12s-.09,0-.09,0v-.09c0,.13-.11.13-.2.15,0-.17-.09,0-.14-.13,0,.11-.15,0-.16.15s-.07-.1-.09-.14l0,0s-.16-.06-.24-.09l-.06.1,0,0s-.07,0,0,.08h0c0,.11,0,0-.12.08a0,0,0,0,1,0-.06s0-.06-.05-.09-.12.2,0,.25-.05.08-.09.06l0-.1,0,.11c-.06,0-.09,0-.13,0s.09-.2,0-.19c.06,0,.09-.08.13-.1s0,0,0-.06,0,.07-.13.08a.12.12,0,0,0-.11-.14l.06.06a0,0,0,0,1,0,0s0,0,0,.05-.1.12-.12.07c.1.13-.17.11-.1.19s-.08,0-.09,0-.06-.1-.05-.16.06.06,0,.1-.09-.05-.12-.07l0,0-.07,0c0,.05.07.08,0,.1s-.08,0-.08,0,0-.14.06-.16-.2,0-.14.11h-.05s.14.1,0,.12v0l-.07.07,0,0a0,0,0,0,1,0,0s0,0,0-.07-.07,0-.08.08-.07,0,0-.07-.18,0-.23,0,0,0,0,.08c-.08-.16-.29,0-.43,0,0,.13,0,0-.06.14,0,0-.15-.1,0-.14h-.08c-.05-.07.13-.06,0-.16s-.13.16-.24.12-.07,0-.05-.08.05,0,.07,0v0c-.19,0,0,.12-.15.19s-.09-.07-.1-.12-.08,0-.11,0,.13,0,.1.12c-.05-.11-.17,0-.2,0,.17.11.12,0,.28.12,0,0,0-.14.1-.1s0,.06,0,.07.06,0,.09,0-.05.13,0,.15l0-.13s0,.1.06.06,0,.11-.09.14c.14.11.2-.07.29-.13s0,0,0,0,.06,0,.09,0,0,.07,0,.1h.11s.05,0,.06,0a1.39,1.39,0,0,0-.06.13l.11-.1s.09.07,0,.11l.17,0v.1s0,0,0-.05.24-.17.21,0c.13-.08.18,0,.33-.11-.12.09.14.11,0,.15.07,0,.08-.06.14-.08a.09.09,0,0,1,0,.16l.07,0v0l.05-.06c.07,0,0,.09.09.1V87l.05,0s0-.06.06-.07v0l.06,0c-.06,0,0,0,0,.08l.14,0,0-.06c.12-.05,0,.09.11.09V87c.14.1.23-.07.33,0-.06,0,0,.09,0,.07s.23,0,.32-.1c0,.09,0,.12.14.16s.07,0,.09-.08.19,0,.2,0,.06,0,.09,0v0c.12.14.19-.09.31,0l0,0,.05,0s0,.05,0,.08H23l0,0s.08-.07.14,0,.07,0,.09.08l0,0c.07,0,.07,0,.06-.07s.07.12.14,0h-.05A.07.07,0,0,1,23.3,87s0,0,0,0,.17,0,.2,0,0,.06,0,.08c.14-.06.07,0,.21,0v0l.05,0,.07.07,0,0s.07,0,.13,0l0,0c.13,0,.16.08.29,0a.08.08,0,0,1,0,0c.11-.09.09.09.21,0s0,0,0,.06l0,0v.07l0-.11,0,.08,0,0c.06.14.14,0,.22.13v-.09c.19-.2.46.08.7,0v.07l.1-.09c.05.05,0,.06,0,.1s0-.11.16-.14,0,.06-.05.09a.65.65,0,0,1,.37-.06s0,0,0,0,.18,0,.27,0,0,0,0,0,.07,0,.1,0l0,.06c.06,0,.19-.05.21,0s0-.08,0-.08.16-.05.25,0-.08,0-.06,0,.09,0,.13-.07v0l.21-.07c0,.11.2,0,.19.05s-.07,0,0-.06.08,0,.08,0h.06l0,.07a.16.16,0,0,0,.1-.15c.05,0,.13,0,.16.07l0,0c.15,0,.26.18.38,0s0,0,0,0h.09l0,.06.16-.09v0a2,2,0,0,0,.4,0l0,0c.14-.06.14,0,.25,0v0H29l0,0c.07-.08.21.09.16,0s.11-.09.12-.13,0,0,.09.07.09-.06.19,0v0s.08,0,.15,0l0,0c.1-.08.14.1.22-.06,0,0,.13,0,.13.07l.37-.12c0,.12,0,0,.12.06v-.06c.19,0,.41.13.62.09v.06l0-.07c.23,0,.52,0,.71,0s.14-.12.23-.1h0a1.09,1.09,0,0,1,.51,0s0,0,0,.06.1,0,.14,0l0,0c0-.07.12,0,.15,0l.07-.07s0,0,0,0v0l0,.08s.12,0,.15-.12.09,0,0,.06h.3l0,0a.08.08,0,0,1,.12-.08s0,.09,0,.13,0,0,0-.09.16-.07.18,0l0,0c.07,0,.11.09.18.08s.1,0,.08-.12S34,87,34,87s.16,0,.18,0c0-.16.24,0,.25-.09l.07.08s0-.12.07-.14,0,.1.07.14l0-.14c.32.13.73,0,1.08.12a1.72,1.72,0,0,1,.52-.1l0,0,.18,0-.13-.06a.25.25,0,0,1,.11,0,1.37,1.37,0,0,0,.7,0c.15-.16.11.13.25,0s0,0,0,.06a1.81,1.81,0,0,0,.4-.19c0,.15.11,0,.1.07v-.06s.12,0,.11.09l.07-.08v.06c.09,0,.29-.06.35.07a2.15,2.15,0,0,1,.89-.09.32.32,0,0,1,.19-.07l.08.08c.07,0,.13-.13.2-.08s0,0,0,0,.14,0,.2-.06.15,0,.13.11c0-.13.16,0,.16,0s3.91.13,4.83-.6c0-.06.12-.11.08-.18s.11.08.12,0,0-.17-.08-.24l.06,0s-.08.06-.07,0v.11a.16.16,0,0,1-.09-.07s-.06.2-.17.14h0c-.09,0-.06-.07-.08-.09h0l-.07-.06s.14-.06.09,0,0,0,0,0,0-.06,0-.09h-.09s.06,0,0,0l-.11.06c0-.13-.11.07-.17,0s0-.05,0-.09h-.2s0,0,0,0,0,0-.07,0-.15,0-.14-.08,0,.12-.18.07.1,0,0-.07l-.12,0s0-.09.07-.08c-.35-.05-.54-.33-.85-.25,0-.06,0,0,.06-.09-.22.1-.32-.13-.51-.11v0c-.28-.15-.59,0-.9-.09l0,0a.27.27,0,0,1-.15.09s0-.11-.06-.09.06,0,0,.07a5.42,5.42,0,0,0-1.24-.12c-.57.07-1.2,0-1.76,0,.09,0,.06.13,0,.1-.19-.22-.3.05-.49-.09-.33.08-.63-.1-.93.09V85s-.06,0-.11,0v0c-.11,0-.25.06-.31,0v.07c-.07,0,0,0-.11,0v0l-.08.08c0-.13-.19,0-.24-.06a.89.89,0,0,1-.38.07c0-.06-.19-.06-.3-.08a4.23,4.23,0,0,1-.74,0v.09h-.07s0,0,0,0-.15,0-.21,0,0,0,.09,0,0,.12-.07.08v0l0,0c0-.07,0-.09-.06-.16a2.47,2.47,0,0,1-.59.12c0-.07-.17,0-.13-.1-.13.06,0,.1,0,.19s-.07,0-.08,0,0-.07,0-.08h-.09s0,0,0,0c-.18.08-.33-.07-.49,0,0,0,.06,0,.05,0-.16.1-.15-.07-.3,0l0-.06s-.07.1-.15.05.06-.06.1-.1-.2,0-.15.09-.1,0-.13,0,.06,0,0,.08a1,1,0,0,0-.35,0s0,0,0,0S32.19,85.13,32.06,85.16Z"/><path class="cls-4" d="M26,85.81h0a.06.06,0,0,1,0,0Z"/><path class="cls-4" d="M28.21,85.76a0,0,0,0,1,0,0S28.21,85.75,28.21,85.76Z"/><path class="cls-4" d="M28.73,85.6s0,0,0,.06A.13.13,0,0,0,28.73,85.6Z"/><path class="cls-4" d="M24.81,86.06a0,0,0,0,0,0,0A0,0,0,0,0,24.81,86.06Z"/><path class="cls-4" d="M21.41,86.17h0A0,0,0,0,0,21.41,86.17Z"/><path class="cls-4" d="M21.6,86.27h0Z"/><path class="cls-4" d="M25.63,86s0,0,0,0S25.64,86,25.63,86Z"/><path class="cls-4" d="M21.68,86.24h0v0Z"/><path class="cls-4" d="M21.35,86.16h.06S21.36,86.15,21.35,86.16Z"/><path class="cls-4" d="M23.57,86.21h0S23.58,86.19,23.57,86.21Z"/><polygon class="cls-4" points="21.88 86.11 21.88 86.11 21.9 86.09 21.88 86.11"/><path class="cls-4" d="M21.14,86.14h0Z"/><path class="cls-4" d="M22.85,86.13l0,.06S22.86,86.18,22.85,86.13Z"/><path class="cls-4" d="M34,109.21s0,0,0,0S34,109.22,34,109.21Z"/><path class="cls-4" d="M35.37,108.25v0A0,0,0,0,0,35.37,108.25Z"/><path class="cls-4" d="M33.26,109.81h0l-.06,0Z"/><path class="cls-4" d="M38.08,106.05v0S38.08,106.06,38.08,106.05Z"/><path class="cls-4" d="M36.47,107.34s0,0,0,0S36.45,107.32,36.47,107.34Z"/><path class="cls-4" d="M32.4,109.65h.05A0,0,0,0,0,32.4,109.65Z"/><path class="cls-4" d="M31.81,110.46h0S31.81,110.47,31.81,110.46Z"/><path class="cls-4" d="M32.22,110.34s0,0,0,0S32.21,110.33,32.22,110.34Z"/><path class="cls-4" d="M32.23,110.29v0Z"/><path class="cls-4" d="M47.18,97.26a.11.11,0,0,0,0-.1Z"/><path class="cls-4" d="M40.41,103.92v0Z"/><path class="cls-4" d="M46.92,96.93h0Z"/><path class="cls-4" d="M32.7,109.2c0-.06.07-.06,0-.09S32.67,109.14,32.7,109.2Z"/><path class="cls-4" d="M39.7,102.18v0S39.7,102.17,39.7,102.18Z"/><path class="cls-4" d="M46.92,96.93h0Z"/><path class="cls-4" d="M42.83,101.7Z"/><path class="cls-4" d="M43,101.64l0,0S43,101.65,43,101.64Z"/><path class="cls-4" d="M47.19,97.16V97.1S47.19,97.14,47.19,97.16Z"/><path class="cls-4" d="M44.33,100.31h0Z"/><path class="cls-4" d="M36.35,107.41h0S36.35,107.43,36.35,107.41Z"/><polygon class="cls-4" points="36.45 105.62 36.45 105.62 36.45 105.62 36.45 105.62"/><path class="cls-4" d="M36.44,105.71s0,0,0-.09A.11.11,0,0,0,36.44,105.71Z"/><path class="cls-4" d="M36.58,105.54h0Z"/><polygon class="cls-4" points="35.5 106.42 35.5 106.42 35.5 106.42 35.5 106.42"/><path class="cls-4" d="M35.69,106.22h0Z"/><polygon class="cls-4" points="36.99 104.97 36.99 104.97 36.99 104.97 36.99 104.97"/><path class="cls-4" d="M38.66,103a5.81,5.81,0,0,1-.56.65.32.32,0,0,1-.08.24l-.1-.09,0,.08s0-.06,0-.06l0,.08s-.15.1-.13,0l-.19.18s0,.1,0,.13,0,0,0-.07c-.21.07,0,.34-.17.42v0s-.05.08,0,.09,0-.07.07,0,0,.09.05.15,0,.06-.06.09-.12.09-.22.06,0,.15,0,.2,0-.07-.11,0l0,0s-.05,0-.07,0,0,.1-.05.12l0-.07s0,.06-.1.1,0,0,0-.05,0,.08,0,.08.07,0,.09.06,0,.11-.07.07v-.07c0,.09,0,.09-.06.13s0,0,0,0-.09.1-.15.15v0s0,.1,0,.11.06,0,.11,0c-.12,0,0,.16-.11.18s0-.08,0-.07-.1-.17-.09-.25,0,.09-.06,0l.06.08,0,0s.11,0,.1.11-.1,0-.07,0,0,.1,0,.13,0,0,0,0-.1.11-.19,0,0,0,0-.06h0c0-.1,0,.06-.08,0s0,.09-.06.11l.06,0c.06.25-.09-.11-.16,0s0,0,0,.06-.1,0-.14.07a.27.27,0,0,1-.15-.07c0,.06-.13.07-.09.15s0-.12.14-.1l0,.07c-.05,0-.08.13-.13.14s0,0,0,0,0,.16-.09.2,0-.07,0-.1,0,0-.13.08.05,0,0-.09l-.06.08h0c.06.09-.06,0-.08.11s0,.21,0,.33-.06,0-.07,0,0,0,0,0-.14,0-.15,0,.05,0,0,.07l-.08.07c.05,0,.08,0,.07.08s0,0-.09.09-.07,0,0-.08a.06.06,0,0,0,0,.09c.08,0,0,.1.05.13H35s0,0,0,0,0,0,0,.07-.07,0-.1,0,0,0-.08,0,0,0,0,.06l-.08.07s-.13-.12-.13-.14.09.11,0,.14-.1,0-.14-.11-.14,0-.16.1.07,0,.12.05,0,.27-.07.32h0a.23.23,0,0,0,0,.14.2.2,0,0,0-.29,0s.11,0,.14.08l0,.06s0,0,0,0-.17,0-.11.09L34,108l.06,0s0,.1,0,.13-.07.07-.14.06.11.06.08.11c-.1-.11-.13.05-.18,0s-.08,0,0,.06l-.06-.07c.08.1,0,.15,0,.22-.11-.14-.05.06-.18,0,.07.1-.05.12,0,.2s-.11,0-.14-.06v0c-.06,0-.14,0-.21,0l0,.11-.05,0s0,.07,0,.07l0,0c.07.08,0,0,0,.13a.07.07,0,0,1,0,0s-.05,0-.09,0,.06.22.15.2a.06.06,0,0,1,0,.1l-.08-.07,0,.1s-.08,0-.12,0-.07-.2-.14-.13,0-.1,0-.14,0,0,0,0,0,.06,0,.12a.12.12,0,0,0-.16,0h.08a0,0,0,0,1,0,0s0,0,.06,0,0,.14,0,.11c.15,0,0,.17.07.2s0,.06-.06,0-.1,0-.14-.09.08,0,.08.06-.08,0-.11,0v0h-.07s.09,0,.07.07,0,0-.07,0-.09-.11-.07-.15-.11.12,0,.15l0,0s.15,0,.1.08h0v.09l-.06,0s0,0,0,.06-.05,0-.07,0,0,.08,0,.1,0,0-.07,0-.1.09-.16.08,0,0,0,.08c-.15-.08-.2.11-.27.2.11.08,0,0,.06.14,0-.05-.15,0-.11-.1l0,0c-.08,0,0-.11-.09-.14s0,.19-.06.2,0,.07-.09,0,0,0,0-.07h0c-.12.08,0,.11,0,.21s-.1,0-.14,0,0,0,0,.08.11,0,.13,0-.1.09-.09.14c.18,0,.07-.06.25,0,0,0-.09-.11,0-.13s0,0,.06,0,0,0,0-.08.06.13.12.09l-.08-.1s.06.08.08,0c0,.08.09.08,0,.15.15,0,.07-.15.09-.24s0,0,0,0a.08.08,0,0,1,0-.08c.05,0,0,.07,0,.09l.06-.06h0s0-.05,0,0,0,.08,0,.12v-.13s.11,0,.08.08l.08-.1.07.06s0-.05,0,0,0-.25.14-.1c0-.13.07-.13.12-.24,0,.12.15,0,.11.1s0-.09,0-.14.11.08.1.14V110h0v-.07c.07,0,.07.06.12,0l0-.07h.06s0-.05,0-.08v0l0,0c0,.07,0,0,.07,0s0,0,.07-.08l0,0c0-.1.06.06.12,0l0,0c.15,0,.09-.17.2-.17s0,.08,0,.07.13-.13.13-.23c.08,0,.1.07.18,0s0,0,0-.1.1-.12.15-.07,0,0,0-.07h0l-.05,0c.17,0,.06-.16.21-.14v0s0,0,.05.07l.14-.11h-.06s0-.1.06-.1,0,0,.1,0v0s0,0,0-.09.12.06.11,0l0,0s0-.08,0-.1,0,0,0,0,.1-.09.1-.12.06,0,.06.06c0-.12,0,0,.09-.15l0,0v-.06l.09,0-.05,0s0-.07.07-.08l0,.05c.05-.09.15,0,.17-.14s0,0,0,0,.12,0,.12-.12c0,0,0,0,0,0v0l0,0,0-.1.07,0v0c.13.07.1-.05.22,0l-.07,0c0-.25.34-.17.42-.36l0,0v-.11c.07,0,0,.06.06.08s0-.11,0-.19,0,0,0,.09.12-.21.19-.22a.1.1,0,0,0,0,0c0-.06.1-.09.15-.14s0,0,0,.06.06,0,.05-.06l0,.06s.08-.13.14-.09-.06-.06,0-.08.06-.12.15-.12,0,.06,0,0,0-.06,0-.11l0,0,.08-.16c.09.07.1-.12.15,0s-.07,0,0-.06,0-.06.08,0h0l0,0,0,.08a.2.2,0,0,0,0-.16c.06,0,.08-.07.14,0v0c.07-.1.28,0,.26-.14,0,0,0,0,0,0l0,0,0,0,0-.15,0,0a1.14,1.14,0,0,0,.22-.22v0c.05-.12.11,0,.14-.14s0,0,0,0l.06,0v0c0-.1.19,0,.12-.06s0-.12,0-.16,0,0,.11,0,0-.09.09-.12l0,0s0-.07.06-.11v0c0-.12.15,0,.09-.16.05,0,.08-.06.13,0a2.34,2.34,0,0,1,.15-.27c.09.08,0,0,.1,0l0,0c.1-.11.33-.11.43-.24l0,0,0-.08a4.2,4.2,0,0,0,.44-.33c0-.06,0-.16.08-.19h0a.69.69,0,0,1,.27-.29s0,0,0,0,0-.06.08-.08h-.06c0-.07.07-.07.12,0v-.09h0v0l.08,0a.29.29,0,0,0,0-.17s.08,0,.06,0l.18-.14h0a.08.08,0,0,1,0-.13c0,.07.06.07.1.09s-.06,0-.07-.06,0-.13.08-.12v0s.12,0,.15,0,.06-.06,0-.14.07,0,.09,0,.08-.1.13-.06c-.08-.15.17-.09.09-.19h.09s-.07-.09,0-.13.09,0,.12.07l-.07-.12c.28-.06.45-.35.73-.45a1.31,1.31,0,0,1,.25-.33v0l.13-.07-.12,0s0-.07,0-.09a.82.82,0,0,0,.44-.33c0-.2.15,0,.16-.12a.14.14,0,0,0,0,.06,1.6,1.6,0,0,0,.12-.35c.09.13,0-.05.1,0l0,0s.1,0,.12,0v-.09l0,0s.14-.19.25-.12a1.37,1.37,0,0,1,.48-.51c0-.06,0-.11.07-.15l.1,0c0-.06,0-.16.06-.16s0,0,0,0,.1-.06.09-.14a.09.09,0,0,1,.15,0c-.08-.09.1-.07.1-.07s2.44-1.84,2.51-2.85c0-.06,0-.14-.07-.18s.12,0,.08,0-.09-.13-.2-.14l0,0s0,.08,0,0L47,97a.14.14,0,0,1-.11,0c0,.06.1.19,0,.19v0s-.08,0-.1,0h-.07c.06,0,0-.12,0-.09s0,0,0,.06-.06,0-.08,0l0,0s0,0,0,0l0,.1c-.11-.09,0,.11-.14,0s0,0-.06-.07l-.1.11s0-.06,0,0,0,.06,0,.06-.08.08-.14,0,.05.12,0,.14,0-.06,0-.07l-.06.08s0-.08,0-.1c-.24.13-.54,0-.67.23-.07,0,0,0,0-.09-.07.18-.28.06-.38.17l0,0c-.27,0-.38.26-.6.37h.05c0,.06,0,.1,0,.14s-.06-.1-.09,0,.06,0,.07,0c-.24,0-.53.35-.82.53s-.73.59-1,.91c.05,0,.12.07.06.08-.25-.07-.15.19-.36.18-.13.22-.43.24-.49.53l0,0s0,0,0,.07h0c-.09,0-.12.16-.18.17l.05.06s-.06,0-.07,0l0,0v.09c-.08-.1-.12.09-.19.08A.56.56,0,0,1,41,101c-.06,0-.15,0-.23.08a3.29,3.29,0,0,1-.42.41l.06.06,0,0s0,0,0,0-.06.1-.13.09,0,0,0,0,.08.09,0,.1l0,0v.06s-.09,0-.14-.08c-.11.13-.12.29-.27.38,0-.06-.08.1-.14,0-.05.11.08.06.1.16s0,.06-.05,0-.07,0-.06-.06l-.05,0s0,0,0,0c-.06.15-.24.11-.29.25s0,0,.07,0-.14,0-.18.15l0-.07c0,.06,0,.11-.05.12s0-.08,0-.13-.11.12,0,.15-.08,0-.11,0,.07,0,.07.05a.7.7,0,0,0-.23.15s0,0,0,0S38.72,102.86,38.66,103Z"/><path class="cls-4" d="M35.46,106.43h0a.05.05,0,0,1,0,0Z"/><path class="cls-4" d="M36.73,105.31v0Z"/><path class="cls-4" d="M37,104.94s0,0,0,0Z"/><path class="cls-4" d="M34.89,107.23a0,0,0,0,0,0,0A0,0,0,0,0,34.89,107.23Z"/><path class="cls-4" d="M32.91,109h0Z"/><path class="cls-4" d="M33.1,109s0,0,0,0A0,0,0,0,0,33.1,109Z"/><path class="cls-4" d="M35.34,106.77s0,0,0,0A.08.08,0,0,0,35.34,106.77Z"/><path class="cls-4" d="M33.13,108.92l0,0h0Z"/><path class="cls-4" d="M32.87,109l0,0S32.88,109,32.87,109Z"/><path class="cls-4" d="M34.24,108Z"/><polygon class="cls-4" points="33.16 108.72 33.16 108.72 33.16 108.69 33.16 108.72"/><path class="cls-4" d="M32.74,109.11v0h0Z"/><path class="cls-4" d="M33.76,108.26l0,0S33.79,108.29,33.76,108.26Z"/></g></svg>