<svg xmlns="http://www.w3.org/2000/svg" viewBox="0 0 195 155"><defs><style>.cls-1{fill:#bebdd0;}.cls-2{fill:#5c5989;}.cls-3{fill:#262262;}.cls-4{fill:none;}.cls-5{fill:#fff;}.cls-6{fill:#413e76;}</style></defs><title>participate in goverment</title><g id="Layer_16" data-name="Layer 16"><circle class="cls-1" cx="97.5" cy="77.5" r="45.85"/><polygon class="cls-2" points="48.57 95.43 48.57 100.2 48.57 120.69 48.57 129.88 144.5 129.88 144.5 120.69 144.5 100.2 144.5 95.43 48.57 95.43"/><rect class="cls-3" x="44.68" y="94.36" width="104.06" height="11.27"/><polygon class="cls-2" points="148.75 94.54 44.68 94.54 52.34 71.6 142.77 71.6 148.75 94.54"/><polygon class="cls-3" points="133 85.33 65.89 85.33 66.44 83.07 132.53 83.07 133 85.33"/><path class="cls-4" d="M75.2,56.5c-2.55,1.27-8,4.18-4.45,6.59,1.33.9,3.46,0,4.9-.13a16.89,16.89,0,0,1,4.26.17v-9c-1.24.52-2.48,1.18-3.8,1.87Z"/><path class="cls-4" d="M92.75,36.32a.55.55,0,0,0-.06.63,41.18,41.18,0,0,1,8.66,5.79h1.74C99.23,39.62,93.49,35.61,92.75,36.32Z"/><path class="cls-3" d="M83.63,72.43c3.3.72,6,.79,8.67,3.12a4.26,4.26,0,0,0,2.46,1.21,1.36,1.36,0,0,0,.72.07c.66-.13,1.06-.81,1.29-1.45A3.47,3.47,0,0,0,97,73.49c-.26-1.22-1.28-2.11-2.39-3.13l-2.41-2.2a12.83,12.83,0,0,0-6-3.2l-.24-.08c-1.49-.53-3-1-4.39-1.38a13.23,13.23,0,0,0-1.63-.37A16.89,16.89,0,0,0,75.65,63c-1.44.12-3.57,1-4.9.13-3.6-2.41,1.9-5.32,4.45-6.59l.91-.45c1.32-.69,2.56-1.35,3.8-1.87V42.74h21.44A41.18,41.18,0,0,0,92.69,37a.55.55,0,0,1,.06-.63c.74-.71,6.48,3.3,10.34,6.42h7.13c-5.73-6.47-13.26-10.51-20-12.9-14.4-5.12-31.46,4.55-31.46,4.55h0l-.06,0c-1.51.75-3,1.55-4.42,2.44a23,23,0,0,0-2.19,1.6c-2,1.64-4,3.52-6.24,4.51s-5,.42-7.43.91a27.07,27.07,0,0,0-2.25,10.19c-.23,4.34,1.24,12,1.6,13.85,1.73,1,3.87,1,5.82,1.44,4.81,1.11,8.47,5.08,13.31,6.6,4.4,1.37,9.46,2.08,14,.7,2.41-.34,6.09-2.3,9-3.44A7.63,7.63,0,0,1,83.63,72.43Z"/><path class="cls-5" d="M110.22,42.74H79.91V63.13a13.23,13.23,0,0,1,1.63.37c1.38.41,2.9.85,4.39,1.38l.24.08a12.83,12.83,0,0,1,6,3.2l2.41,2.2c1.11,1,2.13,1.91,2.39,3.13a3.47,3.47,0,0,1-.19,1.89c-.23.64-.63,1.32-1.29,1.45a1.36,1.36,0,0,1-.72-.07,4.26,4.26,0,0,1-2.46-1.21c-2.68-2.33-5.37-2.4-8.67-3.12a7.63,7.63,0,0,0-3.72.79V85.33H124V42.74Z"/><path class="cls-2" d="M38.43,43.88l.06-.13L31.32,43s-2.21,3.31-2.58,10.14A64.5,64.5,0,0,0,30,67.54l7.87.78s0-.14-.08-.4c-.36-1.82-1.83-9.51-1.6-13.85A27.07,27.07,0,0,1,38.43,43.88Z"/><path class="cls-6" d="M110.6,56.07h0Z"/><path class="cls-6" d="M109.24,58.32h0Z"/><path class="cls-6" d="M111.45,54.74h0l.06-.09Z"/><path class="cls-6" d="M106.17,63l0,0S106.18,63,106.17,63Z"/><path class="cls-6" d="M108,60.23l0,0S108,60.22,108,60.23Z"/><path class="cls-6" d="M111.45,53.72v.06A0,0,0,0,1,111.45,53.72Z"/><path class="cls-6" d="M112.5,52.51h0Z"/><path class="cls-6" d="M112.27,53.11l0,0S112.26,53.1,112.27,53.11Z"/><path class="cls-6" d="M112.21,53.15h0Z"/><path class="cls-6" d="M93.93,56.63a.19.19,0,0,1,0-.13Z"/><path class="cls-6" d="M103.26,67.19h0Z"/><path class="cls-6" d="M94.23,56.46l0,0Z"/><path class="cls-6" d="M110.87,54.35c-.06,0-.07.12-.1.1S110.81,54.34,110.87,54.35Z"/><path class="cls-6" d="M101.52,67h0Z"/><path class="cls-6" d="M94.23,56.46l0,0h0Z"/><path class="cls-6" d="M98.33,65.75Z"/><path class="cls-6" d="M98.12,65.54l0,.06A.08.08,0,0,1,98.12,65.54Z"/><path class="cls-6" d="M93.93,56.5v-.08S93.93,56.47,93.93,56.5Z"/><path class="cls-6" d="M96.58,62.88v0Z"/><path class="cls-6" d="M108.08,60v0S108.1,60,108.08,60Z"/><polygon class="cls-6" points="106.02 61.15 106.02 61.15 106.02 61.15 106.02 61.15"/><path class="cls-6" d="M106.13,61.09a.15.15,0,0,1-.11.06A.15.15,0,0,1,106.13,61.09Z"/><path class="cls-6" d="M105.9,61.36v0Z"/><polygon class="cls-6" points="107.13 59.48 107.13 59.48 107.13 59.48 107.13 59.48"/><path class="cls-6" d="M106.87,59.84v0A0,0,0,0,1,106.87,59.84Z"/><polygon class="cls-6" points="105.17 62.2 105.18 62.2 105.17 62.2 105.17 62.2"/><path class="cls-6" d="M102.53,65.46a12.86,12.86,0,0,0,.86-1.09.67.67,0,0,0,.28-.23l-.08-.07.1-.07c0-.06-.07,0-.06,0h.08s.15-.25,0-.14l.24-.35c.06-.08.11,0,.15-.1s0,0-.07,0c.12-.3.38-.18.51-.45l0,0s.1-.11.11-.1-.08,0-.08.12.11-.06.16,0,.08-.08.12-.12.13-.22.12-.32.15,0,.22-.11-.07,0,0-.12h0c0-.07,0-.07,0-.08s.1,0,.14-.14l-.08,0a.69.69,0,0,0,.14-.2s0,0-.06.06.09-.07.1-.1,0,.09,0,.09.13-.06.11-.13l-.08,0c.1-.08.09,0,.15-.14h0c.1,0,.12-.17.19-.28h0s.1,0,.11,0,0,.07,0,.1c0-.13.17-.06.22-.23a.06.06,0,0,0-.08.06c-.11,0-.17,0-.26,0s.1-.09.06-.1l.08,0,0-.08s0,.11.11.06,0-.09,0-.08.1,0,.15-.12,0,0,0,0,.15-.18.08-.26,0,0-.06,0h0c-.12,0,.07-.06,0-.08s.11-.08.13-.13l0,0c.27-.06-.1-.06,0-.21s0,.05.06,0,0-.13.11-.21,0-.12,0-.16.1-.2.18-.2-.13.06-.14.23h.08c0-.09.16-.18.18-.25s0,0,0,0,.18-.1.24-.23-.07,0-.11.07,0-.08.11-.21,0,.08-.1.07l.1-.12h0c.09,0,.07-.1.14-.16s.25-.15.38-.21,0-.06,0-.07,0,.05,0,.05,0-.19,0-.17c.1-.09,0,.06.08,0l.09-.14c0,.05,0,.1.08.05a.57.57,0,0,0,.12-.17s0-.06-.08,0,.05-.11.11-.11.13-.11.14,0l0-.11s0,0-.06,0,.07-.06.1-.08,0-.12,0-.14.07-.09,0-.13,0,0,.06,0l.09-.14s-.1-.11-.13-.09.11,0,.16,0,0-.13-.09-.12.07-.2.14-.26,0,.1,0,.13c.15-.19.3-.1.37-.27v.05a.38.38,0,0,1,.16-.09c-.08,0-.09-.21,0-.35,0,0,0,.12.07.13l.08-.09s0,0,0,0,0-.22.13-.2l0-.15,0,.06s.11-.08.14-.09a.22.22,0,0,0,.1-.22s0,.12.11,0c-.1-.07.08-.19,0-.23s0-.11.07-.08l-.06,0c.09.05.17-.07.25-.14-.14-.07.07-.1,0-.21.1,0,.15-.14.23-.11s0-.11,0-.14l0,0c0-.06.07-.19.1-.28l.12,0v0s.08,0,.08,0l0,0c.08,0,.06,0,.15-.1s0,0,0,0,0-.05,0-.09.23,0,.19.08.1,0,.11-.06l0-.07h.1c0-.06,0-.11,0-.17s-.21,0-.12-.11a.35.35,0,0,1-.15.09s0,0,0,0c.09-.09.06,0,.14-.1s-.07-.08,0-.18v.1h0s0,0,0,.06.16-.06.14-.1c0,.17.19-.12.21,0s.07-.06.05-.09,0-.11-.08-.13,0,.1.05.07,0-.11,0-.15h0l0-.09s0,.11.06,0,.07-.08,0-.1-.11-.06-.16,0,.16-.2.17-.09l0-.06s0,.19.07.08h0l.11,0v-.06s0,0,.06,0,0-.06,0-.07.1-.06.12-.06,0-.07,0-.07.13-.19.13-.26,0,0,.08,0,.17-.33.28-.47c.07.11,0,0,.15,0,0,0,0-.19-.09-.08l.06-.07c0-.09-.13.1-.14,0s.21-.07.25-.2.07-.07,0-.09-.05,0-.08.06v0c.12-.2.12,0,.24-.07s0-.13,0-.15,0-.08.09-.1,0,.16,0,.16.12-.18.17-.19c0,.22-.08.12-.1.33,0,0-.11,0-.15.07s0,0,0,.06-.06.05-.1.07.13,0,.08.12l-.11-.05c0,.05.08,0,0,.09.08,0,.07.07.16,0,0,.19-.18.17-.29.25h0s-.06,0-.09.07.08,0,.09,0l-.08.1h0s-.06,0,0,.07h.13l-.15.07s0,.13.07.06l-.13.16,0,.06s0,0,0,0-.28.18-.14.23a2.12,2.12,0,0,0-.3.3c.14-.08,0,.19.09.08,0,.09-.1.06-.15.11s.06.1.13,0l-.08.05h0l-.08,0c0,.09.06.06,0,.13l-.07,0v.07s-.05,0-.09,0h0l0,0c.08,0,0,.06,0,.06a.38.38,0,0,1-.11.14l0,0c-.12.1,0,0,0,.14l0,0c0,.19-.21.21-.24.34,0,0,.09,0,.08,0s-.17.24-.29.29a.21.21,0,0,1,0,.22c-.06.06-.07.07-.12.06s-.15.19-.11.22,0,.07-.09.08l0,0,0,0c0,.19-.2.16-.2.34h0l0,0s0,0,.06,0l-.16.24V56.7s-.1,0-.11.13-.06.08,0,.13l.06,0C110,57,110,57,110,57s0,.12-.07.17l0-.06s-.08,0-.11,0,0,.05,0,0-.12.18-.16.2,0,0,.06,0c-.15.12,0,.07-.19.2h0l-.06,0v.11l0-.05c0,.05-.08.07-.1.14h.05c-.12.12-.05.2-.19.3h0c-.14.09,0,.14-.15.22,0,0,0,0,0,0l-.07,0,.06,0h-.11l0,.07h0c0,.13-.08.17-.07.3L109,58.7c-.27.12-.26.52-.49.73l0,0-.13.06c0,.09.06,0,.08,0s-.11,0-.21.11,0,0,.09,0a1.17,1.17,0,0,0-.29.37h0a1.43,1.43,0,0,0-.19.27s0,0,.06,0,0,.08-.07.09h.06c0,.08-.17.18-.13.23s-.05,0-.09,0-.14.14-.17.26.08-.06.07,0-.08.08-.13.1h0l-.2.19c0,.09-.16.2-.09.22s0-.09-.07,0-.08.08,0,.11h0l0,.07h.08a.17.17,0,0,1-.17,0c0,.07-.09.14-.07.19h0c-.13.14,0,.36-.22.42,0,0,0,0,0,0l-.06.1h0l-.17.12h0a4.7,4.7,0,0,1-.3.41h0c-.14.12-.08.16-.18.25h0l-.07.1h0c-.11,0-.08.25-.09.18s-.13.07-.17.06,0,0,0,.14-.1.06-.15.18l0,0a1.56,1.56,0,0,0-.13.13l0,0c-.13.08,0,.2-.2.21,0,.06-.09.14,0,.17a2.65,2.65,0,0,0-.33.34c.06.08,0,0,0,.14l0,0c-.15.2-.2.5-.37.7l0,0h-.08c-.14.24-.33.56-.46.74s-.19.1-.24.21h0a2.54,2.54,0,0,0-.39.51s0,0,.05,0-.07.1-.1.14v-.06c-.08,0-.09.12-.08.17l-.1,0v0h0l0,.09s-.13.12-.21.12,0,.11,0,.06l-.27.35,0-.07s-.15,0-.18.1.06,0,0,.1,0-.07,0-.07a.9.9,0,0,0-.25.18h0c-.11,0-.1.16-.21.23s-.19.09-.2,0,0,.08-.09.11a.7.7,0,0,0-.35.14c-.12-.1-.52.08-.55-.06l-.17,0a.16.16,0,0,0-.12-.15c-.11,0-.11.05-.15.06l0-.13c-.64-.16-1-.76-1.33-1.07a3.23,3.23,0,0,0-.34-.58v0l-.16-.17.14.1a.5.5,0,0,0,0-.13,2.34,2.34,0,0,1-.54-.71c0-.24-.17,0-.19-.26,0,0,0,0,0,.05A2.1,2.1,0,0,1,98,65c-.1.09-.07-.11-.12-.06l0,0s-.12-.11-.15-.08v-.11l0,0c-.07-.09-.16-.34-.29-.34a5,5,0,0,0-.55-1,.46.46,0,0,0-.08-.24l-.1-.05c0-.09,0-.21-.08-.26s0,0,0,0-.1-.14-.09-.24-.12-.15-.16-.1-.11-.17-.11-.17A24.42,24.42,0,0,1,95,60a9.33,9.33,0,0,1-1-3.41c0-.05,0-.17.09-.15s-.11-.09-.07-.13.12-.08.22,0v-.08s0,.11,0,.07l-.09,0c0,.05.07.08.11.08s-.13.15,0,.26v0c0,.1.08,0,.1,0v0l.08.07c-.05,0,0-.19,0-.13s0,0,0,.07.06,0,.08,0l0,.1s0-.06,0,0V57c.12,0,0,.15.13.17s0,0,.07,0l.08.22s0-.07,0,0,0,.08,0,.11.07.16.14.13c.11.13-.07.1,0,.22s0-.11,0-.07l0,.15a.09.09,0,0,0,0-.11c.22.37.53.48.63.86.07,0,0,0,0-.1,0,.28.26.3.36.52l0,0a5.2,5.2,0,0,1,.57,1l0,0a.5.5,0,0,0,0,.21s.07-.09.1,0-.06,0-.07,0a13.62,13.62,0,0,1,.82,1.29c.3.64.76,1.26,1.1,1.87-.06-.09-.13,0-.07.06.28.09.17.34.4.47.17.37.49.59.58,1l0,0s0,.07.06.12h0c.09.11.14.28.2.33l0,0c0,.07.06,0,.08.1l0,0v.11c.08-.06.14.19.22.22a1.44,1.44,0,0,0,.23.41c.06,0,.18.16.27.25a1.77,1.77,0,0,0,.46.54l0,0,0,0,0,0c.07,0,.07.08.11,0s0,0,0,0-.05.09,0,.08h0v0a1.05,1.05,0,0,1,.07-.11c.05,0,.08.12.17.07s.08,0,0-.11,0,.08.1.13.06,0,0,0,0-.07,0-.06l0,0h0c.15,0,.15-.23.3-.32s0,.06,0,.07,0-.16.19-.27H102c.06,0,.11,0,.14-.13s-.09,0-.14.06.15-.19.17-.12,0-.11,0-.16,0,.09,0,.07a1.92,1.92,0,0,1,.22-.39l0,0C102.54,65.64,102.42,65.58,102.53,65.46Z"/><path class="cls-6" d="M107.16,59.43l0,0a0,0,0,0,0,0,0Z"/><path class="cls-6" d="M105.62,61.68h0Z"/><path class="cls-6" d="M105.15,62.16s0,0,0,0A.05.05,0,0,1,105.15,62.16Z"/><path class="cls-6" d="M108.18,58.26h0Z"/><path class="cls-6" d="M110.6,54.74v0Z"/><path class="cls-6" d="M110.54,55l0,0S110.53,55,110.54,55Z"/><path class="cls-6" d="M107.56,59.09a.05.05,0,0,1,0,0Z"/><polygon class="cls-6" points="110.47 55.05 110.44 55.11 110.43 55.1 110.47 55.05"/><path class="cls-6" d="M110.64,54.67l0,.07A.1.1,0,0,1,110.64,54.67Z"/><path class="cls-6" d="M109.14,57Z"/><polygon class="cls-6" points="110.23 55.21 110.23 55.22 110.21 55.22 110.23 55.21"/><path class="cls-6" d="M110.77,54.45l0,0v0Z"/><path class="cls-6" d="M109.58,56.23h.06S109.61,56.26,109.58,56.23Z"/></g></svg>