<svg xmlns="http://www.w3.org/2000/svg" viewBox="0 0 195 155"><defs><style>.cls-1{fill:#d3c5e0;}.cls-2,.cls-7{fill:#6c3f99;}.cls-2{fill-rule:evenodd;}.cls-3{fill:#9f82bd;}.cls-4{fill:#7f57a6;}.cls-5{fill:#916fb2;}.cls-6{fill:#916fb3;}</style></defs><title>torture</title><g id="Layer_1" data-name="Layer 1"><circle class="cls-1" cx="97.5" cy="77.5" r="45.85"/><path class="cls-2" d="M98,121.38c8.71-.71,18.46-.77,19.11-1.39,1.91-1.82-12.63-2.26-21.39-1-3.73.54-10.32,3-14.07,3.65-3.59.64-6-2.64-1.29-5.48,6.67-4.05,13.46-5.44,19.67-6.1,7.42-.79,15.72.4,15.6-.9-.16-1.74-3.39-1.36-6.51-1.57-10.83-.73-18,1.87-28.72,3.06a2.19,2.19,0,0,1-2-.55,1.74,1.74,0,0,1-.33-.86,3.1,3.1,0,0,1,.87-2.31A7.53,7.53,0,0,1,81,106.46c7.3-3.84,14.27-5.07,24.07-5.74,4.7-.33,13.45,1.42,12.88-.46-.28-.92-10.33-1.37-12.67-1.26-3.15.16-6.32.33-9.45.7-.93.12-2.07.15-2.57-.64a1.76,1.76,0,0,1,.36-2,5.39,5.39,0,0,1,1.93-1.11c7.46-2.94,16-2.59,23.88-2.4,4.7.12,9.42.25,14.1.65,4,.34,8,.22,12,.83,3.42.51,5.85,1,8.94-1.1,1.9-1.25,2.24-1.24,4.08.13a23.85,23.85,0,0,1,4.22,4.06,24.19,24.19,0,0,1,5,10.58,6.2,6.2,0,0,1,0,2.84c-.45,1.57-1.88,2.63-3.23,3.56l-9.32,6.45a13.54,13.54,0,0,0-3.13,2.73,44.83,44.83,0,0,0-3,3.38,47.33,47.33,0,0,1-6.58,6.62c-6.11,4.67-14,4.63-20.82,7.71a9.65,9.65,0,0,1-2.92,1,2.68,2.68,0,0,1-2.65-1.16,3.1,3.1,0,0,1,.45-3.13,10.67,10.67,0,0,1,4.19-3.32c4.09-2.06,9.46-2.16,12.95-5.33a1.78,1.78,0,0,0,.63-1.74c-.73-2.46-9.14-1.11-14.74-.54-5.29.55-17.55,0-23.25.47-9.59.85-14.6,4.36-14.16.46C82.5,125.76,88.69,122.13,98,121.38Z"/><path class="cls-3" d="M156,92.88l5.72-5.32s3.94.35,9.95,6.82c3.73,4,4.71,11.92,4.71,11.92l-9.61,7s-.52-6.69-3.23-11.33A37.63,37.63,0,0,0,156,92.88Z"/><path class="cls-1" d="M17.25,33.92l-4.13-6.63s2.12-4.8,9.16-10.14c7.44-5.65,17.55-4.48,17.55-4.48L42.21,20s-9.58,6.47-14.64,8.24A37.66,37.66,0,0,0,17.25,33.92Z"/><path class="cls-4" d="M172.66,59.33v0Z"/><path class="cls-4" d="M170.83,59.05h0Z"/><path class="cls-4" d="M173.76,59.46h.07Z"/><path class="cls-4" d="M166.92,58.67h0S166.92,58.66,166.92,58.67Z"/><path class="cls-4" d="M169.24,58.91s0,0,0,0S169.23,58.93,169.24,58.91Z"/><path class="cls-4" d="M174.31,60.19l0,0A.05.05,0,0,0,174.31,60.19Z"/><path class="cls-4" d="M175.44,60h0Z"/><path class="cls-4" d="M175,59.83l0,0S175,59.85,175,59.83Z"/><path class="cls-4" d="M175,59.86h0Z"/><path class="cls-4" d="M152.67,58.37s-.06,0-.09.06Z"/><path class="cls-4" d="M163.37,58.51v0S163.37,58.5,163.37,58.51Z"/><path class="cls-4" d="M152.62,58.78h0Z"/><path class="cls-4" d="M173.72,60.29c0,.05-.1,0-.1,0S173.7,60.36,173.72,60.29Z"/><path class="cls-4" d="M162.55,60.24h0Z"/><path class="cls-4" d="M152.62,58.78h0v0Z"/><polygon class="cls-4" points="159.68 58.35 159.68 58.35 159.68 58.34 159.68 58.35"/><path class="cls-4" d="M159.48,58.26h0S159.49,58.25,159.48,58.26Z"/><path class="cls-4" d="M152.58,58.43l-.05,0S152.56,58.44,152.58,58.43Z"/><path class="cls-4" d="M157.37,58.25h0Z"/><path class="cls-4" d="M169.38,58.94l0,0S169.4,58.94,169.38,58.94Z"/><polygon class="cls-4" points="167.88 60.13 167.88 60.13 167.88 60.13 167.88 60.13"/><path class="cls-4" d="M168,60.08s-.06,0-.08.05S167.92,60.12,168,60.08Z"/><path class="cls-4" d="M167.71,60.1h0Z"/><polygon class="cls-4" points="169.28 60.25 169.28 60.25 169.27 60.25 169.28 60.25"/><path class="cls-4" d="M169,60.25l0,0Z"/><polygon class="cls-4" points="166.93 60.2 166.93 60.2 166.93 60.2 166.93 60.2"/><path class="cls-4" d="M164,60.44a5.32,5.32,0,0,1,1-.06c.07-.09.16-.09.25-.11v.13l.08,0s-.06,0,0,.07l0-.08s.2,0,.07.13h.3c.07,0,0-.11.11-.07s0,0,0,.07c.22.1.27-.24.47-.17h0s.1,0,.11,0,0,.07-.1,0,.08-.06.08-.14.07,0,.12,0,.17,0,.22.11.08-.14.15-.14,0,.08.06.12l0-.07c.06,0,.05,0,0,.06s.06-.08.14,0l0,.06a.32.32,0,0,1,.17,0s0,0-.06,0,.08,0,.1,0-.06,0,0-.1.09-.08.12,0l0,.06c.09,0,0-.07.15,0s0,0,0,0,.15,0,.24,0l0,0s.06-.07.08-.07,0-.05,0-.12c.07.11.11-.11.22,0s0,.08-.06,0-.05.2-.12.25.09,0,.08,0l0-.09a.16.16,0,0,1,.07,0c0-.06,0-.1,0-.14s0,.1,0,.06,0-.11.14-.07,0,0,0,0,.16,0,.18.11,0,.06,0,0v0c-.07.09.06,0,0,.09,0-.07.09,0,.13,0v-.08c.15-.21,0,.15.13.12s0,0,0-.07.08.08.16.06a.23.23,0,0,1,.07.15c.05,0,.16,0,.19,0s-.09.08-.19,0l0-.07c.07,0,.17,0,.21,0a.06.06,0,0,1,0-.06c.1,0,.13-.1.23-.07s0,.06-.09.06.07,0,.17,0-.07,0-.08.06l.11,0v0c0-.11.08,0,.15,0s.19-.13.28-.22a.08.08,0,0,1,0,.09c0-.05,0,0,0,0s.11.11.08.15,0,0,0-.08h.12c0-.06-.05-.07,0-.11h.14s0,.09,0,.08.08,0,.1,0,.12,0,.07-.13l.07.05s0,0,0,0,.06,0,.09,0,.09,0,.09.06a.06.06,0,0,1,.09,0s0,0,0-.08l.11,0a.39.39,0,0,1,0,.19s0-.14.09-.13.09.07,0,.17.14.07.2,0-.06,0-.05-.11c.17,0,.18-.22.31-.18l0,0c.08,0,.07,0,.12-.09a.21.21,0,0,0,.21.23c0-.05-.07-.09,0-.16h.09l0,0c.08,0,.14.12.16,0l.07.13,0-.05s.09-.06.11-.07.12,0,.17,0-.05-.12,0-.14c0,.15.14.06.13.14s.08,0,.08,0v.09c0-.13.11-.12.19-.14,0,.17.09,0,.11.15,0-.12.14,0,.16-.14s.05.1.06.14l0,0c0,.05.14.07.2.11l.07-.1,0,0s.06,0,0-.07h0c0-.11,0,0,.12-.07a0,0,0,0,1,0,.06s0,.06,0,.1.12-.2,0-.26,0-.07.08,0v.1l.05-.1c.05,0,.07,0,.11.06s-.1.19,0,.19c-.06,0-.09.07-.12.09s0,0,0,.06,0-.07.12-.07,0,.12.09.15l-.06-.07,0,0s0,0,0-.06.1-.11.11-.06c-.08-.14.15-.1.1-.19s.07,0,.07,0,.05.11,0,.17,0-.07,0-.1.07.05.1.08h0l.06,0s-.06-.08,0-.1.08,0,.08,0,0,.15-.07.16.18,0,.13-.1h0s-.12-.11,0-.12v0l.07-.07,0,0s0,0,0,0a.15.15,0,0,1,0,.07c.07,0,.07-.05.08-.07s.06,0,0,.07.16,0,.2,0,0,0,0-.08c.06.16.26.07.38.06,0-.14,0,0,.07-.14,0,0,.11.11,0,.15l.07,0c0,.08-.11.06-.05.16s.13-.15.22-.09.07,0,0,.07,0,0-.07,0l0,0c.16,0,0-.11.14-.17s.08.08.08.12a.07.07,0,0,0,.09,0c-.06.06-.11-.06-.08-.12,0,.11.15,0,.18,0-.14-.12-.1,0-.23-.14,0,0,0,.13-.1.09s0-.06,0-.07-.06,0-.09,0,.06-.13,0-.16l0,.14s0-.1-.05-.07,0-.11.09-.13c-.11-.12-.17.06-.26.1l0,0s0,0-.08,0,0-.06,0-.1H175s-.05,0-.06,0a.75.75,0,0,0,.07-.12l-.11.09s-.07-.08,0-.11l-.15,0v-.09s0,0,0,0-.22.15-.19,0c-.12.07-.16,0-.29.08.1-.08-.12-.11,0-.14-.06-.05-.08,0-.13.07s0-.13,0-.16l-.06,0h0l-.05,0c-.06,0,0-.1-.07-.11v.08l0,0s0,0-.07.06v0h-.06c.06,0,0,0,0-.07h-.12v.06c-.1,0,0-.08-.08-.09v.06c-.12-.11-.21.06-.29,0s0-.08,0-.07-.2,0-.29.08c0-.1,0-.12-.11-.17s-.06,0-.09.07-.16,0-.16-.06,0,0-.09,0v0c-.09-.15-.17.07-.27-.06h0l0,0s0-.05,0-.08l-.2,0,0,0s-.08.06-.12,0-.07,0-.08-.08l0,0c-.06,0-.06,0-.06.07s0-.13-.12-.06h0a.08.08,0,0,1-.06.09s0,0,0,0-.15,0-.18,0a.05.05,0,0,1,0-.08c-.13,0-.06,0-.19,0v0l0,0-.06-.08,0,.05s-.07,0-.12,0l0-.06c-.12,0-.13-.09-.25,0s0,0,0,0-.07-.1-.18,0,0,0,0-.06l-.05,0V59l0,.11,0-.08,0,0c0-.14-.13,0-.19-.14V59c-.19.18-.4-.12-.62,0v-.07l-.09.08c0-.06,0-.06,0-.1s0,.1-.15.12,0,0,0-.08-.26.07-.33,0,0,0,0,0a.65.65,0,0,1-.24,0s0,0,0,0-.06,0-.08,0l0-.06c-.06,0-.17,0-.18,0s0,.08-.05.08-.14,0-.22,0,.07,0,.05,0-.07,0-.11.06v-.05l-.19.06c0-.12-.17,0-.16-.07s.06,0,0,.06-.08,0-.07-.06h0l0-.07c-.05,0-.09.08-.1.14s-.11,0-.13-.08l0,0c-.14,0-.22-.2-.33-.08s0,0,0,0h-.08l0-.05-.14.08v0a1.36,1.36,0,0,0-.35,0l0,0c-.13.06-.13,0-.22,0h-.08l0,0c-.06.08-.17-.11-.14,0s-.09.07-.11.12,0-.05-.07-.08-.08,0-.17,0v0s-.07,0-.13,0h0c-.1.07-.12-.12-.2,0,0,0-.11,0-.11-.08a2,2,0,0,1-.33.08c0-.12,0,0-.1-.06v.06c-.17,0-.36-.16-.54-.14v-.07l0,.07a4.88,4.88,0,0,0-.61-.08s-.13.11-.22.08h0a.86.86,0,0,1-.45,0s0,0,0-.06-.09,0-.12,0l0,.05c0,.06-.1,0-.12-.05l-.08.06a0,0,0,0,1,0,0v0l0-.09s-.11,0-.14.12-.07-.06,0-.07l-.26,0,0,0c0,.06-.08.1-.11.07s0-.09,0-.14,0,.06,0,.09-.14.06-.16,0l0,0c-.06,0-.09-.09-.15-.09s-.09,0-.08.11,0-.07-.05-.09a.1.1,0,0,1-.16,0c-.05.16-.2-.07-.22.07l-.06-.08s0,.12-.07.13,0-.1-.05-.14l0,.13c-.27-.15-.64-.07-.93-.2a1.45,1.45,0,0,1-.47.05h0l-.16,0,.11.07s-.06,0-.09,0a1,1,0,0,0-.61-.08c-.15.15-.09-.14-.23,0,0,0,0,0,0-.05a1.42,1.42,0,0,0-.36.16c0-.15-.1,0-.08-.08l0,.06s-.1,0-.09-.1l-.06.08v-.07c-.08,0-.26,0-.3-.09a1.61,1.61,0,0,1-.79,0c0,.05-.11.05-.17.06l-.06-.08c-.06,0-.13.11-.18.06s0,0,0,0-.12,0-.18,0-.13,0-.11-.12c0,.13-.14,0-.14,0s-3.41-.44-4.27.22c0,.06-.11.1-.08.17s-.08-.09-.1,0,0,.16,0,.24l-.06,0s.08-.05.06,0l0-.12a.18.18,0,0,1,.08.09c0-.05.07-.2.16-.13h0c.08,0,0,.07.06.09h0l.06.06s-.13.05-.08.05,0,0,0,0,0,0,0,.09h.07c0,.05-.05,0,0,.05l.1-.05c0,.13.1-.07.14.07s0,0,0,.09h.16s0,0,0,0,.06,0,.07,0,.13,0,.12.09.05-.11.16,0-.09,0,0,.06h.11s0,.09-.07.07c.3.09.45.38.72.32,0,.07,0,0-.06.09.2-.08.27.15.44.15v-.06c.22.18.51.09.77.17l0,0c0-.05.1-.05.14-.08s0,.12,0,.1,0,0,0-.07a4,4,0,0,0,1.07.22c.5,0,1,.1,1.54.09-.08,0,0-.13,0-.1.14.23.27,0,.42.13.29-.06.54.15.82,0v.07s.05,0,.09,0v0c.1,0,.22,0,.28,0v-.08c.05,0,0,.06.09,0v0l.08-.07c0,.13.16,0,.21.08a.71.71,0,0,1,.34,0c0,.06.16.07.25.11a2.86,2.86,0,0,1,.65,0v-.09h.06s0,0,0,0,.14,0,.19,0-.05,0-.08,0,0-.12.07-.08v0l0,0c0,.06,0,.09,0,.16.19,0,.32-.12.52-.08,0,.07.15,0,.1.11.12,0,0-.1,0-.19s.07,0,.08,0,0,.08,0,.09h.08s0,0,0,0c.17-.07.29.09.44,0s-.06,0-.05-.06.13.09.27,0l0,.06s.07-.09.14,0-.07.06-.1.09.17,0,.14-.08.08.05.11.07-.06,0,0-.09a.78.78,0,0,0,.31.06s0,.05,0,.05S163.88,60.45,164,60.44Z"/><path class="cls-4" d="M169.32,60.27l0,0s0,0,0,0Z"/><path class="cls-4" d="M167.41,60.15a0,0,0,0,0,0,0Z"/><path class="cls-4" d="M166.94,60.26s0,0,0-.06A.13.13,0,0,0,166.94,60.26Z"/><path class="cls-4" d="M170.4,60.11v0A0,0,0,0,0,170.4,60.11Z"/><path class="cls-4" d="M173.39,60.28h0Z"/><path class="cls-4" d="M173.22,60.16h0S173.22,60.17,173.22,60.16Z"/><path class="cls-4" d="M169.68,60.11l0,0Z"/><path class="cls-4" d="M173.16,60.18h0v0Z"/><path class="cls-4" d="M173.44,60.29h-.05S173.42,60.3,173.44,60.29Z"/><path class="cls-4" d="M171.5,60.06Z"/><polygon class="cls-4" points="172.97 60.3 172.96 60.3 172.95 60.32 172.97 60.3"/><path class="cls-4" d="M173.62,60.32s0,0,0,0h0Z"/><path class="cls-4" d="M172.12,60.2a.1.1,0,0,0,0-.06S172.12,60.15,172.12,60.2Z"/><path class="cls-4" d="M172.87,37a0,0,0,0,1,0,0S172.86,37,172.87,37Z"/><path class="cls-4" d="M170.7,37.83v0S170.69,37.82,170.7,37.83Z"/><path class="cls-4" d="M174.15,36.44h0l.09,0Z"/><path class="cls-4" d="M166.15,39.83l0,0Z"/><path class="cls-4" d="M168.85,38.66a.05.05,0,0,1,0,0S168.86,38.68,168.85,38.66Z"/><path class="cls-4" d="M175.13,36.75l-.06,0A.06.06,0,0,0,175.13,36.75Z"/><path class="cls-4" d="M176.31,36h0A0,0,0,0,0,176.31,36Z"/><path class="cls-4" d="M175.73,36l0,0S175.73,36,175.73,36Z"/><path class="cls-4" d="M175.69,36.08v0S175.69,36.07,175.69,36.08Z"/><path class="cls-4" d="M150.14,48.05a.3.3,0,0,0-.07.11Z"/><path class="cls-4" d="M162.12,41.8v0Z"/><path class="cls-4" d="M150.28,48.45h0Z"/><path class="cls-4" d="M174.52,37.2c0,.06-.12,0-.1.08S174.53,37.26,174.52,37.2Z"/><path class="cls-4" d="M162.06,43.8h0Z"/><path class="cls-4" d="M150.28,48.45h0l0,0Z"/><path class="cls-4" d="M157.93,43.86Z"/><path class="cls-4" d="M157.68,43.9l0,0S157.68,43.89,157.68,43.9Z"/><path class="cls-4" d="M150.07,48.16l0,.06S150.06,48.18,150.07,48.16Z"/><path class="cls-4" d="M155.32,45.16l0,0Z"/><path class="cls-4" d="M169,38.6h0S169.05,38.58,169,38.6Z"/><polygon class="cls-4" points="167.94 40.53 167.93 40.53 167.94 40.53 167.94 40.53"/><path class="cls-4" d="M168,40.44s-.06.05-.06.09S168,40.5,168,40.44Z"/><path class="cls-4" d="M167.73,40.61h0Z"/><polygon class="cls-4" points="169.55 39.81 169.55 39.8 169.55 39.81 169.55 39.81"/><path class="cls-4" d="M169.2,40h0Z"/><polygon class="cls-4" points="166.92 41.16 166.92 41.16 166.92 41.16 166.92 41.16"/><path class="cls-4" d="M163.76,43.12a9.41,9.41,0,0,1,1.05-.63c0-.12.13-.18.23-.25l.06.11.07-.08c.06,0,0,0,0,.07v-.09s.24-.09.13.07l.34-.17c.08,0,0-.12.1-.13s0,0,0,.07c.29,0,.17-.36.43-.42v0s.1-.08.1-.1,0,.08-.12,0,.06-.1,0-.17.08-.06.12-.09.21-.08.31,0,0-.17.1-.22,0,.08.12.07v-.07c.07,0,.07,0,.08,0s0-.11.13-.12l0,.08a.5.5,0,0,1,.18-.1s0,0-.06,0,.07-.08.11-.08-.09,0-.09-.07.06-.13.13-.08l0,.08c.08-.09,0-.09.14-.13s0,0,0,0,.16-.09.27-.14v0s0-.11,0-.11-.06,0-.1-.08c.13,0,.07-.17.23-.18,0,0,0,.09-.05.07s0,.2,0,.29.09-.09.1,0l0-.1.07,0c0-.06-.1-.06-.05-.13s.09.07.08,0,0-.12.11-.14,0,0,0,0,.17-.1.25,0,0,.06,0,.07v0c0,.12.06,0,.08.06,0-.06.08-.1.13-.11l-.05-.06c.06-.27.06.14.2,0s-.05,0,0-.07.12,0,.21-.05a.2.2,0,0,1,.15.09c0-.06.19-.06.19-.14s-.06.12-.22.08v-.08c.09,0,.17-.13.24-.13s0,0,0,0,.1-.17.22-.21,0,.08-.07.11c.1,0,.08,0,.2-.07s-.08,0-.06.1l.11-.08h0c0-.1.1,0,.16-.1s.14-.23.21-.36a.09.09,0,0,1,.06.06c-.07,0,0,0,0,0s.18,0,.17.09-.06,0,0-.09l.14-.06s-.1,0-.05-.1.09-.05.16-.08.07.06,0,.08.1,0,.1-.08.11-.11,0-.15h.11s0,0,0,0,.06-.05.08-.07.12,0,.14,0a.08.08,0,0,1,.12,0s0,0,0-.08l.13-.06s.1.14.08.17,0-.13,0-.16.13,0,.11.13a.24.24,0,0,0,.25-.08c0-.08-.09,0-.11-.06.17-.12.1-.31.25-.34h0a.22.22,0,0,0,.08-.15.25.25,0,0,0,.35.08c0-.05-.12,0-.13-.12l.09,0s0,0,0,0,.21,0,.19-.08l.14.08-.06,0s.08-.1.1-.13.12-.07.2,0-.11-.08,0-.13c.06.13.19,0,.22,0s.1,0,.08-.06l0,.08c0-.11.07-.16.15-.23.05.17.09-.06.2.06,0-.11.13-.11.1-.21s.11.06.14.09v-.06c.06,0,.19,0,.28,0l0-.13.05,0s.05-.07,0-.09h0c0-.1,0-.05.09-.13s0,0,0,0,0,0,.09.07,0-.25-.08-.25,0-.09.06-.09l.07.08v-.12c.05,0,.1,0,.15,0s0,.23.1.16c-.06,0-.06.11-.09.15s.05,0,0,0,0-.07.09-.13a.13.13,0,0,0,.17.08l-.09,0v0s0,0-.06,0,.06-.15.1-.11c-.16-.08.12-.18,0-.23s.07-.06.09,0,.11.06.12.13-.09,0-.06-.08.1,0,.14,0v0h.09c0-.05-.11,0-.05-.09s.08,0,.1,0,.05.13,0,.17.19-.11.1-.16l.05,0c-.05,0-.18,0-.07-.1v0l.05-.1,0,0s0,0,0,0,.06,0,.07,0,.06-.09.06-.12.07,0,.07,0,.18-.09.24-.07,0,0,0-.09c.15.11.32-.09.45-.18-.1-.1,0,0,0-.15,0,.05.19,0,.08.12l.07-.05c.09,0-.1.11,0,.17s.08-.21.2-.22.06-.06.09,0,0,0-.07.07h0c.2-.07,0-.13.07-.24s.13,0,.15.06.08,0,.1-.07-.16,0-.15-.06.17-.08.18-.13c-.21,0-.11,0-.32,0,0,0,0,.13-.07.14s0,0-.05,0-.06,0-.07.09,0-.15-.11-.13l0,.13s0-.09-.09,0c0-.09-.06-.1,0-.17-.17,0-.16.15-.24.25s0,0,0-.05,0,.06-.07.08,0-.08,0-.1l-.1,0h0s0,.05-.07,0a.39.39,0,0,0,0-.15l-.06.14s-.13,0-.06-.09l-.16.1,0-.08s0,0,0,0-.17.26-.22.09c-.1.13-.15.12-.29.24.08-.13-.18,0-.07-.12-.09,0-.07.09-.12.14s-.08-.1,0-.16l-.05.07v0l0,.08c-.09,0-.06-.08-.13-.06l0,.08-.06,0s0,.06,0,.09v0l-.05,0c0-.08-.07,0-.06-.06a.34.34,0,0,0-.14.08l0,0c-.09.1,0-.07-.14,0l0,.05c-.19,0-.21.17-.34.16,0,0,0-.1,0-.09s-.22.12-.28.23a.2.2,0,0,0-.2-.07c-.07,0-.07.05-.07.1s-.18.11-.21,0-.06,0-.08.08l0,0,0,.05c-.17-.07-.15.17-.32.12v0l0,0s0,0,0-.08l-.23.1.06,0s0,.1-.12.1-.08,0-.12,0l0,0c-.06,0-.06,0,0,.09s-.11-.08-.16,0l.06,0s0,.1,0,.11-.06,0,0,0-.17.07-.19.11a0,0,0,0,1,0-.07c-.12.12-.07,0-.2.14v0l0,.06-.11,0,.05,0a.23.23,0,0,1-.13.07v-.06c-.12.1-.19,0-.29.13s0,0,0,0-.13,0-.21.11c0,0,0,0,0-.05l0,.06,0-.07v.12l-.06,0v0c-.12-.1-.16,0-.28,0l.05.07c-.11.27-.5.13-.7.33l0-.07-.06.13c-.08,0,0-.07,0-.1s0,.12-.11.2,0-.06,0-.1a.85.85,0,0,1-.35.22s0,0,0,0a1.15,1.15,0,0,1-.27.14,0,0,0,0,1,0-.06s-.09,0-.1,0v-.07c-.07,0-.18.14-.22.08a.05.05,0,0,1,0,.09c-.08-.08-.13.12-.25.11s.06-.06,0-.06-.07.07-.1.12V39l-.18.16c-.08-.08-.19.12-.21,0s.08,0,0,.07-.08.06-.1,0h0l-.06,0v-.08a.16.16,0,0,0,0,.17c-.07,0-.14.06-.19,0v0c-.14.1-.34-.05-.4.12,0,0,0,0,0,0l-.09,0v-.06l-.12.16,0,0a3.85,3.85,0,0,0-.39.21v0c-.12.12-.15,0-.24.12h0l-.09,0v0c0,.11-.24,0-.17.05s-.08.12-.07.17,0,0-.12,0-.06.1-.18.12v0l-.13.1v0c-.07.12-.18,0-.2.15-.06,0-.13.06-.16,0l-.33.27c-.08-.1,0,0-.14,0l0,0c-.19.11-.48.07-.68.2l0,0v.08a6.27,6.27,0,0,0-.72.3c0,.06-.1.17-.21.19h0a1.54,1.54,0,0,1-.5.28s0,0,0-.06-.1,0-.14.07l.07,0c0,.08-.12.06-.17,0l0,.11,0,0v0l-.08-.06s-.11.1-.11.19-.1,0-.05,0l-.31.12h.06c0,.05,0,.13-.09.13s0-.09-.08-.11.06,0,.05.07-.13.14-.16.12v0c-.05.05-.13,0-.2,0s-.1.06,0,.15-.07-.05-.1,0a.15.15,0,0,1-.19,0c0,.17-.26.06-.22.19l-.1,0a.16.16,0,0,1,0,.16c-.07,0-.09-.07-.12-.1l0,.14c-.37,0-.74.32-1.14.38a2.62,2.62,0,0,1-.49.33v0l-.19.06h.15s-.05.07-.09.09a1.53,1.53,0,0,0-.72.29c-.08.22-.16-.07-.26.1,0,0,0,0,0-.06a2.33,2.33,0,0,0-.34.36c-.05-.15-.1.05-.12,0v.07s-.14,0-.15,0l0,.11,0-.06c-.09,0-.27.19-.38.1a2.69,2.69,0,0,1-.87.48c0,.07-.1.12-.17.16l-.1,0c-.06.06-.09.18-.17.17s0,0,0,0-.15,0-.18.13-.17,0-.18,0c0,.12-.17.07-.17.07s-4,1.65-4.65,2.73c0,.07-.07.15,0,.2s-.14,0-.13,0,.05.16.17.18l-.05,0c0,.05.06-.08.08,0l0-.11a.17.17,0,0,1,.13,0c0-.06,0-.21.12-.2l0,0c.08-.05.09,0,.11,0h0l.1,0c-.07,0-.12.12-.07.09s0,0,0-.06.06,0,.07.07l.08,0s-.05,0,0,.06l.08-.11c.08.12.09-.11.19,0-.06.06,0,0,0,.08l.18-.1s0,.06,0,0,0-.06.06-.07.14-.07.18,0,0-.13.14-.15-.09.06,0,.09l.12-.08s0,.09,0,.1c.37-.1.68.07,1-.15.07,0,0,.06,0,.11.19-.19.38,0,.57-.13l0,0c.33,0,.61-.23.94-.31l-.05,0c0-.07.08-.11.12-.15s0,.12.09.06-.07,0-.08,0a6.32,6.32,0,0,0,1.3-.45c.55-.32,1.22-.53,1.76-.84-.08,0-.1-.09,0-.1.27.12.28-.18.53-.13.3-.23.68-.2.9-.51l0,.06s0,0,.09-.07h0c.12,0,.23-.16.31-.16l0-.07c.06,0,.06,0,.11,0v0l0-.11c.05.12.19-.08.27-.06a1.24,1.24,0,0,1,.36-.23c.06,0,.22,0,.33-.06a7,7,0,0,1,.73-.38l0-.07.07,0s0,0,0,0,.14-.11.22-.08c-.07,0-.05,0-.09,0s-.05-.1,0-.1h0l0-.06s.1.06.13.11c.21-.12.31-.29.55-.38,0,.08.16-.1.17,0,.11-.11-.07-.08,0-.19s.06-.07.09,0,.07.05,0,.08l.09-.06s0,0,0,0c.15-.16.36-.09.5-.24s-.08,0-.08,0,.18,0,.31-.14v.07c0-.06,0-.12.14-.12s-.05.09-.07.14.19-.11.12-.15.11,0,.15,0-.08,0-.06-.06a1.49,1.49,0,0,0,.37-.13s0,0,0,0C163.58,43.05,163.64,43.2,163.76,43.12Z"/><path class="cls-4" d="M169.6,39.79l0,0s0,0,0,.06Z"/><path class="cls-4" d="M167.42,40.83v0S167.43,40.83,167.42,40.83Z"/><path class="cls-4" d="M167,41.2s0,0,0,0S166.93,41.19,167,41.2Z"/><path class="cls-4" d="M170.74,39s0,0,0,0S170.74,39,170.74,39Z"/><path class="cls-4" d="M174.14,37.38h0Z"/><path class="cls-4" d="M173.9,37.37s0,0,0,0S173.9,37.38,173.9,37.37Z"/><path class="cls-4" d="M169.93,39.44a.05.05,0,0,0,0,0A.05.05,0,0,0,169.93,39.44Z"/><path class="cls-4" d="M173.84,37.43l-.05,0h0Z"/><path class="cls-4" d="M174.2,37.36l-.06,0A0,0,0,0,0,174.2,37.36Z"/><path class="cls-4" d="M171.94,38.31h0S171.93,38.34,171.94,38.31Z"/><polygon class="cls-4" points="173.69 37.65 173.68 37.65 173.67 37.67 173.69 37.65"/><path class="cls-4" d="M174.42,37.28l0,0h0Z"/><path class="cls-4" d="M172.69,38.06a.11.11,0,0,0,0-.06S172.67,38,172.69,38.06Z"/><path class="cls-4" d="M147.31,23.72l0,0Z"/><path class="cls-4" d="M146.4,25.3v0S146.4,25.29,146.4,25.3Z"/><path class="cls-4" d="M147.82,22.76h0s0,0,0-.06Z"/><path class="cls-4" d="M144.66,28.75v0S144.66,28.74,144.66,28.75Z"/><path class="cls-4" d="M145.71,26.71a.06.06,0,0,1,0,0A0,0,0,0,0,145.71,26.71Z"/><path class="cls-4" d="M148.7,22.51h-.06A0,0,0,0,0,148.7,22.51Z"/><path class="cls-4" d="M149,21.42h0Z"/><path class="cls-4" d="M148.61,21.74v0A0,0,0,0,0,148.61,21.74Z"/><path class="cls-4" d="M148.62,21.8v0Z"/><path class="cls-4" d="M139.35,41.73s0,.06,0,.1Z"/><path class="cls-4" d="M143.26,32h0Z"/><path class="cls-4" d="M139.71,41.93h0Z"/><path class="cls-4" d="M148.58,23.1s0,.08,0,.1S148.64,23.13,148.58,23.1Z"/><path class="cls-4" d="M144.58,33.33v0Z"/><path class="cls-4" d="M139.71,41.93l0,0h0Z"/><polygon class="cls-4" points="141.8 35.29 141.8 35.29 141.8 35.28 141.8 35.29"/><path class="cls-4" d="M141.66,35.44v0A0,0,0,0,0,141.66,35.44Z"/><path class="cls-4" d="M139.37,41.83v.06A.07.07,0,0,0,139.37,41.83Z"/><path class="cls-4" d="M140.9,37.38v0Z"/><path class="cls-4" d="M145.79,26.59h0S145.79,26.57,145.79,26.59Z"/><polygon class="cls-4" points="146.37 28.4 146.37 28.4 146.37 28.4 146.37 28.4"/><path class="cls-4" d="M146.34,28.31s0,.06,0,.09S146.38,28.35,146.34,28.31Z"/><path class="cls-4" d="M146.28,28.54h0Z"/><polygon class="cls-4" points="146.97 27.16 146.97 27.16 146.97 27.16 146.97 27.16"/><path class="cls-4" d="M146.86,27.44h0Z"/><polygon class="cls-4" points="146.1 29.29 146.1 29.29 146.1 29.29 146.1 29.29"/><path class="cls-4" d="M145.28,32.08a5.37,5.37,0,0,1,.29-.91c-.07-.1,0-.18,0-.28l.12.05v-.09c.05,0,0,.06.06,0l-.06-.06c.05,0,.11-.16.14,0l.12-.27c0-.06-.09-.08,0-.13s0,0,.06,0c.17-.16-.13-.33,0-.49v0s0-.1,0-.11.05.06,0,.09,0-.09-.11-.12,0-.08,0-.12.09-.15.19-.17-.1-.12-.08-.19.07,0,.13,0l-.05,0s0,0,.07,0-.06-.08,0-.14l0,.07c0-.07,0-.08.06-.16s0,.05,0,.07,0-.09,0-.11-.07,0-.11,0-.05-.11,0-.11l0,.07c0-.1-.05-.07,0-.15h0c-.05-.08.05-.13.09-.21v0s0-.08,0-.1-.06,0-.12,0c.12,0-.07-.15,0-.23s.06.06,0,.07.17.12.19.2,0-.1,0-.07l-.08-.05a.33.33,0,0,1,0-.06c-.06,0-.12,0-.13-.06s.11,0,.07,0-.08-.08,0-.15a0,0,0,0,1,0,0c.06-.05.05-.15.17-.12s0,0,0,.05h0c.06.1,0-.06.1,0-.07,0,0-.1,0-.13l-.07,0c-.15-.21.13.07.15-.07s0,0,0,0,.1,0,.1-.13a.23.23,0,0,1,.17,0c0-.06.1-.13,0-.19s.05.12-.09.17l-.06-.06c0-.06,0-.16.07-.2s0,0-.05,0-.05-.16,0-.24,0,.06,0,.1,0-.05.09-.13,0,0,0,.09l0-.11h0c-.09-.06,0-.07,0-.15s-.06-.22-.11-.33.07,0,.09,0,0,0,0,0,.14-.07.17,0-.07,0-.08-.06l.06-.1c-.06,0-.09,0-.1,0s0-.07.05-.13.09,0,.06.06.06-.06,0-.1,0-.13-.1-.11l.08-.05s0,0,0,.05,0-.06,0-.09.05-.07.08-.07,0-.07.07-.06-.05,0-.07-.05l.06-.1a.54.54,0,0,1,.17.08c0-.06-.12-.07-.09-.13s.1,0,.18,0,.11-.11.11-.17-.06,0-.13,0-.13-.25,0-.35l0,0a.33.33,0,0,0,0-.14.2.2,0,0,0,.28-.1s-.1,0-.16,0l0-.08s0,0,0,0,.17-.09.08-.15h.09s0-.11,0-.13,0-.11.11-.13-.13,0-.12-.07.1-.11.17-.07.07-.06,0-.08l.08,0c-.11-.06-.07-.15-.06-.22s0-.09.18-.05c-.1-.06,0-.15-.08-.2s.12,0,.16,0l0-.05c.06,0,.11-.1.17-.14l-.07-.1h.05s0-.07-.06-.06l0,0c-.1,0,0-.05,0-.13s.05,0,.05,0,.07,0,.11,0-.14-.18-.22-.12-.06-.08,0-.1l.1,0-.08-.07c0-.05.07-.05.1-.08s.14.16.18.06c0,.06,0,.1,0,.14s0,0,.05,0,0-.05,0-.13a.12.12,0,0,0,.17,0l-.08,0,0,0s0,0-.06,0-.07-.14,0-.13c-.17,0,0-.17-.14-.16s0-.07,0-.06.11,0,.17,0-.09,0-.11,0,.08-.05.11-.06v0l.07,0s-.1,0-.1,0,0-.07.06-.05.13.06.12.12.06-.17,0-.15l0-.05c-.05,0-.14.07-.12,0h0l0-.09h.06s0,0,0-.05h.08c0-.07,0-.08,0-.1s0-.05.08,0,.06-.14.12-.16,0,0-.06-.06c.17,0,.15-.2.19-.33-.14,0,0,0-.11-.1s.14-.07.14.05v-.07c.09,0,0,.12.13.1s-.09-.17,0-.24,0-.07.08,0,0,.05,0,.08h0c.09-.14-.09-.09-.11-.19s.1,0,.14,0,0-.06,0-.09-.1.07-.15,0c.12,0,.07-.13,0-.17s0,.09-.21.16c0,0,.12.07.05.13s-.06,0-.08,0,0,.06,0,.1-.1-.1-.15,0l.12.07s-.09-.05-.09,0-.1,0-.08-.12c-.15.05,0,.18,0,.27l0,0s0,.06,0,.09,0-.06-.08-.07l0,.09h0s0,.05,0,.05-.06-.07-.09-.1l.05.12s-.1,0-.1,0l0,.13-.09,0s0,0,0,0,.07.26-.09.17c0,.13,0,.15,0,.29,0-.12-.14.07-.14-.05-.06.05,0,.1,0,.15s-.13,0-.14-.09l0,.08h0l0,.07c-.07,0-.09,0-.12,0l.06,0,0,0s0,0,0,.08h0v.05c0-.06,0,0-.07,0a.4.4,0,0,0,0,.12h.06c0,.11-.08,0-.12,0l.06,0c-.14.07,0,.21-.12.26s-.07-.06,0-.06-.07.19,0,.29-.13,0-.2,0,0,.07,0,.11,0,.15-.11.13,0,0,0,.09h0l.06,0c-.17,0,0,.19-.14.23v0s0,0-.07,0l-.09.17h.06s0,.09,0,.11,0,.06-.1.05v-.05c0,.05,0,.05,0,.07s-.13,0-.1.09l0,0s.07.05.05.08,0,0,0,0-.07.13,0,.17-.07,0-.08,0c0,.14,0,.05,0,.18h0l0,.05-.1,0h0s0,.07,0,.11l0,0c0,.12-.14.09-.11.22a0,0,0,0,1,0,0c0,.13-.12,0-.07.17l0,0,0,.06-.07,0,.08.08h-.08l0,0c-.15,0-.08.1-.2.12l.09,0c.1.24-.26.33-.26.56l-.07,0,.05.12c-.07,0-.05-.05-.09-.05s.08.07.06.18,0,0-.05-.07,0,.26-.1.31h0c0,.07-.06.14-.08.21s0,0,0-.05-.05.05,0,.08l0,0s0,.17-.1.15.07,0,0,.08,0,.14-.09.19,0-.08,0-.06,0,.08,0,.12l0,0,0,.2c-.11,0,0,.16-.12.12s.06,0,0,.05,0,.08-.07,0v0l0,.06-.05-.06c0,.05,0,.11.09.14s0,.1-.12.09v0c0,.13-.26.13-.2.27s0,0,0,0l0,.07,0,0,0,.15h0a2.76,2.76,0,0,0-.12.32v0c0,.14-.08.1-.08.2s0,0,0,0l0,.08,0,0c0,.09-.17.12-.09.11s0,.12.07.14-.05,0-.1.05,0,.09-.05.16l0,0s0,.08,0,.13v0c0,.12-.15.07,0,.2,0,0-.05.1-.12.07a2,2,0,0,1,0,.34c-.11,0,0,0-.09.06l.06,0c-.06.16-.28.27-.32.45l-.07,0,.05.07c-.1.16-.22.39-.29.53s.05.16,0,.23h0a1,1,0,0,1-.16.42s0,0,0,0,0,.09-.05.12l.06,0c0,.06,0,.1-.09.1l0,.09s0,0,0,0l0,0h-.09s0,.11.06.17-.08.05-.07,0l-.12.22,0,0a.08.08,0,0,1,0,.14c0-.07-.08,0-.13,0s.06,0,.09,0,0,.15,0,.16v0c0,.06-.12,0-.14.1s0,.08.08.12-.08,0-.1,0,0,.14-.1.13c.13.1-.13.16,0,.23l-.1,0a.14.14,0,0,1,.1.11c-.06,0-.11,0-.15,0l.11.08c-.24.19-.29.56-.52.79a1.56,1.56,0,0,1-.11.45v0l-.1.13.1-.08s0,.07,0,.1a1.09,1.09,0,0,0-.29.54c.09.18-.16,0-.11.19,0,0,0,0,0,0a1.3,1.3,0,0,0,0,.39c-.13-.08,0,.08-.1,0l.05,0s-.09.07-.12,0l0,.09-.06,0c0,.07,0,.26-.19.24A1.52,1.52,0,0,1,141,37a.19.19,0,0,1,0,.18l-.09,0c0,.06.06.16,0,.19h0c0,.06-.07.09,0,.17s-.09.1-.15.06c.12,0-.07.12-.07.12s-1.61,3-1.3,4c0,.05.05.13.13.14s-.12,0-.06.08.14.08.24,0v0s0-.08,0,0l-.1-.06a.11.11,0,0,1,.11,0c0-.06-.17-.14-.07-.2v0c0-.07.09,0,.11,0h0l.08,0s0,.14,0,.1,0,0,0-.06.06,0,.1,0l0-.07s0,0,0,0v-.11c.13,0,0-.12.11-.11s.05,0,.08,0l.06-.15s0,0,0,0,0-.06,0-.08.05-.11.13-.07-.08-.09,0-.17,0,.09,0,.07l0-.11s.07,0,.05.08c.18-.24.51-.27.55-.54.07,0,0,0,.05.08,0-.21.24-.19.3-.34l0,0c.25-.14.27-.44.43-.65l0,0c0-.06,0-.11,0-.16s.1.07.11,0-.06,0-.08,0c.22-.15.37-.59.58-.9.16-.48.47-.93.63-1.39,0,.07-.14,0-.09,0,.27,0,.07-.26.28-.34,0-.29.32-.45.27-.76l.06,0s0-.05,0-.09h0c.06-.08,0-.22.1-.26l-.06,0s.06,0,0-.07h0l0-.09c.11.06.08-.15.15-.17a.69.69,0,0,1,.08-.32c.07,0,.12-.12.19-.19a2.89,2.89,0,0,1,.24-.6l-.08,0,0-.05h0c.11,0,0-.13.1-.15-.08,0,0,0,0,.06s-.11,0,0-.09h0l0-.05c.07,0,.11,0,.17,0,.06-.18,0-.34.12-.51,0,.05,0-.14.13,0,0-.13-.1,0-.16-.11s0-.07,0-.06.08,0,.08,0l0-.08s0,0,0,0c0-.17.19-.23.18-.39s0,0-.07,0,.12-.08.12-.23l0,0c0-.06-.06-.1,0-.14s0,.07.05.12,0-.17,0-.16.07,0,.1-.08-.07,0-.08,0a1,1,0,0,0,.16-.26l0,0C145.11,32.11,145.26,32.19,145.28,32.08Z"/><path class="cls-4" d="M147,27.13l0,0s0,0,0,0Z"/><path class="cls-4" d="M146.22,28.83s0,0,0,0S146.22,28.84,146.22,28.83Z"/><path class="cls-4" d="M146.16,29.3s0,0-.06,0A.06.06,0,0,0,146.16,29.3Z"/><path class="cls-4" d="M147.24,26.07l0,0Z"/><path class="cls-4" d="M148.45,23.39h0Z"/><path class="cls-4" d="M148.28,23.5v0A0,0,0,0,0,148.28,23.5Z"/><path class="cls-4" d="M147,26.74a.08.08,0,0,0,0,0S147,26.75,147,26.74Z"/><path class="cls-4" d="M148.28,23.57l0,0h0Z"/><path class="cls-4" d="M148.48,23.35l0,0S148.49,23.37,148.48,23.35Z"/><path class="cls-4" d="M147.58,25.05h0S147.6,25.07,147.58,25.05Z"/><polygon class="cls-4" points="148.32 23.78 148.32 23.79 148.33 23.81 148.32 23.78"/><path class="cls-4" d="M148.58,23.2v0l0,0Z"/><path class="cls-4" d="M147.93,24.52s0,0-.05,0S147.89,24.51,147.93,24.52Z"/><path class="cls-5" d="M42.21,20s3.07,5.07,5.69,8.58,4.77,6.6,7.63,8S75.24,43,77.45,45.26s4.84,9.61,5.26,11.64,1.83,11.55.85,13c-1.44,2.12-3.85,3.91-5.84,5.48a13.83,13.83,0,0,1-3.09,2A45.31,45.31,0,0,1,69,79.83a3.59,3.59,0,0,1-2.66-.06,2.49,2.49,0,0,1-1.14-1.67c-.36-1.79.92-4.41,2.35-5.49,1.2-.91,4.31-2.1,3.93-4l-1.18-6c-.26-1.32-.27-3.28-1-4.44-1-1.56-5.31.46-6.71.5A21.47,21.47,0,0,1,55,57.22a18.06,18.06,0,0,1-3.66-1.67A2.68,2.68,0,0,0,49.31,55c-.61.21-1,1-1.51,1.45a6.4,6.4,0,0,1-3.5,1.49c-1.64.17-3.29-1-4.79-1.6a2.37,2.37,0,0,0-2.66.34c-.78.68-1.08,1.67-1.81,2.37-1,.93-2.48.88-3.81.77-1.12-.09-2.34.05-3.18-.82a7,7,0,0,1-1.17-2.34,10.49,10.49,0,0,1-.67-2c-.29-1.38-.35-2.8-.57-4.19-.3-2-.42-4.66-1.55-6.35-1.33-2-6.39-9.67-6.39-9.67s-.18-4.1,11.19-10.58A33.2,33.2,0,0,1,42.21,20Z"/><path class="cls-6" d="M80.75,75c1.34,3.4,3.79,8.78,1.38,12.19-1.6,2.26-4.72,2.66-6.42.38-1.45-2-1.66-4.53-2.23-6.81a1.13,1.13,0,0,1,0-.92,1.14,1.14,0,0,1,.41-.31,21.92,21.92,0,0,0,3-1.67C78.71,76.65,80.69,74.94,80.75,75Z"/><path class="cls-6" d="M70.4,81.22a2.46,2.46,0,0,1,1.45.31,1.18,1.18,0,0,1,.32.58,7.54,7.54,0,0,1-1,7.42c-2.77,3.41-6.77.85-8.25-2.33-.69-1.48-.69-3.28-1-4.87-1-4.29-1.94-8.58-2.88-12.87C58.61,68,58.3,66.51,58,65a25,25,0,0,1-.9-4.56.7.7,0,0,1,.11-.49.72.72,0,0,1,.54-.19,10.89,10.89,0,0,1,2.46.35A11,11,0,0,0,64.93,60a5,5,0,0,1,1.27-.25,1.47,1.47,0,0,1,1.37.84c.84,1.7,1,3.77,1.44,5.63.39,1.68.39,3.38-1.23,4.4a9.13,9.13,0,0,0-4.05,5.82,6,6,0,0,0,0,2.77c.35,1.28,1.77,2.94,3.23,2.9.89,0,1.62-.65,2.48-.79A5.78,5.78,0,0,1,70.4,81.22Z"/><path class="cls-6" d="M54.73,60.78l.08.29c2.14,7.86,3.81,15.8,5.66,23.73.52,2.21.75,4.38-.77,6.27a4.68,4.68,0,0,1-5.12.71c-.63-.44-2.2-2.16-3-5.63S49.29,75,49.29,75c-.55-2.11-.83-4.34-1.24-6.49-.35-1.83-.8-3.65-1.1-5.49-.15-.91-.24-1.82-.32-2.74s.37-1.3,1.14-1.8A4.82,4.82,0,0,1,51,57.35a5.08,5.08,0,0,1,1.28.43A3.93,3.93,0,0,1,54.73,60.78Z"/><path class="cls-6" d="M44.14,61a6.31,6.31,0,0,1,1,3.19l2,11.22a10.22,10.22,0,0,1,.1,4.63c-.86,3-3.56,3.12-5.85,1.64a18,18,0,0,1-5.88-6.23A4.41,4.41,0,0,1,34.78,73a7.16,7.16,0,0,1,.94-2.41c.73-1.52.94-5.4.65-7.07-.38-2.16-.82-4.23,1.85-5.41.89-.39,2.07.51,2.84.88a9.82,9.82,0,0,1,3,2Z"/><path class="cls-5" d="M83.61,77.82c1.79.57,10.13,2.27,12.19,2.58l.41-2.06L93.9,73.13l3.71-2.25s-5.38-1.18-5.77-1.24c-1.27-.21-2.53-.45-3.79-.69l-1.76-.34c-.33-.07-.56-.16-.85,0a3.89,3.89,0,0,0-.8,1.29c-.6,1.39-1.62,2-2.2,3.38a5,5,0,0,0-.39,2.49,2,2,0,0,0,.6,1.28A3.32,3.32,0,0,0,83.61,77.82Z"/><path class="cls-5" d="M34.57,61c-.74-.21-10.53-1.43-12.42-1.6-3.88-.35-4.87,1.38-5.65,3.06-1,2.12.12,4.92,1.68,6.51,2,2,7,2.48,8.66,2.69,1.34.17,6.61.4,6.61.4a8.58,8.58,0,0,0,1.75-4A10.91,10.91,0,0,0,34.57,61Z"/><path class="cls-7" d="M49.09,44.89c2.06-.53,4.39.21,6.46,1,4.66,1.71,9.67,3.71,12.2,8,2.27,3.82-2,4.79-5.07,4.88a21.5,21.5,0,0,1-7.55-1.41,17.49,17.49,0,0,1-3.65-1.68,2.74,2.74,0,0,0-2.06-.58c-.62.21-1,1-1.52,1.46A6.48,6.48,0,0,1,44.4,58c-2.12.21-4.35-1.52-6.39-2-1.07-.23-1.64.58-1.8-.9s1.81-2.24,2.84-2.52a15.12,15.12,0,0,0,3-.91c2.57-1.36,3.34-4.9,5.87-6.33A5,5,0,0,1,49.09,44.89Z"/><path class="cls-5" d="M147,74.88l-9.26-22.57L128,40.87a3.11,3.11,0,0,0-3.09-.69l-10.8,4.43A2.61,2.61,0,0,0,112.73,48l5.12,12.48L106.59,65.1l-2.49,3.71,6.09,4.39.83,1.87,11-4.5,5.12,12.48a2.6,2.6,0,0,0,3.39,1.42l15.13-6.21A2.59,2.59,0,0,0,147,74.88Z"/><circle class="cls-1" cx="129.48" cy="61.16" r="3.42"/></g></svg>