<svg xmlns="http://www.w3.org/2000/svg" viewBox="0 0 195 155"><defs><style>.cls-1{fill:#bee5f6;}.cls-2{fill:#27aae1;}.cls-3{fill:#6ac4ea;}.cls-4,.cls-7{fill:none;}.cls-4{stroke:#2bace2;stroke-linecap:round;stroke-linejoin:round;stroke-width:2.36px;}.cls-5,.cls-6{fill:#fff;}.cls-6,.cls-7{stroke:#27aae1;stroke-miterlimit:10;stroke-width:1.17px;}</style></defs><title>work</title><g id="Layer_6" data-name="Layer 6"><circle class="cls-1" cx="97" cy="77.46" r="45.85"/><path class="cls-2" d="M56.71,22.64h0a.54.54,0,0,1,.18,0Z"/><path class="cls-3" d="M112.36,58v32.6a3.73,3.73,0,0,1-1,2.77,4.06,4.06,0,0,1-2.89,1h1.85a2.11,2.11,0,0,0,1.56-.46,2,2,0,0,0,.48-1.54V58Z"/><path class="cls-3" d="M112.36,58a12.52,12.52,0,0,1-3.19,2.28,20.16,20.16,0,0,1-9.06,2.09H78.05a7.87,7.87,0,0,1,0,.84,7.55,7.55,0,1,1-15.09,0,7.89,7.89,0,0,1,0-.84H40.91a20.19,20.19,0,0,1-9.06-2.09A12.47,12.47,0,0,1,28.67,58V92.37a2.09,2.09,0,0,0,.47,1.57,2.14,2.14,0,0,0,1.57.46h77.76a4.06,4.06,0,0,0,2.89-1,3.73,3.73,0,0,0,1-2.77Z"/><path class="cls-2" d="M147.55,74l2.27-1.75C149.08,72.73,148.32,73.33,147.55,74Z"/><path class="cls-2" d="M154.2,92a67.93,67.93,0,0,0-13-12.89c-2.45,1.7-4.72,2.63-6.47,1.44-.56-.37-4.9-2.71-5-3a58,58,0,0,0-10.47-5.66c-9.13-3.4-18.52-.14-27.81-1.27a11.4,11.4,0,0,0-3.86-.09A3.38,3.38,0,0,0,84.94,73a4.26,4.26,0,0,0,1.8,3.76A12.91,12.91,0,0,0,93,79.23c5.68.94,12.1-1.11,17.52,1.46A2.41,2.41,0,0,1,112,82.63c.12,3.4-10.41,5.11-17.29,6.65-6.2,1.39-12.21,3.85-18.23,5.89-6.93,2.35-13.74,3.52-20.57,6.36a4.87,4.87,0,0,0-2.83,2.16,5.16,5.16,0,0,0-.19,2.71,2.67,2.67,0,0,0,2.41,2.36c2.62.6,5.1-.24,7.66-.68,2.94-.52,5.76-1.55,8.67-2.12l.92-.16c3.44-.54,6.9-1.84,10.25-2.8,2.7-.76,5.39-1.56,8.11-2.27.89-.23,3-1.17,4-.7,3,1.52-14.07,8-25,9.93-3.1.56-6.21,1.05-9.26,1.85-2.57.68-5.67,1.28-6.13,4.55a4.94,4.94,0,0,0,1.15,3.86,2.69,2.69,0,0,0,1.17.82,3,3,0,0,0,1.11.09c3.29-.13,6.64-.7,9.9-1.12q5.22-.67,10.37-1.82c9.13-2,18.49-6.87,18.88-5.19.51,2.26-3.47,3.1-7.09,4.63-6.85,3.55-11.68,3.77-19.1,5.14a24.26,24.26,0,0,0-7.42,2.4,3.92,3.92,0,0,0-1.95,1.94,4.23,4.23,0,0,0-.2,1.46,5.08,5.08,0,0,0,1,3.34,4.71,4.71,0,0,0,3.22,1.35c3.63.34,7.52-.79,11.06-1.48,4-.77,7.87-1.62,11.77-2.64,5.71-1.49,15.38-7.24,15.46-4.64,0,1.27-11.71,5.91-14.53,6.71-2.15.61-4.31,1.22-6.48,1.78-1.88.48-3.78.57-5.69,1a4.27,4.27,0,0,0-1.47.54,2.85,2.85,0,0,0-.65,3.51,4.22,4.22,0,0,0,3,2.1,9.83,9.83,0,0,0,3.7-.2,160.93,160.93,0,0,0,16.72-4.2c5.21-1.6,10.22-3.16,15.54-4.38,18.32-4.23,27.13-13.61,30.69-14.62.45-.13,8-4.14,14.79-7.82A28.74,28.74,0,0,0,154.2,92Z"/><path class="cls-1" d="M141.06,79l.15.11c2-1.42,4.23-3.39,6.34-5.1Z"/><path class="cls-1" d="M169.9,81.41a52,52,0,0,0-13.8-14l-6.28,4.84L147.55,74c-2.11,1.71-4.29,3.68-6.34,5.1A67.93,67.93,0,0,1,154.2,92a28.74,28.74,0,0,1,5.32,17c0,.18,0,.29,0,.29l15.74-8.57S176.5,92,169.9,81.41Z"/><path class="cls-4" d="M139.23,86.87c-1.06,5.69-7.37,9.28-14.1,8S113.81,88,114.87,82.33"/><polygon class="cls-5" points="128.72 104.1 139.27 103.71 145.05 100.66 145.05 96.48 122.27 96.48 122.27 102.02 128.72 104.1"/><polygon class="cls-5" points="104.44 113.3 115.6 112.92 121.71 109.49 121.71 105.68 97.62 105.68 97.62 109.64 104.44 113.3"/><ellipse class="cls-6" cx="133.13" cy="94.11" rx="12.35" ry="5.54"/><path class="cls-7" d="M120.78,98.71c0,3.06,5.53,5.54,12.35,5.54s12.36-2.48,12.36-5.54"/><line class="cls-6" x1="145.49" y1="94.25" x2="145.49" y2="98.71"/><line class="cls-6" x1="120.78" y1="94.25" x2="120.78" y2="99.11"/><ellipse class="cls-6" cx="133.13" cy="89.51" rx="12.35" ry="5.54"/><path class="cls-7" d="M120.78,94.11c0,3.06,5.53,5.53,12.35,5.53s12.36-2.47,12.36-5.53"/><line class="cls-6" x1="145.49" y1="89.65" x2="145.49" y2="94.11"/><line class="cls-6" x1="120.78" y1="89.65" x2="120.78" y2="94.51"/><ellipse class="cls-6" cx="133.13" cy="84.91" rx="12.35" ry="5.54"/><path class="cls-7" d="M120.78,89.51c0,3.06,5.53,5.53,12.35,5.53s12.36-2.47,12.36-5.53"/><line class="cls-6" x1="145.49" y1="85.05" x2="145.49" y2="89.51"/><line class="cls-6" x1="120.78" y1="85.05" x2="120.78" y2="89.91"/><ellipse class="cls-6" cx="133.13" cy="80.31" rx="12.35" ry="5.54"/><path class="cls-7" d="M120.78,84.91c0,3.06,5.53,5.53,12.35,5.53s12.36-2.47,12.36-5.53"/><line class="cls-6" x1="145.49" y1="80.45" x2="145.49" y2="84.91"/><line class="cls-6" x1="120.78" y1="80.45" x2="120.78" y2="85.31"/><ellipse class="cls-6" cx="109.36" cy="103.31" rx="12.35" ry="5.54"/><path class="cls-7" d="M97,107.91c0,3.06,5.53,5.54,12.36,5.54s12.35-2.48,12.35-5.54"/><line class="cls-6" x1="121.71" y1="103.45" x2="121.71" y2="107.91"/><line class="cls-6" x1="97" y1="103.45" x2="97" y2="108.31"/><ellipse class="cls-6" cx="109.36" cy="98.71" rx="12.35" ry="5.54"/><path class="cls-7" d="M97,103.31c0,3.06,5.53,5.54,12.36,5.54s12.35-2.48,12.35-5.54"/><line class="cls-6" x1="121.71" y1="98.85" x2="121.71" y2="103.31"/><line class="cls-6" x1="97" y1="98.85" x2="97" y2="103.71"/><ellipse class="cls-6" cx="109.36" cy="94.11" rx="12.35" ry="5.54"/><path class="cls-7" d="M97,98.71c0,3.06,5.53,5.54,12.36,5.54s12.35-2.48,12.35-5.54"/><line class="cls-6" x1="121.71" y1="94.25" x2="121.71" y2="98.71"/><line class="cls-6" x1="97" y1="94.25" x2="97" y2="99.11"/><ellipse class="cls-6" cx="109.36" cy="89.51" rx="12.35" ry="5.54"/><path class="cls-7" d="M97,94.11c0,3.06,5.53,5.53,12.36,5.53s12.35-2.47,12.35-5.53"/><line class="cls-6" x1="121.71" y1="89.65" x2="121.71" y2="94.11"/><line class="cls-6" x1="97" y1="89.65" x2="97" y2="94.51"/><path class="cls-2" d="M112.36,34.91a2.74,2.74,0,0,0-.88-2,2.91,2.91,0,0,0-2-.86H90.15a18.76,18.76,0,0,0-37.4,0H31.59a2.89,2.89,0,0,0-2,.86,2.73,2.73,0,0,0-.88,2c0,7.71,0,15.38,0,23.12a12.47,12.47,0,0,0,3.18,2.28,20.19,20.19,0,0,0,9.06,2.09H63.05a7.55,7.55,0,0,1,15,0h22.06a20.16,20.16,0,0,0,9.06-2.09A12.52,12.52,0,0,0,112.36,58ZM71.45,21.07a12.58,12.58,0,0,1,12.47,11H59A12.59,12.59,0,0,1,71.45,21.07Z"/><path class="cls-2" d="M138.52,79.77h-2.25V78a.35.35,0,0,0-.38-.34.36.36,0,0,0-.38.34v1.78h-1.08V78a.35.35,0,0,0-.38-.34.36.36,0,0,0-.38.34v1.56L129,77.35a.41.41,0,0,0-.45.06.3.3,0,0,0-.11.29l.06.19,4.77,2.24-4.64,2.36a.32.32,0,0,0-.19.26V83l.12.09a.39.39,0,0,0,.26.09.37.37,0,0,0,.18,0l4.69-2.38v1.56a.36.36,0,0,0,.38.35.36.36,0,0,0,.38-.35V80.46h1.08v1.81a.36.36,0,0,0,.38.35.36.36,0,0,0,.38-.35V80.46h2.25a.35.35,0,1,0,0-.69Z"/><path class="cls-2" d="M115.58,88.74h-1.64a2.45,2.45,0,0,0-.44-1.32,2.62,2.62,0,0,0-1.21-.94,2.9,2.9,0,0,0-1.57-.09,2.83,2.83,0,0,0-1.3.69,3.39,3.39,0,0,0-.72,1.18L108,89.77a1.59,1.59,0,0,1-.8.86,1.67,1.67,0,0,1-1.34,0,1.43,1.43,0,0,1-.71-.91,1.63,1.63,0,0,1,.1-1.14,1.67,1.67,0,0,1,.64-.79,1.81,1.81,0,0,1,1.1-.25h0a.42.42,0,0,0,.46-.39.43.43,0,0,0-.4-.45,2.48,2.48,0,0,0-2.58,1.53,2.92,2.92,0,0,0-.15.47h-1.71a.43.43,0,0,0,0,.85h1.66a2.61,2.61,0,0,0,.08.46,2.22,2.22,0,0,0,1.14,1.39,2.48,2.48,0,0,0,2.12-.06,2.36,2.36,0,0,0,1.17-1.29l.67-1.47a2.61,2.61,0,0,1,.53-.91,1.9,1.9,0,0,1,.89-.49,2.11,2.11,0,0,1,1.12.07,1.66,1.66,0,0,1,.79.62,1.78,1.78,0,0,1,.29,1.19,1.93,1.93,0,0,1-.61,1.59,2.33,2.33,0,0,1-1.83.44.43.43,0,0,0-.52.3.44.44,0,0,0,.3.53,3.22,3.22,0,0,0,2.6-.62,2.64,2.64,0,0,0,.89-1.75h1.66a.43.43,0,0,0,0-.85Z"/><circle class="cls-5" cx="43.99" cy="113.63" r="7.55"/><circle class="cls-5" cx="70.55" cy="63.24" r="7.55"/></g></svg>