<svg xmlns="http://www.w3.org/2000/svg" viewBox="0 0 195 155"><defs><style>.cls-1{fill:#27aae1;}.cls-2{fill:#bee5f6;}.cls-3{fill:#73c8eb;}.cls-4,.cls-8{fill:#fff;}.cls-5,.cls-7,.cls-9{fill:none;}.cls-5{stroke:#bee5f6;}.cls-5,.cls-7{stroke-linecap:round;stroke-linejoin:round;}.cls-5,.cls-7,.cls-8,.cls-9{stroke-width:1.5px;}.cls-6{fill:#2bace2;}.cls-7{stroke:#fff;opacity:0.51;}.cls-8,.cls-9{stroke:#27aae1;stroke-miterlimit:10;}</style></defs><title>work</title><g id="Layer_1" data-name="Layer 1"><path class="cls-1" d="M79.55,37.24H75a27.51,27.51,0,0,0-2.66-6.43l3.25-3.24a1,1,0,0,0,.27-.73,1.33,1.33,0,0,0-.27-.73l-8.09-8a1,1,0,0,0-1.39,0L62.84,21.4a25.52,25.52,0,0,0-6.43-2.65V14.11a1,1,0,0,0-1-1H44a1,1,0,0,0-1,1v4.57a27.91,27.91,0,0,0-6.43,2.65l-3.25-3.24a1,1,0,0,0-.73-.27,1.36,1.36,0,0,0-.73.27l-7.95,8.08a1,1,0,0,0-.27.73,1.41,1.41,0,0,0,.27.73l3.25,3.25a25.86,25.86,0,0,0-2.66,6.43H19.88a1,1,0,0,0-1,1V49.64a1,1,0,0,0,1,1h4.58a27.06,27.06,0,0,0,2.65,6.43l-3.25,3.25a1,1,0,0,0-.26.73,1.36,1.36,0,0,0,.26.72l8,8a1,1,0,0,0,1.4,0l3.24-3.25A26.21,26.21,0,0,0,43,69.2v4.57a1,1,0,0,0,1,1H55.29a1,1,0,0,0,1-1V69.2a27.48,27.48,0,0,0,6.43-2.65L66,69.8a1,1,0,0,0,.73.26,1.43,1.43,0,0,0,.73-.26l8-8a1,1,0,0,0,.27-.72,1.41,1.41,0,0,0-.27-.73l-3.25-3.25a25.45,25.45,0,0,0,2.65-6.43h4.71a1,1,0,0,0,1-1V38.24A1,1,0,0,0,79.55,37.24ZM58.52,60a18.3,18.3,0,1,1,7.24-24.85A18.31,18.31,0,0,1,58.52,60Z"/><path class="cls-2" d="M120.24,90.94a33,33,0,0,1,19.34,6.27,46.24,46.24,0,0,0,2.24-6,45.68,45.68,0,1,0-84.73,7.4,33.06,33.06,0,0,1,21.17-7.67Z"/><path class="cls-3" d="M85.11,122.14a45.69,45.69,0,0,0,54.47-24.93,33,33,0,0,0-19.34-6.27h-42a33.06,33.06,0,0,0-21.17,7.67A45.56,45.56,0,0,0,85.11,122.14Z"/><circle class="cls-4" cx="97.25" cy="58.31" r="24.97"/><path class="cls-5" d="M76.53,42.26a11.16,11.16,0,0,1,5.88-1.36,12,12,0,0,1,12,11.73V66.88h4"/><circle class="cls-6" cx="84.95" cy="54.71" r="2.32"/><circle class="cls-6" cx="108.58" cy="54.71" r="2.32"/><line class="cls-7" x1="81.8" y1="58.28" x2="88.1" y2="58.28"/><line class="cls-7" x1="105.86" y1="58.28" x2="112.15" y2="58.28"/><path class="cls-1" d="M104.48,33.51a21.93,21.93,0,0,0-13.57.42,22,22,0,0,0,25.19,7.75A21.89,21.89,0,0,0,104.48,33.51Z"/><ellipse class="cls-8" cx="126.7" cy="119.45" rx="15.78" ry="7.07"/><path class="cls-9" d="M142.49,125.33c0,3.9-7.07,7.07-15.79,7.07s-15.78-3.17-15.78-7.07"/><line class="cls-8" x1="110.92" y1="119.63" x2="110.92" y2="125.33"/><line class="cls-8" x1="142.49" y1="119.63" x2="142.49" y2="125.84"/><ellipse class="cls-8" cx="126.7" cy="113.57" rx="15.78" ry="7.07"/><path class="cls-9" d="M142.49,119.45c0,3.91-7.07,7.07-15.79,7.07s-15.78-3.16-15.78-7.07"/><line class="cls-8" x1="110.92" y1="113.76" x2="110.92" y2="119.45"/><line class="cls-8" x1="142.49" y1="113.76" x2="142.49" y2="119.97"/><ellipse class="cls-8" cx="126.7" cy="107.69" rx="15.78" ry="7.07"/><path class="cls-9" d="M142.49,113.57c0,3.91-7.07,7.07-15.79,7.07s-15.78-3.16-15.78-7.07"/><line class="cls-8" x1="110.92" y1="107.88" x2="110.92" y2="113.57"/><line class="cls-8" x1="142.49" y1="107.88" x2="142.49" y2="114.09"/><ellipse class="cls-8" cx="126.7" cy="101.82" rx="15.78" ry="7.07"/><path class="cls-9" d="M142.49,107.69c0,3.91-7.07,7.08-15.79,7.08s-15.78-3.17-15.78-7.08"/><line class="cls-8" x1="110.92" y1="102" x2="110.92" y2="107.69"/><line class="cls-8" x1="142.49" y1="102" x2="142.49" y2="108.21"/><ellipse class="cls-8" cx="157.08" cy="131.21" rx="15.78" ry="7.07"/><path class="cls-9" d="M172.86,137.08c0,3.91-7.06,7.07-15.78,7.07s-15.79-3.16-15.79-7.07"/><line class="cls-8" x1="141.29" y1="131.39" x2="141.29" y2="137.08"/><line class="cls-8" x1="172.86" y1="131.39" x2="172.86" y2="137.6"/><ellipse class="cls-8" cx="157.08" cy="125.33" rx="15.78" ry="7.07"/><path class="cls-9" d="M172.86,131.21c0,3.9-7.06,7.07-15.78,7.07s-15.79-3.17-15.79-7.07"/><line class="cls-8" x1="141.29" y1="125.51" x2="141.29" y2="131.21"/><line class="cls-8" x1="172.86" y1="125.51" x2="172.86" y2="131.72"/><ellipse class="cls-8" cx="157.08" cy="119.45" rx="15.78" ry="7.07"/><path class="cls-9" d="M172.86,125.33c0,3.9-7.06,7.07-15.78,7.07s-15.79-3.17-15.79-7.07"/><line class="cls-8" x1="141.29" y1="119.63" x2="141.29" y2="125.33"/><line class="cls-8" x1="172.86" y1="119.63" x2="172.86" y2="125.84"/><ellipse class="cls-8" cx="157.08" cy="113.57" rx="15.78" ry="7.07"/><path class="cls-9" d="M172.86,119.45c0,3.91-7.06,7.07-15.78,7.07s-15.79-3.16-15.79-7.07"/><line class="cls-8" x1="141.29" y1="113.76" x2="141.29" y2="119.45"/><line class="cls-8" x1="172.86" y1="113.76" x2="172.86" y2="119.97"/></g></svg>