<svg id="Logo_Pattern" data-name="Logo-Pattern" xmlns="http://www.w3.org/2000/svg" viewBox="0 0 164 70"><title>Logo</title><g id="logo-pattern"><rect id="rect-1" data-name="rect-1" width="35" height="35" style="fill:#b4e1ea"/><path id="Path_599" data-name="Path 599" d="M0,35C0,54.25,15.22,70,34,70h1V49H34c-7.68,0-13-6.13-13-14Z" transform="translate(0)" style="fill:#2956d1"/><rect id="rect-2" data-name="rect-2" x="35" width="35" height="35" style="fill:#ad9300"/><rect id="rect-3" data-name="rect-3" x="70" y="35" width="24" height="35" style="fill:#491c8b"/><rect id="rect-4" data-name="rect-4" x="70" width="24" height="35" style="fill:#624093"/><path id="Path_600" data-name="Path 600" d="M70,70A35,35,0,0,1,35,35H70" transform="translate(0)" style="fill:#199f8b"/><path id="Path_601" data-name="Path 601" d="M35,0A35,35,0,0,1,70,35H35" transform="translate(0)" style="fill:#32b8ab"/><rect id="rect-5" data-name="rect-5" x="94" y="35" width="35" height="35" style="fill:#feb8a9"/><path id="path-6" data-name="path-6" d="M164,70,129,35V70Z" transform="translate(0)" style="fill:#faf5d5"/><path id="Path_603" data-name="Path 603" d="M35,0C15.75,0,0,15.22,0,34v1H21V34c0-7.68,6.12-13,14-13Z" transform="translate(0)" style="fill:#14bee1"/><path id="Path_663" data-name="Path 663" d="M94,70c19.25,0,35-15.22,35-34V35H108v1c0,7.68-6.12,13-14,13Z" transform="translate(0)" style="fill:#fb6128"/><path id="Path_662" data-name="Path 662" d="M129,35c0-19.25-15.22-35-34-35H94V21h1c7.68,0,13,6.13,13,14Z" transform="translate(0)" style="fill:#fb8153"/><path id="Path_664" data-name="Path 664" d="M0,35A35,35,0,0,1,35,70H0" transform="translate(0)" style="fill:#2956d1;opacity:0.6620000004768372;isolation:isolate"/></g></svg>
