<?xml version="1.0" standalone="no"?>
<!DOCTYPE svg PUBLIC "-//W3C//DTD SVG 20010904//EN"
 "http://www.w3.org/TR/2001/REC-SVG-20010904/DTD/svg10.dtd">
<svg version="1.0" xmlns="http://www.w3.org/2000/svg"
 width="512.000000pt" height="512.000000pt" viewBox="0 0 512.000000 512.000000"
 preserveAspectRatio="xMidYMid meet">
<metadata>
Created by potrace 1.11, written by Peter Selinger 2001-2013
</metadata>
<g transform="translate(0.000000,512.000000) scale(0.100000,-0.100000)"
fill="#000000" stroke="none">
<path d="M1402 3714 c-623 -624 -1132 -1138 -1132 -1142 0 -4 162 -169 360
-367 l361 -360 1136 1139 1136 1138 -364 364 c-200 200 -364 364 -365 364 0 0
-510 -511 -1132 -1136z"/>
<path d="M2191 2916 l-1144 -1144 367 -368 368 -369 1139 1143 c626 629 1139
1146 1139 1150 0 4 -163 170 -363 370 l-362 362 -1144 -1144z"/>
<path d="M2993 2120 c-620 -622 -1129 -1134 -1131 -1139 -1 -4 160 -170 358
-369 l361 -362 1132 1136 c623 624 1133 1137 1135 1139 4 3 -715 725 -722 725
-2 0 -512 -509 -1133 -1130z"/>
</g>
</svg>
