<svg xmlns="http://www.w3.org/2000/svg" viewBox="0 0 24 24"><title>Artboard 1</title><path d="M14.56,22H10.44a.52.52,0,0,1-.51-.42l-.39-2.65a7.57,7.57,0,0,1-1.73-1L5.25,19a.57.57,0,0,1-.18,0,.52.52,0,0,1-.45-.25L2.56,15.26a.51.51,0,0,1,.13-.64L4.86,13a5.61,5.61,0,0,1,0-2L2.7,9.38a.49.49,0,0,1-.13-.64L4.63,5.28a.52.52,0,0,1,.63-.23l2.56,1a7.75,7.75,0,0,1,1.73-1l.39-2.65a.51.51,0,0,1,.5-.43h4.12a.51.51,0,0,1,.51.43l.39,2.64a7.57,7.57,0,0,1,1.73,1l2.56-1,.18,0a.52.52,0,0,1,.45.25l2.06,3.47a.51.51,0,0,1-.13.63L20.14,11a6.46,6.46,0,0,1,.07,1,8.06,8.06,0,0,1-.06,1l2.15,1.64a.49.49,0,0,1,.13.64l-2.06,3.47a.52.52,0,0,1-.63.22l-2.56-1a7.18,7.18,0,0,1-1.73,1l-.39,2.65A.48.48,0,0,1,14.56,22ZM12.5,8.25A3.81,3.81,0,0,0,8.64,12a3.86,3.86,0,0,0,7.72,0A3.81,3.81,0,0,0,12.5,8.25Z" style="fill:#3a5161"/></svg>